<?xml version="1.0" encoding="utf-8"?>
<!-- Generator: Adobe Illustrator 26.0.1, SVG Export Plug-In . SVG Version: 6.00 Build 0)  -->
<svg version="1.1" id="Layer_1" xmlns="http://www.w3.org/2000/svg" xmlns:xlink="http://www.w3.org/1999/xlink" x="0px" y="0px"
	 viewBox="0 0 10 43" style="enable-background:new 0 0 10 43;" xml:space="preserve">
<style type="text/css">
	.st0{fill:#7B1FA2;}
</style>
<path class="st0" d="M7.1,37.1c0-1.7-1.7-2.5-3.1-3.2c-1.4-0.7-2.2-1.1-2.2-2s0.9-1.3,2.2-2c1.4-0.7,3.1-1.5,3.1-3.2
	c0-1.7-1.7-2.5-3.1-3.2c-1.4-0.7-2.2-1.1-2.2-2s0.9-1.3,2.2-2c1.4-0.7,3.1-1.5,3.1-3.2S5.4,13.8,4,13.1c-1.4-0.7-2.2-1.1-2.2-2
	s0.9-1.3,2.2-2c1.4-0.7,3.1-1.5,3.1-3.2S5.4,3.4,4,2.7s-2.2-1.1-2.2-2C1.7,0.2,1.2-0.1,0.7,0C0.3,0.1,0.1,0.4,0,0.7
	c0,1.7,1.7,2.5,3.1,3.2c1.4,0.7,2.2,1.1,2.2,2s-0.9,1.3-2.2,2C1.7,8.6,0,9.4,0,11.1s1.7,2.5,3.1,3.2c1.4,0.7,2.2,1.1,2.2,2
	c0,0.9-0.9,1.3-2.2,2C1.7,19,0,19.8,0,21.5c0,1.7,1.7,2.5,3.1,3.2c1.4,0.7,2.2,1.1,2.2,2s-0.9,1.3-2.2,2C1.7,29.4,0,30.2,0,31.9
	c0,1.7,1.7,2.5,3.1,3.2c1.4,0.7,2.2,1.1,2.2,2s-0.9,1.3-2.2,2C1.7,39.8,0,40.6,0,42.3c0.1,0.5,0.6,0.8,1.1,0.7
	c0.3-0.1,0.6-0.3,0.7-0.7c0-0.9,0.9-1.3,2.2-2C5.4,39.6,7.1,38.8,7.1,37.1z"/>
</svg>
