<svg xmlns="http://www.w3.org/2000/svg" width="80.713" height="56.399" viewBox="0 0 80.713 56.399"><path d="M115.581,81.583c3.175,0,4.742-2.534,6-4.571,1.275-2.061,2.139-3.324,3.764-3.324s2.488,1.263,3.76,3.324c1.259,2.037,2.826,4.571,6,4.571s4.742-2.534,6-4.571c1.274-2.061,2.137-3.324,3.761-3.324s2.486,1.263,3.76,3.324c1.259,2.037,2.826,4.571,6,4.571s4.74-2.536,6-4.573c1.274-2.06,2.136-3.323,3.758-3.323s2.485,1.263,3.758,3.323c1.259,2.039,2.824,4.573,6,4.573s4.739-2.534,6-4.573c1.274-2.06,2.136-3.323,3.758-3.323a1.316,1.316,0,1,0,0-2.631c-3.172,0-4.739,2.534-6,4.571-1.272,2.061-2.136,3.324-3.758,3.324s-2.485-1.263-3.758-3.324c-1.259-2.037-2.826-4.571-6-4.571s-4.739,2.534-6,4.571c-1.274,2.061-2.136,3.324-3.76,3.324s-2.486-1.263-3.76-3.324c-1.259-2.037-2.826-4.571-6-4.571s-4.74,2.534-6,4.571c-1.272,2.061-2.136,3.324-3.761,3.324s-2.486-1.263-3.76-3.324c-1.257-2.037-2.826-4.571-6-4.571s-4.743,2.534-6,4.571c-1.275,2.061-2.139,3.324-3.763,3.324s-2.489-1.263-3.764-3.324c-1.259-2.037-2.827-4.571-6-4.571a1.316,1.316,0,0,0,0,2.631c1.626,0,2.489,1.263,3.764,3.324C110.838,79.049,112.405,81.583,115.581,81.583Z" transform="translate(-104.499 -71.056)" fill="#7b1fa2"/><path d="M115.581,89.246c3.175,0,4.742-2.536,6-4.571,1.275-2.063,2.139-3.326,3.764-3.326s2.488,1.263,3.76,3.324c1.259,2.037,2.826,4.573,6,4.573s4.742-2.536,6-4.573c1.274-2.061,2.137-3.324,3.761-3.324s2.486,1.263,3.76,3.324c1.259,2.037,2.826,4.573,6,4.573s4.74-2.537,6-4.573c1.274-2.061,2.136-3.324,3.758-3.324s2.485,1.263,3.758,3.324c1.259,2.037,2.824,4.573,6,4.573s4.739-2.536,6-4.573c1.274-2.061,2.136-3.324,3.758-3.324a1.316,1.316,0,1,0,0-2.631c-3.172,0-4.739,2.536-6,4.573-1.272,2.06-2.136,3.323-3.758,3.323s-2.485-1.263-3.758-3.323c-1.259-2.037-2.826-4.573-6-4.573s-4.739,2.536-6,4.573c-1.274,2.06-2.136,3.323-3.76,3.323s-2.486-1.263-3.76-3.323c-1.259-2.037-2.826-4.573-6-4.573s-4.74,2.536-6,4.573c-1.272,2.06-2.136,3.323-3.761,3.323s-2.486-1.263-3.76-3.323c-1.257-2.037-2.826-4.573-6-4.573s-4.743,2.536-6,4.573c-1.275,2.06-2.139,3.323-3.763,3.323s-2.489-1.263-3.764-3.323c-1.259-2.037-2.827-4.573-6-4.573a1.316,1.316,0,0,0,0,2.631c1.626,0,2.489,1.263,3.764,3.324C110.838,86.711,112.405,89.246,115.581,89.246Z" transform="translate(-104.499 -67.25)" fill="#7b1fa2"/><path d="M115.581,96.907c3.175,0,4.742-2.534,6-4.571,1.275-2.061,2.139-3.324,3.764-3.324s2.488,1.263,3.76,3.324c1.259,2.037,2.826,4.571,6,4.571s4.742-2.534,6-4.571c1.274-2.061,2.137-3.324,3.761-3.324s2.486,1.263,3.76,3.324c1.259,2.037,2.826,4.571,6,4.571s4.74-2.534,6-4.571c1.274-2.061,2.136-3.324,3.758-3.324s2.485,1.263,3.758,3.324c1.259,2.037,2.824,4.571,6,4.571s4.739-2.534,6-4.571c1.274-2.061,2.136-3.324,3.758-3.324a1.316,1.316,0,1,0,0-2.631c-3.172,0-4.739,2.536-6,4.573-1.272,2.06-2.136,3.323-3.758,3.323s-2.485-1.263-3.758-3.323c-1.259-2.037-2.826-4.573-6-4.573s-4.739,2.536-6,4.571c-1.274,2.061-2.136,3.324-3.76,3.324s-2.486-1.263-3.76-3.324c-1.259-2.036-2.826-4.571-6-4.571s-4.74,2.536-6,4.571c-1.272,2.061-2.136,3.324-3.761,3.324s-2.486-1.263-3.76-3.324c-1.257-2.036-2.826-4.571-6-4.571s-4.743,2.536-6,4.571c-1.275,2.061-2.139,3.324-3.763,3.324s-2.489-1.263-3.764-3.324c-1.259-2.036-2.827-4.571-6-4.571a1.316,1.316,0,0,0,0,2.631c1.626,0,2.489,1.263,3.764,3.324C110.838,94.373,112.405,96.907,115.581,96.907Z" transform="translate(-104.499 -63.443)" fill="#7b1fa2"/><path d="M115.581,96.907c3.175,0,4.742-2.534,6-4.571,1.275-2.061,2.139-3.324,3.764-3.324s2.488,1.263,3.76,3.324c1.259,2.037,2.826,4.571,6,4.571s4.742-2.534,6-4.571c1.274-2.061,2.137-3.324,3.761-3.324s2.486,1.263,3.76,3.324c1.259,2.037,2.826,4.571,6,4.571s4.74-2.534,6-4.571c1.274-2.061,2.136-3.324,3.758-3.324s2.485,1.263,3.758,3.324c1.259,2.037,2.824,4.571,6,4.571s4.739-2.534,6-4.571c1.274-2.061,2.136-3.324,3.758-3.324a1.316,1.316,0,1,0,0-2.631c-3.172,0-4.739,2.536-6,4.573-1.272,2.06-2.136,3.323-3.758,3.323s-2.485-1.263-3.758-3.323c-1.259-2.037-2.826-4.573-6-4.573s-4.739,2.536-6,4.571c-1.274,2.061-2.136,3.324-3.76,3.324s-2.486-1.263-3.76-3.324c-1.259-2.036-2.826-4.571-6-4.571s-4.74,2.536-6,4.571c-1.272,2.061-2.136,3.324-3.761,3.324s-2.486-1.263-3.76-3.324c-1.257-2.036-2.826-4.571-6-4.571s-4.743,2.536-6,4.571c-1.275,2.061-2.139,3.324-3.763,3.324s-2.489-1.263-3.764-3.324c-1.259-2.036-2.827-4.571-6-4.571a1.316,1.316,0,0,0,0,2.631c1.626,0,2.489,1.263,3.764,3.324C110.838,94.373,112.405,96.907,115.581,96.907Z" transform="translate(-104.499 -51.975)" fill="#7b1fa2"/><path d="M115.581,96.907c3.175,0,4.742-2.534,6-4.571,1.275-2.061,2.139-3.324,3.764-3.324s2.488,1.263,3.76,3.324c1.259,2.037,2.826,4.571,6,4.571s4.742-2.534,6-4.571c1.274-2.061,2.137-3.324,3.761-3.324s2.486,1.263,3.76,3.324c1.259,2.037,2.826,4.571,6,4.571s4.74-2.534,6-4.571c1.274-2.061,2.136-3.324,3.758-3.324s2.485,1.263,3.758,3.324c1.259,2.037,2.824,4.571,6,4.571s4.739-2.534,6-4.571c1.274-2.061,2.136-3.324,3.758-3.324a1.316,1.316,0,1,0,0-2.631c-3.172,0-4.739,2.536-6,4.573-1.272,2.06-2.136,3.323-3.758,3.323s-2.485-1.263-3.758-3.323c-1.259-2.037-2.826-4.573-6-4.573s-4.739,2.536-6,4.571c-1.274,2.061-2.136,3.324-3.76,3.324s-2.486-1.263-3.76-3.324c-1.259-2.036-2.826-4.571-6-4.571s-4.74,2.536-6,4.571c-1.272,2.061-2.136,3.324-3.761,3.324s-2.486-1.263-3.76-3.324c-1.257-2.036-2.826-4.571-6-4.571s-4.743,2.536-6,4.571c-1.275,2.061-2.139,3.324-3.763,3.324s-2.489-1.263-3.764-3.324c-1.259-2.036-2.827-4.571-6-4.571a1.316,1.316,0,0,0,0,2.631c1.626,0,2.489,1.263,3.764,3.324C110.838,94.373,112.405,96.907,115.581,96.907Z" transform="translate(-104.499 -40.508)" fill="#7b1fa2"/></svg>