<svg xmlns="http://www.w3.org/2000/svg" width="56.923" height="56.923" viewBox="0 0 56.923 56.923"><g transform="translate(-324 -9178)"><circle cx="28.461" cy="28.461" r="28.461" transform="translate(324 9178)" fill="#fff"/><g transform="translate(-2421.605 6666.821)"><g transform="translate(2758.606 2522.435)"><path d="M2775.134,2556.846h-13.57a.284.284,0,0,0-.081-.052,3.432,3.432,0,0,1-2.875-3.589c0-2.418-.007-4.836,0-7.254a9.748,9.748,0,0,1,6.36-9.132c.087-.033.172-.073.282-.121a7.467,7.467,0,0,1,5.375-13.9,7.147,7.147,0,0,1,4.093,3.239,7.44,7.44,0,0,1,.265,7.3h2.547c0-.389,0-.734,0-1.08a1.687,1.687,0,0,1,1.738-1.778q2.266-.032,4.533,0a1.7,1.7,0,0,1,1.747,1.806c0,.343,0,.686,0,1.052h.407q2.568,0,5.137,0a2.739,2.739,0,0,1,.467.03,1.8,1.8,0,0,1,1.443,1.375v14.984a1.955,1.955,0,0,1-2.155,1.4c-4.1-.026-8.209-.011-12.314-.011h-.443c0,.826.024,1.6-.005,2.366a3.323,3.323,0,0,1-1.951,3.017A7.674,7.674,0,0,1,2775.134,2556.846Zm-.475-26.925a6.308,6.308,0,1,0-6.322,6.287A6.314,6.314,0,0,0,2774.66,2529.921Zm9.165,11.448c0,.625.019,1.2,0,1.763a1.7,1.7,0,0,1-1.708,1.675c-.313.01-.627,0-.94,0a1.758,1.758,0,0,1-1.931-1.939c0-.489,0-.979,0-1.478h-2.26c.052.121.087.213.13.3a8.264,8.264,0,0,1,.914,3.238c.067,1.441.051,2.885.07,4.328,0,.221,0,.443,0,.687.126.009.224.022.322.022q6.345,0,12.691,0c.553,0,.751-.2.751-.748q0-4.214,0-8.428c0-.082-.015-.163-.025-.26a3.824,3.824,0,0,1-2.79.836h-5.219Zm-12.346-4.695c.579.278,1.142.5,1.659.808a2.529,2.529,0,0,0,1.5.454c.464-.03.688.371.549.811a.411.411,0,0,0,.067.327c.23.288.507.54.723.838a.694.694,0,0,0,.639.316q6.328-.015,12.655-.007c.123,0,.247,0,.369-.008a2.285,2.285,0,0,0,2.224-2.348c.006-.884,0-1.768,0-2.652,0-.528-.2-.732-.733-.732q-8.325,0-16.65.008a.622.622,0,0,0-.415.2,7.832,7.832,0,0,1-2.354,1.862C2771.631,2536.584,2771.559,2536.629,2771.479,2536.675Zm2.054,19.026c.39,0,.736,0,1.081,0a2.285,2.285,0,0,0,2.335-2.339c.006-2.5.013-4.991,0-7.486a8.313,8.313,0,0,0-1.938-5.346c-.391-.476-.856-.892-1.287-1.335l-.1.055-2.28,11.855A2.9,2.9,0,0,1,2773.532,2555.7Zm-7.872-17.96c-.584.282-1.092.535-1.606.773a.466.466,0,0,0-.288.5q.011,8.159.006,16.318v.353h3.936C2767.028,2549.718,2766.35,2543.778,2765.661,2537.741Zm-3.049,14.517a5.759,5.759,0,0,1-.6,0,.553.553,0,0,1-.524-.586.543.543,0,0,1,.561-.545c.185-.01.37,0,.557,0v-11.482c-.045.013-.07.013-.085.026-.06.051-.118.1-.174.158a8.244,8.244,0,0,0-2.571,5.8c-.063,2.605-.031,5.214-.013,7.82a2.317,2.317,0,0,0,2.852,2.209Zm8.829-14.335c-.058.154-.1.255-.135.359-1.056,3.051-2.106,6.1-3.174,9.152a2.132,2.132,0,0,0-.1,1.016c.048.365.084.733.128,1.1.062.517.126,1.035.191,1.57.52,0,1-.013,1.48.006.258.01.371-.056.414-.333.114-.729.268-1.451.408-2.176q.951-4.938,1.908-9.876c.036-.183.01-.293-.169-.371C2772.083,2538.233,2771.784,2538.084,2771.441,2537.922Zm-4.652-.416q.435,3.807.868,7.607l.072,0,2.6-7.518A8.17,8.17,0,0,0,2766.789,2537.506Zm2.077,18.191c.854,0,1.659.026,2.463-.007a1.712,1.712,0,0,0-.054-3.419c-.817-.017-1.633-.006-2.45-.005-.108,0-.217.01-.349.015C2768.607,2553.43,2768.735,2554.549,2768.866,2555.7Zm15.539-22.38c0-.337,0-.659,0-.98,0-.514-.194-.712-.706-.716-.783-.006-1.565,0-2.348,0-.671,0-1.341,0-2.012,0-.379,0-.619.159-.64.457-.029.407-.007.817-.007,1.238Zm-1.731,8.083h-2.286c0,.577-.011,1.123,0,1.668a.557.557,0,0,0,.566.587,10.537,10.537,0,0,0,1.172,0,.522.522,0,0,0,.54-.532C2782.685,2542.555,2782.674,2541.987,2782.674,2541.4Z" transform="translate(-2758.606 -2522.436)" fill="#7b1fa2"/><path d="M2889.654,2682.773q-.853,0-.85-.578c0-.386.28-.573.854-.573s.856.178.867.561S2890.248,2682.774,2889.654,2682.773Z" transform="translate(-2868.164 -2656.387)" fill="#7b1fa2"/><path d="M2943.886,2682.759c-.056,0-.112,0-.168,0-.417-.016-.68-.247-.671-.588s.259-.546.664-.56a3.96,3.96,0,0,1,.5.008.566.566,0,0,1,.007,1.132,3,3,0,0,1-.334,0Z" transform="translate(-2913.81 -2656.374)" fill="#7b1fa2"/><path d="M2907.8,2681.581a3.512,3.512,0,0,1,.366.027.536.536,0,0,1,.469.561.517.517,0,0,1-.479.549,3.327,3.327,0,0,1-.667.012.554.554,0,0,1-.555-.555.562.562,0,0,1,.565-.581c.1-.009.2,0,.3,0Z" transform="translate(-2883.418 -2656.353)" fill="#7b1fa2"/><path d="M2925.9,2681.636a2.465,2.465,0,0,1,.3,0,.555.555,0,0,1,.531.577.547.547,0,0,1-.523.549,3.561,3.561,0,0,1-.6.008.57.57,0,1,1-.008-1.14c.1-.009.2,0,.3,0Z" transform="translate(-2898.65 -2656.392)" fill="#7b1fa2"/><path d="M2953.935,2668.006c0-.568.191-.85.576-.842s.567.288.567.862a2.88,2.88,0,0,1,0,.3.584.584,0,0,1-.6.555.571.571,0,0,1-.539-.575C2953.93,2668.207,2953.935,2668.107,2953.935,2668.006Z" transform="translate(-2922.97 -2644.221)" fill="#7b1fa2"/><path d="M2953.934,2650c0-.1-.006-.2,0-.3a.544.544,0,0,1,.524-.546.554.554,0,0,1,.607.5,3.594,3.594,0,0,1,.008.6.566.566,0,0,1-.583.6.557.557,0,0,1-.558-.617c0-.078,0-.156,0-.235Z" transform="translate(-2922.968 -2629.061)" fill="#7b1fa2"/><path d="M2953.936,2606.523c0-.574.184-.853.567-.852s.576.286.576.853a2.734,2.734,0,0,1-.007.335.585.585,0,0,1-.587.533.573.573,0,0,1-.548-.568C2953.931,2606.724,2953.936,2606.623,2953.936,2606.523Z" transform="translate(-2922.97 -2592.476)" fill="#7b1fa2"/><path d="M2889.661,2621.26c-.577.009-.853-.174-.856-.558s.281-.583.847-.582a2.351,2.351,0,0,1,.367.015.573.573,0,0,1,.507.573.565.565,0,0,1-.529.549A2.945,2.945,0,0,1,2889.661,2621.26Z" transform="translate(-2868.165 -2604.635)" fill="#7b1fa2"/><path d="M2943.916,2621.266c-.583,0-.856-.175-.867-.557s.28-.592.871-.592q.851,0,.85.579C2944.768,2621.081,2944.491,2621.266,2943.916,2621.266Z" transform="translate(-2913.81 -2604.632)" fill="#7b1fa2"/><path d="M2871.641,2621.24a2.991,2.991,0,0,1-.334,0,.563.563,0,0,1-.015-1.121,3.314,3.314,0,0,1,.634-.009.569.569,0,1,1-.017,1.138c-.089.007-.178,0-.267,0Z" transform="translate(-2853.007 -2604.615)" fill="#7b1fa2"/><path d="M2907.775,2621.261c-.586.007-.843-.168-.842-.566s.268-.576.845-.575a2.351,2.351,0,0,1,.367.017.564.564,0,0,1-.036,1.122A3.177,3.177,0,0,1,2907.775,2621.261Z" transform="translate(-2883.42 -2604.635)" fill="#7b1fa2"/><path d="M2925.9,2621.28c-.122-.006-.246,0-.367-.019a.538.538,0,0,1-.489-.542.513.513,0,0,1,.459-.565,3.006,3.006,0,0,1,.765,0,.56.56,0,0,1-.033,1.112C2926.124,2621.278,2926.012,2621.275,2925.9,2621.28Z" transform="translate(-2898.66 -2604.642)" fill="#7b1fa2"/></g></g></g></svg>