<svg xmlns="http://www.w3.org/2000/svg" width="56.923" height="56.923" viewBox="0 0 56.923 56.923"><g transform="translate(-933.215 -3290.078)"><g transform="translate(609.215 -5887.922)"><circle cx="28.461" cy="28.461" r="28.461" transform="translate(324 9178)" fill="#fff"/></g><g transform="translate(-749.948 964.887)"><g transform="translate(1690.059 2338.788)"><path d="M1733.838,2356.819a19.843,19.843,0,0,1-.83,2.627,7.471,7.471,0,0,1-8.085,4.025,7.527,7.527,0,0,1,1.288-14.921c.338-.009.678.035,1.168.063a25.8,25.8,0,0,0-1.008-2.6,9.829,9.829,0,0,0-10.79-5.337,9.262,9.262,0,0,0-4.848,2.544c-1.023.988-1.178.993-2.187.008a9.8,9.8,0,0,0-14.073.5,10.406,10.406,0,0,0-2.695,6.54,9.033,9.033,0,0,0,1.248,4.684.441.441,0,0,0,.338.165c2.494.009,4.989,0,7.483.015.318,0,.332-.2.389-.4q.949-3.3,1.9-6.6a2.424,2.424,0,0,1,.188-.52.834.834,0,0,1,1.445-.016,2,2,0,0,1,.173.434q1.963,6.272,3.922,12.546c.042.133.089.264.176.521.082-.244.131-.38.174-.518q.708-2.26,1.415-4.521c.21-.669.451-.846,1.146-.848q1.967,0,3.934,0a1.99,1.99,0,0,1,.3.016.869.869,0,0,1,.805.888.843.843,0,0,1-.891.8c-.983.016-1.967.006-2.95.007h-.813c-.155.489-.312.97-.463,1.454q-.871,2.791-1.739,5.583c-.03.095-.057.191-.093.284a.843.843,0,0,1-.831.617.828.828,0,0,1-.821-.63c-.246-.743-.471-1.492-.7-2.24l-3.253-10.43c-.038-.122-.08-.242-.165-.5-.084.26-.135.408-.179.559-.422,1.463-.84,2.926-1.264,4.388-.19.656-.415.823-1.1.824q-3.442,0-6.884,0h-.471c1.249,2.839,11.4,13.137,15.482,15.73.978-.807,1.981-1.6,2.948-2.441,1.292-1.12,2.555-2.274,3.832-3.411a2.6,2.6,0,0,1,.368-.29.834.834,0,0,1,1.118,1.183,1.437,1.437,0,0,1-.254.286q-3.693,3.178-7.393,6.349a.866.866,0,0,1-1.306,0,92.445,92.445,0,0,1-13.55-12.816c-1.12-1.34-2.085-2.812-3.1-4.238-.174-.245-.328-.4-.643-.359a4.535,4.535,0,0,1-.726,0,.843.843,0,0,1-.145-1.68c.109-.023.219-.041.334-.062-2.715-5.187.069-11.427,3.867-14.149a11.685,11.685,0,0,1,14.6.884c.688-.486,1.339-1.025,2.06-1.443a11.593,11.593,0,0,1,17.057,6.989c.125.452.191.92.325,1.369a.814.814,0,0,0,.337.471,7.529,7.529,0,0,1,4.382,5.962c.006.038.04.071.062.107Zm-7.542,5.059a5.812,5.812,0,1,0-5.8-5.832A5.815,5.815,0,0,0,1726.3,2361.879Z" transform="translate(-1690.059 -2338.788)" fill="#7b1fa2"/><path d="M1800.293,2434.708a.9.9,0,0,1-.883.861.846.846,0,0,1-.83-.851.9.9,0,0,1,.875-.867A.882.882,0,0,1,1800.293,2434.708Z" transform="translate(-1769.862 -2408.694)" fill="#7b1fa2"/><path d="M1816.9,2393.932c0,.729.024,1.411-.012,2.09a1.5,1.5,0,0,1-.265.777.717.717,0,0,1-.893.191.831.831,0,0,1-.534-.8c-.013-.584-.005-1.169-.006-1.753v-.5c-.757,0-1.466.008-2.175,0a.829.829,0,0,1-.918-.708c-.087-.572.278-.972.938-.995.527-.018,1.054,0,1.582,0h.573c0-.584,0-1.148,0-1.713,0-.185-.01-.372.006-.555a.842.842,0,0,1,.853-.836.828.828,0,0,1,.842.844c.024.626.008,1.254.009,1.881,0,.111,0,.221,0,.379.7,0,1.37-.019,2.035.01a1.664,1.664,0,0,1,.759.211.726.726,0,0,1,.281.87.755.755,0,0,1-.738.6c-.612.022-1.225.013-1.838.016Z" transform="translate(-1779.794 -2375.798)" fill="#7b1fa2"/></g></g></g></svg>