<svg xmlns="http://www.w3.org/2000/svg" width="63" height="63" viewBox="0 0 63 63"><g transform="translate(-246 -8027)"><path d="M31.5,0A31.5,31.5,0,1,1,0,31.5,31.5,31.5,0,0,1,31.5,0Z" transform="translate(246 8027)" fill="#7b1fa2"/><g transform="translate(-1649.73 5471.54)"><path d="M1907.328,2598.989a20.234,20.234,0,0,1,.472-2.376,11.771,11.771,0,0,1,9.929-8.591c.806-.132,1.636-.125,2.467-.183.1-.291,0-.479-.267-.678a6.7,6.7,0,0,1-2.852-5.45c-.03-1.1-.005-2.2-.005-3.307-.312-.075-.595-.134-.873-.212-.3-.085-.565-.286-.56-.6a21.006,21.006,0,0,1,.162-3.48,4.6,4.6,0,0,1,3.853-3.527.7.7,0,0,0,.453-.255,5.607,5.607,0,0,1,6.129-2.731,7.579,7.579,0,0,1,6.263,7.566c0,.761,0,1.522,0,2.283,0,.729-.263.992-.98,1-.238,0-.475,0-.807,0v4.725h.525c1.332,0,2.664-.006,4,0a.764.764,0,1,1,.035,1.521c-.723,0-1.446,0-2.169,0h-8.523a2.594,2.594,0,0,0-2.821,2.814q0,5.479,0,10.958a2.589,2.589,0,0,0,2.822,2.809h17.388a2.591,2.591,0,0,0,2.807-2.79q0-5.517,0-11.034a2.585,2.585,0,0,0-2.538-2.757.773.773,0,0,1-.8-.787.794.794,0,0,1,.894-.73,4.1,4.1,0,0,1,3.961,4.147q.018,4.889,0,9.778a17.071,17.071,0,0,1-.077,2.276,4.03,4.03,0,0,1-3.822,3.408c-.645.024-1.292,0-1.863,0l-1.036,2.124c.468.065,1.164-.163,1.349.637.1.431-.181.675-.484.9h-29.072a2.43,2.43,0,0,0-.244-.079,4.42,4.42,0,0,1-3.075-2.2,11.808,11.808,0,0,1-.638-1.682Zm12.993,1.066c-.031-.948-.081-1.855-.086-2.762-.012-2.473,0-4.946,0-7.419v-.411c-.642,0-1.227-.037-1.805.006a10.5,10.5,0,0,0-9.287,7.97,18.22,18.22,0,0,0-.288,4.237,3.049,3.049,0,0,0,3.23,3.249q3.862,0,7.723,0c.133,0,.266-.011.406-.018v-3.33h-4.883c-.7,0-1.058-.246-1.071-.742s.357-.78,1.071-.78Zm10.652-23.156c0-.687.02-1.332,0-1.977a6.053,6.053,0,0,0-6.215-5.914,3.956,3.956,0,0,0,.175,7.908c1.914.018,3.828,0,5.742,0C1930.758,2576.92,1930.844,2576.908,1930.973,2576.9Zm-12.381,1.484c0,1.052-.016,2.079.007,3.1a6.811,6.811,0,0,0,.157,1.393,5.109,5.109,0,0,0,1.768,2.825c.076-.143.134-.255.194-.364a3.988,3.988,0,0,1,2.769-2.071,7.178,7.178,0,0,1,1.4-.1c1.368-.012,2.736,0,4.135,0a23.782,23.782,0,0,0,.237-4.725h-.469c-1.306,0-2.612.006-3.918,0a5.372,5.372,0,0,1-3.22-1.088c-.088-.065-.182-.124-.272-.184A5.846,5.846,0,0,1,1918.592,2578.383Zm1.783-2.356a5.655,5.655,0,0,1-.894-3.823,3.079,3.079,0,0,0-2.242,2.352,20.267,20.267,0,0,0-.138,2.29A4.21,4.21,0,0,0,1920.375,2576.027Zm9.905,26.788h-4.767l.448,2.084h4.319Zm1.557,2.09h2.853v-2.085h-2.853Zm-10.051-2.08v2.079h2.513C1924.528,2603.449,1923.541,2602.632,1921.786,2602.825Zm14.469,2.056a2.8,2.8,0,0,0,2.524-2.061h-2.524Z" transform="translate(0 0)" fill="#fff"/><path d="M1985.263,2646.853a2.827,2.827,0,1,1,2.828-2.831A2.82,2.82,0,0,1,1985.263,2646.853Zm.013-4.132a1.3,1.3,0,1,0,1.293,1.313A1.295,1.295,0,0,0,1985.275,2642.721Z" transform="translate(-51.996 -51.043)" fill="#fff"/><path d="M2007.793,2618.5a.774.774,0,0,1,.754.785.759.759,0,0,1-1.517-.046A.778.778,0,0,1,2007.793,2618.5Z" transform="translate(-69.028 -35.329)" fill="#fff"/><path d="M1951.335,2608.946a.738.738,0,0,1,.776-.716.751.751,0,1,1-.068,1.5A.742.742,0,0,1,1951.335,2608.946Z" transform="translate(-30.468 -28.217)" fill="#fff"/><path d="M1966.672,2608.945a.738.738,0,0,1,.777-.715.751.751,0,1,1-.07,1.5A.742.742,0,0,1,1966.672,2608.945Z" transform="translate(-41.086 -28.217)" fill="#fff"/></g></g></svg>