<svg xmlns="http://www.w3.org/2000/svg" width="63" height="63" viewBox="0 0 63 63"><g transform="translate(-246 -8027)"><path d="M31.5,0A31.5,31.5,0,1,1,0,31.5,31.5,31.5,0,0,1,31.5,0Z" transform="translate(246 8027)" fill="#7b1fa2"/><g transform="translate(-2018.85 4781.791)"><g transform="translate(2280.753 3257.279)"><path d="M2299.154,3257.279c.569.12,1.149.2,1.705.366a8.975,8.975,0,0,1,6.462,8.468c.015.74.006,1.48,0,2.221a1.5,1.5,0,0,0,.992,1.484c.262.113.53.211.79.328a2.824,2.824,0,0,1,1.62,3.405c-.187.688-.4,1.369-.6,2.053a1.531,1.531,0,0,0,.276,1.466c.3.377.6.749.9,1.128a2.847,2.847,0,0,1-.171,3.8,1.519,1.519,0,0,0-.16,2.2,2.836,2.836,0,0,1-.32,3.852c-.448.452-.907.893-1.342,1.357a.44.44,0,0,0-.077.386,7.528,7.528,0,0,1,.59,3.112c-.008,1.091,0,2.182,0,3.272,0,.1,0,.208,0,.312a.682.682,0,0,1-.664.68.654.654,0,0,1-.658-.712c-.008-1.259,0-2.519,0-3.779a5.432,5.432,0,0,0-.454-2.273,5.49,5.49,0,0,0-4.238-3.295c-.309-.056-.425.032-.508.328q-1.276,4.509-2.576,9.011c-.025.087-.047.176-.08.26a.658.658,0,0,1-.8.435.633.633,0,0,1-.455-.789c.207-.8.441-1.6.67-2.4.664-2.317,1.33-4.633,2-6.981-.1-.038-.195-.075-.287-.1a4.066,4.066,0,0,1-2.232-1.665.691.691,0,0,1,.108-1.027.677.677,0,0,1,.971.256,2.854,2.854,0,0,0,2.441,1.285,6.748,6.748,0,0,1,5.172,2.47c.05.059.1.116.206.234a19.217,19.217,0,0,0,1.6-1.743,1.4,1.4,0,0,0-.151-1.736,2.7,2.7,0,0,1-.5-2.568,3.789,3.789,0,0,1,.73-1.216,1.568,1.568,0,0,0,.089-2.21c-.272-.347-.549-.692-.823-1.038a2.859,2.859,0,0,1-.519-2.712c.18-.623.37-1.243.551-1.865a1.5,1.5,0,0,0-.982-2.027,3.17,3.17,0,0,1-2.44-3.655,10.1,10.1,0,0,0-.412-3.886,7.642,7.642,0,0,0-7.134-5.156c-1.687-.012-3.382-.059-5.059.083a7.544,7.544,0,0,0-6.616,6.725c-.073.93-.055,1.868-.063,2.8a2.838,2.838,0,0,1-1.917,2.864c-.24.1-.482.191-.717.3a1.469,1.469,0,0,0-.827,1.742c.182.689.393,1.371.594,2.054a2.883,2.883,0,0,1-.527,2.748c-.29.366-.588.727-.872,1.1a1.507,1.507,0,0,0,.1,2.053,2.822,2.822,0,0,1,.256,3.913,1.516,1.516,0,0,0,.168,2.081c.434.443.875.879,1.226,1.231.34-.288.652-.542.952-.809a6.844,6.844,0,0,1,4.574-1.782,2.785,2.785,0,0,0,2.8-2.463.56.56,0,0,0-.33-.674,8.759,8.759,0,0,1-4.622-6.472.693.693,0,0,1,.535-.889c.387-.069.7.2.778.682a7.58,7.58,0,0,0,8.051,6.384,7.5,7.5,0,0,0,6.89-6.522c.156-1.635.074-3.293.088-4.941a.334.334,0,0,0-.178-.243,7.39,7.39,0,0,1-3.6-3.082c-.111.117-.207.216-.3.318a17.556,17.556,0,0,1-11.9,5.734c-.129.01-.26.015-.389.013a.675.675,0,0,1-.732-.645c-.01-.373.278-.625.7-.686a31.753,31.753,0,0,0,3.565-.568,15.914,15.914,0,0,0,8.529-5.619,1.3,1.3,0,0,1,.645-.426c.308-.078.531.136.657.428a5.908,5.908,0,0,0,3.823,3.459.684.684,0,0,1,.526.723c-.006,1.662.029,3.325-.016,4.986a8.926,8.926,0,0,1-7.569,8.325,9.309,9.309,0,0,1-3.8-.264,4.277,4.277,0,0,1-1.538,2.867l2.364,1.834c.472.366.951.723,1.413,1.1a.331.331,0,0,0,.5,0c.657-.529,1.328-1.041,2-1.554.422-.323.8-.308,1.059.031s.155.71-.26,1.032c-.7.542-1.39,1.089-2.1,1.616a.644.644,0,0,0-.285.586c.012,1.363.006,2.727,0,4.09a2.195,2.195,0,0,1-.029.426.649.649,0,0,1-1.272.011,2.265,2.265,0,0,1-.031-.465c0-1.363-.007-2.727,0-4.09a.613.613,0,0,0-.276-.55q-2.027-1.549-4.034-3.123a.774.774,0,0,0-.7-.167c-.544.105-1.109.1-1.66.178a5.509,5.509,0,0,0-4.8,5.459c-.014,1.26,0,2.519,0,3.779,0,.527-.25.83-.664.826s-.667-.317-.662-.838c.013-1.506-.015-3.014.075-4.515a8.623,8.623,0,0,1,.514-1.982.376.376,0,0,0-.1-.466c-.469-.449-.926-.911-1.38-1.375a2.821,2.821,0,0,1-.307-3.73,1.551,1.551,0,0,0-.171-2.322,2.838,2.838,0,0,1-.185-3.65q.429-.578.9-1.129a1.66,1.66,0,0,0,.321-1.674q-.295-.947-.563-1.9a2.817,2.817,0,0,1,1.643-3.456c.273-.119.555-.219.825-.345a1.486,1.486,0,0,0,.921-1.413c.017-1.012-.012-2.028.067-3.035a8.966,8.966,0,0,1,7.268-7.9c.28-.047.558-.1.837-.154Z" transform="translate(-2280.753 -3257.279)" fill="#fff"/><path d="M2318.437,3381.4a.657.657,0,0,1-.512.683.613.613,0,0,1-.723-.323,1.636,1.636,0,0,1-.131-.364q-.932-3.287-1.86-6.574c-.007-.025-.01-.051-.017-.076-.147-.542-.006-.883.416-1,.4-.115.7.1.853.624.215.746.424,1.494.635,2.241q.629,2.223,1.257,4.445C2318.39,3381.178,2318.415,3381.305,2318.437,3381.4Z" transform="translate(-2305.835 -3342.214)" fill="#fff"/></g></g></g></svg>