<svg xmlns="http://www.w3.org/2000/svg" width="167.327" height="208.361" viewBox="0 0 167.327 208.361">
  <g id="t2-02" transform="translate(-284.032 -3457)">
    <g id="Group_137454" data-name="Group 137454" transform="translate(284.032 3457)">
      <g id="Group_137062" data-name="Group 137062" transform="translate(114.369 7.183)">
        <g id="Group_137061" data-name="Group 137061">
          <g id="Group_137054" data-name="Group 137054" transform="translate(1.494)">
            <g id="Group_137053" data-name="Group 137053">
              <path id="Path_151857" data-name="Path 151857" d="M463.468,241.178a14.329,14.329,0,1,1-11.252-16.855A14.329,14.329,0,0,1,463.468,241.178Z" transform="translate(-435.082 -224.045)" fill="#7b1fa2"/>
            </g>
          </g>
          <g id="Group_137056" data-name="Group 137056" transform="translate(8.504 9.008)">
            <g id="Group_137055" data-name="Group 137055">
              <path id="Path_151858" data-name="Path 151858" d="M446.462,246.6a1.427,1.427,0,0,1-.278-.028,1.387,1.387,0,0,1-.956-.727l-1.6-3.118a1.386,1.386,0,1,1,2.468-1.263l.806,1.577,9.474-7.885a1.386,1.386,0,0,1,1.773,2.131l-10.806,8.992A1.382,1.382,0,0,1,446.462,246.6Z" transform="translate(-443.48 -234.836)" fill="#7b1fa2"/>
            </g>
          </g>
          <g id="Group_137058" data-name="Group 137058" transform="translate(14.858 18.596)">
            <g id="Group_137057" data-name="Group 137057">
              <path id="Path_151859" data-name="Path 151859" d="M467.878,246.322a.357.357,0,0,1,.345.448,15.867,15.867,0,0,1-16.793,11.779.369.369,0,0,1-.336-.312.354.354,0,0,1,.384-.4,15.155,15.155,0,0,0,16.056-11.25.356.356,0,0,1,.344-.268Z" transform="translate(-451.092 -246.322)" fill="#7b1fa2"/>
            </g>
          </g>
          <g id="Group_137060" data-name="Group 137060" transform="translate(0 19.322)">
            <g id="Group_137059" data-name="Group 137059">
              <path id="Path_151860" data-name="Path 151860" d="M436.928,247.192l-3.572,8.906a.853.853,0,0,0,1.079,1.121l9.47-3.377Z" transform="translate(-433.293 -247.192)" fill="#7b1fa2"/>
            </g>
          </g>
        </g>
      </g>
      <g id="Group_137077" data-name="Group 137077" transform="translate(0 18.913)">
        <g id="Group_137074" data-name="Group 137074" transform="translate(0 5.93)">
          <g id="Group_137063" data-name="Group 137063" transform="translate(0 0)">
            <rect id="Rectangle_35531" data-name="Rectangle 35531" width="32.622" height="22.534" transform="matrix(1, -0.001, 0.001, 1, 0, 0.047)" fill="#ffce00"/>
          </g>
          <g id="Group_137065" data-name="Group 137065" transform="translate(0.001 0.001)">
            <g id="Group_137064" data-name="Group 137064">
              <path id="Path_151861" data-name="Path 151861" d="M296.284,245.249l0,1.445,16.331,14.432,16.29-14.479,0-1.445-16.289,14.529Z" transform="translate(-296.284 -245.202)" fill="#b56d25"/>
            </g>
          </g>
          <g id="Group_137068" data-name="Group 137068" transform="translate(19.47 10.89)">
            <g id="Group_137067" data-name="Group 137067">
              <g id="Group_137066" data-name="Group 137066">
                <path id="Path_151862" data-name="Path 151862" d="M319.608,259.037l12.239,10.855h.945v-.574l-12.482-11.069Z" transform="translate(-319.608 -258.247)" fill="#b56d25"/>
              </g>
            </g>
          </g>
          <g id="Group_137071" data-name="Group 137071" transform="translate(0.032 10.901)">
            <g id="Group_137070" data-name="Group 137070">
              <g id="Group_137069" data-name="Group 137069">
                <path id="Path_151863" data-name="Path 151863" d="M296.321,269.442v.5l1.03,0,12.208-10.89-.7-.788Z" transform="translate(-296.321 -258.26)" fill="#b56d25"/>
              </g>
            </g>
          </g>
          <g id="Group_137073" data-name="Group 137073" transform="translate(0.001)">
            <g id="Group_137072" data-name="Group 137072">
              <path id="Path_151864" data-name="Path 151864" d="M328.906,245.2l-16.29,14.53-16.332-14.483Z" transform="translate(-296.284 -245.201)" fill="#ffce00"/>
            </g>
          </g>
        </g>
        <g id="Group_137076" data-name="Group 137076" transform="translate(24.005)">
          <circle id="Ellipse_5063" data-name="Ellipse 5063" cx="7.08" cy="7.08" r="7.08" fill="#539380"/>
          <g id="Group_137075" data-name="Group 137075" transform="translate(3.208 3.716)">
            <path id="Path_151865" data-name="Path 151865" d="M331.3,249.276h0a.686.686,0,0,1-.485-.2l-1.735-1.735a.687.687,0,1,1,.972-.971l1.249,1.25,4.869-4.869a.687.687,0,0,1,.972.972l-5.355,5.354A.687.687,0,0,1,331.3,249.276Z" transform="translate(-328.883 -242.548)" fill="#fff"/>
          </g>
        </g>
      </g>
      <g id="Group_137081" data-name="Group 137081" transform="translate(1.605 72.299)">
        <g id="Group_137078" data-name="Group 137078">
          <path id="Path_151866" data-name="Path 151866" d="M385.975,438.01c-33.14-1.163-67.416-5.683-85.158-66.749-5.274-18.153-1.843-31.9,3.945-42.259a62.945,62.945,0,0,1,4.627-7.071l0,0q.917-1.221,1.851-2.362a48.229,48.229,0,0,1,53.913-14.556c10.8,3.934,24.644,9.754,36.991,17.32,24.809,15.2,30.628,32.538,38.733,62.273.7,2.553,1.392,5.416,1.92,8.456.283,1.626.518,3.3.678,5.008C445.274,417.082,437.94,439.837,385.975,438.01Z" transform="translate(-298.206 -302.05)" fill="#15157c"/>
        </g>
        <g id="Group_137080" data-name="Group 137080" transform="translate(4.717 19.88)">
          <g id="Group_137079" data-name="Group 137079">
            <path id="Path_151867" data-name="Path 151867" d="M444.411,402a39.063,39.063,0,0,1-4.756,9.23c-6.267,8.979-19.316,19.828-45.895,20.528q-1.754.046-3.463.046A92.53,92.53,0,0,1,363,428.082a66.739,66.739,0,0,1-22.847-12.057c-11.386-9.186-20.77-22.626-30.42-43.574a60.928,60.928,0,0,1-5.875-24.924,54.34,54.34,0,0,1,1.836-14.59,62.945,62.945,0,0,1,4.627-7.071c-.411.95-.81,1.942-1.188,2.978-3.472,9.521-5.862,24.667,2.467,42.745,16.94,36.768,36.585,59.309,82.1,58.117,25.72-.676,38.267-11.059,44.26-19.652A36.081,36.081,0,0,0,443.733,397C444.016,398.622,444.251,400.3,444.411,402Z" transform="translate(-303.857 -325.866)" fill="#5a554d"/>
          </g>
        </g>
      </g>
      <g id="Group_137441" data-name="Group 137441" transform="translate(18.695 0)">
        <g id="Group_137085" data-name="Group 137085" transform="translate(25.209 114.079)">
          <g id="Group_137084" data-name="Group 137084">
            <g id="Group_137083" data-name="Group 137083">
              <g id="Group_137082" data-name="Group 137082">
                <path id="Path_151868" data-name="Path 151868" d="M376.756,385.153a25.127,25.127,0,0,0,6.858,3.074c18.635,5.929,35.722-3.641,35.722-3.641,1.033-5.1.394-10.9-1.326-13.026a1.871,1.871,0,0,0,.182-1.655l17.151-17.8c-9.752,8.082-21.816,10.727-31.208,16.4h0c-2.706,1.634-5.14,3.075-6.923,4.077-2.72,1.527-6.193,1.677-9.6,1.208a46.791,46.791,0,0,1-12.995-4.185s-21.358-9.681-25.362-9.358C346.142,360.5,362.9,377.99,376.756,385.153Z" transform="translate(-348.878 -352.101)" fill="#c04d3a"/>
              </g>
            </g>
          </g>
        </g>
        <g id="Group_137165" data-name="Group 137165" transform="translate(0 118.43)">
          <g id="Group_137155" data-name="Group 137155" transform="translate(75.09 32.29)">
            <g id="Group_137086" data-name="Group 137086" transform="translate(0 7.967)">
              <path id="Path_151869" data-name="Path 151869" d="M419.639,408.9s-5.5-1.579-7.186-3.364l-3.82,8.994,13,4.059S421.819,410.691,419.639,408.9Z" transform="translate(-408.634 -405.54)" fill="#eaad8f"/>
            </g>
            <g id="Group_137154" data-name="Group 137154" transform="translate(8.742)">
              <g id="Group_137088" data-name="Group 137088">
                <g id="Group_137087" data-name="Group 137087">
                  <path id="Path_151870" data-name="Path 151870" d="M452.753,433.318,435.943,396a5.727,5.727,0,0,0-2.294.443c-3.261,1.189-7.845,4.464-10.8,6.388-.344.227-.667.434-.962.615a11.956,11.956,0,0,1-1.247.7,2.087,2.087,0,0,0-1.114,3.261c5.4,2.108,1.777,8.885,4.723,10.56,0,0,1.255.728,5.255,2.49s8.029,6.007,11.756,9.487c4.808,4.5,7.828,5.023,9.559,4.613A3.2,3.2,0,0,0,452.753,433.318Z" transform="translate(-419.107 -395.996)" fill="#fff"/>
                </g>
              </g>
              <g id="Group_137089" data-name="Group 137089" transform="translate(14.542)">
                <path id="Path_151871" data-name="Path 151871" d="M455.632,433.318,438.822,396a5.727,5.727,0,0,0-2.294.443l17.17,38.111A3.2,3.2,0,0,0,455.632,433.318Z" transform="translate(-436.528 -395.996)" fill="#f0e8e0"/>
              </g>
              <g id="Group_137099" data-name="Group 137099" transform="translate(2.78 2.707)">
                <g id="Group_137098" data-name="Group 137098">
                  <g id="Group_137097" data-name="Group 137097">
                    <g id="Group_137096" data-name="Group 137096">
                      <g id="Group_137095" data-name="Group 137095">
                        <g id="Group_137094" data-name="Group 137094">
                          <g id="Group_137093" data-name="Group 137093">
                            <g id="Group_137092" data-name="Group 137092">
                              <g id="Group_137091" data-name="Group 137091">
                                <g id="Group_137090" data-name="Group 137090">
                                  <path id="Path_151872" data-name="Path 151872" d="M438.208,400.348l-.5-1.109a8.979,8.979,0,0,1-5.071,4.7,11.544,11.544,0,0,1-9.237-.564c-.344.227-.667.434-.962.615a12.539,12.539,0,0,0,10.555.857A9.929,9.929,0,0,0,438.208,400.348Z" transform="translate(-422.438 -399.239)" fill="#f0e8e0"/>
                                </g>
                              </g>
                            </g>
                          </g>
                        </g>
                      </g>
                    </g>
                  </g>
                </g>
              </g>
              <g id="Group_137108" data-name="Group 137108" transform="translate(11.024 22.442)">
                <g id="Group_137107" data-name="Group 137107">
                  <g id="Group_137106" data-name="Group 137106">
                    <g id="Group_137105" data-name="Group 137105">
                      <g id="Group_137104" data-name="Group 137104">
                        <g id="Group_137103" data-name="Group 137103">
                          <g id="Group_137102" data-name="Group 137102">
                            <g id="Group_137101" data-name="Group 137101">
                              <g id="Group_137100" data-name="Group 137100">
                                <path id="Path_151873" data-name="Path 151873" d="M433.6,423.276a.675.675,0,0,0-1.279.4l.472,2.591a.675.675,0,0,0,1.327-.241l-.472-2.592A.7.7,0,0,0,433.6,423.276Z" transform="translate(-432.314 -422.88)" fill="#171612"/>
                              </g>
                            </g>
                          </g>
                        </g>
                      </g>
                    </g>
                  </g>
                </g>
              </g>
              <g id="Group_137117" data-name="Group 137117" transform="translate(8.041 21)">
                <g id="Group_137116" data-name="Group 137116">
                  <g id="Group_137115" data-name="Group 137115">
                    <g id="Group_137114" data-name="Group 137114">
                      <g id="Group_137113" data-name="Group 137113">
                        <g id="Group_137112" data-name="Group 137112">
                          <g id="Group_137111" data-name="Group 137111">
                            <g id="Group_137110" data-name="Group 137110">
                              <g id="Group_137109" data-name="Group 137109">
                                <path id="Path_151874" data-name="Path 151874" d="M430.029,421.549a.674.674,0,0,0-1.278.4l.471,2.591a.674.674,0,1,0,1.327-.241l-.472-2.591A.7.7,0,0,0,430.029,421.549Z" transform="translate(-428.74 -421.153)" fill="#171612"/>
                              </g>
                            </g>
                          </g>
                        </g>
                      </g>
                    </g>
                  </g>
                </g>
              </g>
              <g id="Group_137126" data-name="Group 137126" transform="translate(13.43 24.162)">
                <g id="Group_137125" data-name="Group 137125">
                  <g id="Group_137124" data-name="Group 137124">
                    <g id="Group_137123" data-name="Group 137123">
                      <g id="Group_137122" data-name="Group 137122">
                        <g id="Group_137121" data-name="Group 137121">
                          <g id="Group_137120" data-name="Group 137120">
                            <g id="Group_137119" data-name="Group 137119">
                              <g id="Group_137118" data-name="Group 137118">
                                <path id="Path_151875" data-name="Path 151875" d="M436.485,425.337a.674.674,0,0,0-1.278.4l.471,2.592a.675.675,0,0,0,1.327-.241l-.472-2.592A.7.7,0,0,0,436.485,425.337Z" transform="translate(-435.195 -424.941)" fill="#171612"/>
                              </g>
                            </g>
                          </g>
                        </g>
                      </g>
                    </g>
                  </g>
                </g>
              </g>
              <g id="Group_137135" data-name="Group 137135" transform="translate(15.782 25.906)">
                <g id="Group_137134" data-name="Group 137134">
                  <g id="Group_137133" data-name="Group 137133">
                    <g id="Group_137132" data-name="Group 137132">
                      <g id="Group_137131" data-name="Group 137131">
                        <g id="Group_137130" data-name="Group 137130">
                          <g id="Group_137129" data-name="Group 137129">
                            <g id="Group_137128" data-name="Group 137128">
                              <g id="Group_137127" data-name="Group 137127">
                                <path id="Path_151876" data-name="Path 151876" d="M439.3,427.427a.674.674,0,0,0-1.278.4l.471,2.591a.675.675,0,1,0,1.327-.241l-.472-2.591A.674.674,0,0,0,439.3,427.427Z" transform="translate(-438.014 -427.03)" fill="#171612"/>
                              </g>
                            </g>
                          </g>
                        </g>
                      </g>
                    </g>
                  </g>
                </g>
              </g>
              <g id="Group_137144" data-name="Group 137144" transform="translate(18.131 27.905)">
                <g id="Group_137143" data-name="Group 137143">
                  <g id="Group_137142" data-name="Group 137142">
                    <g id="Group_137141" data-name="Group 137141">
                      <g id="Group_137140" data-name="Group 137140">
                        <g id="Group_137139" data-name="Group 137139">
                          <g id="Group_137138" data-name="Group 137138">
                            <g id="Group_137137" data-name="Group 137137">
                              <g id="Group_137136" data-name="Group 137136">
                                <path id="Path_151877" data-name="Path 151877" d="M442.118,429.821a.675.675,0,0,0-1.279.4l.472,2.592a.674.674,0,1,0,1.326-.242l-.471-2.591A.7.7,0,0,0,442.118,429.821Z" transform="translate(-440.828 -429.425)" fill="#171612"/>
                              </g>
                            </g>
                          </g>
                        </g>
                      </g>
                    </g>
                  </g>
                </g>
              </g>
              <g id="Group_137153" data-name="Group 137153" transform="translate(20.401 30.198)">
                <g id="Group_137152" data-name="Group 137152">
                  <g id="Group_137151" data-name="Group 137151">
                    <g id="Group_137150" data-name="Group 137150">
                      <g id="Group_137149" data-name="Group 137149">
                        <g id="Group_137148" data-name="Group 137148">
                          <g id="Group_137147" data-name="Group 137147">
                            <g id="Group_137146" data-name="Group 137146">
                              <g id="Group_137145" data-name="Group 137145">
                                <path id="Path_151878" data-name="Path 151878" d="M444.836,432.568a.674.674,0,0,0-1.278.4l.471,2.591a.675.675,0,0,0,1.327-.241l-.472-2.592A.7.7,0,0,0,444.836,432.568Z" transform="translate(-443.547 -432.172)" fill="#171612"/>
                              </g>
                            </g>
                          </g>
                        </g>
                      </g>
                    </g>
                  </g>
                </g>
              </g>
            </g>
          </g>
          <g id="Group_137158" data-name="Group 137158">
            <g id="Group_137157" data-name="Group 137157">
              <g id="Group_137156" data-name="Group 137156">
                <path id="Path_151879" data-name="Path 151879" d="M344.266,361.108s-13.517-7.294-21.347-1.656C308.6,369.763,332.9,389.6,360.686,399.285S397.5,407.65,397.5,407.65s6.038-1.661,3.9-11.447c0,0-16.02-6.09-24.355-12.47S363.024,369.535,344.266,361.108Z" transform="translate(-318.679 -357.313)" fill="#c04d3a"/>
              </g>
            </g>
          </g>
          <g id="Group_137161" data-name="Group 137161" transform="translate(24.468 6.688)">
            <g id="Group_137160" data-name="Group 137160">
              <g id="Group_137159" data-name="Group 137159">
                <path id="Path_151880" data-name="Path 151880" d="M405.159,400.374c-5.829-1.4-17.706-6.849-31.772-14.573-10.52-5.777-22.653-13.161-24.433-15.721-.962-1.384-1.2-2.515-.72-3.363.724-1.27,2.808-1.4,3.758-1.391a.423.423,0,0,1,.419.453h0a.42.42,0,0,1-.422.391c-.934-.006-2.559.154-3.021.965-.384.674.158,1.71.68,2.462,1.436,2.064,11.591,8.568,24.146,15.462,10.812,5.938,24.781,12.862,31.563,14.492Z" transform="translate(-347.991 -365.325)" fill="#7e231a"/>
              </g>
            </g>
          </g>
          <g id="Group_137164" data-name="Group 137164" transform="translate(75.644 37.366)">
            <g id="Group_137163" data-name="Group 137163">
              <g id="Group_137162" data-name="Group 137162">
                <path id="Path_151881" data-name="Path 151881" d="M414.192,402.3c-.656,5.144-1.989,9.819-4.895,13.405,0,0,2.488,1.791,4.76.506,1.736-.982,5.084-9.015,3.807-13.3C416.412,402.114,415.159,401.838,414.192,402.3Z" transform="translate(-409.297 -402.076)" fill="#7e231a"/>
              </g>
            </g>
          </g>
        </g>
        <g id="Group_137230" data-name="Group 137230" transform="translate(15.84 111.172)">
          <g id="Group_137219" data-name="Group 137219" transform="translate(0 40.384)">
            <g id="Group_137166" data-name="Group 137166" transform="translate(28.112 6.517)">
              <path id="Path_151882" data-name="Path 151882" d="M372.8,408.642s5.38-1.943,6.945-3.837l4.413,8.718-12.7,4.918S370.74,410.571,372.8,408.642Z" transform="translate(-371.331 -404.805)" fill="#eaad8f"/>
            </g>
            <g id="Group_137218" data-name="Group 137218">
              <g id="Group_137168" data-name="Group 137168">
                <g id="Group_137167" data-name="Group 137167">
                  <path id="Path_151883" data-name="Path 151883" d="M337.654,435.381l14.28-38.352a5.722,5.722,0,0,1,2.318.288c3.333.968,8.125,3.93,11.2,5.653.358.2.695.388,1,.549a11.831,11.831,0,0,0,1.29.61,2.088,2.088,0,0,1,1.329,3.18c-5.251,2.464-1.18,8.984-4.007,10.853,0,0-1.2.81-5.077,2.836s-7.609,6.529-11.1,10.251c-4.5,4.806-7.475,5.534-9.229,5.241A3.2,3.2,0,0,1,337.654,435.381Z" transform="translate(-337.654 -396.998)" fill="#fff"/>
                </g>
              </g>
              <g id="Group_137169" data-name="Group 137169">
                <path id="Path_151884" data-name="Path 151884" d="M337.654,435.381l14.28-38.352a5.722,5.722,0,0,1,2.318.288l-14.586,39.172A3.2,3.2,0,0,1,337.654,435.381Z" transform="translate(-337.654 -396.998)" fill="#f0e8e0"/>
              </g>
              <g id="Group_137179" data-name="Group 137179" transform="translate(12.823 2.804)">
                <g id="Group_137178" data-name="Group 137178">
                  <g id="Group_137177" data-name="Group 137177">
                    <g id="Group_137176" data-name="Group 137176">
                      <g id="Group_137175" data-name="Group 137175">
                        <g id="Group_137174" data-name="Group 137174">
                          <g id="Group_137173" data-name="Group 137173">
                            <g id="Group_137172" data-name="Group 137172">
                              <g id="Group_137171" data-name="Group 137171">
                                <g id="Group_137170" data-name="Group 137170">
                                  <path id="Path_151885" data-name="Path 151885" d="M353.015,401.5l.425-1.139a8.98,8.98,0,0,0,5.373,4.348,11.543,11.543,0,0,0,9.179-1.18c.358.2.695.388,1,.549a12.538,12.538,0,0,1-10.475,1.561A9.93,9.93,0,0,1,353.015,401.5Z" transform="translate(-353.015 -400.357)" fill="#f0e8e0"/>
                                </g>
                              </g>
                            </g>
                          </g>
                        </g>
                      </g>
                    </g>
                  </g>
                </g>
              </g>
              <g id="Group_137180" data-name="Group 137180" transform="translate(19.977 22.068)">
                <path id="Path_151886" data-name="Path 151886" d="M361.925,423.873a.675.675,0,0,1,1.3.312l-.3,2.618a.674.674,0,1,1-1.34-.153l.3-2.617A.728.728,0,0,1,361.925,423.873Z" transform="translate(-361.586 -423.435)" fill="#171612"/>
              </g>
              <g id="Group_137189" data-name="Group 137189" transform="translate(22.858 20.431)">
                <g id="Group_137188" data-name="Group 137188">
                  <g id="Group_137187" data-name="Group 137187">
                    <g id="Group_137186" data-name="Group 137186">
                      <g id="Group_137185" data-name="Group 137185">
                        <g id="Group_137184" data-name="Group 137184">
                          <g id="Group_137183" data-name="Group 137183">
                            <g id="Group_137182" data-name="Group 137182">
                              <g id="Group_137181" data-name="Group 137181">
                                <path id="Path_151887" data-name="Path 151887" d="M365.377,421.911a.675.675,0,0,1,1.3.312l-.3,2.617a.675.675,0,1,1-1.341-.152l.3-2.618A.708.708,0,0,1,365.377,421.911Z" transform="translate(-365.037 -421.473)" fill="#171612"/>
                              </g>
                            </g>
                          </g>
                        </g>
                      </g>
                    </g>
                  </g>
                </g>
              </g>
              <g id="Group_137198" data-name="Group 137198" transform="translate(17.692 23.946)">
                <g id="Group_137197" data-name="Group 137197">
                  <g id="Group_137196" data-name="Group 137196">
                    <g id="Group_137195" data-name="Group 137195">
                      <g id="Group_137194" data-name="Group 137194">
                        <g id="Group_137193" data-name="Group 137193">
                          <g id="Group_137192" data-name="Group 137192">
                            <g id="Group_137191" data-name="Group 137191">
                              <g id="Group_137190" data-name="Group 137190">
                                <path id="Path_151888" data-name="Path 151888" d="M359.189,426.122a.674.674,0,0,1,1.3.312l-.3,2.617a.674.674,0,1,1-1.34-.152l.3-2.617A.678.678,0,0,1,359.189,426.122Z" transform="translate(-358.849 -425.684)" fill="#171612"/>
                              </g>
                            </g>
                          </g>
                        </g>
                      </g>
                    </g>
                  </g>
                </g>
              </g>
              <g id="Group_137207" data-name="Group 137207" transform="translate(15.462 25.843)">
                <g id="Group_137206" data-name="Group 137206">
                  <g id="Group_137205" data-name="Group 137205">
                    <g id="Group_137204" data-name="Group 137204">
                      <g id="Group_137203" data-name="Group 137203">
                        <g id="Group_137202" data-name="Group 137202">
                          <g id="Group_137201" data-name="Group 137201">
                            <g id="Group_137200" data-name="Group 137200">
                              <g id="Group_137199" data-name="Group 137199">
                                <path id="Path_151889" data-name="Path 151889" d="M356.516,428.4a.675.675,0,0,1,1.3.312l-.3,2.617a.674.674,0,1,1-1.34-.152l.3-2.617A.671.671,0,0,1,356.516,428.4Z" transform="translate(-356.177 -427.957)" fill="#171612"/>
                              </g>
                            </g>
                          </g>
                        </g>
                      </g>
                    </g>
                  </g>
                </g>
              </g>
              <g id="Group_137216" data-name="Group 137216" transform="translate(13.251 27.995)">
                <g id="Group_137215" data-name="Group 137215">
                  <g id="Group_137214" data-name="Group 137214">
                    <g id="Group_137213" data-name="Group 137213">
                      <g id="Group_137212" data-name="Group 137212">
                        <g id="Group_137211" data-name="Group 137211">
                          <g id="Group_137210" data-name="Group 137210">
                            <g id="Group_137209" data-name="Group 137209">
                              <g id="Group_137208" data-name="Group 137208">
                                <path id="Path_151890" data-name="Path 151890" d="M353.868,430.972a.675.675,0,0,1,1.3.312l-.3,2.617a.674.674,0,1,1-1.34-.152l.3-2.617A.682.682,0,0,1,353.868,430.972Z" transform="translate(-353.528 -430.534)" fill="#171612"/>
                              </g>
                            </g>
                          </g>
                        </g>
                      </g>
                    </g>
                  </g>
                </g>
              </g>
              <g id="Group_137217" data-name="Group 137217" transform="translate(11.14 30.434)">
                <path id="Path_151891" data-name="Path 151891" d="M351.339,433.9a.675.675,0,0,1,1.3.312l-.3,2.617a.674.674,0,1,1-1.34-.152l.3-2.618A.674.674,0,0,1,351.339,433.9Z" transform="translate(-351 -433.457)" fill="#171612"/>
              </g>
            </g>
          </g>
          <g id="Group_137222" data-name="Group 137222" transform="translate(36.499)">
            <g id="Group_137221" data-name="Group 137221">
              <g id="Group_137220" data-name="Group 137220">
                <path id="Path_151892" data-name="Path 151892" d="M435.212,353.746s12.791-8.5,21.105-3.608c15.2,8.954-7.169,30.935-33.954,43.13s-35.892,11.707-35.892,11.707-6.165-1.1-4.929-11.041c0,0,15.394-7.534,23.108-14.652S417.3,363.858,435.212,353.746Z" transform="translate(-381.378 -348.619)" fill="#c04d3a"/>
              </g>
            </g>
          </g>
          <g id="Group_137224" data-name="Group 137224" transform="translate(43.365 49.237)">
            <g id="Group_137223" data-name="Group 137223">
              <path id="Path_151893" data-name="Path 151893" d="M413.178,407.6c-1.475.485-2.975.972-4.523,1.459-5.992,1.887-12.834,3.861-19.031,5.382l-.022.887c5.595-1.364,12.162-3.214,19.306-5.463,1.395-.439,2.819-.9,4.246-1.371Z" transform="translate(-389.603 -407.603)" fill="#7e231a"/>
            </g>
          </g>
          <g id="Group_137226" data-name="Group 137226" transform="translate(37.728 8.226)">
            <g id="Group_137225" data-name="Group 137225">
              <path id="Path_151894" data-name="Path 151894" d="M383.122,398.3c5.676-1.929,17-8.443,30.3-17.425,9.946-6.718,21.35-15.183,22.888-17.9.831-1.466.968-2.614.409-3.415-.837-1.2-2.925-1.137-3.87-1.04a.423.423,0,0,0-.376.49h0a.421.421,0,0,0,.457.351c.93-.092,2.563-.082,3.1.684.444.635,0,1.717-.452,2.513-1.24,2.188-10.756,9.595-22.626,17.612-10.222,6.9-23.5,15.081-30.1,17.326Z" transform="translate(-382.85 -358.473)" fill="#7e231a"/>
            </g>
          </g>
          <g id="Group_137229" data-name="Group 137229" transform="translate(34.989 43.681)">
            <g id="Group_137228" data-name="Group 137228">
              <g id="Group_137227" data-name="Group 137227">
                <path id="Path_151895" data-name="Path 151895" d="M383.293,401.086c1.125,5.063,2.882,9.6,6.1,12.9,0,0-2.312,2.013-4.693.941-1.819-.818-5.889-8.511-5.012-12.9C381.065,401.1,382.287,400.714,383.293,401.086Z" transform="translate(-379.57 -400.947)" fill="#7e231a"/>
              </g>
            </g>
          </g>
        </g>
        <g id="Group_137440" data-name="Group 137440" transform="translate(2.01)">
          <g id="Group_137306" data-name="Group 137306" transform="translate(24.148 29.97)">
            <g id="Group_137231" data-name="Group 137231" transform="translate(39.079 19.335)">
              <path id="Path_151896" data-name="Path 151896" d="M471.11,275.7a6.721,6.721,0,0,0-9.353,1.7l-.089.127-.7,1.008-.73,1.037-1.485,2.075q-1.49,2.056-3.028,4.075a.148.148,0,0,1-.018.024c-.207.27-.41.538-.623.808v0c-1.858,2.424-3.761,4.8-5.711,7.073-1.174,1.37-2.367,2.711-3.574,3.988-.153.161-.306.322-.46.483-.86.9-1.73,1.76-2.6,2.57a33.176,33.176,0,0,1-3.273,2.72c-.253.179-.5.342-.73.486-.427-.255-.911-.571-1.412-.915-.566-.392-1.159-.826-1.755-1.283q-.4-.307-.8-.627c-.165-.131-.331-.261-.5-.4-2-1.608-4.027-3.407-6.026-5.258q-2.594-2.408-5.147-4.953c-.2-.2-.41-.4-.612-.608q-.741-.739-1.477-1.488-1.787-1.813-3.546-3.661l-1.745-1.852-.861-.928-.819-.9-.069-.076c-.15-.161-.3-.32-.467-.472A9.873,9.873,0,1,0,399.9,294.772l1.028.976,1,.937,2,1.845q2.006,1.833,4.042,3.631c2.72,2.4,5.491,4.759,8.366,7.076,1.775,1.422,3.574,2.827,5.469,4.208.181.133.361.264.544.394,1.018.735,2.065,1.462,3.154,2.18.836.549,1.7,1.1,2.62,1.636q.627.369,1.3.734c.187.1.379.2.573.3q.538.284,1.122.564c.551.26,1.11.516,1.755.769.013.007.028.011.041.018.168.063.322.126.5.189l.536.19c.172.061.386.124.579.183l.3.089.2.057.281.072a11.556,11.556,0,0,0,2.18.329c.357.024.682.024,1.02.019.315-.01.649-.026.942-.058a13.962,13.962,0,0,0,3.119-.684,16.71,16.71,0,0,0,2.219-.941l.092-.046c.675-.346,1.276-.7,1.834-1.063a29.032,29.032,0,0,0,2.907-2.176c.573-.486,1.115-.969,1.632-1.457.287-.27.563-.538.836-.808.71-.7,1.377-1.4,2.023-2.106a103.194,103.194,0,0,0,7.135-8.867c2.172-2.986,4.206-6,6.164-9.05q.52-.81,1.033-1.623c.107-.165.211-.333.316-.5q.775-1.236,1.533-2.477.706-1.157,1.4-2.324l.695-1.174.706-1.218A6.746,6.746,0,0,0,471.11,275.7Zm-33.5,28.751c-.114.037-.174.037-.126,0l.022-.013a.185.185,0,0,1,.037-.018c.02-.007.068-.028.1-.038a1.831,1.831,0,0,1,.294-.068A2.67,2.67,0,0,1,437.614,304.452Z" transform="translate(-396.831 -274.504)" fill="#314fa5"/>
            </g>
            <g id="Group_137233" data-name="Group 137233" transform="translate(64.658 34.667)">
              <g id="Group_137232" data-name="Group 137232">
                <path id="Path_151897" data-name="Path 151897" d="M439.835,304.087a10.588,10.588,0,0,1-2.6,2.4c-2.321,1.444-5.155,1.448-6.928-.827-1.842-2.37-2.485-5.855-2.74-8.767a23.834,23.834,0,0,1-.011-4.025c.2.2.407.407.612.608a22.528,22.528,0,0,0-.022,2.278,19.519,19.519,0,0,0,2.141,8.695,4.259,4.259,0,0,0,3.763,2.435,6.48,6.48,0,0,0,3.982-1.812,12.131,12.131,0,0,0,1.309-1.385C439.5,303.826,439.67,303.956,439.835,304.087Z" transform="translate(-427.473 -292.872)" fill="#5880eb"/>
              </g>
            </g>
            <g id="Group_137235" data-name="Group 137235" transform="translate(64.052 55.75)">
              <g id="Group_137234" data-name="Group 137234">
                <path id="Path_151898" data-name="Path 151898" d="M434.934,325.9c-.194-.1-.386-.2-.573-.3.531-1.827.932-4.008.015-5.567-1.608-2.736-5.3-.407-7.085,1.017-.183-.13-.363-.261-.544-.394q.461-.379.952-.72c1.862-1.3,5.005-2.9,6.881-.745C436.106,320.945,435.529,323.789,434.934,325.9Z" transform="translate(-426.747 -318.128)" fill="#5880eb"/>
              </g>
            </g>
            <g id="Group_137237" data-name="Group 137237" transform="translate(87.592 30.553)">
              <g id="Group_137236" data-name="Group 137236">
                <path id="Path_151899" data-name="Path 151899" d="M465.48,294.49c-.091,2.869-.64,6.36-3.034,8.271-2.267,1.807-5.094.7-6.756-1.362a8.6,8.6,0,0,1-.743-1.078c.154-.161.307-.322.46-.483a7.689,7.689,0,0,0,1.191,1.609,4.284,4.284,0,0,0,4.226,1.464,5.017,5.017,0,0,0,2.8-2.712c1.341-2.685,1.283-5.854,1.169-8.777-.035-.882-.073-1.764-.1-2.645v0c.213-.27.416-.538.623-.808a.151.151,0,0,0,.018-.024C465.358,290.123,465.547,292.308,465.48,294.49Z" transform="translate(-454.947 -287.943)" fill="#5880eb"/>
              </g>
            </g>
            <g id="Group_137239" data-name="Group 137239" transform="translate(93.504 36.246)">
              <g id="Group_137238" data-name="Group 137238">
                <path id="Path_151900" data-name="Path 151900" d="M479.535,295.143c-.1.165-.209.333-.316.5-2.248-1.161-5.327,1.218-6.928,2.73A27.169,27.169,0,0,0,467.23,305a45.058,45.058,0,0,0-4.365,12.286c-.272.27-.548.538-.836.808,1.139-5.468,2.807-10.853,5.922-15.538a23.161,23.161,0,0,1,6.379-6.673A5.506,5.506,0,0,1,479.535,295.143Z" transform="translate(-462.029 -294.763)" fill="#5880eb"/>
              </g>
            </g>
            <g id="Group_137240" data-name="Group 137240" transform="translate(75.116 63.015)">
              <path id="Path_151901" data-name="Path 151901" d="M451.924,328.136a16.7,16.7,0,0,1-2.219.941,13.956,13.956,0,0,1-3.12.684c-.294.033-.627.048-.942.058-.338.005-.663.005-1.02-.019a11.559,11.559,0,0,1-2.18-.329l-.281-.072-.2-.057-.3-.089c-.194-.058-.407-.122-.579-.183l-.536-.19c-.179-.063-.333-.126-.5-.189-.012-.007-.028-.011-.041-.018a12.575,12.575,0,0,1,6.482-1.838A9.791,9.791,0,0,1,451.924,328.136Z" transform="translate(-440.002 -326.832)" fill="#1c2b74"/>
            </g>
            <g id="Group_137242" data-name="Group 137242" transform="translate(77.72 48.678)">
              <g id="Group_137241" data-name="Group 137241">
                <path id="Path_151902" data-name="Path 151902" d="M445.892,309.733a7.939,7.939,0,0,0-2.747,3.76c-.167.477.59.683.756.209a7.009,7.009,0,0,1,2.387-3.291c.4-.3.007-.982-.4-.677Z" transform="translate(-443.121 -309.656)" fill="#1c2b74"/>
              </g>
            </g>
            <g id="Group_137244" data-name="Group 137244" transform="translate(76.416 49.19)">
              <g id="Group_137243" data-name="Group 137243">
                <path id="Path_151903" data-name="Path 151903" d="M442.15,311.38a2.769,2.769,0,0,1,2.4-.119c.458.2.859-.481.4-.678a3.62,3.62,0,0,0-3.191.118c-.446.236-.05.913.4.678Z" transform="translate(-441.559 -310.27)" fill="#1c2b74"/>
              </g>
            </g>
            <g id="Group_137251" data-name="Group 137251" transform="translate(0 17.059)">
              <g id="Group_137250" data-name="Group 137250">
                <g id="Group_137249" data-name="Group 137249">
                  <g id="Group_137248" data-name="Group 137248">
                    <g id="Group_137247" data-name="Group 137247">
                      <g id="Group_137246" data-name="Group 137246">
                        <g id="Group_137245" data-name="Group 137245">
                          <path id="Path_151904" data-name="Path 151904" d="M413.608,349.781a31.775,31.775,0,0,1-9.017,6.536q-.307.155-.616.3a37.878,37.878,0,0,1-6.237,2.272,48.485,48.485,0,0,1-22.261.533c-.275-.056-.549-.114-.821-.175a49.122,49.122,0,0,1-5.99-1.752,42.317,42.317,0,0,1-7.112-3.345c-.312-.182-.62-.371-.927-.567a35.606,35.606,0,0,1-3.241-2.294c2.052-9.153,3.228-13.726,3.739-17.046.043-.281.083-.551.114-.814.417-3.225.149-5.43-.571-10.25a105.615,105.615,0,0,0-4.4-16.809c-.077-.227-.154-.454-.235-.681-.2-.576-.4-1.156-.609-1.732-.1-.285-.207-.569-.312-.855-.774-2.112-1.606-4.217-2.479-6.244-3.8-8.851-4.408-18.825,4.726-21.872,5.969-1.99,11.156-3.2,11.156-3.2l21,1.738a51.975,51.975,0,0,1,8.554,1.5c.234.07.463.142.681.216,5.958,1.988,5.787,5.38,7.13,12.481,1.829,9.667,7.121,18.591,5.815,23.3-.05.17-.1.341-.155.51-.066.205-.138.407-.212.608a24.35,24.35,0,0,1-4.771,7.319c-.247.265-.393.409-.393.409l.007.063c.016.157.033.324.056.5.083.668.2,1.457.346,2.355.216,1.311.459,2.634.725,3.948.056.268.11.536.169.8a150.71,150.71,0,0,0,5.571,19.779Q413.325,348.547,413.608,349.781Z" transform="translate(-350.016 -271.778)" fill="#314fa5"/>
                        </g>
                      </g>
                    </g>
                  </g>
                </g>
              </g>
            </g>
            <g id="Group_137253" data-name="Group 137253" transform="translate(54.779 29.926)">
              <g id="Group_137252" data-name="Group 137252">
                <path id="Path_151905" data-name="Path 151905" d="M415.644,287.807a49.079,49.079,0,0,0,3.777,12.3c1.851,4.334,3.778,8.933,2.979,13.746-.1.617.842.882.945.26.753-4.538-.7-8.909-2.452-13.044-1.862-4.391-3.627-8.771-4.3-13.525-.089-.622-1.033-.357-.945.26Z" transform="translate(-415.638 -287.192)" fill="#1c2b74"/>
              </g>
            </g>
            <g id="Group_137268" data-name="Group 137268" transform="translate(6.013 19.605)">
              <g id="Group_137255" data-name="Group 137255" transform="translate(44.231 5.754)">
                <g id="Group_137254" data-name="Group 137254">
                  <path id="Path_151906" data-name="Path 151906" d="M421.483,313.165c-.065.205-.137.407-.211.608a15.506,15.506,0,0,1-9.124-8.444c-3.33-7.444-1.71-15.723-.072-23.372.087-.412.719-.235.629.174-1.536,7.174-3.09,14.867-.366,21.963A15.218,15.218,0,0,0,421.483,313.165Z" transform="translate(-410.206 -281.721)" fill="#5880eb"/>
                </g>
              </g>
              <g id="Group_137257" data-name="Group 137257" transform="translate(0 29.281)">
                <g id="Group_137256" data-name="Group 137256">
                  <path id="Path_151907" data-name="Path 151907" d="M376.291,322.017c-1.268,7.8-7.218,14.778-13.977,18.524.044-.281.083-.551.116-.815a28.306,28.306,0,0,0,8.673-7.758c4.077-5.563,7.767-15.044.416-19.609-4.583-2.848-9.6-1.952-14.066.307-.077-.226-.153-.452-.234-.68a18.847,18.847,0,0,1,6.171-1.975,12.834,12.834,0,0,1,9.481,2.5A9.689,9.689,0,0,1,376.291,322.017Z" transform="translate(-357.219 -309.906)" fill="#5880eb"/>
                </g>
              </g>
              <g id="Group_137259" data-name="Group 137259" transform="translate(44.848 52.396)">
                <g id="Group_137258" data-name="Group 137258">
                  <path id="Path_151908" data-name="Path 151908" d="M416.65,339.529a25.987,25.987,0,0,0-4.04,22.508,26.629,26.629,0,0,0,2.049,5.155q-.307.155-.616.3a27.46,27.46,0,0,1-2.528-18.2,26.6,26.6,0,0,1,5.848-11.692c.056.268.11.536.169.8C417.226,338.769,416.933,339.143,416.65,339.529Z" transform="translate(-410.944 -337.597)" fill="#5880eb"/>
                </g>
              </g>
              <g id="Group_137261" data-name="Group 137261" transform="translate(6.143 73.31)">
                <g id="Group_137260" data-name="Group 137260">
                  <path id="Path_151909" data-name="Path 151909" d="M377.883,374.435c-.275-.056-.549-.114-.821-.175A23.439,23.439,0,0,0,364.8,363.3c-.387-.151-.219-.781.175-.63a24.122,24.122,0,0,1,12.764,11.469C377.786,374.24,377.833,374.336,377.883,374.435Z" transform="translate(-364.577 -362.65)" fill="#5880eb"/>
                </g>
              </g>
              <g id="Group_137263" data-name="Group 137263" transform="translate(20.112 51.8)">
                <g id="Group_137262" data-name="Group 137262">
                  <path id="Path_151910" data-name="Path 151910" d="M392.394,337.557a24.289,24.289,0,0,0-8.958,9.131c-1.62,3.065-3.578,8.12-.507,10.944,3.486,3.207,8.41.466,11.263-2.16,3.245-2.987,6.206-7.544,6.136-12.106a7.237,7.237,0,0,0-2.608-5.63c-1.631-1.224-3.568-.992-5.327-.18-.382.176-.05.74.33.564,1.765-.815,3.673-.879,5.113.581a6.974,6.974,0,0,1,1.827,5.226c-.189,3.975-2.659,7.88-5.429,10.6-2.645,2.6-7.565,5.8-10.958,2.527-2.745-2.65-.647-7.535.862-10.3a23.7,23.7,0,0,1,8.585-8.64c.356-.221.029-.786-.33-.564Z" transform="translate(-381.313 -336.883)" fill="#5880eb"/>
                </g>
              </g>
              <g id="Group_137265" data-name="Group 137265" transform="translate(5.888)">
                <g id="Group_137264" data-name="Group 137264">
                  <path id="Path_151911" data-name="Path 151911" d="M399.781,289.986c-4.06,7.39-13.168,5.911-19.424,2.483a38.1,38.1,0,0,1-16.05-17.143c-.179-.376.386-.71.564-.329a37.541,37.541,0,0,0,7.094,10.265c4.862,4.988,12.136,10.009,19.441,9.434a9.863,9.863,0,0,0,8.538-6.619c1.52-4.019,1.006-8.394.477-12.552.235.069.464.141.682.215C401.7,280.509,402.183,285.608,399.781,289.986Z" transform="translate(-364.273 -274.828)" fill="#5880eb"/>
                </g>
              </g>
              <g id="Group_137267" data-name="Group 137267" transform="translate(25.095 27.242)">
                <g id="Group_137266" data-name="Group 137266">
                  <path id="Path_151912" data-name="Path 151912" d="M394.762,307.48c-2.838.54-6.756,2.467-7.407,5.619-.613,2.966,2.715,4.207,5.1,4.064,2.819-.169,6.2-1.941,7.033-4.84.811-2.816-2.048-4.973-4.637-4.855-.419.018-.422.672,0,.653,2.624-.119,5.1,2.247,3.639,4.877a7.6,7.6,0,0,1-6.371,3.525c-2.563.045-5.4-1.759-3.569-4.559a9.824,9.824,0,0,1,6.388-3.855c.412-.078.238-.708-.174-.629Z" transform="translate(-387.281 -307.463)" fill="#5880eb"/>
                </g>
              </g>
            </g>
            <g id="Group_137270" data-name="Group 137270" transform="translate(6.022 32.834)">
              <g id="Group_137269" data-name="Group 137269">
                <path id="Path_151913" data-name="Path 151913" d="M367.31,336.581c-1.838,6.835-3.354,13.7-4.564,20.689q-.468-.273-.927-.567c1.2-6.883,2.7-13.648,4.514-20.386,2.567-9.539-8.961-44.621-9.078-44.977a.506.506,0,1,1,.96-.317C358.694,292.479,369.954,326.749,367.31,336.581Z" transform="translate(-357.229 -290.676)" fill="#1c2b74"/>
              </g>
            </g>
            <g id="Group_137276" data-name="Group 137276" transform="translate(18.919 89.398)">
              <g id="Group_137275" data-name="Group 137275">
                <g id="Group_137274" data-name="Group 137274">
                  <g id="Group_137273" data-name="Group 137273">
                    <g id="Group_137272" data-name="Group 137272">
                      <g id="Group_137271" data-name="Group 137271">
                        <path id="Path_151914" data-name="Path 151914" d="M401.843,365.32a43.245,43.245,0,0,1-14.268,1.859,65.874,65.874,0,0,1-14.517-1.973.517.517,0,1,1,.277-1,64.858,64.858,0,0,0,14.286,1.936c7.19.152,17.127-1.035,23.64-7.557a.517.517,0,0,1,.732.731A25.1,25.1,0,0,1,401.843,365.32Z" transform="translate(-372.679 -358.437)" fill="#1c2b74"/>
                      </g>
                    </g>
                  </g>
                </g>
              </g>
            </g>
            <g id="Group_137283" data-name="Group 137283" transform="translate(28.272 64.259)">
              <g id="Group_137282" data-name="Group 137282">
                <g id="Group_137281" data-name="Group 137281">
                  <g id="Group_137280" data-name="Group 137280">
                    <g id="Group_137279" data-name="Group 137279">
                      <g id="Group_137278" data-name="Group 137278">
                        <g id="Group_137277" data-name="Group 137277">
                          <path id="Path_151915" data-name="Path 151915" d="M411.764,329.265c.016.157.036.322.058.5a27.691,27.691,0,0,1-11.211-.126,25.506,25.506,0,0,0-16.064,2.382.431.431,0,0,1-.219.059.441.441,0,0,1-.221-.825,25.965,25.965,0,0,1,16.674-2.484,26.308,26.308,0,0,0,11.37.024c-.247.265-.394.409-.394.409Z" transform="translate(-383.884 -328.321)" fill="#1c2b74"/>
                        </g>
                      </g>
                    </g>
                  </g>
                </g>
              </g>
            </g>
            <g id="Group_137289" data-name="Group 137289" transform="translate(22.987 24.086)">
              <g id="Group_137288" data-name="Group 137288">
                <g id="Group_137287" data-name="Group 137287">
                  <g id="Group_137286" data-name="Group 137286">
                    <g id="Group_137285" data-name="Group 137285">
                      <g id="Group_137284" data-name="Group 137284">
                        <path id="Path_151916" data-name="Path 151916" d="M394.586,289.044c-5.388,0-16.38-7.716-16.845-8.044a.442.442,0,1,1,.51-.723c.112.079,11.227,7.883,16.335,7.883,4.887,0,5.97-5.338,5.98-5.393a.442.442,0,0,1,.869.167C401.424,282.995,400.2,289.044,394.586,289.044Z" transform="translate(-377.553 -280.196)" fill="#1c2b74"/>
                      </g>
                    </g>
                  </g>
                </g>
              </g>
            </g>
            <g id="Group_137305" data-name="Group 137305" transform="translate(104.145)">
              <g id="Group_137290" data-name="Group 137290">
                <path id="Path_151917" data-name="Path 151917" d="M491.528,272.517s-2.938,7.168-6.94,7.926c-3.369.639-7.913-5.358-7.913-5.358-1.7-2.883-1.786-4.43-1.9-7.432s4.907-5.207,4.907-5.207,5.68-10.561,7.636-11.085-2.235,9.966-2.235,9.966a1.922,1.922,0,0,1,1.841-.061,18.024,18.024,0,0,1,5.895,5.608C493.907,268.757,491.528,272.517,491.528,272.517Z" transform="translate(-474.777 -251.342)" fill="#eaad8f"/>
              </g>
              <g id="Group_137292" data-name="Group 137292" transform="translate(0.975 11.64)">
                <g id="Group_137291" data-name="Group 137291">
                  <path id="Path_151918" data-name="Path 151918" d="M476.352,271.549c2.3-.489,5.221-.89,7.045-2.513.674-.6,1.337-1.65.864-2.559-.458-.881-1.7-1-2.553-1.182-.409-.089-.583.538-.174.628.877.191,2.264.257,2.134,1.425-.119,1.074-1.288,1.688-2.181,2.085a26.7,26.7,0,0,1-5.309,1.488c-.41.087-.236.715.174.628Z" transform="translate(-475.945 -265.287)" fill="#b4665e"/>
                </g>
              </g>
              <g id="Group_137294" data-name="Group 137294" transform="translate(8.595 14.183)">
                <g id="Group_137293" data-name="Group 137293">
                  <path id="Path_151919" data-name="Path 151919" d="M485.138,268.8a18.645,18.645,0,0,0,7.616,5.879c.386.163.554-.467.174-.628a17.827,17.827,0,0,1-7.227-5.58c-.252-.328-.819,0-.563.329Z" transform="translate(-485.073 -268.333)" fill="#b4665e"/>
                </g>
              </g>
              <g id="Group_137296" data-name="Group 137296" transform="translate(7.199 18.348)">
                <g id="Group_137295" data-name="Group 137295">
                  <path id="Path_151920" data-name="Path 151920" d="M486.417,273.4a7.889,7.889,0,0,0-2.972,7.115c.041.413.693.417.652,0a7.3,7.3,0,0,1,2.781-6.655c.326-.265-.138-.723-.461-.461Z" transform="translate(-483.402 -273.322)" fill="#b4665e"/>
                </g>
              </g>
              <g id="Group_137298" data-name="Group 137298" transform="translate(9.756 10.727)">
                <g id="Group_137297" data-name="Group 137297">
                  <path id="Path_151921" data-name="Path 151921" d="M487.068,269.158a14.34,14.34,0,0,1,3.155-4.423c.321-.27-.142-.729-.461-.461a14.821,14.821,0,0,0-3.257,4.555c-.2.371.366.7.563.329Z" transform="translate(-486.464 -264.193)" fill="#b4665e"/>
                </g>
              </g>
              <g id="Group_137300" data-name="Group 137300" transform="translate(11.852 12.804)">
                <g id="Group_137299" data-name="Group 137299">
                  <path id="Path_151922" data-name="Path 151922" d="M489.572,271.811a17.815,17.815,0,0,1,3.19-4.569c.289-.3-.171-.766-.461-.461a18.349,18.349,0,0,0-3.291,4.7c-.18.376.381.708.562.329Z" transform="translate(-488.975 -266.681)" fill="#b4665e"/>
                </g>
              </g>
              <g id="Group_137302" data-name="Group 137302" transform="translate(14.708 15.333)">
                <g id="Group_137301" data-name="Group 137301">
                  <path id="Path_151923" data-name="Path 151923" d="M492.52,273.379l-.092.141.563.329a9.459,9.459,0,0,1,2.559-3.594c.317-.276-.145-.735-.461-.461a9.82,9.82,0,0,0-2.661,3.725.326.326,0,0,0,.563.329l.092-.141c.229-.352-.335-.68-.563-.329Z" transform="translate(-492.396 -269.71)" fill="#b4665e"/>
                </g>
              </g>
              <g id="Group_137304" data-name="Group 137304" transform="translate(8.504 9.982)">
                <g id="Group_137303" data-name="Group 137303">
                  <path id="Path_151924" data-name="Path 151924" d="M486.212,263.445a8.2,8.2,0,0,0-1.235,2.535.326.326,0,0,0,.628.174,7.678,7.678,0,0,1,1.169-2.38c.24-.345-.324-.671-.563-.329Z" transform="translate(-484.965 -263.3)" fill="#b4665e"/>
                </g>
              </g>
            </g>
          </g>
          <g id="Group_137346" data-name="Group 137346" transform="translate(0 51.41)">
            <g id="Group_137311" data-name="Group 137311">
              <g id="Group_137310" data-name="Group 137310">
                <g id="Group_137309" data-name="Group 137309">
                  <g id="Group_137308" data-name="Group 137308">
                    <g id="Group_137307" data-name="Group 137307">
                      <path id="Path_151925" data-name="Path 151925" d="M358.063,278.594a8.945,8.945,0,0,0-12.175,1.964c-.285.377-.544.718-.806,1.079L344.3,282.7c-.522.71-1.032,1.422-1.546,2.136a.127.127,0,0,1-.013.018c-.143.2-.287.4-.427.6-.023.032-.044.063-.065.093-.853,1.192-1.682,2.395-2.519,3.6-1.005,1.44-1.977,2.9-2.956,4.366l-1.459,2.2-1.437,2.224-.028.046q-.215.333-.425.665-1.62,2.544-3.192,5.155c-.108.176-.216.356-.322.534q-.811,1.355-1.607,2.73c-.9,1.568-1.791,3.156-2.658,4.81-.432.828-.864,1.671-1.287,2.541-.12.245-.238.492-.358.742-.083.173-.164.348-.246.525-.22.475-.439.964-.655,1.473-.2.484-.411.985-.616,1.522s-.408,1.1-.61,1.755c-.082.273-.168.556-.248.866-.119.433-.231.919-.336,1.5a13.34,13.34,0,0,0-.194,1.894l0,.146v.169l.007.336c0,.134.008.175.012.251l.017.206.035.414.023.206.026.184c.033.24.072.483.117.725.043.221.089.434.137.65s.1.407.154.6l.079.29.043.145.041.133.173.529c.057.179.119.328.179.492.118.335.241.631.366.928a27.909,27.909,0,0,0,1.56,3.12c.1.167.193.334.289.5.771,1.31,1.564,2.5,2.37,3.634l.345.482c.1.14.2.281.307.421,1.065,1.452,2.16,2.826,3.266,4.159.067.083.136.166.205.25l.256.3c2.281,2.7,4.637,5.236,7.057,7.695.429.437.861.867,1.3,1.3q.26.26.53.521c.657.648,1.324,1.288,1.989,1.924q.975.915,1.96,1.821c.331.3.664.6,1,.894l.508.451.527.46A5.965,5.965,0,0,0,354.678,351l-.084-.11-2.989-4.044q-.4-.538-.8-1.079c-.124-.169-.248-.337-.372-.5-.609-.831-1.211-1.664-1.813-2.493-1.737-2.4-3.441-4.809-5.045-7.211l-.376-.568-.255-.388q-.6-.9-1.166-1.8c-.122-.193-.241-.385-.361-.578q-.518-.836-1.012-1.663c-.394-.664-.765-1.328-1.11-1.972s-.664-1.273-.934-1.867c-.194-.435-.369-.856-.5-1.22.057-.127.123-.271.194-.424.125-.263.268-.552.422-.851.311-.6.658-1.255,1.033-1.913s.77-1.339,1.181-2.019c.381-.634.773-1.276,1.172-1.917l.363-.58q.513-.82,1.043-1.641c.89-1.392,1.806-2.787,2.735-4.181s1.872-2.791,2.816-4.19l1.859-2.727.362-.533.64-.938,2.894-4.2,2.9-4.2,2.872-4.174.008-.011a8.923,8.923,0,0,0-2.292-12.413ZM337.685,324.81l0,.044,0,.09,0,.051a1.247,1.247,0,0,1-.038-.145,1.151,1.151,0,0,1-.029-.119.912.912,0,0,0-.015-.092l0-.023,0-.013v-.023c0-.015,0-.038.007-.026s.009,0,.012.012a.349.349,0,0,1,.028.087l0,.023.009.043C337.677,324.749,337.681,324.781,337.685,324.81Z" transform="translate(-321.087 -277.026)" fill="#314fa5"/>
                    </g>
                  </g>
                </g>
              </g>
            </g>
            <g id="Group_137313" data-name="Group 137313" transform="translate(12.333 7.827)">
              <g id="Group_137312" data-name="Group 137312">
                <path id="Path_151926" data-name="Path 151926" d="M344.805,292.9c-1.327,3.584-4.947,7.178-8.944,7.3q.21-.333.425-.665c3.589-.359,6.764-3.67,7.952-6.918a10.5,10.5,0,0,0,.448-5.519c.021-.031.042-.062.065-.094.14-.2.285-.4.427-.6A11.234,11.234,0,0,1,344.805,292.9Z" transform="translate(-335.861 -286.402)" fill="#5880eb"/>
              </g>
            </g>
            <g id="Group_137315" data-name="Group 137315" transform="translate(18.723 26.001)">
              <g id="Group_137314" data-name="Group 137314">
                <path id="Path_151927" data-name="Path 151927" d="M354.746,309.672l-.362.533A5.523,5.523,0,0,0,349.237,309a7.228,7.228,0,0,0-4.731,5.172c-.843,3.1-.029,6.054,1.426,8.774l-.363.58c-1.9-3.443-2.908-7.248-1.116-11.015a7.313,7.313,0,0,1,5.473-4.287A6.152,6.152,0,0,1,354.746,309.672Z" transform="translate(-343.516 -308.174)" fill="#5880eb"/>
              </g>
            </g>
            <g id="Group_137317" data-name="Group 137317" transform="translate(5.626 55.197)">
              <g id="Group_137316" data-name="Group 137316">
                <path id="Path_151928" data-name="Path 151928" d="M342.89,343.728c-.53.166-1.058.318-1.578.456-4.346,1.158-9.848,2.264-13.141,5.587l-.345-.482c2.682-2.639,6.666-4.006,10.276-4.935,1.392-.359,2.909-.739,4.427-1.2C342.649,343.343,342.768,343.535,342.89,343.728Z" transform="translate(-327.827 -343.15)" fill="#5880eb"/>
              </g>
            </g>
            <g id="Group_137319" data-name="Group 137319" transform="translate(20.674 57.964)">
              <g id="Group_137318" data-name="Group 137318">
                <path id="Path_151929" data-name="Path 151929" d="M354.9,357.24a8,8,0,0,1-1.57.864,4.534,4.534,0,0,1-5.593-1.286c-1.985-2.639-2.794-7.777-.444-10.353l.376.568c-2.12,2.507-1.221,7.48.874,9.762,1.654,1.8,4.189,1.168,5.984-.058C354.65,356.9,354.773,357.071,354.9,357.24Z" transform="translate(-345.854 -346.464)" fill="#5880eb"/>
              </g>
            </g>
            <g id="Group_137321" data-name="Group 137321" transform="translate(9.545 66.221)">
              <g id="Group_137320" data-name="Group 137320">
                <path id="Path_151930" data-name="Path 151930" d="M341.869,366.6q-.269-.26-.53-.521a7.644,7.644,0,0,0-3.306-7.96,7.19,7.19,0,0,0-5.051-1.033l-.256-.3c-.069-.083-.139-.166-.205-.25a7.8,7.8,0,0,1,5.864,1.058A8.313,8.313,0,0,1,341.869,366.6Z" transform="translate(-332.521 -356.356)" fill="#5880eb"/>
              </g>
            </g>
            <g id="Group_137323" data-name="Group 137323" transform="translate(2.662 26.777)">
              <g id="Group_137322" data-name="Group 137322">
                <path id="Path_151931" data-name="Path 151931" d="M332,317.321a6.731,6.731,0,0,1-7.725,3.665c.083-.177.164-.352.246-.525a5.892,5.892,0,0,0,2.532.05,6.28,6.28,0,0,0,4.753-4.533,7.464,7.464,0,0,0-1.375-6.341c.106-.179.214-.358.322-.534C332.535,311.5,333.424,314.282,332,317.321Z" transform="translate(-324.276 -309.104)" fill="#5880eb"/>
              </g>
            </g>
            <g id="Group_137325" data-name="Group 137325" transform="translate(31.917 9.713)">
              <g id="Group_137324" data-name="Group 137324">
                <path id="Path_151932" data-name="Path 151932" d="M359.76,303.4a.41.41,0,0,0,.308-.176c2.68-3.9,10.09-13.814,10.165-13.913a.409.409,0,1,0-.654-.489c-.074.1-7.494,10.023-10.183,13.94a.408.408,0,0,0,.365.639Z" transform="translate(-359.323 -288.662)" fill="#1c2b74"/>
              </g>
            </g>
            <g id="Group_137328" data-name="Group 137328" transform="translate(0 44.275)">
              <g id="Group_137327" data-name="Group 137327">
                <g id="Group_137326" data-name="Group 137326">
                  <path id="Path_151933" data-name="Path 151933" d="M321.093,334.116c0,.133.009.175.013.25l.016.206.037.414.022.206.026.184c.034.242.073.484.116.726.044.22.091.434.139.649s.1.409.154.6l.08.291.042.144.041.133.172.528c.058.18.118.329.178.494.119.333.243.629.366.928a28.2,28.2,0,0,0,1.559,3.119q.145.252.29.5c.407-6.539-1.1-10.793-2.724-13.427-.119.433-.231.92-.336,1.5a13.131,13.131,0,0,0-.193,1.894l0,.148v.169Z" transform="translate(-321.087 -330.066)" fill="#1c2b74"/>
                </g>
              </g>
            </g>
            <g id="Group_137333" data-name="Group 137333" transform="translate(10.769 45.689)">
              <g id="Group_137332" data-name="Group 137332">
                <g id="Group_137331" data-name="Group 137331">
                  <g id="Group_137330" data-name="Group 137330">
                    <g id="Group_137329" data-name="Group 137329">
                      <path id="Path_151934" data-name="Path 151934" d="M339.742,334.545a.35.35,0,0,0,.19-.634,12.965,12.965,0,0,0-5.563-2.149.35.35,0,1,0-.063.7,12.48,12.48,0,0,1,5.221,2.023A.35.35,0,0,0,339.742,334.545Z" transform="translate(-333.988 -331.76)" fill="#1c2b74"/>
                    </g>
                  </g>
                </g>
              </g>
            </g>
            <g id="Group_137338" data-name="Group 137338" transform="translate(13.889 44.881)">
              <g id="Group_137337" data-name="Group 137337">
                <g id="Group_137336" data-name="Group 137336">
                  <g id="Group_137335" data-name="Group 137335">
                    <g id="Group_137334" data-name="Group 137334">
                      <path id="Path_151935" data-name="Path 151935" d="M339.978,334.08a.368.368,0,0,0,.114-.023.349.349,0,0,0,.2-.452,8.483,8.483,0,0,0-1.983-2.723.349.349,0,0,0-.468.518,7.935,7.935,0,0,1,1.8,2.456A.348.348,0,0,0,339.978,334.08Z" transform="translate(-337.726 -330.792)" fill="#1c2b74"/>
                    </g>
                  </g>
                </g>
              </g>
            </g>
            <g id="Group_137345" data-name="Group 137345" transform="translate(23.584 72.223)">
              <g id="Group_137344" data-name="Group 137344">
                <g id="Group_137343" data-name="Group 137343">
                  <g id="Group_137342" data-name="Group 137342">
                    <g id="Group_137341" data-name="Group 137341">
                      <g id="Group_137340" data-name="Group 137340">
                        <g id="Group_137339" data-name="Group 137339">
                          <path id="Path_151936" data-name="Path 151936" d="M358.814,363.547a30.342,30.342,0,0,1,4.62.3,4.1,4.1,0,0,1,2.4,1.01l.2,3.424a13.7,13.7,0,0,1,4.339.536c2.2.672,3.772,2.5,4.771,3.22s-.758,1.766-2.579,1.074a14.727,14.727,0,0,0-4.125-.977,13.725,13.725,0,0,1,3.528,1.644c1.265.962,4.056,2.63,3.786,3.74s-2.9-.229-4.776-.826-2.657-1.144-4.287-1.291a10.617,10.617,0,0,1,2.607,1.683,20.028,20.028,0,0,1,2.832,3.209c.387.834-1.781,1.056-3.5-.027s-2.422-2.434-3.683-2.346a24.543,24.543,0,0,1,1.761,2.055c.649.9,1.35,3.6.389,3.885s-3.21-2.915-4.8-3.438a80.626,80.626,0,0,1-8.275-3.354,9.192,9.192,0,0,1-4.509-4.651,2.072,2.072,0,0,1,.034-1.741A13.337,13.337,0,0,1,358.814,363.547Z" transform="translate(-349.34 -363.546)" fill="#eaad8f"/>
                        </g>
                      </g>
                    </g>
                  </g>
                </g>
              </g>
            </g>
          </g>
          <g id="Group_137348" data-name="Group 137348" transform="translate(27.406)">
            <g id="Group_137347" data-name="Group 137347">
              <path id="Path_151937" data-name="Path 151937" d="M379.649,219.831s-11.845-2.67-16.45,4.888.759,19.384.759,19.384-.427,3.076-6.61,5.575-3.308,12.409,3.069,11.018c0,0,2.27,9.1,9.11,3.967s17.188-3.683,17.188-3.683,3.859,3.288,8.331,1.052,1.316-5.656,1.316-5.656a5.836,5.836,0,0,0,7.371-2.362c2.9-4.721-4.855-8.25-5.529-10.66-2.448-8.748.976-6.891,4.358-11.722,4.129-5.9-3.723-10.789-7.165-6.406,0,0,5.156-5.16-.772-8.85C389.207,213,379.649,219.831,379.649,219.831Z" transform="translate(-353.919 -215.439)" fill="#171612"/>
            </g>
          </g>
          <g id="Group_137437" data-name="Group 137437" transform="translate(40.042 7.77)">
            <g id="Group_137436" data-name="Group 137436">
              <g id="Group_137435" data-name="Group 137435">
                <g id="Group_137351" data-name="Group 137351" transform="translate(25.741 14.92)">
                  <g id="Group_137350" data-name="Group 137350">
                    <g id="Group_137349" data-name="Group 137349">
                      <path id="Path_151938" data-name="Path 151938" d="M400.969,242.621a2.408,2.408,0,0,1,2.212,2.059c.537,2.084-.164,5.727-2.351,5.515S400.969,242.621,400.969,242.621Z" transform="translate(-399.892 -242.621)" fill="#c6695d"/>
                    </g>
                  </g>
                </g>
                <g id="Group_137353" data-name="Group 137353" transform="translate(22.229 20.801)">
                  <g id="Group_137352" data-name="Group 137352">
                    <path id="Path_151939" data-name="Path 151939" d="M395.684,254.322a4.655,4.655,0,1,1,4.655,4.655A4.66,4.66,0,0,1,395.684,254.322Zm.843,0a3.812,3.812,0,1,0,3.812-3.812A3.816,3.816,0,0,0,396.527,254.322Z" transform="translate(-395.684 -249.667)" fill="#fff"/>
                  </g>
                </g>
                <g id="Group_137358" data-name="Group 137358" transform="translate(5.705 24.873)">
                  <g id="Group_137355" data-name="Group 137355" transform="translate(16.945 7.093)">
                    <g id="Group_137354" data-name="Group 137354">
                      <line id="Line_220" data-name="Line 220" y2="0.002" fill="#eaad8f"/>
                    </g>
                  </g>
                  <g id="Group_137357" data-name="Group 137357">
                    <g id="Group_137356" data-name="Group 137356">
                      <path id="Path_151940" data-name="Path 151940" d="M375.89,269.31a13.251,13.251,0,0,0,9.743,5.422c7.992.334,8.544-3.153,8.544-3.153a15.027,15.027,0,0,1-.959-3.2q-.119-.64-.2-1.324a36.224,36.224,0,0,1-.2-4.209q0-.56.01-1.16v-.047c-5.586-.737-10.3-2.7-13.761-6.416l-.868-.4-.584-.275-.069.329.207,1C378.749,260.592,378.076,264.649,375.89,269.31Z" transform="translate(-375.89 -254.545)" fill="#eaad8f"/>
                    </g>
                  </g>
                </g>
                <g id="Group_137361" data-name="Group 137361" transform="translate(13.096 29.361)">
                  <g id="Group_137360" data-name="Group 137360">
                    <g id="Group_137359" data-name="Group 137359">
                      <path id="Path_151941" data-name="Path 151941" d="M384.743,259.921c1.417,2.486,4.559,6.818,9.742,8.024a36.21,36.21,0,0,1-.2-4.209q0-.56.01-1.16c-.106.024-.216.044-.326.063C391.02,263.137,387.635,261.934,384.743,259.921Z" transform="translate(-384.743 -259.921)" fill="#171612"/>
                    </g>
                  </g>
                </g>
                <g id="Group_137362" data-name="Group 137362" transform="translate(4.833 33.37)">
                  <path id="Path_151942" data-name="Path 151942" d="M374.845,271.611s.73-6.758,1.84-6.884,5.022,4.3,10.079,4.012,6.146-3.875,7.241-2.407,1.427,6.48,1.427,6.48-.693,4.478-6.382,4.827S375.852,273.54,374.845,271.611Z" transform="translate(-374.845 -264.724)" fill="#314fa5"/>
                </g>
                <g id="Group_137364" data-name="Group 137364" transform="translate(5.982 34.246)">
                  <g id="Group_137363" data-name="Group 137363">
                    <path id="Path_151943" data-name="Path 151943" d="M377.908,265.98a14.616,14.616,0,0,0-1.687,7.463.432.432,0,0,0,.863,0,13.749,13.749,0,0,1,1.569-7.027.432.432,0,0,0-.745-.436Z" transform="translate(-376.221 -265.772)" fill="#5880eb"/>
                  </g>
                </g>
                <g id="Group_137366" data-name="Group 137366" transform="translate(8.841 35.739)">
                  <g id="Group_137365" data-name="Group 137365">
                    <path id="Path_151944" data-name="Path 151944" d="M380.993,267.847a19.685,19.685,0,0,0-1.346,7.817.432.432,0,0,0,.864,0,19.074,19.074,0,0,1,1.316-7.587c.213-.512-.622-.736-.833-.23Z" transform="translate(-379.646 -267.562)" fill="#5880eb"/>
                  </g>
                </g>
                <g id="Group_137368" data-name="Group 137368" transform="translate(12.505 36.951)">
                  <g id="Group_137367" data-name="Group 137367">
                    <path id="Path_151945" data-name="Path 151945" d="M384.779,269.325a48.431,48.431,0,0,0-.743,7.911.432.432,0,0,0,.863,0,47.122,47.122,0,0,1,.713-7.681c.1-.543-.736-.777-.833-.23Z" transform="translate(-384.036 -269.013)" fill="#5880eb"/>
                  </g>
                </g>
                <g id="Group_137370" data-name="Group 137370" transform="translate(16.22 37.492)">
                  <g id="Group_137369" data-name="Group 137369">
                    <path id="Path_151946" data-name="Path 151946" d="M388.486,270.078q.014,4.2.029,8.4a.432.432,0,0,0,.864,0q-.015-4.2-.03-8.4a.432.432,0,0,0-.863,0Z" transform="translate(-388.486 -269.661)" fill="#5880eb"/>
                  </g>
                </g>
                <g id="Group_137371" data-name="Group 137371" transform="translate(4.492 40.481)">
                  <path id="Path_151947" data-name="Path 151947" d="M387.057,279.878c-.177,0-.358,0-.542-.011-6.217-.249-11.719-5.653-11.95-5.883a.434.434,0,1,1,.613-.616c.054.054,5.5,5.4,11.373,5.632,6.457.254,8.242-4.367,8.314-4.564a.435.435,0,0,1,.816.3C395.66,274.788,393.726,279.878,387.057,279.878Z" transform="translate(-374.436 -273.242)" fill="#5880eb"/>
                </g>
                <g id="Group_137373" data-name="Group 137373" transform="translate(19.463 36.774)">
                  <g id="Group_137372" data-name="Group 137372">
                    <path id="Path_151948" data-name="Path 151948" d="M392.391,269.334a28.587,28.587,0,0,1,1.171,8.1.432.432,0,0,0,.864,0,29.406,29.406,0,0,0-1.2-8.334.432.432,0,0,0-.832.23Z" transform="translate(-392.371 -268.802)" fill="#5880eb"/>
                  </g>
                </g>
                <g id="Group_137375" data-name="Group 137375" transform="translate(22.157 35.25)">
                  <g id="Group_137374" data-name="Group 137374">
                    <path id="Path_151949" data-name="Path 151949" d="M395.631,267.494a20.572,20.572,0,0,1,1.5,7.614.432.432,0,0,0,.863,0,21.22,21.22,0,0,0-1.526-7.843c-.2-.509-1.041-.287-.833.23Z" transform="translate(-395.599 -266.976)" fill="#5880eb"/>
                  </g>
                </g>
                <g id="Group_137378" data-name="Group 137378">
                  <g id="Group_137377" data-name="Group 137377">
                    <g id="Group_137376" data-name="Group 137376">
                      <path id="Path_151950" data-name="Path 151950" d="M369.059,242.438a6.894,6.894,0,0,0,6.668,6.48h.105c.069.169.148.334.23.5.036.072.073.146.11.219a.119.119,0,0,0,.012.02c2.618,4.961,9.934,7.658,13.833,7.615a8.871,8.871,0,0,0,2.613-.442c4.094-1.055,4.653-6.664,3.841-10.9a16.232,16.232,0,0,0-.435-1.74l-.035-.111s1.154-6.018,1.379-8.632c.432-5.068-2.659-10.08-13.758-10.664s-13.487,6.383-14.124,10.055c-.109.612.154,4.222.781,4.782A2.952,2.952,0,0,0,369.059,242.438Z" transform="translate(-369.055 -224.748)" fill="#eaad8f"/>
                    </g>
                  </g>
                </g>
                <g id="Group_137390" data-name="Group 137390" transform="translate(15.824 15.062)">
                  <g id="Group_137383" data-name="Group 137383" transform="translate(1.484 0.526)">
                    <g id="Group_137382" data-name="Group 137382">
                      <g id="Group_137381" data-name="Group 137381">
                        <g id="Group_137380" data-name="Group 137380">
                          <g id="Group_137379" data-name="Group 137379">
                            <path id="Path_151951" data-name="Path 151951" d="M389.791,244.786c-.023.766.281,1.4.679,1.408s.739-.6.761-1.365-.28-1.4-.678-1.408S389.813,244.02,389.791,244.786Z" transform="translate(-389.789 -243.421)" fill="#171612"/>
                          </g>
                        </g>
                      </g>
                    </g>
                  </g>
                  <g id="Group_137389" data-name="Group 137389">
                    <g id="Group_137388" data-name="Group 137388">
                      <g id="Group_137387" data-name="Group 137387">
                        <g id="Group_137386" data-name="Group 137386">
                          <g id="Group_137385" data-name="Group 137385">
                            <g id="Group_137384" data-name="Group 137384">
                              <path id="Path_151952" data-name="Path 151952" d="M391.593,243.595a.2.2,0,0,0,.091-.085.2.2,0,0,0-.079-.275,3.253,3.253,0,0,0-3.524.2.2.2,0,0,0,.265.307,2.894,2.894,0,0,1,3.062-.154A.2.2,0,0,0,391.593,243.595Z" transform="translate(-388.011 -242.791)" fill="#171612"/>
                            </g>
                          </g>
                        </g>
                      </g>
                    </g>
                  </g>
                </g>
                <g id="Group_137401" data-name="Group 137401" transform="translate(22.879 15.44)">
                  <g id="Group_137394" data-name="Group 137394" transform="translate(1.099 0.461)">
                    <g id="Group_137393" data-name="Group 137393">
                      <g id="Group_137392" data-name="Group 137392">
                        <g id="Group_137391" data-name="Group 137391">
                          <path id="Path_151953" data-name="Path 151953" d="M397.781,245.162c-.023.766.281,1.4.679,1.408s.739-.6.762-1.365-.281-1.4-.679-1.408S397.8,244.4,397.781,245.162Z" transform="translate(-397.78 -243.797)" fill="#171612"/>
                        </g>
                      </g>
                    </g>
                  </g>
                  <g id="Group_137400" data-name="Group 137400">
                    <g id="Group_137399" data-name="Group 137399">
                      <g id="Group_137398" data-name="Group 137398">
                        <g id="Group_137397" data-name="Group 137397">
                          <g id="Group_137396" data-name="Group 137396">
                            <g id="Group_137395" data-name="Group 137395">
                              <path id="Path_151954" data-name="Path 151954" d="M400.012,244.306a.2.2,0,0,0,.06-.356,3.253,3.253,0,0,0-3.518-.277.2.2,0,1,0,.222.34,2.89,2.89,0,0,1,3.054.263A.2.2,0,0,0,400.012,244.306Z" transform="translate(-396.463 -243.245)" fill="#171612"/>
                            </g>
                          </g>
                        </g>
                      </g>
                    </g>
                  </g>
                </g>
                <g id="Group_137405" data-name="Group 137405" transform="translate(6.673 22.774)">
                  <g id="Group_137404" data-name="Group 137404">
                    <g id="Group_137403" data-name="Group 137403">
                      <g id="Group_137402" data-name="Group 137402">
                        <path id="Path_151955" data-name="Path 151955" d="M377.049,253.426h.1c.069.169.149.334.231.5.035.073.073.146.109.219a.126.126,0,0,0,.012.021,3.58,3.58,0,0,0,1.48-.653,2.849,2.849,0,0,0,.76-.89.4.4,0,0,0-.7-.388,2.164,2.164,0,0,1-.926.875,2.856,2.856,0,0,1-.693.246A3.286,3.286,0,0,1,377.049,253.426Z" transform="translate(-377.049 -252.03)" fill="#c6695d"/>
                      </g>
                    </g>
                  </g>
                </g>
                <g id="Group_137408" data-name="Group 137408" transform="translate(25.12 19.442)" opacity="0.5">
                  <g id="Group_137407" data-name="Group 137407">
                    <g id="Group_137406" data-name="Group 137406">
                      <path id="Path_151956" data-name="Path 151956" d="M399.149,249.011c.025.442,1.01.755,2.3.766a16.255,16.255,0,0,0-.435-1.74C399.908,248.222,399.126,248.608,399.149,249.011Z" transform="translate(-399.148 -248.038)" fill="#c6695d"/>
                    </g>
                  </g>
                </g>
                <g id="Group_137411" data-name="Group 137411" transform="translate(0.365 21.814)">
                  <g id="Group_137410" data-name="Group 137410">
                    <g id="Group_137409" data-name="Group 137409">
                      <path id="Path_151957" data-name="Path 151957" d="M371.582,251.657c.252.176.5.354.76.523a3.808,3.808,0,1,0,2.143-.442.917.917,0,0,1-.557-.853q.109,0,.218-.005a4.67,4.67,0,1,1-2.564.777Z" transform="translate(-369.492 -250.88)" fill="#fff"/>
                    </g>
                  </g>
                </g>
                <g id="Group_137414" data-name="Group 137414" transform="translate(20.622 25.977)">
                  <g id="Group_137413" data-name="Group 137413">
                    <g id="Group_137412" data-name="Group 137412">
                      <path id="Path_151958" data-name="Path 151958" d="M394.671,256.637a1.38,1.38,0,0,1-.845-.374.233.233,0,1,1,.334-.326.949.949,0,0,0,1.05.138.234.234,0,0,1,.186.429A1.526,1.526,0,0,1,394.671,256.637Z" transform="translate(-393.76 -255.867)" fill="#c6695d"/>
                    </g>
                  </g>
                </g>
                <g id="Group_137417" data-name="Group 137417" transform="translate(19.377 23.139)">
                  <g id="Group_137416" data-name="Group 137416">
                    <g id="Group_137415" data-name="Group 137415">
                      <path id="Path_151959" data-name="Path 151959" d="M394.726,254.478l-.04,0a2.956,2.956,0,0,1-2.381-1.484.362.362,0,0,1,.647-.324,2.234,2.234,0,0,0,1.795,1.088l.033,0a2.193,2.193,0,0,0,1.856-.6.362.362,0,0,1,.563.453A2.9,2.9,0,0,1,394.726,254.478Z" transform="translate(-392.268 -252.468)" fill="#c6695d"/>
                    </g>
                  </g>
                </g>
                <g id="Group_137419" data-name="Group 137419" transform="translate(21.149 16.751)">
                  <g id="Group_137418" data-name="Group 137418">
                    <path id="Path_151960" data-name="Path 151960" d="M395.814,249.975a.337.337,0,0,0,.181-.053l1.482-.945a.337.337,0,0,0-.021-.581,4.856,4.856,0,0,1-2.4-3.329.338.338,0,0,0-.654.169,5.612,5.612,0,0,0,2.256,3.464l-1.025.654a.337.337,0,0,0,.182.621Z" transform="translate(-394.391 -244.815)" fill="#b4665e"/>
                  </g>
                </g>
                <g id="Group_137421" data-name="Group 137421" transform="translate(13.659 10.599)">
                  <g id="Group_137420" data-name="Group 137420">
                    <path id="Path_151961" data-name="Path 151961" d="M390.678,239.232a.819.819,0,0,0,.5-1.528,2.372,2.372,0,0,0-1.655-.2,5.94,5.94,0,0,0-4.105,3.332,15.185,15.185,0,0,1,4.342-1.631A4.636,4.636,0,0,1,390.678,239.232Z" transform="translate(-385.418 -237.445)" fill="#171612"/>
                  </g>
                </g>
                <g id="Group_137423" data-name="Group 137423" transform="translate(22.771 10.745)">
                  <g id="Group_137422" data-name="Group 137422">
                    <path id="Path_151962" data-name="Path 151962" d="M397.26,239.407a.819.819,0,0,1-.5-1.528,2.373,2.373,0,0,1,1.655-.194c3.024.632,3.22,2.791,3.22,2.791a10.869,10.869,0,0,0-3.456-1.091A4.579,4.579,0,0,0,397.26,239.407Z" transform="translate(-396.333 -237.62)" fill="#171612"/>
                  </g>
                </g>
                <g id="Group_137426" data-name="Group 137426" transform="translate(12.647 19.968)" opacity="0.5">
                  <g id="Group_137425" data-name="Group 137425">
                    <g id="Group_137424" data-name="Group 137424">
                      <path id="Path_151963" data-name="Path 151963" d="M389.809,249.436c.028.5-1.2.983-2.75,1.07s-2.825-.25-2.853-.755,1.2-.983,2.751-1.069S389.78,248.933,389.809,249.436Z" transform="translate(-384.205 -248.668)" fill="#c6695d"/>
                    </g>
                  </g>
                </g>
                <g id="Group_137430" data-name="Group 137430" transform="translate(2.264 16.868)">
                  <g id="Group_137429" data-name="Group 137429">
                    <g id="Group_137428" data-name="Group 137428">
                      <g id="Group_137427" data-name="Group 137427">
                        <path id="Path_151964" data-name="Path 151964" d="M376.455,249.922a.4.4,0,0,1-.342-.308c-.643-2.778-4.029-3.862-4.063-3.873a.4.4,0,0,1,.237-.767c.158.048,3.861,1.226,4.609,4.459a.4.4,0,0,1-.441.489Z" transform="translate(-371.767 -244.955)" fill="#c6695d"/>
                      </g>
                    </g>
                  </g>
                </g>
                <g id="Group_137434" data-name="Group 137434" transform="translate(3.048 18.519)">
                  <g id="Group_137433" data-name="Group 137433">
                    <g id="Group_137432" data-name="Group 137432">
                      <g id="Group_137431" data-name="Group 137431">
                        <path id="Path_151965" data-name="Path 151965" d="M373.058,248.82a.417.417,0,0,1-.147-.048.4.4,0,0,1-.154-.548,2.758,2.758,0,0,1,2.378-1.291.4.4,0,0,1,0,.8,1.957,1.957,0,0,0-1.676.881A.4.4,0,0,1,373.058,248.82Z" transform="translate(-372.706 -246.933)" fill="#c6695d"/>
                      </g>
                    </g>
                  </g>
                </g>
              </g>
            </g>
          </g>
          <g id="Group_137439" data-name="Group 137439" transform="translate(39.496 6.946)">
            <g id="Group_137438" data-name="Group 137438">
              <path id="Path_151966" data-name="Path 151966" d="M382.956,230.645a5.093,5.093,0,0,1-1.854,5.029,15.278,15.278,0,0,1-3.447,2.049s3.971,8.485.75,9.863-3.2-8.083-8.233-8.13c0,0-1.825-.306-1.769-3.477s5.084-12.386,13.359-12.217,15.769,3.933,16.293,9.721-.77,4.7-.77,4.7.449-3.4-3.64-5.77C390.252,230.449,382.956,230.645,382.956,230.645Z" transform="translate(-368.402 -223.76)" fill="#171612"/>
            </g>
          </g>
        </g>
      </g>
      <g id="Group_137453" data-name="Group 137453" transform="translate(53.935 106.607)">
        <g id="Group_137443" data-name="Group 137443" transform="translate(0 29.204)">
          <g id="Group_137442" data-name="Group 137442">
            <path id="Path_151967" data-name="Path 151967" d="M365.1,389.555l-3.885-7.389a2.75,2.75,0,0,1,2.463-4.029l61.071.659-1.8,9.46Z" transform="translate(-360.895 -378.136)" fill="#171612"/>
          </g>
        </g>
        <g id="Group_137445" data-name="Group 137445" transform="translate(4.205)">
          <g id="Group_137444" data-name="Group 137444">
            <path id="Path_151968" data-name="Path 151968" d="M422.725,381.693H368.071a2.1,2.1,0,0,1-2.124-2.388l3.726-33.767a2.735,2.735,0,0,1,2.651-2.388h54.655a2.1,2.1,0,0,1,2.124,2.388L425.377,379.3A2.736,2.736,0,0,1,422.725,381.693Z" transform="translate(-365.932 -343.15)" fill="#fff"/>
          </g>
        </g>
        <g id="Group_137447" data-name="Group 137447" transform="translate(5.068 2.909)">
          <g id="Group_137446" data-name="Group 137446">
            <path id="Path_151969" data-name="Path 151969" d="M367.428,383.725a.446.446,0,0,1-.058,0,.461.461,0,0,1-.4-.514l4.537-36.168a.461.461,0,0,1,.915.114l-4.537,36.168A.461.461,0,0,1,367.428,383.725Z" transform="translate(-366.966 -346.635)" fill="#171612"/>
          </g>
        </g>
        <g id="Group_137450" data-name="Group 137450" transform="translate(32.104 15.26)">
          <g id="Group_137449" data-name="Group 137449">
            <g id="Group_137448" data-name="Group 137448">
              <path id="Path_151970" data-name="Path 151970" d="M399.369,366.043a4.811,4.811,0,0,0,4.462,5.22,4.966,4.966,0,0,0,5.219-4.6,4.811,4.811,0,0,0-4.463-5.219A4.966,4.966,0,0,0,399.369,366.043Z" transform="translate(-399.354 -361.431)" fill="#171612"/>
            </g>
          </g>
        </g>
        <g id="Group_137452" data-name="Group 137452" transform="translate(3.843 35.341)">
          <g id="Group_137451" data-name="Group 137451">
            <path id="Path_151971" data-name="Path 151971" d="M422.917,391.63H367.509a2.011,2.011,0,0,1-1.992-2.282l.528-3.861H425.51l-.6,4.4A2.01,2.01,0,0,1,422.917,391.63Z" transform="translate(-365.499 -385.487)" fill="#171612"/>
          </g>
        </g>
      </g>
    </g>
  </g>
</svg>
