<svg xmlns="http://www.w3.org/2000/svg" width="57" height="57" viewBox="0 0 57 57"><g transform="translate(-297 -1699)"><circle cx="28.5" cy="28.5" r="28.5" transform="translate(297 1699)" fill="#7b1fa2"/><g transform="translate(-746.002 1311.685)"><path d="M1071,430.216h-16.575c-.639,0-.824-.187-.824-.825V402.239c0-.639.186-.824.825-.824h33.149c.639,0,.825.187.825.825v27.151c0,.639-.188.825-.825.825Zm16.174-10.818V402.645h-32.355V419.4Zm.009,1.243h-32.351V421.8h32.351Zm0,2.4h-32.353V424.2h32.352Zm-32.35,2.382v1.164h32.337V425.42Zm0,2.4v1.168h32.339v-1.168Z" fill="#fff"/><path d="M1078.011,425.234h-11.734c-.661,0-.791-.12-.869-.789a1.82,1.82,0,0,0-1.668-1.607c-.555-.052-.722-.229-.723-.781V414c0-.533.177-.723.7-.767a1.808,1.808,0,0,0,1.7-1.694c.044-.524.232-.7.761-.7h23.693c.521,0,.707.181.752.712a1.808,1.808,0,0,0,1.706,1.686c.5.042.691.235.691.737q0,4.068,0,8.135c0,.5-.192.689-.694.733a1.817,1.817,0,0,0-1.7,1.656c-.06.595-.222.742-.84.742h-11.771Zm-5.993-7.21a5.387,5.387,0,1,0,0-.007v.006Zm10.024,5.994h7.425a3.085,3.085,0,0,1,2.338-2.336v-7.3a3.086,3.086,0,0,1-2.338-2.327h-7.374a7.269,7.269,0,0,1-.052,11.961Zm-17.814-9.633v7.276a3.149,3.149,0,0,1,2.345,2.343h7.4a7.242,7.242,0,0,1,.013-11.956h-7.424a3.089,3.089,0,0,1-2.338,2.337Z" transform="translate(-7.014 -7.018)" fill="#fff"/><path d="M1114.237,427.426a2.44,2.44,0,0,1-1.77-1.947,1.612,1.612,0,0,1-.028-.41.6.6,0,0,1,1.184-.057,1.767,1.767,0,0,1,.013.187,1.2,1.2,0,1,0,1.229-1.3,2.391,2.391,0,0,1-.974-4.589.451.451,0,0,0,.35-.508c-.026-.618.176-.9.584-.9s.622.283.6.89a.447.447,0,0,0,.334.518,2.352,2.352,0,0,1,1.469,2.159c-.01.3-.14.547-.425.582a.965.965,0,0,1-.626-.192c-.109-.081-.128-.31-.151-.478a1.228,1.228,0,0,0-1.124-1.076,1.2,1.2,0,1,0-.13,2.395l.084,0a2.406,2.406,0,0,1,2.29,1.773,2.372,2.372,0,0,1-1.428,2.841c-.227.09-.319.191-.291.429a1.462,1.462,0,0,1-.011.447.567.567,0,0,1-.6.5.555.555,0,0,1-.575-.533A6.391,6.391,0,0,1,1114.237,427.426Z" transform="translate(-43.832 -12.281)" fill="#fff"/></g></g></svg>