<svg xmlns="http://www.w3.org/2000/svg" width="63" height="63" viewBox="0 0 63 63"><g transform="translate(-928 -1227)"><circle cx="31.5" cy="31.5" r="31.5" transform="translate(928 1227)" fill="#15157c"/><g transform="translate(-123.738 381.351)"><g transform="translate(1064.815 858.415)"><g transform="translate(0 0)"><path d="M1092.916,858.415h-24.979a3.127,3.127,0,0,0-3.123,3.123v19.985a3.122,3.122,0,0,0,2.343,3.024l.313-1.209a1.874,1.874,0,0,1-1.408-1.815V861.538a1.874,1.874,0,0,1,1.873-1.875h24.981a1.874,1.874,0,0,1,1.874,1.874h0v.624h1.247v-.623A3.126,3.126,0,0,0,1092.916,858.415Z" transform="translate(-1064.815 -858.415)" fill="#fff"/></g></g><g transform="translate(1067.313 860.913)"><g transform="translate(0 0)"><rect width="1.249" height="1.249" fill="#fff"/></g></g><g transform="translate(1069.812 860.913)"><g transform="translate(0 0)"><rect width="1.249" height="1.249" fill="#fff"/></g></g><g transform="translate(1072.309 860.913)"><g transform="translate(0 0)"><rect width="1.249" height="1.249" fill="#fff"/></g></g><g transform="translate(1071.06 868.407)"><g transform="translate(0)"><path d="M1120.081,922.708l-5.924-5.924a8.635,8.635,0,0,0,.742-1.754h.993v-1.247h-.722a8.415,8.415,0,0,0-.525-4.475v-6.143H1113.4v3.977a8.817,8.817,0,0,0-1.247-1.3v-5.182H1110.9v4.306a8.685,8.685,0,0,0-1.248-.6v-6.2h-1.247V904a8.641,8.641,0,0,0-1.247-.175v-4.406h-1.247v4.4a8.654,8.654,0,0,0-1.248.175v-2.081h-1.248v2.46a8.723,8.723,0,0,0-1.247.6V901.29h-1.247v4.554a8.812,8.812,0,0,0-1.248,1.3v-4.6h-1.247v6.766a8.416,8.416,0,0,0-.525,4.475h-8.24v1.247h8.487a8.725,8.725,0,0,0,13.394,4.652l5.782,5.782a.624.624,0,0,0,.883,0h0l1.874-1.874A.625.625,0,0,0,1120.081,922.708Zm-13.557-2.681a7.494,7.494,0,1,1,7.5-7.494,7.494,7.494,0,0,1-7.5,7.494Zm11.242,4.113-5.253-5.253a8.87,8.87,0,0,0,.94-1.041l5.3,5.3Z" transform="translate(-1089.662 -898.169)" fill="#fff"/></g></g><g transform="translate(1081.677 876.526)"><g transform="translate(0 0)"><path d="M1138.145,930.471a6.245,6.245,0,1,0,6.245,6.245h0A6.245,6.245,0,0,0,1138.145,930.471Zm0,11.242a5,5,0,0,1-4.32-2.495h8.641A5,5,0,0,1,1138.145,941.713Zm-4.832-3.747a4.95,4.95,0,0,1,1.707-5.143v3.894h1.247v-4.628a4.979,4.979,0,0,1,1.247-.325v4.953h1.247v-4.953a4.978,4.978,0,0,1,1.248.325v4.628h1.247v-3.894a4.951,4.951,0,0,1,1.707,5.143Z" transform="translate(-1131.9 -930.471)" fill="#fff"/></g></g><g transform="translate(1068.562 863.411)"><g transform="translate(0 0)"><path d="M1107.824,878.293h-24.979a3.126,3.126,0,0,0-3.123,3.123V901.4a3.126,3.126,0,0,0,3.123,3.123h8.119v-1.247h-8.119a1.874,1.874,0,0,1-1.875-1.873V881.416a1.874,1.874,0,0,1,1.873-1.875h24.981a1.874,1.874,0,0,1,1.874,1.874h0V901.4a1.874,1.874,0,0,1-.468,1.239l.937.826a3.119,3.119,0,0,0,.781-2.065V881.416A3.127,3.127,0,0,0,1107.824,878.293Z" transform="translate(-1079.723 -878.293)" fill="#fff"/></g></g><g transform="translate(1071.06 865.909)"><g transform="translate(0 0)"><rect width="1.249" height="1.249" fill="#fff"/></g></g><g transform="translate(1073.559 865.909)"><g transform="translate(0 0)"><rect width="1.249" height="1.249" fill="#fff"/></g></g><g transform="translate(1076.057 865.909)"><g transform="translate(0 0)"><rect width="1.249" height="1.249" fill="#fff"/></g></g><g transform="translate(1072.309 879.025)"><g transform="translate(0 0)"><rect width="1.249" height="3.747" fill="#fff"/></g></g><g transform="translate(1074.807 875.277)"><g transform="translate(0 0)"><rect width="1.249" height="7.494" fill="#fff"/></g></g><g transform="translate(1077.306 877.151)"><g transform="translate(0 0)"><rect width="1.249" height="5.621" fill="#fff"/></g></g></g></g></svg>