<svg xmlns="http://www.w3.org/2000/svg" width="63" height="63" viewBox="0 0 63 63"><g transform="translate(-932 -3776)"><circle cx="31.5" cy="31.5" r="31.5" transform="translate(932 3776)" fill="#7b1fa2"/><g transform="translate(-930.105 745.648)"><g transform="translate(1872.105 3046.352)"><path d="M1872.1,3127.2c.058-.192.111-.385.176-.574a3.666,3.666,0,0,1,2.877-2.642c.64-.125,1.281-.247,1.911-.411a1.217,1.217,0,0,0,.533-.365,6.128,6.128,0,0,0,.436-.638.975.975,0,0,1,1.457-.26c.924.67,1.836,1.357,2.746,2.046a.652.652,0,1,1-.78,1.04c-.822-.6-1.635-1.216-2.449-1.823-.454.421-.457.443-.119.932.294.425.594.845.88,1.275a.654.654,0,1,1-1.064.744c-.342-.474-.677-.953-1-1.44a.392.392,0,0,0-.5-.2c-.578.146-1.168.25-1.753.369a2.493,2.493,0,0,0-2.048,2.407c-.009.231.013.464-.007.693-.031.36.137.49.477.488.87-.007,1.74,0,2.61,0,.524,0,.819.229.831.633s-.3.67-.836.672c-.8,0-1.605-.022-2.406.007a1.827,1.827,0,0,1-1.979-1.23Z" transform="translate(-1872.105 -3102.691)" fill="#fff"/><path d="M1910.054,3131.833l3.927-3.378c.206-.177.409-.358.619-.531a1.156,1.156,0,0,1,1.821.263,2.74,2.74,0,0,1,.289.443,2.074,2.074,0,0,0,1.847,1.272c.792.1,1.57.311,2.353.479a5.163,5.163,0,0,1,4.069,4.4,13.592,13.592,0,0,1,.07,2.156,2.027,2.027,0,0,1-1.987,1.854c-.108.006-.217,0-.326,0q-12.685,0-25.371,0a2.441,2.441,0,0,1-1.6-.5,1.693,1.693,0,0,1-.7-1.2,7.535,7.535,0,0,1,.392-3.571,5.116,5.116,0,0,1,4.049-3.22c.963-.165,1.918-.377,2.87-.6a1.05,1.05,0,0,0,.531-.369c.275-.352.5-.744.75-1.115a1.156,1.156,0,0,1,1.873-.269q2.032,1.735,4.051,3.482Zm2.011,5.64c.14.007.234.016.328.016h10.4a2.025,2.025,0,0,0,.2,0,.751.751,0,0,0,.758-.828c0-.381.009-.761,0-1.142a3.993,3.993,0,0,0-3.213-3.888c-.97-.2-1.945-.381-2.91-.607a.486.486,0,0,0-.6.235q-1.689,2.351-3.4,4.684a.669.669,0,0,1-1.157.094c-.214-.218-.393-.47-.588-.707l-.2.121Zm-3.744-2.168c-.244.262-.422.466-.612.656-.51.51-.868.482-1.293-.1q-1.693-2.323-3.379-4.651a.412.412,0,0,0-.5-.2c-.992.227-1.99.429-2.99.625a3.641,3.641,0,0,0-2.95,2.667,8.8,8.8,0,0,0-.243,2.129c-.039.833.215,1.061,1.05,1.062h10.2c.068,0,.149.024.2-.005.1-.056.245-.128.267-.219.127-.528.227-1.062.325-1.6A1.353,1.353,0,0,0,1908.321,3135.3Zm.741-2.6-4.334-3.731-.812,1.228,3.215,4.419Zm6.313-3.729-4.3,3.7,1.916,1.922,3.2-4.4Zm-4.641,8.493-.261-1.285a6.011,6.011,0,0,0-.638.007c-.086.009-.218.082-.235.149-.089.364-.149.735-.224,1.129Zm-.687-3.864c-.241.364-.758.489-.63,1.032.063.269.286.267.488.236.268-.041.649.18.772-.233C1910.835,3134.11,1910.31,3133.966,1910.048,3133.608Z" transform="translate(-1889.156 -3106.785)" fill="#fff"/><path d="M1936.781,3051.481a44.4,44.4,0,0,1-.669,5.474,13.9,13.9,0,0,0-.116,2.434,10.136,10.136,0,0,1-1.075,4.519,8.863,8.863,0,0,1-3.031,3.51,6.645,6.645,0,0,1-8.5-.823,9.215,9.215,0,0,1-3.028-6.528,46.8,46.8,0,0,0-.651-4.667,27.387,27.387,0,0,1-.357-3.927,4.012,4.012,0,0,1,3.134-3.976,11.731,11.731,0,0,0,2.139-.689,7.494,7.494,0,0,1,4.137-.311c1.516.234,3.019.558,4.536.785a11.984,11.984,0,0,0,2.069.076c.657-.017.921.1,1.018.768C1936.554,3049.239,1936.654,3050.362,1936.781,3051.481Zm-11.215,2.417c-.5.033-1.343.08-2.182.153a.527.527,0,0,0-.368.231,10.314,10.314,0,0,0-1.4,5.285,8.652,8.652,0,0,0,2.7,6.1,5.378,5.378,0,0,0,7.493.179,8.4,8.4,0,0,0,2.875-6.052,6.715,6.715,0,0,0-.693-3.981,1.143,1.143,0,0,0-.584-.559A21.23,21.23,0,0,0,1925.566,3053.9Zm9.482,1.108c.051-.08.086-.111.091-.146a22.814,22.814,0,0,0,.1-5.854c-.026-.215-.116-.279-.34-.292-.744-.045-1.493-.087-2.229-.2-1.583-.244-3.154-.573-4.74-.787a5.286,5.286,0,0,0-3.543.635,2.01,2.01,0,0,1-.9.286,2.713,2.713,0,0,0-2.743,2.322,14.589,14.589,0,0,0,.025,2.794,16.227,16.227,0,0,0,.25,1.623l1.034-2.112a.784.784,0,0,1,.7-.478c.773-.053,1.543-.157,2.316-.182a21.229,21.229,0,0,1,8.974,1.493C1934.477,3054.286,1934.91,3054.455,1935.047,3055.006Z" transform="translate(-1907.257 -3046.352)" fill="#fff"/><path d="M1989.347,3070.275c.079-1.372.154-2.672.231-4.006-.771-.116-1.5-.24-2.238-.334-.983-.127-1.968-.236-2.954-.344a.672.672,0,0,1-.68-.666.632.632,0,0,1,.739-.632c1.027.094,2.051.23,3.076.347.89.1,1.779.207,2.67.294a.667.667,0,0,1,.687.736,51.68,51.68,0,0,1-.621,7.429c-.1.6-.018,1.228-.114,1.828a5.533,5.533,0,0,1-3.8,4.8,4.555,4.555,0,0,1-4.281-.763.64.64,0,0,1-.2-.925.6.6,0,0,1,.9-.161c2.078,1.673,5.134.569,5.961-2.473a6.112,6.112,0,0,0-.189-3.805.985.985,0,0,0-.429-.487,9.7,9.7,0,0,0-3.683-.953c-.553-.051-.854-.47-.656-.912a.68.68,0,0,1,.774-.39,11.026,11.026,0,0,1,4.514,1.272C1989.119,3070.173,1989.193,3070.2,1989.347,3070.275Z" transform="translate(-1953.666 -3059.696)" fill="#fff"/><path d="M1891.484,3071.8c.106-.5.464-.606.888-.642a16.815,16.815,0,0,1,4.265.234.646.646,0,0,1,.544.741.673.673,0,0,1-.786.543c-.8-.082-1.594-.235-2.391-.238-1.729-.006-1.288-.313-1.753,1.3a6.207,6.207,0,0,0,.142,4.2,3.933,3.933,0,0,0,3.625,2.582,3.7,3.7,0,0,0,1.98-.67.9.9,0,0,1,.628-.177.879.879,0,0,1,.487.474c.122.3-.066.538-.315.726a4.759,4.759,0,0,1-5.639.062,5.739,5.739,0,0,1-2.455-4.623c-.048-1.221-.335-2.39-.5-3.585a7.556,7.556,0,0,1-.041-3.036,2.65,2.65,0,0,1,2.361-2.205.8.8,0,0,0,.3-.1,4.9,4.9,0,0,1,2.96-.543c.49.041.76.311.741.7-.02.406-.33.636-.847.6a3.626,3.626,0,0,0-2.491.559.7.7,0,0,1-.348.085,1.282,1.282,0,0,0-1.354,1.066,15.055,15.055,0,0,0-.185,1.917Z" transform="translate(-1885.436 -3061.572)" fill="#fff"/><path d="M1998.034,3123.546q-1.212.9-2.418,1.8a.68.68,0,0,1-.794.11.627.627,0,0,1-.1-1.061q1.434-1.11,2.911-2.166a.944.944,0,0,1,1.283.211.537.537,0,0,1,.1.132,1.891,1.891,0,0,0,1.776,1.167,9,9,0,0,1,1.117.226,3.814,3.814,0,0,1,3.018,3.672c.007.272,0,.544,0,.816a1.576,1.576,0,0,1-1.557,1.651c-.992.032-1.985.017-2.978.007a.65.65,0,1,1,.009-1.3c.884-.009,1.768,0,2.652,0,.519,0,.577-.051.565-.553a5.319,5.319,0,0,0-.087-1.132,2.351,2.351,0,0,0-1.909-1.89c-.611-.126-1.221-.265-1.837-.366a.522.522,0,0,0-.42.16c-.348.452-.658.932-.987,1.4-.3.431-.657.537-1,.306s-.377-.606-.085-1.035c.275-.4.531-.826.844-1.2C1998.44,3124.146,1998.426,3123.865,1998.034,3123.546Z" transform="translate(-1963.138 -3102.677)" fill="#fff"/></g></g></g></svg>