<svg xmlns="http://www.w3.org/2000/svg" width="70.82" height="58.089" viewBox="0 0 70.82 58.089"><g transform="translate(-214.087 -4753.824)"><g transform="translate(-11.076 1734.737)"><g transform="translate(225.163 3019.087)"><path d="M1568.333,1083.054v-4.646h-4.682V1075.2h4.682v-4.646h3.122v4.646h4.695v3.207h-4.695v4.646Z" transform="translate(-1563.651 -1070.555)" fill="#cd59fd"/></g><g transform="translate(-450.404 -1876.913)"><g transform="translate(687 4896)"><path d="M1627.31,1990.352c.027-.006.055-.01.082-.013C1627.365,1990.343,1627.337,1990.346,1627.31,1990.352Z" transform="translate(-1617.486 -1990.325)" fill="#cd59fd"/><path d="M1601.463,2019.007a.954.954,0,0,1,.041-.091A.878.878,0,0,0,1601.463,2019.007Z" transform="translate(-1601.397 -2008.114)" fill="#cd59fd"/><path d="M1644.052,2046.426h-40.8v-43.9h8.079a.983.983,0,0,0,.983-.983v-9.274h31.737v9.529a18.843,18.843,0,0,1,1.965.332v-10.843a.983.983,0,0,0-.983-.983h-33.7l-.028,0a.981.981,0,0,1,.764,1.631l-1.719,1.946v6.677h-5.9l-1.443,1.634a.979.979,0,0,1-1.713-.708c0,.02-.006.038-.006.058v45.866a.982.982,0,0,0,.983.983h42.764a.982.982,0,0,0,.983-.983v-8.649a18.684,18.684,0,0,1-1.965.332Z" transform="translate(-1601.288 -1990.302)" fill="#cd59fd"/><path d="M1626.831,1990.486c.026-.012.054-.02.081-.03C1626.885,1990.465,1626.857,1990.474,1626.831,1990.486Z" transform="translate(-1617.188 -1990.398)" fill="#cd59fd"/><path d="M1626.391,1990.708a.891.891,0,0,1,.078-.047C1626.442,1990.676,1626.416,1990.691,1626.391,1990.708Z" transform="translate(-1616.914 -1990.526)" fill="#cd59fd"/><path d="M1626,1991.012a1.017,1.017,0,0,1,.077-.072C1626.05,1990.963,1626.024,1990.986,1626,1991.012Z" transform="translate(-1616.671 -1990.699)" fill="#cd59fd"/><path d="M1601.332,2019.491a.918.918,0,0,1,.02-.09A.894.894,0,0,0,1601.332,2019.491Z" transform="translate(-1601.315 -2008.416)" fill="#cd59fd"/><path d="M1601.685,2018.56a.969.969,0,0,1,.063-.089A1.076,1.076,0,0,0,1601.685,2018.56Z" transform="translate(-1601.535 -2007.837)" fill="#cd59fd"/><path d="M1621.444,2046.99a.983.983,0,0,0,.983.983h14.659a18.77,18.77,0,0,1,.948-1.966h-15.607A.983.983,0,0,0,1621.444,2046.99Z" transform="translate(-1613.835 -2024.977)" fill="#cd59fd"/><path d="M1621.444,2062.686a.983.983,0,0,0,.983.983h13.292a18.678,18.678,0,0,1,.231-1.966h-13.522A.983.983,0,0,0,1621.444,2062.686Z" transform="translate(-1613.835 -2034.747)" fill="#cd59fd"/><path d="M1621.444,2077.153a.983.983,0,0,0,.983.983h13.735a18.741,18.741,0,0,1-.345-1.966h-13.39A.983.983,0,0,0,1621.444,2077.153Z" transform="translate(-1613.835 -2043.753)" fill="#cd59fd"/><path d="M1622.424,2092.236a.983.983,0,0,0,.983.983h15.724a18.785,18.785,0,0,1-1.072-1.966h-14.652A.983.983,0,0,0,1622.424,2092.236Z" transform="translate(-1614.445 -2053.142)" fill="#cd59fd"/><path d="M1601.627,2002.281a.982.982,0,0,0,1.387-.086l1.443-1.634,5.9-6.677,1.719-1.946a.981.981,0,0,0-.764-1.631,1.042,1.042,0,0,0-.111.011c-.027,0-.055.007-.082.013a.853.853,0,0,0-.1.031c-.027.009-.055.018-.081.029a.877.877,0,0,0-.088.048.91.91,0,0,0-.078.047c-.024.018-.047.038-.071.058a.968.968,0,0,0-.077.072c-.007.007-.014.012-.021.019l-9.062,10.257c-.013.014-.021.031-.033.046a.967.967,0,0,0-.063.089.862.862,0,0,0-.043.079.924.924,0,0,0-.041.091c-.012.031-.02.061-.029.092s-.016.06-.02.09a1.056,1.056,0,0,0-.011.106A.976.976,0,0,0,1601.627,2002.281Z" transform="translate(-1601.295 -1990.306)" fill="#cd59fd"/><path d="M1677.912,2022.3a17.126,17.126,0,0,1,1.937.115,16.78,16.78,0,0,1,1.767.3,16.956,16.956,0,0,1,9.42,5.851,16.879,16.879,0,0,1,0,21.245,16.848,16.848,0,0,1-11.187,6.149,17.192,17.192,0,0,1-1.937.114,16.917,16.917,0,0,1-16.886-16.886c0-.326.012-.675.04-1.1a17.069,17.069,0,0,1,.208-1.768,16.878,16.878,0,0,1,16.638-14.019m0-1.888a18.757,18.757,0,0,0-18.73,17.553c-.026.4-.044.81-.044,1.221a19.207,19.207,0,0,0,.487,4.241,18.775,18.775,0,0,0,18.287,14.532,18.774,18.774,0,0,0,0-37.547Z" transform="translate(-1637.298 -2009.045)" fill="#cd59fd"/></g></g></g><path d="M17.924,0H13.932L5.906-13.426l-.082.014V0H1.832V-19.906H5.824L13.85-6.494l.082-.014v-13.4h3.992Z" transform="translate(256 4793)" fill="#cd59fd"/></g></svg>