<?xml version="1.0" encoding="utf-8"?>
<!-- Generator: Adobe Illustrator 26.0.1, SVG Export Plug-In . SVG Version: 6.00 Build 0)  -->
<svg version="1.1" id="Layer_1" xmlns="http://www.w3.org/2000/svg" xmlns:xlink="http://www.w3.org/1999/xlink" x="0px" y="0px"
	 viewBox="0 0 340 150" style="enable-background:new 0 0 340 150;" xml:space="preserve">
<style type="text/css">
	.st0{fill:#FFFFFF;}
	.st1{fill:#7B1FA2;}
</style>
<g transform="translate(-3 2.621)">
	<g transform="translate(-2 -1722.621)">
		<circle class="st0" cx="175.5" cy="1795.5" r="58.5"/>
		<g transform="translate(134.866 8979.201)">
			<path class="st1" d="M24.1-7220.8c0.1,0.2,0.3,0.1,0.5,0.2c2.2,0.5,3.9,2.2,4.5,4.3c0.2,0.5,0.4,0.6,0.9,0.6c9.4,0,18.8,0,28.2,0
				c3.6,0,5.9,1.7,6.8,5.2c0.1,0.3,0.3,0.5,0.6,0.6c1.8,0.9,3.5,1.8,5.3,2.6c2.9,1.3,4.5,4.6,3.7,7.7c-3.1,15.5-6.2,31-9.3,46.6
				c-0.2,1.4-0.6,2.8-1.3,4c0,0.1-0.1,0.2-0.1,0.3c-0.1-0.3-0.1-0.3-0.3,0c-0.8,0.9-1.9,1.6-3.1,1.9c-0.6,0.2-1.3,0.2-1.9,0.2
				c-15.2,0-30.4,0-45.5,0c-3.5,0.2-6.5-2.5-6.6-6c0-0.2,0-0.4,0-0.7c0-18.6,0-37.2,0-55.8c-0.1-3,1.9-5.7,4.8-6.4
				c0.2-0.1,0.4-0.1,0.5-0.4c0.6-2.4,2.4-4.2,4.8-4.8c0.1,0,0.1-0.1,0.1-0.1L24.1-7220.8z M65.3-7203.5c0,0.2,0,0.3,0,0.5
				c0,12,0,24,0,36c0,0.2-0.1,0.4,0.1,0.6c1.2-5.9,2.4-11.7,3.5-17.6c1-5.3,2.1-10.6,3.1-15.9c0.7-1.6,0.1-3.4-1.3-4.4
				c-1.7-1.1-3.6-2-5.4-2.8L65.3-7203.5z M62.7-7181.1c0-9.3,0-18.6,0-27.9c0.2-2.1-1.3-3.9-3.4-4.1c-0.2,0-0.5,0-0.7,0
				c-9.5,0-19,0-28.5,0c-0.5,0-0.7,0.1-0.7,0.7c0,3.9,0,7.9,0,11.8c0,3.9,0,7.9,0,11.8c0,3.5-2.9,6.4-6.4,6.4
				c-3.5,0-6.4-2.9-6.4-6.4c0-0.1,0-0.2,0-0.4c0-6.5,0-13.1,0-19.6c0-0.2,0-0.4,0-0.7c0.1-0.6,0.6-1.1,1.2-1.1c0,0,0,0,0.1,0
				c0.6,0,1.2,0.5,1.2,1.1c0,0,0,0,0,0c0,0.3,0,0.5,0,0.8c0,6.5,0,13,0,19.6c-0.1,1.4,0.5,2.7,1.7,3.4c1.2,0.8,2.7,0.9,4,0.2
				c1.3-0.6,2.1-1.9,2-3.3c0-6.5,0-13,0-19.6c0-1.4,0-2.8,0-4.3c0-0.3,0-0.5-0.5-0.5c-4.6,0-9.2,0-13.8,0c-1.6,0-3,1.1-3.4,2.6
				c-0.1,0.6-0.2,1.1-0.2,1.7c0,18.4,0,36.8,0,55.2c0,0.2,0,0.5,0,0.7c0,2,1.7,3.6,3.7,3.6c1.1,0,2.3,0,3.4,0c0.4,0,0.6-0.1,0.6-0.6
				c0-1,0-2.1,0-3.1c0-0.9,0.5-1.4,1.3-1.4c0.8,0,1.3,0.5,1.3,1.4c0,1,0,2.1,0,3.1c0,0.4,0.1,0.6,0.6,0.6c3.9,0,7.8,0,11.7,0
				c0.5,0,0.6-0.2,0.6-0.6c0-1,0-2.1,0-3.1c0-0.9,0.5-1.4,1.3-1.4c0.8,0,1.2,0.5,1.2,1.4c0,0.6,0,1.2,0,1.8s-0.2,1.4,0.1,1.7
				c0.4,0.4,1.2,0.1,1.8,0.1c0.5,0.1,0.7-0.1,0.7-0.7c0-2.7,0-5.5,0-8.2c-0.1-0.7,0.4-1.3,1.1-1.4c0.2,0,0.4,0,0.5,0.1
				c0.7,0.2,0.9,0.8,0.9,1.4c0,2.3,0,4.5,0,6.8c0,0.6-0.3,1.4,0.1,1.8s1.2,0.1,1.8,0.1c0.5,0,0.6-0.1,0.6-0.6c0-1,0-1.9,0-2.9
				c0-1.1,0.4-1.6,1.3-1.6c0.9,0,1.3,0.5,1.3,1.7c0,0.9,0,1.9,0,2.8c0,0.5,0.1,0.6,0.6,0.6c4.4,0,8.8,0,13.3,0c0.4,0,0.8,0,1.1-0.1
				c1.8-0.4,3-2.1,2.8-4C62.7-7162.6,62.7-7171.9,62.7-7181.1z M14.5-7215.7C14.5-7215.7,14.5-7215.7,14.5-7215.7
				c4,0,7.9,0.1,11.8,0.1c0.4,0,0.4-0.2,0.2-0.4c-0.5-1.2-1.6-2-2.9-2c-2.1-0.1-4.1-0.1-6.2,0C16-7218,14.8-7217.1,14.5-7215.7
				L14.5-7215.7z"/>
			<path class="st1" d="M30.8-7174.7c4.2,0,8.4,0,12.6,0c1.1,0,1.7,0.7,1.4,1.7c-0.1,0.5-0.5,0.8-1,0.8c-0.3,0-0.6,0-0.9,0
				c-8.1,0-16.2,0-24.3,0c-0.3,0-0.5,0-0.8,0c-0.6,0-1.1-0.6-1.1-1.2c0,0,0-0.1,0-0.1c0-0.6,0.5-1.1,1.1-1.2c0,0,0.1,0,0.1,0
				c1.9,0,3.8,0,5.6,0L30.8-7174.7z"/>
			<path class="st1" d="M46.1-7169.6c2.5,0,5,0,7.5,0c0.9,0,1.4,0.4,1.4,1.3c0,0.8-0.5,1.3-1.4,1.3c-1.5,0-3.1,0-4.6,0
				c-3.4,0-6.9,0-10.4,0c-0.9,0-1.4-0.3-1.5-1c-0.2-0.7,0.2-1.4,0.9-1.6c0.2,0,0.3-0.1,0.5,0C41.1-7169.7,43.6-7169.6,46.1-7169.6z"
				/>
			<path class="st1" d="M46.1-7205.4c2.5,0,5,0,7.5,0c1,0,1.5,0.4,1.5,1.3c0,0.8-0.5,1.3-1.5,1.3c-5,0-9.9,0-14.9,0
				c-1,0-1.5-0.5-1.5-1.3c0-0.8,0.5-1.2,1.5-1.2C41.2-7205.4,43.6-7205.4,46.1-7205.4z"/>
			<path class="st1" d="M25.6-7169.6c2.5,0,5,0,7.5,0c1,0,1.5,0.4,1.5,1.3c0,0.8-0.5,1.3-1.5,1.3c-5,0-9.9,0-14.9,0
				c-1,0-1.5-0.5-1.5-1.3c0-0.8,0.5-1.3,1.5-1.3C20.7-7169.6,23.1-7169.6,25.6-7169.6z"/>
			<path class="st1" d="M46.1-7190.1c2.5,0,5.1,0,7.6,0c0.7-0.1,1.3,0.4,1.4,1c0,0.2,0,0.3,0,0.5c0,0.5-0.4,0.9-0.9,1
				c-0.3,0.1-0.6,0.1-0.9,0.1c-4.8,0-9.5,0-14.3,0c-0.2,0-0.4,0-0.6,0c-0.7,0-1.2-0.5-1.2-1.2c0,0,0-0.1,0-0.1
				c0-0.6,0.4-1.2,1.1-1.2c0,0,0.1,0,0.1,0c1.1,0,2.1,0,3.2,0L46.1-7190.1z"/>
			<path class="st1" d="M46.1-7177.3c-2.5,0-5,0-7.5,0c-1,0-1.5-0.4-1.5-1.3c0-0.8,0.5-1.3,1.5-1.3c5,0,10,0,15,0
				c1,0,1.4,0.5,1.4,1.3c0,0.8-0.5,1.2-1.5,1.2C51.1-7177.3,48.6-7177.3,46.1-7177.3z"/>
			<path class="st1" d="M46.1-7192.7c-2.5,0-5.1,0-7.6,0c-0.7,0.1-1.3-0.4-1.4-1.1c0-0.2,0-0.4,0.1-0.6c0.3-0.7,0.8-0.8,1.5-0.8
				c2.3,0,4.7,0,7,0c2.6,0,5.2,0,7.8,0c1,0,1.5,0.4,1.5,1.3c0,0.8-0.5,1.3-1.4,1.3C51.1-7192.7,48.6-7192.7,46.1-7192.7z"/>
			<path class="st1" d="M40.9-7197.8c-0.8,0-1.6,0-2.5,0c-0.7,0-1.3-0.6-1.3-1.3c0-0.7,0.6-1.3,1.3-1.3c1.7,0,3.4,0,5.1,0
				c0.7,0,1.3,0.6,1.3,1.3c0,0.7-0.6,1.3-1.3,1.3l0,0C42.7-7197.7,41.8-7197.8,40.9-7197.8z"/>
			<path class="st1" d="M51.2-7197.8c-0.8,0-1.6,0-2.5,0c-0.7,0.1-1.3-0.5-1.4-1.2c-0.1-0.7,0.5-1.3,1.2-1.4c0.1,0,0.1,0,0.2,0
				c1.6,0,3.3,0,4.9,0c0.7-0.1,1.3,0.4,1.4,1c0,0.1,0,0.2,0,0.3c0,0.8-0.5,1.2-1.4,1.2C52.8-7197.8,52-7197.8,51.2-7197.8z"/>
			<path class="st1" d="M40.9-7182.4c-0.8,0-1.6,0-2.5,0c-0.7,0-1.3-0.5-1.3-1.2c0-0.7,0.5-1.3,1.2-1.3c0,0,0.1,0,0.1,0
				c1.7,0,3.3,0,5,0c0.7,0,1.3,0.5,1.4,1.2c0,0.7-0.5,1.3-1.2,1.4c0,0-0.1,0-0.1,0C42.6-7182.4,41.8-7182.4,40.9-7182.4z"/>
			<path class="st1" d="M51.1-7185c0.8,0,1.6,0,2.5,0c0.9,0,1.4,0.4,1.4,1.3s-0.5,1.3-1.4,1.3c-1.6,0-3.3,0-4.9,0
				c-0.7,0.1-1.3-0.4-1.4-1.1c0-0.1,0-0.1,0-0.2c0-0.8,0.5-1.3,1.4-1.3C49.6-7185,50.4-7185,51.1-7185z"/>
			<path class="st1" d="M51.2-7174.7c0.8,0,1.7,0,2.5,0c0.7,0,1.3,0.6,1.3,1.2c0,0.7-0.5,1.2-1.2,1.3c-1.8,0-3.5,0-5.3,0
				c-0.6,0-1.2-0.5-1.2-1.1c0-0.1,0-0.1,0-0.2c0-0.7,0.5-1.2,1.1-1.2c0,0,0.1,0,0.1,0C49.5-7174.8,50.3-7174.7,51.2-7174.7z"/>
		</g>
	</g>
	<path class="st0" d="M193.5,87c8,0,14.5,6.5,14.5,14.5s-6.5,14.5-14.5,14.5s-14.5-6.5-14.5-14.5S185.5,87,193.5,87z"/>
	<path class="st1" d="M193.5,89c-6.9,0-12.5,5.6-12.5,12.5c0,3.3,1.3,6.5,3.7,8.8c4.9,4.9,12.8,4.9,17.7,0c4.9-4.9,4.9-12.8,0-17.7
		C200,90.3,196.8,89,193.5,89 M193.5,87c8,0,14.5,6.5,14.5,14.5s-6.5,14.5-14.5,14.5s-14.5-6.5-14.5-14.5S185.5,87,193.5,87z"/>
	<path class="st1" d="M191.4,103.6v5.4h-3V94.1h5.7c1.5-0.1,2.9,0.4,4,1.3c1,0.9,1.5,2.1,1.5,3.5c0.1,1.3-0.5,2.6-1.5,3.4
		c-1.1,0.9-2.6,1.4-4,1.3L191.4,103.6z M191.4,101.3h2.7c0.7,0.1,1.4-0.2,1.9-0.7c0.4-0.5,0.7-1.1,0.6-1.7c0-0.7-0.2-1.3-0.6-1.8
		c-0.5-0.5-1.2-0.8-1.9-0.7h-2.7V101.3z"/>
</g>
</svg>
