<svg xmlns="http://www.w3.org/2000/svg" width="288.847" height="211.239" viewBox="0 0 288.847 211.239"><g transform="translate(-235.055 -1240.972)"><g transform="translate(5860.293 12480.404)"><g transform="translate(-5366.473 -11057.692)"><path d="M2610.221,1517.2a14.75,14.75,0,1,1,14.75-14.75A14.766,14.766,0,0,1,2610.221,1517.2Zm0-22.534a7.784,7.784,0,1,0,7.784,7.785A7.793,7.793,0,0,0,2610.221,1494.668Z" transform="translate(-2595.472 -1487.703)" fill="#15157c"/></g><g transform="translate(-5382.443 -11197.992)"><path d="M415.9,103.582a.841.841,0,1,1-.841-.8A.823.823,0,0,1,415.9,103.582Z" transform="translate(-414.214 -102.779)" fill="#15157c"/><path d="M424.341,103.582a.841.841,0,1,1-.84-.8A.823.823,0,0,1,424.341,103.582Z" transform="translate(-415.095 -102.779)" fill="#15157c"/><path d="M432.787,103.582a.841.841,0,1,1-.84-.8A.823.823,0,0,1,432.787,103.582Z" transform="translate(-415.976 -102.779)" fill="#15157c"/><path d="M441.234,103.582a.841.841,0,1,1-.841-.8A.823.823,0,0,1,441.234,103.582Z" transform="translate(-416.857 -102.779)" fill="#15157c"/><path d="M449.68,103.582a.841.841,0,1,1-.84-.8A.823.823,0,0,1,449.68,103.582Z" transform="translate(-417.738 -102.779)" fill="#15157c"/><ellipse cx="0.841" cy="0.804" rx="0.841" ry="0.804" transform="translate(0 6.431)" fill="#15157c"/><path d="M424.341,111.09a.841.841,0,1,1-.84-.8A.823.823,0,0,1,424.341,111.09Z" transform="translate(-415.095 -103.855)" fill="#15157c"/><ellipse cx="0.841" cy="0.804" rx="0.841" ry="0.804" transform="translate(15.13 6.431)" fill="#15157c"/><path d="M441.234,111.09a.841.841,0,1,1-.841-.8A.823.823,0,0,1,441.234,111.09Z" transform="translate(-416.857 -103.855)" fill="#15157c"/><path d="M449.68,111.09a.841.841,0,1,1-.84-.8A.823.823,0,0,1,449.68,111.09Z" transform="translate(-417.738 -103.855)" fill="#15157c"/><path d="M415.9,118.6a.841.841,0,1,1-.841-.8A.823.823,0,0,1,415.9,118.6Z" transform="translate(-414.214 -104.933)" fill="#15157c"/><path d="M424.341,118.6a.841.841,0,1,1-.84-.8A.823.823,0,0,1,424.341,118.6Z" transform="translate(-415.095 -104.933)" fill="#15157c"/><path d="M432.787,118.6a.841.841,0,1,1-.84-.8A.823.823,0,0,1,432.787,118.6Z" transform="translate(-415.976 -104.933)" fill="#15157c"/><path d="M441.234,118.6a.841.841,0,1,1-.841-.8A.823.823,0,0,1,441.234,118.6Z" transform="translate(-416.857 -104.933)" fill="#15157c"/><path d="M449.68,118.6a.841.841,0,1,1-.84-.8A.823.823,0,0,1,449.68,118.6Z" transform="translate(-417.738 -104.933)" fill="#15157c"/><ellipse cx="0.841" cy="0.804" rx="0.841" ry="0.804" transform="translate(0 19.293)" fill="#15157c"/><path d="M424.341,126.106a.841.841,0,1,1-.84-.8A.822.822,0,0,1,424.341,126.106Z" transform="translate(-415.095 -106.009)" fill="#15157c"/><ellipse cx="0.841" cy="0.804" rx="0.841" ry="0.804" transform="translate(15.13 19.293)" fill="#15157c"/><path d="M441.234,126.106a.841.841,0,1,1-.841-.8A.823.823,0,0,1,441.234,126.106Z" transform="translate(-416.857 -106.009)" fill="#15157c"/><path d="M449.68,126.106a.841.841,0,1,1-.84-.8A.823.823,0,0,1,449.68,126.106Z" transform="translate(-417.738 -106.009)" fill="#15157c"/><ellipse cx="0.841" cy="0.804" rx="0.841" ry="0.804" transform="translate(0 25.724)" fill="#15157c"/><path d="M424.341,133.614a.841.841,0,1,1-.84-.8A.822.822,0,0,1,424.341,133.614Z" transform="translate(-415.095 -107.086)" fill="#15157c"/><ellipse cx="0.841" cy="0.804" rx="0.841" ry="0.804" transform="translate(15.13 25.724)" fill="#15157c"/><path d="M441.234,133.614a.841.841,0,1,1-.841-.8A.823.823,0,0,1,441.234,133.614Z" transform="translate(-416.857 -107.086)" fill="#15157c"/><path d="M449.68,133.614a.841.841,0,1,1-.84-.8A.822.822,0,0,1,449.68,133.614Z" transform="translate(-417.738 -107.086)" fill="#15157c"/></g><path d="M325.19,448.9a4.482,4.482,0,0,0,1.317,3.179l4.551,4.549-4.551,4.549a4.5,4.5,0,1,0,6.359,6.359l4.549-4.549,4.549,4.549a4.5,4.5,0,0,0,6.358-6.359l-4.549-4.549,4.549-4.549a4.5,4.5,0,0,0,0-6.358h0a4.5,4.5,0,0,0-6.358,0l-4.549,4.549-4.549-4.549a4.5,4.5,0,0,0-6.359,0h0a4.482,4.482,0,0,0-1.317,3.179Z" transform="translate(-5909.972 -11679.184)" fill="#15157c"/></g><g transform="translate(-3743.799 1076.394)"><g transform="translate(4148.564 181.209)"><path d="M4423.978,213.935h-51.594l-5.44,16.979-2.093,17.871a.856.856,0,0,0,.851.956h3.3s-.477,6.993.158,6.993c.857,0,4.068-6.993,4.068-6.993h46.762a.856.856,0,0,0,.85-.757l3.993-34.093A.856.856,0,0,0,4423.978,213.935Z" transform="translate(-4364.845 -208.865)" fill="#8498d9"/><g transform="translate(50.352 6.86)"><circle cx="1.319" cy="1.319" r="1.319" transform="translate(4.397)" fill="#fff"/><circle cx="1.319" cy="1.319" r="1.319" fill="#fff"/></g><path d="M4427.537,268.813h-40.274c.606-3.183,1.213-6.177,1.525-7.3a29.6,29.6,0,0,1,1.552-4.608,14.7,14.7,0,0,1,2.084-3.394c2.906-3.5,6.613-4.713,10.218-5.2a50.152,50.152,0,0,1,8.727-.264,26.815,26.815,0,0,1,8.328,1.451,10.759,10.759,0,0,1,5.777,4.823C4426.755,256.651,4427.581,266.707,4427.537,268.813Z" transform="translate(-4377.406 -227.939)" fill="#ffeae0"/><path d="M4458.36,254.547a10.76,10.76,0,0,0-5.777-4.823,23.989,23.989,0,0,0-6.63-1.345,72.845,72.845,0,0,1,.98,16.448c-.079,1.407-.2,2.814-.361,4.212h13.85C4460.467,266.923,4459.636,256.881,4458.36,254.547Z" transform="translate(-4410.292 -228.164)" fill="#ccb16c"/><path d="M4404.784,248.238c-.708.053-1.42.123-2.141.22-3.605.484-7.312,1.706-10.218,5.2a14.675,14.675,0,0,0-2.084,3.39,29.643,29.643,0,0,0-1.552,4.612c-.312,1.126-.919,4.12-1.525,7.3h16.892c-.158-1.4-.281-2.8-.356-4.212A73.362,73.362,0,0,1,4404.784,248.238Z" transform="translate(-4377.406 -228.086)" fill="#ccb16c"/><path d="M4435.685,240.248a5.944,5.944,0,0,1-3.18,1.4c-1.275,0-3.087-1.467-3.087-1.467l.4-6.124,5.624.126Z" transform="translate(-4401.027 -220.139)" fill="#e0785e"/><path d="M4433.147,208.494a4.562,4.562,0,0,0-4.954-1.806c-3.71,1.06-4.792,6.175-4.088,9.545a12.989,12.989,0,0,0,2.919,5.845,3.108,3.108,0,0,0,4.785,0,12.982,12.982,0,0,0,2.919-5.845A9.961,9.961,0,0,0,4433.147,208.494Z" transform="translate(-4397.937 -204.707)" fill="#e0785e"/><path d="M4425.21,224.371a2.191,2.191,0,1,1-2.711-1.5A2.192,2.192,0,0,1,4425.21,224.371Z" transform="translate(-4396.261 -213.823)" fill="#e0785e"/><path d="M4424.722,221.932a25.593,25.593,0,0,1,0,3.346c-.145.367-.638.259-.743-.164s-.457-3.085-.457-3.085Z" transform="translate(-4397.723 -213.346)" fill="#2b244a"/><path d="M4446.471,224.371a2.192,2.192,0,1,1-2.711-1.5A2.191,2.191,0,0,1,4446.471,224.371Z" transform="translate(-4408.173 -213.823)" fill="#e0785e"/><path d="M4446.552,221.154a31.23,31.23,0,0,0,0,3.688c.145.367.638.259.743-.164s.457-3.085.457-3.085Z" transform="translate(-4410.591 -212.91)" fill="#2b244a"/><path d="M4438.2,222.237c.195.677.821.2,1.609.43.723.213,1.223.158,1.247-.23.028-.469-.647-1.038-1.7-1.066C4438.375,221.345,4438.058,221.743,4438.2,222.237Z" transform="translate(-4405.93 -213.031)" fill="#2b244a"/><path d="M4430.5,221.376c-.054.7-.765.36-1.489.745-.666.354-1.166.4-1.267.026-.123-.453.424-1.147,1.447-1.386C4430.148,220.537,4430.54,220.864,4430.5,221.376Z" transform="translate(-4400.079 -212.649)" fill="#2b244a"/><path d="M4431.259,225.407a.513.513,0,0,0-.422-.251.485.485,0,0,0-.418.344,1.689,1.689,0,0,0-.08.594,1.072,1.072,0,0,0,.192.667.45.45,0,0,0,.769-.164A1.485,1.485,0,0,0,4431.259,225.407Z" transform="translate(-4401.542 -215.152)" fill="#2b244a"/><g transform="translate(30.503 13.688)"><path d="M4434.339,234.045a.153.153,0,0,0-.076.256,1.549,1.549,0,0,0,1.086.586,1.439,1.439,0,0,0,1.358-1.155.154.154,0,0,0-.187-.192C4435.729,233.737,4435.013,233.895,4434.339,234.045Z" transform="translate(-4434.22 -233.536)" fill="#fff"/></g><g transform="translate(30.671 10.398)"><path d="M4435.035,226.208q-.183.629-.368,1.259a.9.9,0,0,0-.024.593,1.372,1.372,0,0,0,.341.465c.2.2.513-.112.311-.311a.814.814,0,0,1-.25-.332.952.952,0,0,1,.091-.456q.161-.551.322-1.1a.22.22,0,0,0-.424-.117Z" transform="translate(-4434.602 -226.053)" fill="#2b244a"/></g><g transform="translate(31.406 16.618)"><path d="M4436.487,242.354a3.036,3.036,0,0,0,1.776-.6,5.568,5.568,0,0,0,1.172-1.226.221.221,0,0,0-.079-.3.225.225,0,0,0-.3.079,3.325,3.325,0,0,1-2.568,1.606.22.22,0,0,0,0,.44Z" transform="translate(-4436.275 -240.2)" fill="#2b244a"/></g><path d="M4431.514,206.611a1.507,1.507,0,0,0-1.174-1.2,3.21,3.21,0,0,0-1.4.139c-.665-1.2-1.357-2.563-2.742-3.008-1.039-.334-2.656-.073-2.894,1.148a6.465,6.465,0,0,0-2.7.5,3.33,3.33,0,0,0-1.766,1.534,1.29,1.29,0,0,0,.523,1.513,5.95,5.95,0,0,0-1.148.546,2.766,2.766,0,0,0-1.073,1.018c-.453.9.3,1.585,1.083,1.866a1.825,1.825,0,0,0,1.288,1.063,2.147,2.147,0,0,0,1.773-.427c.694-.458,1.278-1.057,1.927-1.572.314-.248.813-.7,1.237-.568.21.062.394.184.609.236a2.194,2.194,0,0,0,.682.055,4.191,4.191,0,0,0,2.371-1.219,5.988,5.988,0,0,0,1,1.854,5.3,5.3,0,0,0,2.06,1.478S4431.943,208.16,4431.514,206.611Z" transform="translate(-4394.066 -202.404)" fill="#2b244a"/><g transform="translate(25.267 4.521)"><path d="M4422.313,212.9a1.287,1.287,0,0,0,.845,1.153,1.721,1.721,0,0,0,.871.088,2.546,2.546,0,0,0,.463-.106c.079-.026.157-.056.234-.088.012,0,.157-.081.152-.082.04.011.167.265.2.311a1.8,1.8,0,0,0,.242.249,2.064,2.064,0,0,0,.617.358,1.961,1.961,0,0,0,1.469-.043c.26-.111.036-.49-.222-.379a1.52,1.52,0,0,1-1.2-.029,1.541,1.541,0,0,1-.518-.371c-.128-.141-.193-.36-.354-.465-.2-.128-.394-.018-.587.058a2.118,2.118,0,0,1-.79.168.928.928,0,0,1-.989-.822.22.22,0,0,0-.44,0Z" transform="translate(-4422.313 -212.686)" fill="#8c75b5"/></g><g transform="translate(33.778 3.017)"><path d="M4442.081,212.1a6.416,6.416,0,0,0,.823-2.614.221.221,0,0,0-.22-.22.224.224,0,0,0-.22.22,5.914,5.914,0,0,1-.763,2.392.22.22,0,0,0,.379.222Z" transform="translate(-4441.67 -209.265)" fill="#8c75b5"/></g><g transform="translate(29.109 1.146)"><path d="M4431.27,205.45a13.976,13.976,0,0,1,2.363.421.22.22,0,0,0,.117-.424,14.637,14.637,0,0,0-2.48-.437.222.222,0,0,0-.22.22.224.224,0,0,0,.22.22Z" transform="translate(-4431.05 -205.01)" fill="#8c75b5"/></g><g transform="translate(19.329 35.121)"><path d="M4408.977,282.493a40.484,40.484,0,0,0-.132,5.425c.012.282.452.283.439,0a40.4,40.4,0,0,1,.133-5.425c.025-.282-.415-.28-.44,0Z" transform="translate(-4408.808 -282.283)" fill="#2b244a"/></g><g transform="translate(41.527 35.121)"><path d="M4459.295,282.493a40.566,40.566,0,0,1,.132,5.425c-.012.283.427.282.439,0a40.484,40.484,0,0,0-.132-5.425c-.025-.28-.466-.282-.439,0Z" transform="translate(-4459.294 -282.283)" fill="#2b244a"/></g><g transform="translate(27.001 21.195)"><path d="M4426.319,250.986a6.251,6.251,0,0,0,8.86.108c.2-.2-.108-.508-.311-.311a5.811,5.811,0,0,1-8.239-.108c-.2-.2-.508.108-.311.311Z" transform="translate(-4426.256 -250.609)" fill="#2b244a"/></g><g transform="translate(36.644 20.664)"><path d="M4448.593,258.306a18,18,0,0,0,1.917-8.692c-.01-.282-.45-.284-.44,0a17.542,17.542,0,0,1-1.856,8.47c-.127.252.251.475.379.222Z" transform="translate(-4448.188 -249.401)" fill="#2b244a"/></g><g transform="translate(23.993 20.439)"><path d="M4421.721,257.572a17.537,17.537,0,0,1-1.857-8.47c.01-.283-.43-.283-.439,0a18,18,0,0,0,1.917,8.692c.127.253.506.03.379-.222Z" transform="translate(-4419.414 -248.89)" fill="#2b244a"/></g><g transform="translate(32.637 10.446)"><path d="M4439.449,226.845a.947.947,0,0,1,.066-.07l.032-.029c.027-.024-.023.016.006-.005a.783.783,0,0,1,.08-.053l.038-.02s.052-.024.032-.016.02-.007.023-.008l.051-.016c.027-.008.055-.014.083-.02s.029,0,0,0l.054,0c.032,0,.064,0,.1,0,.018,0,.026,0,0,0l.041.007a.776.776,0,0,1,.091.024l.04.014c.035.013-.043-.022.015.007.025.012.049.025.073.04l.044.028s.036.026.02.014.016.014.018.016l.038.036c.02.019.038.04.056.061-.02-.023,0,0,.01.014s.019.029.028.044a.22.22,0,0,0,.38-.222,1.106,1.106,0,0,0-.836-.519,1.079,1.079,0,0,0-.9.368.22.22,0,0,0,.311.311Z" transform="translate(-4439.075 -226.162)" fill="#2b244a"/></g></g><g transform="translate(4228.583 338.034)"><path d="M4573.44,559.114l-9.55-.011-11.021-.01-5.813-.006a.22.22,0,0,0,0,.44l10.6.01,10.73.011,5.054.006a.22.22,0,0,0,0-.44Z" transform="translate(-4546.842 -559.088)" fill="#2b244a"/></g><g transform="translate(3978.853 337.985)"><path d="M3979.065,559.492q17.977-.027,35.952-.04,21.812-.017,43.624-.025,23.948-.009,47.9-.011,24.417,0,48.835,0,23.021.005,46.042.019l5.22,0a.22.22,0,0,0,0-.44q-22.731-.015-45.461-.021-24.25-.007-48.5-.006-24.092,0-48.185.009-22.255.007-44.51.023-18.546.013-37.093.037l-3.821.006a.22.22,0,0,0,0,.44Z" transform="translate(-3978.853 -558.977)" fill="#2b244a"/></g><g transform="translate(4036.187 267.943)"><g transform="translate(40.744 1.433)"><path d="M4202.134,403.372a2.3,2.3,0,0,1,1.87.894,4.53,4.53,0,0,1,.7,2.17q.243,1.745.487,3.49.563,4.023,1.127,8.046,1.341,9.549,2.687,19.1,1.472,10.451,2.945,20.9,1.413,10.025,2.823,20.05,1.146,8.153,2.287,16.306.116.83.232,1.66c.039.279.462.16.424-.117q-1.115-8-2.243-16-1.4-9.994-2.813-19.987-1.493-10.6-2.986-21.192-1.378-9.788-2.754-19.577-.582-4.139-1.161-8.278-.257-1.84-.515-3.681c-.182-1.3-.265-2.8-1.4-3.669a2.826,2.826,0,0,0-1.713-.553.22.22,0,0,0,0,.44Z" transform="translate(-4201.922 -402.932)" fill="#2b244a"/></g><g transform="translate(0 1.433)"><path d="M4124.836,402.932a2.955,2.955,0,0,0-2.855,2.527c-.26,1.15-.346,2.363-.509,3.53q-.56,4-1.122,8-1.347,9.6-2.7,19.191-1.489,10.573-2.979,21.147-1.43,10.141-2.856,20.283-1.167,8.3-2.328,16.6-.116.83-.232,1.66c-.039.277.385.4.424.117q1.1-7.888,2.21-15.775,1.384-9.848,2.772-19.694,1.474-10.468,2.949-20.937,1.375-9.76,2.747-19.52.583-4.149,1.165-8.3l.514-3.675c.172-1.232.159-2.794.928-3.822a2.3,2.3,0,0,1,1.87-.894.22.22,0,0,0,0-.44Z" transform="translate(-4109.254 -402.932)" fill="#2b244a"/></g><path d="M4116.764,401.969h139.854a1.093,1.093,0,0,0,1.093-1.093h0a1.093,1.093,0,0,0-1.093-1.093H4116.764a1.093,1.093,0,0,0-1.093,1.093h0A1.093,1.093,0,0,0,4116.764,401.969Z" transform="translate(-4112.85 -399.734)" fill="#b06641"/><g transform="translate(98.118)"><path d="M4332.64,399.78a2.341,2.341,0,0,0,.032,2.069.22.22,0,1,0,.379-.222,1.871,1.871,0,0,1-.032-1.625.226.226,0,0,0-.079-.3.222.222,0,0,0-.3.079Z" transform="translate(-4332.415 -399.672)" fill="#2b244a"/></g></g><g transform="translate(4111.231 237.702)"><g transform="translate(0 0.015)"><path d="M4361.865,330.927h-34.91a1,1,0,0,0-.93.627L4314.057,361.2h37.073l11.665-28.9A1,1,0,0,0,4361.865,330.927Z" transform="translate(-4299.055 -330.927)" fill="#dec6bd"/><path d="M4360.993,337.028l-10.3,25.514h-34.73l10.3-25.514Z" transform="translate(-4300.125 -334.345)" fill="#2b244a"/><path d="M2,0H24.172a0,0,0,0,1,0,0V2a0,0,0,0,1,0,0H0A0,0,0,0,1,0,2V2A2,2,0,0,1,2,0Z" transform="translate(0 28.276)" fill="#dec6bd"/></g><g transform="translate(27.806 28.076)"><path d="M4343.618,396.75a2.06,2.06,0,0,1,.707-1.629.221.221,0,0,0,0-.311.225.225,0,0,0-.311,0,2.136,2.136,0,0,0-.628.885,2.631,2.631,0,0,0-.208,1.054.22.22,0,0,0,.439,0Z" transform="translate(-4343.178 -394.748)" fill="#2b244a"/></g><g transform="translate(49.19 27.992)"><path d="M4392.254,396.653a2.054,2.054,0,0,1,.846-1.683.226.226,0,0,0,.079-.3.221.221,0,0,0-.3-.079,2.505,2.505,0,0,0-1.063,2.063.22.22,0,0,0,.439,0Z" transform="translate(-4391.814 -394.558)" fill="#2b244a"/></g><g transform="translate(50.213)"><path d="M4394.582,359.165l4.4-10.8,4.655-11.425,1.2-2.945.551-1.353c.214-.525.531-1.277,1.193-1.305.282-.012.283-.452,0-.44-1.062.045-1.442,1.2-1.779,2.024l-1.059,2.6-2.316,5.685-4.826,11.843-2.447,6.006c-.107.262.318.375.424.117Z" transform="translate(-4394.141 -330.892)" fill="#2b244a"/></g><g transform="translate(41.123 1.341)"><path d="M4373.679,334.383h4.059a.22.22,0,0,0,0-.44h-4.059a.22.22,0,0,0,0,.44Z" transform="translate(-4373.466 -333.943)" fill="#2b244a"/></g><g transform="translate(39.696 1.341)"><path d="M4370.677,333.943h-.237a.159.159,0,0,0-.084.019.161.161,0,0,0-.071.045.159.159,0,0,0-.045.071.164.164,0,0,0-.02.085l.008.058a.221.221,0,0,0,.057.1.228.228,0,0,0,.155.065h.237a.171.171,0,0,0,.085-.019.166.166,0,0,0,.07-.046.246.246,0,0,0,.064-.155l-.008-.058a.22.22,0,0,0-.212-.161Z" transform="translate(-4370.22 -333.943)" fill="#2b244a"/></g></g><g transform="translate(4009.203 197.982)"><path d="M4307.176,577.542l-1.089-4.883,10.81-7.117,2.49,12.466a48.353,48.353,0,0,1-4.8,1.562C4310.512,580.67,4307.176,577.542,4307.176,577.542Z" transform="translate(-4192.561 -422.652)" fill="#ffa58f"/><path d="M4308.565,590.988l1.356,9.7h18.036s.6-4.652-2.363-5.955a16.493,16.493,0,0,1-4.818-3.278,16.083,16.083,0,0,1-5.679-1.394A6.308,6.308,0,0,0,4308.565,590.988Z" transform="translate(-4193.949 -436.098)" fill="#f0d3c5"/><g transform="translate(115.004 154.187)"><path d="M4309.658,595.081a6.4,6.4,0,0,0,6.648-3.507c.117-.255-.262-.479-.379-.222a5.52,5.52,0,0,1-2.764,2.774,6.71,6.71,0,0,1-3.5.515c-.281-.032-.279.408,0,.44Z" transform="translate(-4309.448 -591.238)" fill="#2b244a"/></g><path d="M4302.051,487.839c-1.674-6.79-3.317-13.589-5.239-20.314a165.814,165.814,0,0,0-6.366-18.532,202.785,202.785,0,0,0-11.681,24.062q1.1,3.761,2.245,7.506,3.053,9.93,6.473,19.741,1.387,3.981,2.844,7.937c5.983-.754,11.26-1.635,16.374-2.745C4304.921,499.463,4303.556,493.944,4302.051,487.839Z" transform="translate(-4177.251 -357.347)" fill="#15157c"/><g transform="translate(69.568 138.732)"><path d="M4217.508,559.613l1.75-3.527,13.236,1.35-5.94,9.7a7.836,7.836,0,0,1-5.137-.341C4217.563,565.076,4217.508,559.613,4217.508,559.613Z" transform="translate(-4212.496 -556.086)" fill="#ffa58f"/><path d="M4206.189,573.115s-.6,1.685,1.485,4.167a75.208,75.208,0,0,0,9.526,8.99h13.89s-.09-5.14-4.714-6.722l-5.329-9.52s-1.032-.368-2.571-.735c-1.492-.355-2.358-1.605-3.474-4.031-.595-1.295-2-1.685-3.882-1.32Z" transform="translate(-4206.108 -560.415)" fill="#f0d3c5"/><g transform="translate(3.554 5.256)"><path d="M4214.35,569.291a8.313,8.313,0,0,0,3.24.04,4.6,4.6,0,0,0,2.116-.924c.215-.184-.1-.494-.312-.311a4.177,4.177,0,0,1-1.921.811,7.737,7.737,0,0,1-3.006-.041c-.276-.055-.395.368-.117.424Z" transform="translate(-4214.192 -568.04)" fill="#2b244a"/></g><g transform="translate(0.472 11.079)"><path d="M4207.508,582.266a3.712,3.712,0,0,1,2.708-.469,5.009,5.009,0,0,1,2.4,1.368,29.954,29.954,0,0,1,3.722,4.991,14.011,14.011,0,0,0,3.931,4.1,7.439,7.439,0,0,0,2.639,1.017,29.3,29.3,0,0,0,3.2.272,8.709,8.709,0,0,1,2.847.641,5.09,5.09,0,0,1,2.224,1.629c.162.23.543.011.38-.222a6.631,6.631,0,0,0-4.31-2.366c-1.03-.174-2.085-.155-3.124-.241a8.071,8.071,0,0,1-3.1-.808c-3.826-1.99-5.1-6.486-8.091-9.326a5.415,5.415,0,0,0-2.629-1.489,4.171,4.171,0,0,0-3.007.521c-.239.15-.019.531.222.38Z" transform="translate(-4207.183 -581.284)" fill="#2b244a"/></g><g transform="translate(1.673 9.136)"><path d="M4210.243,577.669a3.245,3.245,0,0,1,2.642-.161,4.407,4.407,0,0,1,2.03,1.439,49.3,49.3,0,0,1,3.344,4.631,17.147,17.147,0,0,0,3.423,3.879,7.68,7.68,0,0,0,2.1,1.2,9.933,9.933,0,0,0,2.744.485,18.454,18.454,0,0,1,3.11.292,6.592,6.592,0,0,1,2.54,1.308c.219.174.533-.135.311-.311a7.5,7.5,0,0,0-2.181-1.26,9.5,9.5,0,0,0-2.608-.4,17.984,17.984,0,0,1-3.018-.307,6.676,6.676,0,0,1-2.406-1.112,15.828,15.828,0,0,1-3.659-4.038,48.142,48.142,0,0,0-3.413-4.711,4.787,4.787,0,0,0-2.291-1.549,3.634,3.634,0,0,0-2.886.234.22.22,0,0,0,.222.379Z" transform="translate(-4209.914 -576.866)" fill="#2b244a"/></g></g><path d="M4234,413.716a12.374,12.374,0,0,0-5.621-6.669c-3.006-1.7-6.466-2.32-9.818-2.958-3.806-.725-16.975-2.77-20.468-3.325-1.161.926-4.461.433-4.983,2.161-.534,1.77-9.023-1.333-8.787.526.216,1.7-10.963,2.4-11.072,4.1-.684,10.687,3.965,15.263,20.86,19,2.066.457,14,3.193,16.264,4.049-2.383,5.465-15.41,36.088-16.312,38.749a41.608,41.608,0,0,1,11.018,5.392l-1.485,2.291c4.331,2.46,5.8,1.126,5.8,1.126,2.916-5.926,4.749-9.952,7.4-15.652,2.954-6.339,13.981-33.728,16.227-38.849C4235.2,418.723,4234.489,415.384,4234,413.716Z" transform="translate(-4118.095 -330.324)" fill="#15157c"/><g transform="translate(78.073 74.271)"><path d="M4225.608,409.906c5.883,1.374,11.773,2.715,17.625,4.219q2.36.606,4.712,1.244a33.2,33.2,0,0,1,4.332,1.332,10.479,10.479,0,0,1,5.094,4.224,8.718,8.718,0,0,1,.839,6.261,24.386,24.386,0,0,1-1.477,4.06q-1.025,2.461-2.061,4.917-4.079,9.659-8.3,19.259-4.195,9.6-8.4,19.2-.521,1.194-1.039,2.388c-.112.257.267.481.379.222q4.275-9.84,8.6-19.66,4.252-9.721,8.417-19.479,1.022-2.41,2.033-4.825c.654-1.562,1.392-3.118,1.928-4.726a9.88,9.88,0,0,0,.073-6.535,9.648,9.648,0,0,0-4.085-4.771,14.768,14.768,0,0,0-3.432-1.52c-1.623-.5-3.276-.909-4.916-1.343-5.939-1.572-11.923-2.966-17.907-4.357l-2.3-.535c-.275-.064-.393.36-.117.424Z" transform="translate(-4225.451 -409.476)" fill="#8c75b5"/></g><g transform="translate(77.211 135.559)"><path d="M4223.64,549.308a51.514,51.514,0,0,1,12.191,6.116c1.06.749,2.083,1.548,3.076,2.383.215.181.528-.128.311-.311a44.847,44.847,0,0,0-5.556-4.02,47.522,47.522,0,0,0-6.016-3.06c-1.281-.548-2.581-1.053-3.89-1.531-.266-.1-.381.328-.117.424Z" transform="translate(-4223.49 -548.869)" fill="#8c75b5"/></g><g transform="translate(115.76 161.894)"><path d="M4311.379,609.2h17.733a.22.22,0,0,0,0-.44h-17.733a.22.22,0,0,0,0,.44Z" transform="translate(-4311.167 -608.765)" fill="#2b244a"/></g><g transform="translate(103.222 94.708)"><path d="M4283.09,482.916q2.072-5.19,4.2-10.356,2.131-5.194,4.27-10.384,1.22-2.975,2.428-5.955c.106-.262-.319-.376-.424-.117q-2.127,5.255-4.294,10.494-2.128,5.17-4.244,10.345-1.19,2.924-2.362,5.856c-.1.263.321.377.424.117Z" transform="translate(-4282.649 -455.958)" fill="#8c75b5"/></g><g transform="translate(111.785 144.209)"><path d="M4302.336,571.745c4.29-.463,8.547-1.217,12.776-2.064q1.71-.343,3.416-.71c.276-.059.16-.483-.117-.424-4.152.891-8.328,1.7-12.532,2.307q-1.768.256-3.543.45c-.278.03-.281.47,0,.44Z" transform="translate(-4302.126 -568.542)" fill="#8c75b5"/></g><g transform="translate(112.119 99.633)"><path d="M4302.9,467.432q1.2,4.164,2.386,8.331,1.318,4.61,2.633,9.221,1.354,4.742,2.711,9.482,1.305,4.559,2.62,9.114,1.173,4.061,2.361,8.118l.265.9a.22.22,0,0,0,.424-.117q-1.17-3.972-2.317-7.951-1.3-4.511-2.6-9.026-1.357-4.735-2.709-9.471-1.326-4.644-2.652-9.287-1.21-4.237-2.425-8.474-.138-.479-.275-.958a.22.22,0,0,0-.424.117Z" transform="translate(-4302.886 -467.16)" fill="#8c75b5"/></g><path d="M4178.063,251.163c-.24-4.743,3.546-6.374,7.987-6.031s5.812,1.99,7.021,5.605a62.115,62.115,0,0,1,2.413,9.158c.121,1.5-.879,4.02-4.307,3.528a16.779,16.779,0,0,1-7.858-3.389C4182.017,259.042,4178.3,255.905,4178.063,251.163Z" transform="translate(-4120.819 -243.094)" fill="#ffa58f"/><path d="M4212.1,261.358s1.259,1.024,1.9,1.643c.366.353.3.66.109.867a12.88,12.88,0,0,1-1.093.969l-1.609-1.085Z" transform="translate(-4139.51 -252.211)" fill="#ffa58f"/><rect width="7.864" height="12.78" transform="translate(60.941 12.068) rotate(9.916)" fill="#ffa58f"/><path d="M4047.953,291.859c-.363.957.741,1.774,1.364,2.287a124.994,124.994,0,0,1,9.294,8.67c1.337,1.638,6.391,8.679,7.345,10.831a1.063,1.063,0,0,1,.262.347c2.045.707,3.971-.642,5.6-1.707l2.887-1.886a9.8,9.8,0,0,0,2.065-1.613.225.225,0,0,0,.291-.31l-.026-.047a.249.249,0,0,0-.162-.29,83.5,83.5,0,0,0-5.507-8.61c-2.394-3.292-10.248-13.622-10.459-13.746a.946.946,0,0,0-1.347.524,5.842,5.842,0,0,0,.276,3.295c-.855-.487-1.729-.945-2.624-1.365a29.512,29.512,0,0,0-4.226-1.68,1.125,1.125,0,0,0-1.4.476,1.4,1.4,0,0,0,.141,1.5,7.2,7.2,0,0,0,1.541,1.5,1.412,1.412,0,0,0,.244.16c-.386-.183-.771-.369-1.158-.548q-.738-.341-1.477-.675a6.712,6.712,0,0,0-1.118-.445,1.449,1.449,0,0,0-1.682,1.024,2.02,2.02,0,0,0,.689,1.636A1.212,1.212,0,0,0,4047.953,291.859Z" transform="translate(-4047.881 -265.831)" fill="#ffa58f"/><g transform="translate(11.586 23.484)"><path d="M4077.514,296.782c-.442-.5-.889-1-1.375-1.461s-1.008-.879-1.532-1.294a.227.227,0,0,0-.311,0,.221.221,0,0,0,0,.311c.524.415,1.047.834,1.533,1.294s.932.959,1.375,1.461c.187.212.5-.1.311-.311Z" transform="translate(-4074.232 -293.966)" fill="#2b244a"/></g><g transform="translate(4.946 23.857)"><path d="M4064.784,298.813q-2.67-1.924-5.266-3.949c-.22-.172-.534.137-.311.311q2.639,2.06,5.354,4.017c.23.166.45-.215.222-.379Z" transform="translate(-4059.131 -294.813)" fill="#2b244a"/></g><g transform="translate(0.798 25.206)"><path d="M4057.1,302.843l-7.086-4.923c-.233-.162-.453.219-.222.38l7.086,4.923c.233.162.453-.219.222-.379Z" transform="translate(-4049.698 -297.881)" fill="#2b244a"/></g><path d="M4318.907,281.79a2.018,2.018,0,0,0,.823-1.573,1.449,1.449,0,0,0-1.59-1.159,6.737,6.737,0,0,0-1.152.35q-.765.272-1.528.55c-.4.146-.8.3-1.2.451a1.386,1.386,0,0,0,.256-.14,7.178,7.178,0,0,0,1.66-1.369,1.4,1.4,0,0,0,.264-1.479,1.123,1.123,0,0,0-1.354-.591,29.41,29.41,0,0,0-4.352,1.323c-.926.344-1.834.728-2.728,1.142a5.844,5.844,0,0,0,.548-3.26.946.946,0,0,0-1.3-.634c-.221.106-8.906,9.748-11.564,12.831a83.409,83.409,0,0,0-6.2,8.123.249.249,0,0,0-.186.276l-.029.044a.225.225,0,0,0,.264.334,9.847,9.847,0,0,0,1.923,1.779l2.721,2.119c1.537,1.2,3.344,2.7,5.44,2.166a.226.226,0,0,0,.171-.221.223.223,0,0,0,.119-.1,99.971,99.971,0,0,1,8.153-10.64c1.5-1.557,8.209-6.141,10.047-7.413.663-.459,1.831-1.182,1.549-2.165A1.212,1.212,0,0,0,4318.907,281.79Z" transform="translate(-4183.118 -260.032)" fill="#ffa58f"/><path d="M4178.606,297.032c-3.329,2.649-15.683,13.56-16.457,14.278-.62-.753-13.38-10.956-14.415-11.873-4.144-3.673-8.477-5.162-14.178-5.553-5.778-.4-4.184-.651-9.931.076-4.692.594-9.314,1.832-12.706,5.338-2.194,2.268-12.4,13.275-12.063,13.561-2.507-2.158-11.109-9.968-11.692-10.609-1.62,2-7.5,8.7-8.955,10.478,1.327,1.854,7.713,10.332,10.9,14.491a38.008,38.008,0,0,0,7.4,7.087A10.839,10.839,0,0,0,4107,335.734a13.109,13.109,0,0,0,5.2-3.312q.543,1.746,1.246,3.44a20.361,20.361,0,0,0,5.066,7.773,14.219,14.219,0,0,0,8.312,3.131,36.509,36.509,0,0,0,9.694-.775c2.109-.407,1.842-3.123,3.883-3.791,2.418.4,5.074.324,6.51-1.217a32.361,32.361,0,0,0,1.232-4.7,25.945,25.945,0,0,0,.066-6.13q-.237-3.154-.479-6.308l-.075-.995a44.244,44.244,0,0,0,5.021,6.153c2.376,2.425,5.362,4.748,8.835,5.18a7.817,7.817,0,0,0,4.781-.94c2.616-1.461,4.251-4.029,6.006-6.359,4.231-5.441,8.419-10.893,12.528-16.426C4183.391,306.891,4179.945,299.611,4178.606,297.032Z" transform="translate(-4064.876 -270.22)" fill="#7b1fa2"/><g transform="translate(45.744 37.488)"><path d="M4152.36,336.446a78.271,78.271,0,0,1,.977-10.353c.045-.277-.378-.4-.423-.117a79.051,79.051,0,0,0-.993,10.47.22.22,0,0,0,.439,0Z" transform="translate(-4151.921 -325.817)" fill="#2b244a"/></g><g transform="translate(121.696 18.978)"><path d="M4325.045,286.6c.478-.459.959-.915,1.476-1.33s1.059-.777,1.605-1.14c.234-.156.014-.537-.222-.38-.567.377-1.131.76-1.664,1.185s-1.02.886-1.507,1.354c-.2.2.106.507.311.311Z" transform="translate(-4324.667 -283.716)" fill="#2b244a"/></g><g transform="translate(125.78 19.889)"><path d="M4334.284,289.733q2.845-1.71,5.622-3.528c.236-.154.016-.535-.222-.379q-2.777,1.818-5.622,3.528a.22.22,0,0,0,.222.379Z" transform="translate(-4333.957 -285.789)" fill="#2b244a"/></g><g transform="translate(127.973 21.607)"><path d="M4339.272,294.426l7.471-4.318a.22.22,0,0,0-.222-.38l-7.47,4.318a.22.22,0,0,0,.222.379Z" transform="translate(-4338.944 -289.697)" fill="#2b244a"/></g><g transform="translate(31.093 42.515)"><path d="M4119.041,347.121a35.983,35.983,0,0,1,2.523-9.61c.109-.261-.317-.375-.424-.117a36.347,36.347,0,0,0-2.539,9.727c-.033.28.407.278.439,0Z" transform="translate(-4118.599 -337.249)" fill="#2b244a"/></g><g transform="translate(96.981 40.878)"><path d="M4268.492,333.851a46.738,46.738,0,0,1,4.8,9.927c.091.266.516.152.424-.117a47.207,47.207,0,0,0-4.844-10.032c-.151-.238-.532-.018-.379.222Z" transform="translate(-4268.456 -333.526)" fill="#2b244a"/></g><g transform="translate(76.153 41.02)"><path d="M4221.106,334.184a127.51,127.51,0,0,0,6.025,11.428.22.22,0,0,0,.38-.222,127.309,127.309,0,0,1-6.024-11.428c-.119-.256-.5-.033-.38.222Z" transform="translate(-4221.083 -333.849)" fill="#2b244a"/></g><g transform="translate(15.394 34.499)"><path d="M4083.26,329.867l7.223-8.285,1.9-2.182c.185-.212-.124-.525-.311-.311l-7.223,8.286-1.9,2.182c-.185.212.124.525.311.311Z" transform="translate(-4082.893 -319.017)" fill="#2b244a"/></g><g transform="translate(110.979 28.993)"><path d="M4300.317,306.831q2.535,5.423,4.919,10.916.679,1.566,1.346,3.137c.11.259.489.036.379-.222q-2.339-5.511-4.831-10.955-.71-1.552-1.434-3.1c-.12-.256-.5-.033-.379.222Z" transform="translate(-4300.294 -306.496)" fill="#2b244a"/></g><path d="M4177.226,254.419a6.551,6.551,0,0,0,3.653,3.3c1.345.469,2.087.459,4.435-.019,1.966-.4,3.81-3.112,4.09-4.74a8.171,8.171,0,0,0,.107-1.344,16.7,16.7,0,0,0,1.382-2.266,2.9,2.9,0,0,0-.319-3.292c-.06-.072-.2-.268-.308-.394a6.055,6.055,0,0,0-1.1-1,7.884,7.884,0,0,0-1.514-.871,9.253,9.253,0,0,0-3.417-.76c-3.116-.1-6.582,1.285-7.69,4.414A9.174,9.174,0,0,0,4177.226,254.419Z" transform="translate(-4119.74 -241.941)" fill="#2b244a"/><path d="M4188.175,270.8a4.639,4.639,0,0,0-.8-1.968,10.962,10.962,0,0,0-4.048-3.07,22.965,22.965,0,0,1-2.6-2.1l-.853,2.659L4172.9,259.7c.185.176-.21,1.565-.267,1.815a11.99,11.99,0,0,1-.583,1.842,12.128,12.128,0,0,1-2.063,3.364c-.821.946-1.938,1.548-2.739,2.485a4.7,4.7,0,0,0,1.608,7.4,2.957,2.957,0,0,0,2.469-.3,4.992,4.992,0,0,1,4.927.834,5.562,5.562,0,0,0,3.793.985c1.361-.182,1.739-1.226,2.857-1.764a6.282,6.282,0,0,1,1.967-.261C4187.42,275.77,4188.56,273.115,4188.175,270.8Z" transform="translate(-4114.108 -251.28)" fill="#2b244a"/><g transform="translate(61.618 11.405)"><path d="M4188.7,280.678a6.123,6.123,0,0,1,.968-5.422,22.581,22.581,0,0,0,2.038-2.185,7.821,7.821,0,0,0,.788-3.163,4.806,4.806,0,0,1,1.769-3.054c.222-.175-.091-.485-.311-.311a5.088,5.088,0,0,0-1.743,2.6c-.316,1.128-.171,2.392-.732,3.449a14.437,14.437,0,0,1-2.119,2.351,5.65,5.65,0,0,0-1.181,2.574,6.988,6.988,0,0,0,.1,3.275.22.22,0,0,0,.424-.117Z" transform="translate(-4188.026 -266.492)" fill="#8c75b5"/></g><g transform="translate(68.489 14.362)"><path d="M4203.67,273.48a14.288,14.288,0,0,1,.838,2.862c.168.932.167,1.888.354,2.816a8.545,8.545,0,0,0,2.215,3.987c.195.206.5-.105.311-.311a7.989,7.989,0,0,1-2.13-3.951c-.156-.915-.173-1.845-.345-2.759a14.21,14.21,0,0,0-.819-2.761c-.105-.259-.531-.146-.424.117Z" transform="translate(-4203.653 -273.218)" fill="#8c75b5"/></g><g transform="translate(52.098 10.66)"><path d="M4166.779,276.381a7.855,7.855,0,0,1,2.537-2.875,16.328,16.328,0,0,1,3.087-1.592,12.9,12.9,0,0,0,3.611-2.036c1.042-.919,1.81-2.1,2.833-3.036a5.345,5.345,0,0,1,3.833-1.6c.283.016.282-.424,0-.44a5.447,5.447,0,0,0-3.594,1.262,25.971,25.971,0,0,0-2.771,2.9,10.752,10.752,0,0,1-3.7,2.379,20.062,20.062,0,0,0-3.33,1.647,8.4,8.4,0,0,0-2.884,3.163c-.126.252.253.475.38.222Z" transform="translate(-4166.374 -264.799)" fill="#8c75b5"/></g><path d="M4206.331,264.749a2.5,2.5,0,1,1-2.719-2.262A2.5,2.5,0,0,1,4206.331,264.749Z" transform="translate(-4133.868 -252.837)" fill="#ffa58f"/><g transform="translate(66.977 13.708)"><path d="M4203.21,277.721a3,3,0,1,1,2.995-3A3,3,0,0,1,4203.21,277.721Zm0-5.55a2.555,2.555,0,1,0,2.555,2.555A2.559,2.559,0,0,0,4203.21,272.171Z" transform="translate(-4200.215 -271.731)" fill="#ffeae0"/></g><path d="M4172.265,247.994l.1-.088c-.075-.077-.156-.152-.239-.227a23.227,23.227,0,0,0-3.4-4.764,7.443,7.443,0,0,0-2.34-1.927,3.836,3.836,0,0,0-2.962-.236,3.663,3.663,0,0,0-2.039,4.052,3.032,3.032,0,0,0-.378.335c-1.361,1.454-.883,4.031.669,5.279a6.046,6.046,0,0,0,5.683.683,14.492,14.492,0,0,0,4.371-2.668q.319-.074.635-.151C4172.339,248.187,4172.3,248.091,4172.265,247.994Z" transform="translate(-4110.823 -240.553)" fill="#2b244a"/><path d="M4211.9,259.956c-.567.356-.994.413-1.108.053s.154-.884.729-1.249A.918.918,0,0,1,4211.9,259.956Z" transform="translate(-4139.151 -250.755)" fill="#2b244a"/><g transform="translate(68.555 10.771)"><path d="M4204.955,267.661a1.394,1.394,0,0,1-.274-2.237c.2-.2-.108-.508-.311-.311a1.84,1.84,0,0,0,.363,2.927.22.22,0,0,0,.222-.38Z" transform="translate(-4203.804 -265.05)" fill="#2b244a"/></g><g transform="translate(56.74 2.924)"><path d="M4177.3,254.878a8.57,8.57,0,0,0,1.8-7.517c-.063-.276-.487-.159-.424.117a8.11,8.11,0,0,1-1.684,7.09c-.189.209.121.521.311.311Z" transform="translate(-4176.931 -247.204)" fill="#8c75b5"/></g><g transform="translate(50.466 4.356)"><path d="M4162.77,250.871a10.681,10.681,0,0,0,8.179.955.22.22,0,0,0-.117-.424,10.227,10.227,0,0,1-7.84-.91.22.22,0,0,0-.222.379Z" transform="translate(-4162.663 -250.461)" fill="#8c75b5"/></g><g transform="translate(49.786 7.436)"><path d="M4161.264,258.627a10.681,10.681,0,0,0,4.482.577,7.915,7.915,0,0,0,4.194-1.318c.224-.167.005-.549-.222-.379a7.542,7.542,0,0,1-4.052,1.263,10.345,10.345,0,0,1-4.286-.566c-.265-.1-.379.324-.117.424Z" transform="translate(-4161.116 -257.465)" fill="#8c75b5"/></g><g transform="translate(57.64 2.861)"><path d="M4179.188,257.149a5.893,5.893,0,0,0,3.278-.521,4.822,4.822,0,0,0,2.122-2.077,7.47,7.47,0,0,1,1.767-2.568,7.246,7.246,0,0,1,1.665-.753,4.553,4.553,0,0,0,1.351-.8,5.167,5.167,0,0,0,1.664-3.09c.04-.277-.383-.4-.424-.117a4.814,4.814,0,0,1-1.371,2.728,4.044,4.044,0,0,1-1.38.875,9.967,9.967,0,0,0-1.5.635c-1.747,1.042-1.894,3.431-3.61,4.515a5.4,5.4,0,0,1-3.555.736c-.28-.036-.277.4,0,.44Z" transform="translate(-4178.979 -247.06)" fill="#8c75b5"/></g><g transform="translate(58.483 1.281)"><path d="M4181.107,249.316a6.153,6.153,0,0,0,2.6-.606,3.222,3.222,0,0,0,1.453-1.673,2.632,2.632,0,0,1,.648-1.025,8.613,8.613,0,0,1,1.028-.616,6.955,6.955,0,0,0,1.767-1.615c.17-.226-.211-.445-.38-.222a6.393,6.393,0,0,1-1.752,1.549,7.936,7.936,0,0,0-.9.534,2.348,2.348,0,0,0-.64.833,8.815,8.815,0,0,1-.455.969,2.545,2.545,0,0,1-.839.8,5.417,5.417,0,0,1-2.524.632c-.281.017-.283.457,0,.44Z" transform="translate(-4180.896 -243.466)" fill="#8c75b5"/></g></g><g transform="translate(4045.105 240.279)"><g transform="translate(0 60.062)"><rect width="4.258" height="28.98" transform="translate(26.654)" fill="#2b244a"/><path d="M0,0H6.977a0,0,0,0,1,0,0V3.68A2.249,2.249,0,0,1,4.727,5.929H2.249A2.249,2.249,0,0,1,0,3.68V0A0,0,0,0,1,0,0Z" transform="translate(25.295)" fill="#2b244a"/><rect width="2.689" height="30.29" transform="translate(27.439 27.018)" fill="#2b244a"/><circle cx="3.439" cy="3.439" r="3.439" transform="translate(25.344 55.343)" fill="#2b244a"/><path d="M4159.5,532.031q-3.085,3.338-6.171,6.672-6.231,6.735-12.458,13.466a65.875,65.875,0,0,0-6.346,7.4.131.131,0,0,0-.02.058.136.136,0,0,0-.03.089v5.829h2.681v-5.38a58.28,58.28,0,0,1,5.558-6.541q3.122-3.379,6.251-6.754,6.224-6.735,12.457-13.466c.425-.456.849-.913,1.269-1.37Z" transform="translate(-4132.302 -506.234)" fill="#2b244a"/><circle cx="3.439" cy="3.439" r="3.439" transform="translate(0 55.343)" fill="#2b244a"/><circle cx="3.439" cy="3.439" r="3.439" transform="translate(50.623 55.315)" fill="#2b244a"/><path d="M4219.551,559.623a.09.09,0,0,0-.02-.058,66.382,66.382,0,0,0-6.341-7.4q-6.232-6.729-12.458-13.466-3.086-3.338-6.171-6.672h-3.2c.424.457.844.914,1.268,1.37q6.231,6.735,12.462,13.466,3.124,3.379,6.247,6.754a58.846,58.846,0,0,1,5.563,6.541v5.38h2.676v-5.829A.134.134,0,0,0,4219.551,559.623Z" transform="translate(-4164.182 -506.234)" fill="#2b244a"/><g transform="translate(27.422 55.138)"><path d="M4192.187,599.409a3.035,3.035,0,0,1,2.167-.007.222.222,0,0,0,.271-.153.225.225,0,0,0-.154-.27,3.415,3.415,0,0,0-2.4.007.227.227,0,0,0-.153.27.221.221,0,0,0,.271.153Z" transform="translate(-4191.908 -598.764)" fill="#8c75b5"/></g><g transform="translate(2.083 55.058)"><path d="M4134.609,599.249a2.245,2.245,0,0,1,2,.008c.251.129.474-.251.222-.379a2.71,2.71,0,0,0-2.446-.008c-.253.127-.03.506.222.379Z" transform="translate(-4134.276 -598.582)" fill="#8c75b5"/></g><g transform="translate(52.594 55.027)"><path d="M4249.437,599.194a3.7,3.7,0,0,1,2.265-.117.22.22,0,0,0,.117-.424,4.107,4.107,0,0,0-2.5.117.226.226,0,0,0-.153.27.221.221,0,0,0,.271.153Z" transform="translate(-4249.158 -598.512)" fill="#8c75b5"/></g><g transform="translate(26.702 26.199)"><path d="M4190.482,533.384h3.737a.22.22,0,0,0,0-.44h-3.737a.22.22,0,0,0,0,.44Z" transform="translate(-4190.27 -532.944)" fill="#8c75b5"/></g><g transform="translate(26.666 5.864)"><path d="M4190.4,487.134h3.847a.22.22,0,0,0,0-.44H4190.4a.22.22,0,0,0,0,.44Z" transform="translate(-4190.187 -486.694)" fill="#8c75b5"/></g></g><path d="M4160.3,397.363h30.541c1.431,0,3.577-1.55,1.767-4.5-.741-1.209-3.474-1.436-4.412-1.971-2.953-1.684-6.916-11.474-10.179-23.44s-10.645-26.185-22.533-29.682-16.006,2.642-16.939,9.4-1.706,34.344.081,40.171,6.371,10.024,12.9,10.024Z" transform="translate(-4134.025 -336.752)" fill="#8498d9"/><g transform="translate(6.024 2.746)"><path d="M4143.626,345.664c3.665-2.9,8.99-2.558,13.239-1.4a24.522,24.522,0,0,1,6.392,2.731,24.894,24.894,0,0,1,4.683,3.93,36.732,36.732,0,0,1,7.811,12.648c1.131,2.964,2.01,6.026,2.917,9.064.93,3.117,1.861,6.235,2.927,9.309a32.492,32.492,0,0,0,3.487,7.525,13.2,13.2,0,0,0,5,4.651,10.3,10.3,0,0,0,1.492.591c.271.084.387-.341.117-.424-4.93-1.526-7.571-6.644-9.211-11.16-1.131-3.115-2.1-6.286-3.044-9.46-.909-3.044-1.783-6.108-2.849-9.1a38.435,38.435,0,0,0-7.69-13.273,28.235,28.235,0,0,0-4.529-4.1,23.582,23.582,0,0,0-6.141-2.983,23.259,23.259,0,0,0-7.142-1.22,13.2,13.2,0,0,0-6.492,1.494,9.7,9.7,0,0,0-1.276.86c-.222.175.091.485.311.311Z" transform="translate(-4143.239 -342.998)" fill="#2b244a"/></g></g><g transform="translate(4172.913 270.156)"><path d="M4420.281,405.088c.9,1.034.885,2.671,1.067,3.973q.25,1.8.5,3.591.563,4.019,1.128,8.039,1.332,9.48,2.667,18.958,1.438,10.211,2.878,20.422,1.367,9.709,2.733,19.418,1.12,7.966,2.234,15.933.109.78.217,1.56c.039.279.463.16.424-.117q-1.072-7.7-2.155-15.389-1.354-9.632-2.711-19.262l-2.9-20.564q-1.359-9.647-2.716-19.294-1.083-7.706-2.16-15.414a4.071,4.071,0,0,0-.9-2.166c-.186-.214-.5.1-.311.311Z" transform="translate(-4420.224 -404.705)" fill="#2b244a"/></g><g transform="translate(4130.286 270.164)"><path d="M4336.831,404.793c-.95,1.028-.97,2.544-1.154,3.861q-.245,1.756-.491,3.512-.567,4.045-1.135,8.089-1.332,9.484-2.669,18.968-1.447,10.273-2.9,20.547-1.378,9.777-2.752,19.554-1.121,7.974-2.236,15.948-.112.8-.224,1.6c-.039.277.385.4.424.117q1.065-7.639,2.14-15.276,1.348-9.591,2.7-19.181,1.439-10.217,2.879-20.434,1.354-9.61,2.706-19.221,1.091-7.762,2.176-15.526a3.951,3.951,0,0,1,.843-2.249c.191-.208-.118-.519-.311-.311Z" transform="translate(-4323.272 -404.724)" fill="#2b244a"/></g><g transform="translate(4177.865 250.541)"><ellipse cx="21.15" cy="18.308" rx="21.15" ry="18.308" transform="translate(40.527 33.764) rotate(-12.682)" fill="#7b1fa2"/><ellipse cx="10.622" cy="9.519" rx="10.622" ry="9.519" transform="translate(34.845 21.243) rotate(-62.011)" fill="#7b1fa2"/><ellipse cx="15.951" cy="14.184" rx="15.951" ry="14.184" transform="translate(4.193 42.06)" fill="#7b1fa2"/><ellipse cx="13.743" cy="14.776" rx="13.743" ry="14.776" transform="translate(0 23.804) rotate(-60.001)" fill="#7b1fa2"/><g transform="translate(4.594 51.574)"><path d="M4442.211,478.647a30.1,30.1,0,0,1,9.029-.741,30.747,30.747,0,0,1,8.339,1.787,31.71,31.71,0,0,1,7.225,3.745,29.437,29.437,0,0,1,5.707,5.16,22.963,22.963,0,0,1,3.706,5.96c.105.252.2.507.3.764s.522.149.424-.117a22.729,22.729,0,0,0-3.477-6.131,29.171,29.171,0,0,0-5.548-5.376,32.044,32.044,0,0,0-7.18-4.03,31.344,31.344,0,0,0-8.333-2.1,30.319,30.319,0,0,0-9.125.4q-.593.117-1.182.257c-.275.065-.159.489.117.424Z" transform="translate(-4441.937 -477.394)" fill="#2b244a"/></g><g transform="translate(8.518 9.242)"><path d="M4450.975,381.516a79.66,79.66,0,0,1,8.715,4.838,57.528,57.528,0,0,1,7.7,5.775,43.661,43.661,0,0,1,5.726,6.126,30.442,30.442,0,0,1,3.893,7,33.747,33.747,0,0,1,1.718,5.725c.4,1.956.694,3.932.955,5.91.627,4.757,1.05,9.543,1.372,14.33.27,4,.5,8.027.47,12.042q0,.5-.018,1a.22.22,0,0,0,.439,0c.108-3.809-.116-7.638-.349-11.438-.3-4.866-.708-9.73-1.3-14.569a56.1,56.1,0,0,0-2.253-11.468,32.308,32.308,0,0,0-3.534-7.312,37.442,37.442,0,0,0-5.223-6.169,65.966,65.966,0,0,0-15.944-11.107q-1.063-.547-2.146-1.061c-.254-.12-.478.258-.221.38Z" transform="translate(-4450.862 -381.113)" fill="#2b244a"/></g><g transform="translate(37.097 7.317)"><path d="M4516.3,411.741a38.735,38.735,0,0,1,1.373-7.566,67.639,67.639,0,0,1,2.767-8.021,61.132,61.132,0,0,1,3.387-7.039,64.156,64.156,0,0,1,4.012-6.139,33.993,33.993,0,0,1,5.2-5.874c.216-.183-.1-.493-.312-.311a32.431,32.431,0,0,0-4.656,5.142,64.6,64.6,0,0,0-4.246,6.305,59.222,59.222,0,0,0-3.377,6.768,70.314,70.314,0,0,0-2.95,8.157,40.674,40.674,0,0,0-1.641,8.577c-.019.282.421.281.44,0Z" transform="translate(-4515.862 -376.735)" fill="#2b244a"/></g><g transform="translate(39.181 40.428)"><path d="M4521.041,481.98a45.314,45.314,0,0,1,7.449-12.688,47.743,47.743,0,0,1,6.755-7.045,37.548,37.548,0,0,1,6.563-4.334,44.764,44.764,0,0,1,9.7-3.654,60.467,60.467,0,0,1,13.35-1.753q.959-.024,1.919-.024a.22.22,0,0,0,0-.44,63.975,63.975,0,0,0-13.95,1.449,46.654,46.654,0,0,0-10.227,3.53,38.611,38.611,0,0,0-7.01,4.384,44.641,44.641,0,0,0-6.375,6.314,49.663,49.663,0,0,0-7.978,12.556q-.332.786-.622,1.589c-.1.266.329.381.424.117Z" transform="translate(-4520.602 -452.042)" fill="#2b244a"/></g><path d="M4518.438,524.889c-2.893,0-19.08,0-21.958,0a.435.435,0,0,0-.437.437c.005,3.746.041,8.735.043,9.439.024,7.9.94,15.849,4.642,22.931H4514.2s4.4-8.586,4.575-22.1c.04-2.988.084-8.647.1-10.265A.435.435,0,0,0,4518.438,524.889Z" transform="translate(-4467.661 -452.432)" fill="#15157c"/><g transform="translate(28.478 75.533)"><path d="M4496.47,532.325h22.241a.22.22,0,0,0,0-.44H4496.47a.22.22,0,0,0,0,.44Z" transform="translate(-4496.258 -531.885)" fill="#fff"/></g></g><g transform="translate(4167.104 340.704)"><path d="M4452.873,579.464s-1.07-10.658-9.828-13.228a24.986,24.986,0,0,0-23.729,4.985s-4.59-1.287-7.727,2.049c-1.587-.765-3.751-1.525-4.283-1.113-.65.5-.339,3,2.208,5.273a9.764,9.764,0,0,0,0,3.238,2.539,2.539,0,0,0-1.246,2.413c0,2.841,3.061,3.946,3.061,3.946h37.629C4452.914,587.026,4456.431,583.322,4452.873,579.464Z" transform="translate(-4407.014 -565.159)" fill="#e0785e"/><path d="M4470.326,604.2c0-.083-.048-.079-.158-.1a4.476,4.476,0,0,0-4.239,1.055,3.429,3.429,0,0,0-.584,3.627h6.834A6.556,6.556,0,0,0,4470.326,604.2Z" transform="translate(-4439.542 -586.919)" fill="#f0d3c5"/><path d="M4433.483,607.952a10.041,10.041,0,0,0-1.573-.126,3.453,3.453,0,0,1-.879-.013,2.376,2.376,0,0,1-.717-.479c-.224-.189-.439-.391-.646-.6,0,0,0,0,.009,0a.228.228,0,0,0,.154-.268.222.222,0,0,0-.273-.154c-1.42.585-1.917,2.1-2.216,3.482a2.028,2.028,0,0,0-.028.286h7.525A2.729,2.729,0,0,0,4433.483,607.952Z" transform="translate(-4418.389 -588.209)" fill="#f0d3c5"/><path d="M4437.01,593.82s-.835-4.012-2.016-4.3-2.907.728-1.257,4.775c0,0-3.022.509-2.318,3.064a5.03,5.03,0,0,0,3.414,1.125c2.2-.036,2.634-.915,3.074-1.538s1.142-2.589.072-3.026A1.457,1.457,0,0,0,4437.01,593.82Z" transform="translate(-4420.629 -578.784)" fill="#f0d3c5"/><g transform="translate(15.575 3.841)"><path d="M4442.843,578.143a19.114,19.114,0,0,1,2.691-3.866c.185-.212-.125-.525-.311-.311a19.549,19.549,0,0,0-2.76,3.955c-.127.252.251.474.379.222Z" transform="translate(-4442.438 -573.895)" fill="#2b244a"/></g><g transform="translate(2.468 14.737)"><path d="M4412.96,599.523a4.055,4.055,0,0,1,4.189.433c1.085.735,2.146,1.5,3.165,2.325.464.375.922.756,1.386,1.131.217.176.53-.133.311-.311-.895-.725-1.777-1.465-2.7-2.154-.648-.484-1.312-.947-1.981-1.4a4.863,4.863,0,0,0-1.978-.813,4.165,4.165,0,0,0-2.612.409c-.251.131-.029.511.222.38Z" transform="translate(-4412.628 -598.678)" fill="#2b244a"/></g><g transform="translate(11.478 16.402)"><path d="M4433.279,605.589c1.378.24,2.978.736,4.311.081a4.6,4.6,0,0,0,1.478-1.277,3.221,3.221,0,0,0,.739-1.719c.026-.282-.413-.28-.439,0a2.84,2.84,0,0,1-.748,1.574,4.009,4.009,0,0,1-1.342,1.084,3.378,3.378,0,0,1-1.748.181c-.716-.077-1.424-.224-2.134-.347-.276-.048-.4.375-.117.424Z" transform="translate(-4433.12 -602.463)" fill="#2b244a"/></g><g transform="translate(13.989 3.621)"><path d="M4439.2,576.823a15.946,15.946,0,0,1,3.058-2.608c.22-.135.828-.563,1.089-.33.217.193.227.669.245.929a11.34,11.34,0,0,1-.01,1.381c-.061,1.144-.2,2.28-.324,3.419-.03.281.41.279.44,0,.119-1.138.263-2.275.324-3.419a10.4,10.4,0,0,0,0-1.51,2.071,2.071,0,0,0-.282-1.012c-.3-.427-.821-.283-1.224-.1a8.211,8.211,0,0,0-1.724,1.172,21.487,21.487,0,0,0-1.9,1.766c-.2.2.115.516.311.311Z" transform="translate(-4438.831 -573.395)" fill="#2b244a"/></g><g transform="translate(12.341 5.874)"><path d="M4435.233,578.956a10.419,10.419,0,0,1,2.188,1.228,7.192,7.192,0,0,1,1.813,1.552c.169.222.551,0,.379-.222a7.663,7.663,0,0,0-1.912-1.672,11.009,11.009,0,0,0-2.352-1.311c-.267-.1-.382.329-.117.424Z" transform="translate(-4435.083 -578.518)" fill="#2b244a"/></g><g transform="translate(4.588 7.909)"><path d="M4417.554,583.552c.446.206.891.4,1.316.65a.22.22,0,1,0,.222-.379c-.425-.248-.87-.445-1.315-.65a.22.22,0,0,0-.222.38Z" transform="translate(-4417.449 -583.146)" fill="#2b244a"/></g><g transform="translate(29.741 6.794)"><path d="M4475.087,590.814a18.354,18.354,0,0,1,1.929-4.632,15.282,15.282,0,0,1,2.739-3.692,4.6,4.6,0,0,1,3.715-1.4,5.72,5.72,0,0,1,3.116,1.777,11.892,11.892,0,0,1,2.362,3.528c.115.258.494.035.379-.222a12.468,12.468,0,0,0-2.162-3.335,6.682,6.682,0,0,0-3.232-2.1c-3.151-.762-5.439,2.2-6.89,4.544a19.373,19.373,0,0,0-2.38,5.42.22.22,0,0,0,.424.117Z" transform="translate(-4474.656 -580.61)" fill="#2b244a"/></g><g transform="translate(17.499 12.453)"><path d="M4447.188,598.725a45.775,45.775,0,0,1,3.749-3.547c1.047-.834,2.354-1.61,3.716-1.074.263.1.377-.321.117-.424-1.415-.556-2.807.159-3.923,1.015a41.512,41.512,0,0,0-3.969,3.72.22.22,0,0,0,.311.311Z" transform="translate(-4446.813 -593.483)" fill="#2b244a"/></g><g transform="translate(23.376 10.878)"><path d="M4460.511,590.676a1.57,1.57,0,0,1,1.858-.067.226.226,0,0,0,.311,0,.221.221,0,0,0,0-.311,2,2,0,0,0-2.392,0,.225.225,0,0,0-.078.3.221.221,0,0,0,.3.079Z" transform="translate(-4460.18 -589.899)" fill="#2b244a"/></g><g transform="translate(9.868 15.291)"><path d="M4429.563,600.348a2.08,2.08,0,0,0,2.058.188c.248-.137.026-.517-.222-.38a1.647,1.647,0,0,1-1.614-.187.22.22,0,0,0-.222.38Z" transform="translate(-4429.458 -599.936)" fill="#2b244a"/></g><g transform="translate(16.47 13.717)"><path d="M4446.035,596.465a2.321,2.321,0,0,1-.544.637,1.482,1.482,0,0,1-.372.208,1.106,1.106,0,0,1-.427.073.22.22,0,0,0,0,.44,2.08,2.08,0,0,0,1.723-1.136.22.22,0,1,0-.38-.222Z" transform="translate(-4444.472 -596.357)" fill="#2b244a"/></g><g transform="translate(14.856 16.565)"><path d="M4441.134,606.008a2.107,2.107,0,0,0,.687-1.286,5.282,5.282,0,0,0,.124-1.677c-.024-.28-.463-.282-.439,0a4.9,4.9,0,0,1-.085,1.459,1.881,1.881,0,0,1-.508,1.124.226.226,0,0,0-.079.3.221.221,0,0,0,.3.079Z" transform="translate(-4440.803 -602.834)" fill="#2b244a"/></g><path d="M4441.161,600.827c-.706.076-1.319.307-1.116.713a1.963,1.963,0,0,0,1.251.71c.219,0,.855-.71.893-.981S4441.973,600.741,4441.161,600.827Z" transform="translate(-4425.5 -585.135)" fill="#2b244a"/><g transform="translate(25.222 14.134)"><path d="M4465.089,604.829a2.989,2.989,0,0,1-.094-2.246,3.137,3.137,0,0,1,1.222-1.467,3.414,3.414,0,0,1,1.572-.5c.653-.068,1.311-.1,1.967-.122a72.027,72.027,0,0,0,10.047-.763,14.545,14.545,0,0,0,5.085-2.006c.24-.149.02-.53-.222-.38a14.14,14.14,0,0,1-4.744,1.917,38.43,38.43,0,0,1-4.858.567c-1.833.123-3.67.157-5.506.234a6.9,6.9,0,0,0-3.591.7,3.622,3.622,0,0,0-1.371,1.648,3.366,3.366,0,0,0,.067,2.545c.106.258.532.145.425-.117Z" transform="translate(-4464.378 -597.306)" fill="#2b244a"/></g><g transform="translate(0.054 7.244)"><path d="M4407.284,582.076a18.181,18.181,0,0,1,4.9,2.788c.218.178.53-.131.311-.311a18.8,18.8,0,0,0-5.1-2.9c-.264-.1-.378.322-.117.424Z" transform="translate(-4407.136 -581.636)" fill="#2b244a"/></g><g transform="translate(15.021 19.424)"><path d="M4441.24,609.71a2.643,2.643,0,0,1,1.053,1.862.22.22,0,0,0,.44,0,3.049,3.049,0,0,0-1.182-2.173.227.227,0,0,0-.312,0,.222.222,0,0,0,0,.311Z" transform="translate(-4441.177 -609.337)" fill="#2b244a"/></g><g transform="translate(12.696 20.626)"><path d="M4435.953,612.446c.026.026.052.052.075.079l.033.04c.018.021-.027-.036-.01-.014l.015.021a1.293,1.293,0,0,1,.113.188l.021.047c.012.026-.017-.043-.007-.017l.01.024c.013.034.024.069.035.1s.018.066.024.1.006.038.011.057-.006-.048,0-.02l0,.032a.239.239,0,0,0,.064.155.22.22,0,0,0,.375-.155,1.527,1.527,0,0,0-.451-.951.22.22,0,0,0-.311.311Z" transform="translate(-4435.89 -612.072)" fill="#2b244a"/></g><g transform="translate(14.336 20.626)"><path d="M4439.682,612.446c.026.026.051.052.076.079l.033.04c.018.021-.027-.036-.01-.014l.015.021a1.29,1.29,0,0,1,.113.188c.008.015.015.031.022.047s-.017-.043-.007-.017l.01.024q.02.051.035.1c.009.033.018.066.024.1s.006.038.01.057-.005-.048,0-.02l0,.032a.237.237,0,0,0,.064.155.22.22,0,0,0,.375-.155,1.527,1.527,0,0,0-.451-.951.22.22,0,0,0-.311.311Z" transform="translate(-4439.619 -612.072)" fill="#2b244a"/></g><g transform="translate(22.125 18.8)"><path d="M4457.672,610.9a9.29,9.29,0,0,0,3.447-2.6c.179-.216-.13-.529-.311-.311a9.016,9.016,0,0,1-3.357,2.527c-.259.113-.035.492.221.379Z" transform="translate(-4457.335 -607.918)" fill="#2b244a"/></g></g><g transform="translate(4099.521 164.578)"><path d="M4308.44,206.921h-54.284a.856.856,0,0,1-.851-.956l3.994-34.093a.856.856,0,0,1,.85-.757h54.284a.856.856,0,0,1,.85.956l-3.993,34.093A.856.856,0,0,1,4308.44,206.921Z" transform="translate(-4253.3 -168.242)" fill="#15157c"/><g transform="translate(50.352 4.664)"><circle cx="1.319" cy="1.319" r="1.319" transform="translate(4.397)" fill="#fff"/><circle cx="1.319" cy="1.319" r="1.319" fill="#fff"/></g><path d="M4323.831,174.83a8.423,8.423,0,0,0-2.023-3.757,3.04,3.04,0,0,0-.725-1.819,8.908,8.908,0,0,0-2.039-1.577,3.2,3.2,0,0,1-.94-.969,6.865,6.865,0,0,0-.694-1.035,3.019,3.019,0,0,0-1.824-.921,3.4,3.4,0,0,0-2.219.43,1.415,1.415,0,0,0-.229.148,3.369,3.369,0,0,0-2.427-.75,3.016,3.016,0,0,0-2.2,1.214,5.378,5.378,0,0,0-1.568.922,3.7,3.7,0,0,0-1.281,2.4,1.4,1.4,0,0,1-.417.852c-.181.191-.368.376-.549.567a13.354,13.354,0,0,0-1.04,1.21,4.322,4.322,0,0,0-1,2.775,7.545,7.545,0,0,0,.468,1.9c.052.156.106.312.165.465a7.037,7.037,0,0,0-.553,2.347c-.1,1.2.092,2.506,1.325,3.025a3.184,3.184,0,0,0,1.678.178,1.967,1.967,0,0,1,1.043-.009,1.461,1.461,0,0,1,.55.464,14.968,14.968,0,0,0,.882,1.21,1.747,1.747,0,0,0,1.408.546c1.457-.115,2.157-1.449,2.665-2.649a6.576,6.576,0,0,0,2.442-1.023c.739,1.151,1.658,2.366,3.145,2.433a2.2,2.2,0,0,0,1.73-.764,4.426,4.426,0,0,1,.715-.685,3.244,3.244,0,0,1,1.109-.3,3.648,3.648,0,0,0,2.368-2.748A8.132,8.132,0,0,0,4323.831,174.83Z" transform="translate(-4280.955 -164.578)" fill="#2b244a"/><path d="M4319.807,227.667h-38.98c.646-3.245.305-5.177.635-6.325.437-1.552-1.231-2.769-.524-4.27a14.627,14.627,0,0,1,2.184-3.393c3.038-3.5,6.916-4.717,10.688-5.2a54.814,54.814,0,0,1,9.13-.265,29.146,29.146,0,0,1,8.708,1.445,11.143,11.143,0,0,1,6.041,4.821C4319.057,216.871,4319.907,225.938,4319.807,227.667Z" transform="translate(-4268.687 -188.987)" fill="#ffeae0"/><g transform="translate(41.678 32.825)"><path d="M4348.095,239.512q.377,2.68.755,5.358c.04.279.463.16.424-.117q-.376-2.68-.755-5.359c-.039-.279-.463-.16-.424.117Z" transform="translate(-4348.092 -239.236)" fill="#2b244a"/></g><path d="M4267.823,226.486l1.107,8.18h7.833l-3.253-14.035Z" transform="translate(-4261.438 -195.986)" fill="#ffeae0"/><g transform="translate(13.623 28.609)"><path d="M4284.3,229.917l2.192,7.011q.4,1.291.807,2.582c.084.269.509.154.424-.117l-2.192-7.011-.808-2.582c-.084-.269-.509-.154-.424.117Z" transform="translate(-4284.285 -229.647)" fill="#2b244a"/></g><g transform="translate(31.326 22.667)"><path d="M4324.894,216.344l-.269,12.088q-.039,1.723-.077,3.446a.22.22,0,0,0,.439,0q.134-6.044.269-12.088.038-1.723.077-3.446a.22.22,0,0,0-.44,0Z" transform="translate(-4324.549 -216.132)" fill="#2b244a"/></g><g transform="translate(26.921 19.048)"><path d="M4316.287,208.015q-.643,1.343-1.175,2.735c-.17.441-.343.885-.488,1.335a1.323,1.323,0,0,0,.075,1.143c.47.707,1.4.494,2.051.221.947-.4,1.887-.812,2.831-1.218.259-.112.036-.491-.222-.38L4317,212.866a3.951,3.951,0,0,1-1.187.408.752.752,0,0,1-.814-.423,1.839,1.839,0,0,1,.216-1.128q.207-.573.429-1.141.469-1.191,1.021-2.347c.121-.254-.257-.477-.38-.222Z" transform="translate(-4314.53 -207.902)" fill="#2b244a"/></g><g transform="translate(31.633 19.049)"><path d="M4328.275,208.237q.542,1.132,1,2.3.233.59.448,1.188a1.822,1.822,0,0,1,.216,1.128c-.283.825-1.456.249-1.952.035l-2.405-1.036c-.257-.111-.481.268-.222.38.944.406,1.885.819,2.831,1.218.648.273,1.582.485,2.051-.221a1.325,1.325,0,0,0,.075-1.143c-.144-.451-.318-.894-.488-1.335q-.535-1.39-1.176-2.735c-.122-.255-.5-.033-.38.222Z" transform="translate(-4325.247 -207.902)" fill="#2b244a"/></g><path d="M4325.007,200.495s-1.575,4.5-3.133,4.5c-1.276,0-3.134-4.564-3.134-4.564l.4-6.124,5.624.126Z" transform="translate(-4289.968 -181.234)" fill="#e0785e"/><path d="M4322.469,170.292a4.563,4.563,0,0,0-4.954-1.806c-3.71,1.061-4.793,6.175-4.088,9.545a12.987,12.987,0,0,0,2.919,5.845,3.108,3.108,0,0,0,4.786,0,12.992,12.992,0,0,0,2.919-5.845A9.962,9.962,0,0,0,4322.469,170.292Z" transform="translate(-4286.877 -166.67)" fill="#e0785e"/><path d="M4314.532,186.169a2.191,2.191,0,1,1-2.711-1.5A2.191,2.191,0,0,1,4314.532,186.169Z" transform="translate(-4285.201 -175.787)" fill="#e0785e"/><path d="M4325.336,175.334a.667.667,0,0,0-.435-.091c-.238-.4-.186-1.2-.472-1.563-.349-.446.02-1.021-.2-1.563s-.437-1.2-.684-1.735a7.749,7.749,0,0,0-.854-1.49,7.14,7.14,0,0,0-3.192-1.661c-1.13-.22-2.633.51-3.69.939-.627.254-.851.751-1.47,1.026-.279.124-.581.752-.831.939a.436.436,0,0,0-.255-.187c-.308-.053-.524,5.129-.214,5.071a5.741,5.741,0,0,0,2.995-1.549,5.01,5.01,0,0,0,.483-.434c.15-.156.319-.453.518-.528a3.208,3.208,0,0,1,.622-.066,4.573,4.573,0,0,0,.591-.129,4.956,4.956,0,0,0,1.135-.5,5.042,5.042,0,0,0,.808-.61,2.028,2.028,0,0,0,.65,1.042,3.234,3.234,0,0,0,1.107.533,2.544,2.544,0,0,1,.558.188c.122.075.1.046.056.177-.032.1-.07.2-.1.3a3.9,3.9,0,0,0,1.373,4.061C4324.1,177.7,4325.6,175.524,4325.336,175.334Z" transform="translate(-4286.691 -166.043)" fill="#2b244a"/><path d="M4327.336,183.173c.055.7.765.36,1.489.745.666.354,1.166.4,1.268.026.122-.454-.424-1.147-1.447-1.386C4327.688,182.334,4327.3,182.661,4327.336,183.173Z" transform="translate(-4294.783 -174.613)" fill="#2b244a"/><path d="M4319.577,183.173c-.054.7-.765.36-1.489.745-.666.354-1.166.4-1.268.026-.122-.454.424-1.147,1.447-1.386C4319.225,182.334,4319.617,182.661,4319.577,183.173Z" transform="translate(-4288.882 -174.613)" fill="#2b244a"/><path d="M4329.941,187.2a.513.513,0,0,0-.422-.251.484.484,0,0,0-.418.344,1.691,1.691,0,0,0-.081.594,1.078,1.078,0,0,0,.193.667.449.449,0,0,0,.768-.165A1.484,1.484,0,0,0,4329.941,187.2Z" transform="translate(-4295.728 -177.115)" fill="#2b244a"/><path d="M4320.337,187.2a.513.513,0,0,0-.423-.251.485.485,0,0,0-.418.344,1.679,1.679,0,0,0-.08.594,1.071,1.071,0,0,0,.192.667.45.45,0,0,0,.768-.165A1.484,1.484,0,0,0,4320.337,187.2Z" transform="translate(-4290.346 -177.115)" fill="#2b244a"/><g transform="translate(26.165 10.188)"><path d="M4312.809,187.963a9.9,9.9,0,0,0,.87,3.861c.115.258.494.035.379-.222a9.376,9.376,0,0,1-.81-3.639.22.22,0,0,0-.439,0Z" transform="translate(-4312.809 -187.75)" fill="#2b244a"/></g><g transform="translate(31.076 10.501)"><path d="M4324.347,188.623l-.188.963c-.061.312-.143.628-.175.944a.6.6,0,0,0,.326.665,1.208,1.208,0,0,0,.775-.029.22.22,0,0,0-.117-.424,1.331,1.331,0,0,1-.32.064.513.513,0,0,1-.19-.023c-.018-.009-.017-.019-.009,0-.018-.033,0,.006-.007-.011a.388.388,0,0,1-.025-.127,1.6,1.6,0,0,1,.045-.326q.154-.788.308-1.576a.225.225,0,0,0-.153-.27.222.222,0,0,0-.271.153Z" transform="translate(-4323.979 -188.463)" fill="#2b244a"/></g><g transform="translate(30.463 13.874)"><path d="M4322.74,196.134a.153.153,0,0,0-.134.231,1.55,1.55,0,0,0,.917.827,1.438,1.438,0,0,0,1.593-.8.154.154,0,0,0-.137-.231C4324.163,196.163,4323.43,196.148,4322.74,196.134Z" transform="translate(-4322.584 -196.134)" fill="#2b244a"/></g><g transform="translate(31.413 16.387)"><path d="M4324.957,203.811a4.589,4.589,0,0,0,3.517-1.586.22.22,0,0,0-.311-.311,4.163,4.163,0,0,1-3.206,1.457c-.282-.024-.28.416,0,.44Z" transform="translate(-4324.746 -201.85)" fill="#2b244a"/></g><g transform="translate(36.8 11.315)"><path d="M4337.034,190.636c.7,1.081,1.806,2.172,3.214,1.88.2-.042.394-.153.58-.008.112.087.194.211.3.3a1.324,1.324,0,0,0,.686.286,1.435,1.435,0,0,0,1.343-.572c.169-.227-.212-.447-.379-.222a1.006,1.006,0,0,1-1.21.273c-.221-.108-.34-.325-.537-.463a.781.781,0,0,0-.723-.066c-1.27.356-2.271-.656-2.9-1.632-.152-.237-.533-.017-.38.222Z" transform="translate(-4336.999 -190.313)" fill="#8c75b5"/></g><g transform="translate(31.798 0.506)"><path d="M4326.022,165.806a1.826,1.826,0,0,0,.008,2.3,5.929,5.929,0,0,0,.931.853.751.751,0,0,1,.349.563,1.6,1.6,0,0,1-.28.749.22.22,0,0,0,.379.222,1.622,1.622,0,0,0,.292-1.283c-.135-.4-.521-.627-.828-.885a2.21,2.21,0,0,1-.761-.964,1.368,1.368,0,0,1,.222-1.239c.173-.22-.136-.533-.311-.311Z" transform="translate(-4325.621 -165.73)" fill="#8c75b5"/></g><g transform="translate(24.508 4.872)"><path d="M4309.077,175.869a2.417,2.417,0,0,0,.331,1.836,1.388,1.388,0,0,0,1.7.272,8.12,8.12,0,0,1,.948-.449c.183-.051.233.084.343.215a2.6,2.6,0,0,0,.334.343,1.038,1.038,0,0,0,1.458.016c.18-.216-.129-.528-.311-.311-.384.459-.936-.073-1.195-.388-.152-.185-.3-.353-.56-.339a2.1,2.1,0,0,0-.768.3c-.46.237-1.108.581-1.554.128a1.958,1.958,0,0,1-.291-1.625c.028-.281-.411-.279-.439,0Z" transform="translate(-4309.04 -175.659)" fill="#8c75b5"/></g><g transform="translate(35.832 6.48)"><path d="M4334.849,180.238a3.489,3.489,0,0,0,1.263,1.1,1.694,1.694,0,0,0,1.529-.076,1.644,1.644,0,0,0,.541-.511c.03-.045.059-.126.108-.152.067-.036.186,0,.256,0a1.526,1.526,0,0,0,1.459-1.017c.1-.267-.329-.382-.424-.117a1.086,1.086,0,0,1-1.036.694c-.241,0-.434-.02-.608.174a2.856,2.856,0,0,1-.4.474c-.917.677-1.82-.182-2.377-.88-.176-.222-.485.091-.311.311Z" transform="translate(-4334.797 -179.316)" fill="#8c75b5"/></g><path d="M4268.1,199.352c-.072-.371-.264-.729-.659-.7a1.091,1.091,0,0,0-.747.519,16.626,16.626,0,0,0-1.175,2.87c-.537-1.439-1.112-2.792-1.649-4.231a17.353,17.353,0,0,0-1.144-2.666.941.941,0,0,0-.679-.514.724.724,0,0,0-.656.413,1.8,1.8,0,0,0-.161.8,15.632,15.632,0,0,0,.313,3.047,28.489,28.489,0,0,0-2.335-3.309c-.269-.321-.674-.666-1.056-.494a.843.843,0,0,0-.388.881,20.735,20.735,0,0,0,1.805,5.084,17.536,17.536,0,0,0-2.569-2.778.814.814,0,0,0-.857.122.948.948,0,0,0-.2.937,21.559,21.559,0,0,0,2.153,5.1,42.517,42.517,0,0,0,2.519,3.947,3.249,3.249,0,0,0,3.228,1.2c2.566-.251,3.313-2.9,3.723-5.03.207-1.069.393-2.142.523-3.223A6.282,6.282,0,0,0,4268.1,199.352Z" transform="translate(-4254.756 -181.413)" fill="#e0785e"/><path d="M4266.422,222.272l.616,3.655a18.719,18.719,0,0,0,7.411-1.907l-1.221-4.386Z" transform="translate(-4260.652 -195.427)" fill="#e0785e"/><g transform="translate(6.399 17.056)"><path d="M4267.865,203.64q.628,1.934,1.409,3.812c.107.258.533.145.424-.117q-.781-1.877-1.409-3.812c-.087-.268-.512-.153-.424.117Z" transform="translate(-4267.853 -203.371)" fill="#37374c"/></g><g transform="translate(4.343 18.847)"><path d="M4263.2,207.777l1.3,2.62c.125.253.5.031.379-.222l-1.3-2.619c-.126-.253-.505-.031-.379.222Z" transform="translate(-4263.177 -207.444)" fill="#37374c"/></g><g transform="translate(5.559 20.87)"><path d="M4266.315,214.315a6.366,6.366,0,0,1,3.115-1.838.22.22,0,0,0-.117-.424A6.794,6.794,0,0,0,4266,214c-.192.207.118.518.311.311Z" transform="translate(-4265.944 -212.045)" fill="#37374c"/></g><g transform="translate(8.635 20.854)"><path d="M4273.379,215.564a6.192,6.192,0,0,1,1.031-3.233c.156-.237-.224-.457-.379-.222a6.629,6.629,0,0,0-1.092,3.455c-.008.283.432.283.44,0Z" transform="translate(-4272.939 -212.008)" fill="#37374c"/></g><g transform="translate(6.85 32.344)"><path d="M4269.089,240.179a12.619,12.619,0,0,0,7.941-1.626.22.22,0,0,0-.222-.379,12.237,12.237,0,0,1-7.72,1.566c-.28-.035-.277.4,0,.44Z" transform="translate(-4268.88 -238.141)" fill="#2b244a"/></g></g><g transform="translate(3981.751 226.778)"><g transform="translate(1.269 72.006)"><g transform="translate(38.739 1.966)"><path d="M4076.649,474.73a1.307,1.307,0,0,1,1.241.867,5.082,5.082,0,0,1,.236,1.189l.19,1.359q.384,2.744.768,5.489.768,5.489,1.536,10.978t1.536,10.978l1.543,11.032q.768,5.489,1.536,10.978l.19,1.359c.039.279.463.16.424-.117q-.783-5.6-1.566-11.2t-1.566-11.2l-1.566-11.2-1.566-11.2q-.391-2.8-.783-5.6l-.2-1.413a10.482,10.482,0,0,0-.21-1.332,1.739,1.739,0,0,0-1.744-1.428.22.22,0,0,0,0,.44Z" transform="translate(-4076.437 -474.29)" fill="#2b244a"/></g><g transform="translate(0 1.966)"><path d="M3997.531,474.29a1.717,1.717,0,0,0-1.36.636,4.241,4.241,0,0,0-.594,2.124l-.783,5.6q-.784,5.6-1.566,11.2t-1.566,11.2q-.783,5.6-1.566,11.195t-1.566,11.2l-.2,1.413c-.039.277.385.4.424.117q.768-5.488,1.536-10.978T3991.828,507q.768-5.489,1.536-10.978.772-5.516,1.543-11.032l.768-5.489.38-2.717c.092-.659.14-1.474.768-1.867a1.352,1.352,0,0,1,.709-.19.22.22,0,0,0,0-.44Z" transform="translate(-3988.329 -474.29)" fill="#2b244a"/></g><path d="M4035.489,472h-43.765a1.093,1.093,0,0,1-1.093-1.093h0a1.093,1.093,0,0,1,1.093-1.093h43.765a1.093,1.093,0,0,1,1.094,1.093h0A1.093,1.093,0,0,1,4035.489,472Z" transform="translate(-3989.619 -469.818)" fill="#dec6bd"/></g><g transform="translate(11.493 25.646)"><path d="M4011.592,364.648a103.7,103.7,0,0,1,2.942,13.378c.179,1.24.337,2.482.487,3.726.034.277.474.281.44,0a104.714,104.714,0,0,0-2.279-12.869c-.364-1.457-.757-2.907-1.166-4.352a.22.22,0,0,0-.424.117Z" transform="translate(-4011.583 -364.376)" fill="#2b244a"/></g><g transform="translate(15.47 28.796)"><path d="M4020.942,371.753c-.127,3.761-.182,7.525-.256,11.287q-.027,1.363-.056,2.726a.22.22,0,0,0,.44,0c.084-3.762.143-7.525.236-11.288.022-.909.046-1.817.077-2.726.01-.283-.43-.283-.44,0Z" transform="translate(-4020.63 -371.54)" fill="#2b244a"/></g><g transform="translate(11.738 35.249)"><path d="M4012.157,386.48c.966,2.5,1.869,5.018,2.7,7.567.088.268.513.153.424-.117-.834-2.549-1.738-5.065-2.7-7.567-.1-.261-.526-.148-.424.117Z" transform="translate(-4012.141 -386.216)" fill="#2b244a"/></g><path d="M4020.694,331.272c-.676-6.584-2.074-17.813-3.7-17.813s-3.021,11.228-3.7,17.813,2.119,7.937,3.7,7.937S4021.371,337.855,4020.694,331.272Z" transform="translate(-4000.994 -310.2)" fill="#ffce00"/><path d="M4002.595,324.48c-3.354-7.077-9.349-19.05-11.156-18.409s1.073,13.716,2.922,21.327,5.5,8.017,7.254,7.394S4005.95,331.557,4002.595,324.48Z" transform="translate(-3988.482 -306.046)" fill="#ffce00"/><g transform="translate(12.873 15.664)"><path d="M4016.148,354.4a5.179,5.179,0,0,0,1.935-4.341,15.1,15.1,0,0,0-1.594-5.662,27.808,27.808,0,0,0-1.356-2.617.22.22,0,0,0-.38.222,28.472,28.472,0,0,1,2.1,4.484,8.48,8.48,0,0,1,.543,5.382,4.156,4.156,0,0,1-1.47,2.152c-.226.165-.008.547.222.379Z" transform="translate(-4014.722 -341.672)" fill="#2b244a"/></g><path d="M3995.821,361.374c-3.376-3.557-9.277-9.512-10.238-8.773s3.287,7.968,5.863,12.142,4.841,3.694,5.774,2.975S3999.2,364.931,3995.821,361.374Z" transform="translate(-3985.444 -332.097)" fill="#ffce00"/><path d="M4017.833,423.635c-.7-6.408-5.245-17.128-6.2-19.336a.674.674,0,0,0-.618-.4h-2.348a.673.673,0,0,0-.618.4c-.958,2.208-5.5,12.928-6.2,19.336-.786,7.17,3.506,9.244,3.506,9.244h8.98S4018.619,430.805,4017.833,423.635Z" transform="translate(-3994.578 -360.873)" fill="#7b1fa2"/><g transform="translate(25.125 53.663)"><g transform="translate(13.917 10.898)"><path d="M4077.287,460.271l-2.606-7.237c-.095-.264-.52-.15-.424.117l2.606,7.237c.1.264.52.15.424-.117Z" transform="translate(-4074.243 -452.884)" fill="#2b244a"/></g><path d="M4054.69,446.661h-11.56a.541.541,0,0,1-.525-.67l4.329-17.482a.539.539,0,0,1,.525-.411h11.56a.541.541,0,0,1,.524.67l-4.329,17.482A.539.539,0,0,1,4054.69,446.661Zm-7.231-18.123a.1.1,0,0,0-.1.076l-4.329,17.482a.1.1,0,0,0,.019.087.1.1,0,0,0,.079.039h11.56a.1.1,0,0,0,.1-.076l4.329-17.482a.1.1,0,0,0-.1-.125Z" transform="translate(-4042.589 -428.098)" fill="#2b244a"/><path d="M4056.61,447.258h-7.637a.321.321,0,0,1-.311-.4l3.36-13.569a.321.321,0,0,1,.311-.244h7.637a.321.321,0,0,1,.312.4l-3.36,13.569A.321.321,0,0,1,4056.61,447.258Z" transform="translate(-4045.987 -430.872)" fill="#dec6bd"/></g></g><g transform="translate(4088.581 205.09)"><rect width="19.941" height="6.55" rx="3.275" transform="translate(19.941 6.55) rotate(180)" fill="#ffce00"/><path d="M4228.418,265.8v3.469a.44.44,0,0,0,.6.411l3.454-1.323Z" transform="translate(-4228.418 -261.807)" fill="#ffce00"/><path d="M4259.569,263.243a.406.406,0,0,1,0,.812A.406.406,0,0,1,4259.569,263.243Z" transform="translate(-4245.653 -260.374)" fill="#2b244a"/><path d="M4250.6,263.243a.406.406,0,0,1,0,.812A.406.406,0,0,1,4250.6,263.243Z" transform="translate(-4240.625 -260.374)" fill="#2b244a"/><path d="M4241.622,263.243a.406.406,0,0,1,0,.812A.406.406,0,0,1,4241.622,263.243Z" transform="translate(-4235.597 -260.374)" fill="#2b244a"/></g></g></g></svg>