<svg xmlns="http://www.w3.org/2000/svg" width="52.979" height="22.551" viewBox="0 0 52.979 22.551"><g transform="translate(0.5 0.5)"><path d="M149.341,71.056c-2.044,0-3.054,1.632-3.864,2.944-.821,1.327-1.377,2.141-2.424,2.141s-1.6-.814-2.421-2.141c-.811-1.312-1.82-2.944-3.863-2.944S133.714,72.688,132.9,74c-.82,1.327-1.377,2.141-2.422,2.141s-1.6-.814-2.421-2.141c-.811-1.312-1.82-2.944-3.863-2.944s-3.053,1.633-3.862,2.945-1.376,2.14-2.42,2.14-1.6-.814-2.42-2.14-1.819-2.945-3.862-2.945-3.052,1.632-3.863,2.945-1.376,2.14-2.42,2.14a.847.847,0,1,0,0,1.695c2.043,0,3.052-1.632,3.863-2.944.819-1.327,1.376-2.141,2.42-2.141s1.6.814,2.42,2.141c.811,1.312,1.82,2.944,3.862,2.944s3.052-1.632,3.862-2.944c.82-1.327,1.376-2.141,2.421-2.141s1.6.814,2.421,2.141c.811,1.312,1.82,2.944,3.863,2.944s3.053-1.632,3.864-2.944c.819-1.327,1.376-2.141,2.422-2.141s1.6.814,2.421,2.141c.81,1.312,1.82,2.944,3.863,2.944s3.055-1.632,3.865-2.944c.821-1.327,1.377-2.141,2.423-2.141s1.6.814,2.424,2.141c.811,1.312,1.821,2.944,3.865,2.944a.847.847,0,0,0,0-1.695c-1.047,0-1.6-.814-2.424-2.141C152.4,72.688,151.387,71.056,149.341,71.056Z" transform="translate(-104.499 -56.285)" fill="#7b1fa2" stroke="rgba(0,0,0,0)" stroke-width="1"/><path d="M149.341,78.718c-2.044,0-3.054,1.633-3.864,2.944-.821,1.328-1.377,2.142-2.424,2.142s-1.6-.814-2.421-2.141c-.811-1.312-1.82-2.945-3.863-2.945s-3.054,1.633-3.864,2.945c-.82,1.327-1.377,2.141-2.422,2.141s-1.6-.814-2.421-2.141c-.811-1.312-1.82-2.945-3.863-2.945s-3.053,1.634-3.862,2.945c-.82,1.327-1.376,2.141-2.42,2.141s-1.6-.814-2.42-2.141c-.811-1.312-1.819-2.945-3.862-2.945s-3.052,1.633-3.863,2.945c-.82,1.327-1.376,2.141-2.42,2.141a.847.847,0,1,0,0,1.695c2.043,0,3.052-1.633,3.863-2.945s1.376-2.14,2.42-2.14,1.6.814,2.42,2.14,1.82,2.945,3.862,2.945,3.052-1.633,3.862-2.945,1.376-2.14,2.421-2.14,1.6.814,2.421,2.14,1.82,2.945,3.863,2.945,3.053-1.633,3.864-2.945,1.376-2.14,2.422-2.14,1.6.814,2.421,2.14,1.82,2.945,3.863,2.945,3.055-1.633,3.865-2.945,1.377-2.14,2.423-2.14,1.6.814,2.424,2.14,1.821,2.945,3.865,2.945a.847.847,0,0,0,0-1.695c-1.047,0-1.6-.814-2.424-2.141C152.4,80.351,151.387,78.718,149.341,78.718Z" transform="translate(-104.499 -71.333)" fill="#7b1fa2" stroke="rgba(0,0,0,0)" stroke-width="1"/><path d="M149.341,86.38c-2.044,0-3.054,1.632-3.864,2.944-.821,1.327-1.377,2.141-2.424,2.141s-1.6-.814-2.421-2.141c-.811-1.312-1.82-2.944-3.863-2.944s-3.054,1.632-3.864,2.944c-.82,1.327-1.377,2.141-2.422,2.141s-1.6-.814-2.421-2.141c-.811-1.312-1.82-2.944-3.863-2.944s-3.053,1.632-3.862,2.944c-.82,1.327-1.376,2.141-2.42,2.141s-1.6-.814-2.42-2.141c-.811-1.312-1.819-2.944-3.862-2.944s-3.052,1.632-3.863,2.944c-.82,1.327-1.376,2.141-2.42,2.141a.847.847,0,1,0,0,1.695c2.043,0,3.052-1.633,3.863-2.945s1.376-2.14,2.42-2.14,1.6.814,2.42,2.14,1.82,2.945,3.862,2.945,3.052-1.633,3.862-2.944c.82-1.327,1.376-2.141,2.421-2.141s1.6.814,2.421,2.141c.811,1.311,1.82,2.944,3.863,2.944s3.053-1.633,3.864-2.944c.819-1.327,1.376-2.141,2.422-2.141s1.6.814,2.421,2.141c.81,1.311,1.82,2.944,3.863,2.944s3.055-1.633,3.865-2.944c.821-1.327,1.377-2.141,2.423-2.141s1.6.814,2.424,2.141c.811,1.311,1.821,2.944,3.865,2.944a.847.847,0,0,0,0-1.695c-1.047,0-1.6-.814-2.424-2.141C152.4,88.012,151.387,86.38,149.341,86.38Z" transform="translate(-104.499 -86.38)" fill="#7b1fa2" stroke="rgba(0,0,0,0)" stroke-width="1"/></g></svg>