<svg xmlns="http://www.w3.org/2000/svg" width="1095" height="268" viewBox="0 0 1095 268"><g transform="translate(6162 9402)"><g transform="translate(-6403 -11745)"><rect width="1095" height="53" rx="26.5" transform="translate(241 2343)" fill="#7b1fa2" opacity="0.215"/><rect width="1095" height="53" rx="26.5" transform="translate(241 2415)" fill="#7b1fa2" opacity="0.215"/><rect width="1095" height="53" rx="26.5" transform="translate(241 2486)" fill="#7b1fa2" opacity="0.215"/><rect width="1095" height="53" rx="26.5" transform="translate(241 2558)" fill="#7b1fa2" opacity="0.215"/></g><path d="M6.914,14.016A1.2,1.2,0,0,0,6.445,13a6.148,6.148,0,0,0-1.687-.75,11.963,11.963,0,0,1-1.93-.777A3.153,3.153,0,0,1,.891,8.648,2.747,2.747,0,0,1,1.41,7,3.389,3.389,0,0,1,2.9,5.875a5.616,5.616,0,0,1,2.184-.406,5.112,5.112,0,0,1,2.172.441,3.458,3.458,0,0,1,1.48,1.246,3.261,3.261,0,0,1,.527,1.828H6.922A1.534,1.534,0,0,0,6.43,7.77a2.023,2.023,0,0,0-1.383-.434A2.162,2.162,0,0,0,3.711,7.7a1.146,1.146,0,0,0-.477.957,1.1,1.1,0,0,0,.559.93,6.311,6.311,0,0,0,1.645.7,7.106,7.106,0,0,1,2.914,1.492A2.972,2.972,0,0,1,9.266,14a2.737,2.737,0,0,1-1.117,2.316,4.891,4.891,0,0,1-3.008.84,5.808,5.808,0,0,1-2.391-.48,3.783,3.783,0,0,1-1.645-1.316,3.371,3.371,0,0,1-.566-1.937H2.891q0,1.883,2.25,1.883a2.189,2.189,0,0,0,1.3-.34A1.106,1.106,0,0,0,6.914,14.016Zm12.938,1.547a4.068,4.068,0,0,1-1.789,1.176,7.492,7.492,0,0,1-2.562.418,5.076,5.076,0,0,1-2.59-.645,4.3,4.3,0,0,1-1.719-1.871,6.585,6.585,0,0,1-.621-2.883v-.773a6.994,6.994,0,0,1,.574-2.949A4.248,4.248,0,0,1,12.8,6.129a4.771,4.771,0,0,1,2.535-.66,4.751,4.751,0,0,1,3.164.965,4.123,4.123,0,0,1,1.352,2.809H17.57a2.268,2.268,0,0,0-.691-1.43,2.208,2.208,0,0,0-1.473-.453,2.078,2.078,0,0,0-1.82.9,4.724,4.724,0,0,0-.633,2.672v.727a4.5,4.5,0,0,0,.68,2.7,2.327,2.327,0,0,0,1.992.914,2.6,2.6,0,0,0,1.883-.562V12.75H15.375V11.023h4.477Zm7.8-1.547A1.2,1.2,0,0,0,27.18,13a6.148,6.148,0,0,0-1.687-.75,11.963,11.963,0,0,1-1.93-.777,3.153,3.153,0,0,1-1.937-2.82A2.747,2.747,0,0,1,22.145,7a3.389,3.389,0,0,1,1.492-1.129,5.616,5.616,0,0,1,2.184-.406,5.112,5.112,0,0,1,2.172.441,3.458,3.458,0,0,1,1.48,1.246A3.261,3.261,0,0,1,30,8.984H27.656a1.534,1.534,0,0,0-.492-1.215,2.023,2.023,0,0,0-1.383-.434,2.162,2.162,0,0,0-1.336.363,1.146,1.146,0,0,0-.477.957,1.1,1.1,0,0,0,.559.93,6.311,6.311,0,0,0,1.645.7,7.106,7.106,0,0,1,2.914,1.492A2.972,2.972,0,0,1,30,14a2.737,2.737,0,0,1-1.117,2.316,4.891,4.891,0,0,1-3.008.84,5.808,5.808,0,0,1-2.391-.48,3.783,3.783,0,0,1-1.645-1.316,3.371,3.371,0,0,1-.566-1.937h2.352q0,1.883,2.25,1.883a2.189,2.189,0,0,0,1.3-.34A1.106,1.106,0,0,0,27.648,14.016Zm9.836,0A1.2,1.2,0,0,0,37.016,13a6.148,6.148,0,0,0-1.687-.75,11.963,11.963,0,0,1-1.93-.777,3.153,3.153,0,0,1-1.937-2.82A2.747,2.747,0,0,1,31.98,7a3.389,3.389,0,0,1,1.492-1.129,5.616,5.616,0,0,1,2.184-.406,5.112,5.112,0,0,1,2.172.441,3.458,3.458,0,0,1,1.48,1.246,3.261,3.261,0,0,1,.527,1.828H37.492A1.534,1.534,0,0,0,37,7.77a2.023,2.023,0,0,0-1.383-.434,2.162,2.162,0,0,0-1.336.363,1.146,1.146,0,0,0-.477.957,1.1,1.1,0,0,0,.559.93,6.311,6.311,0,0,0,1.645.7,7.106,7.106,0,0,1,2.914,1.492A2.972,2.972,0,0,1,39.836,14a2.737,2.737,0,0,1-1.117,2.316,4.891,4.891,0,0,1-3.008.84,5.808,5.808,0,0,1-2.391-.48,3.783,3.783,0,0,1-1.645-1.316,3.371,3.371,0,0,1-.566-1.937h2.352q0,1.883,2.25,1.883a2.189,2.189,0,0,0,1.3-.34A1.106,1.106,0,0,0,37.484,14.016Zm9.836,0A1.2,1.2,0,0,0,46.852,13a6.148,6.148,0,0,0-1.687-.75,11.963,11.963,0,0,1-1.93-.777A3.153,3.153,0,0,1,41.3,8.648,2.747,2.747,0,0,1,41.816,7a3.389,3.389,0,0,1,1.492-1.129,5.616,5.616,0,0,1,2.184-.406,5.112,5.112,0,0,1,2.172.441,3.458,3.458,0,0,1,1.48,1.246,3.261,3.261,0,0,1,.527,1.828H47.328a1.534,1.534,0,0,0-.492-1.215,2.023,2.023,0,0,0-1.383-.434,2.162,2.162,0,0,0-1.336.363,1.146,1.146,0,0,0-.477.957,1.1,1.1,0,0,0,.559.93,6.311,6.311,0,0,0,1.645.7,7.106,7.106,0,0,1,2.914,1.492A2.972,2.972,0,0,1,49.672,14a2.737,2.737,0,0,1-1.117,2.316,4.891,4.891,0,0,1-3.008.84,5.808,5.808,0,0,1-2.391-.48,3.783,3.783,0,0,1-1.645-1.316,3.371,3.371,0,0,1-.566-1.937H43.3q0,1.883,2.25,1.883a2.189,2.189,0,0,0,1.3-.34A1.106,1.106,0,0,0,47.32,14.016Z" transform="translate(-6121 -9385.104)" fill="#12263f"/><path d="M5.227,12.836H3.359V17H1.016V5.625H5.242a4.778,4.778,0,0,1,3.109.9A3.1,3.1,0,0,1,9.445,9.063,3.5,3.5,0,0,1,8.941,11a3.437,3.437,0,0,1-1.527,1.238l2.461,4.648V17H7.359Zm-1.867-1.9H5.25a1.936,1.936,0,0,0,1.367-.449A1.606,1.606,0,0,0,7.1,9.25a1.719,1.719,0,0,0-.457-1.266,1.9,1.9,0,0,0-1.4-.461H3.359Zm11.609,6.219a4.15,4.15,0,0,1-3.027-1.141,4.054,4.054,0,0,1-1.168-3.039v-.219a5.106,5.106,0,0,1,.492-2.277A3.612,3.612,0,0,1,12.66,8.934a3.914,3.914,0,0,1,2.059-.543,3.508,3.508,0,0,1,2.73,1.094,4.444,4.444,0,0,1,1,3.1v.922H13.063a2.1,2.1,0,0,0,.66,1.328,2,2,0,0,0,1.395.5,2.437,2.437,0,0,0,2.039-.945l1.109,1.242a3.389,3.389,0,0,1-1.375,1.121A4.511,4.511,0,0,1,14.969,17.156Zm-.258-6.937a1.414,1.414,0,0,0-1.09.453,2.341,2.341,0,0,0-.535,1.3h3.141v-.18a1.669,1.669,0,0,0-.406-1.16A1.459,1.459,0,0,0,14.711,10.219ZM14.914,5h2.461L15.211,7.422H13.375ZM19.4,12.711a4.954,4.954,0,0,1,.926-3.133,3,3,0,0,1,2.5-1.187,2.631,2.631,0,0,1,2.164.953l.094-.8h2.047v8.172a3.613,3.613,0,0,1-.5,1.93A3.236,3.236,0,0,1,25.2,19.9a4.985,4.985,0,0,1-2.141.43,4.635,4.635,0,0,1-1.812-.371A3.217,3.217,0,0,1,19.914,19l1-1.375a2.645,2.645,0,0,0,2.047.945,1.936,1.936,0,0,0,1.4-.48,1.8,1.8,0,0,0,.5-1.363v-.453a2.612,2.612,0,0,1-2.055.883,2.992,2.992,0,0,1-2.465-1.191A4.953,4.953,0,0,1,19.4,12.8Zm2.258.164a3.076,3.076,0,0,0,.461,1.8,1.467,1.467,0,0,0,1.266.652,1.568,1.568,0,0,0,1.477-.773V11a1.565,1.565,0,0,0-1.461-.773,1.476,1.476,0,0,0-1.277.664A3.467,3.467,0,0,0,21.656,12.875ZM31.242,17H28.977V8.547h2.266Zm-2.4-10.641a1.112,1.112,0,0,1,.34-.836,1.465,1.465,0,0,1,1.848,0,1.105,1.105,0,0,1,.344.836,1.108,1.108,0,0,1-.348.844,1.448,1.448,0,0,1-1.836,0A1.108,1.108,0,0,1,28.844,6.359Zm6.375,2.188.07.945a2.971,2.971,0,0,1,2.43-1.1A2.255,2.255,0,0,1,39.961,9.68,2.9,2.9,0,0,1,42.5,8.391a2.521,2.521,0,0,1,2.047.8,3.681,3.681,0,0,1,.672,2.41V17H42.953V11.609a1.61,1.61,0,0,0-.281-1.051,1.246,1.246,0,0,0-.992-.332,1.409,1.409,0,0,0-1.406.969l.008,5.8H38.023V11.617a1.59,1.59,0,0,0-.289-1.062,1.259,1.259,0,0,0-.984-.328,1.463,1.463,0,0,0-1.391.8V17H33.1V8.547Zm15.625,8.609a4.15,4.15,0,0,1-3.027-1.141,4.054,4.054,0,0,1-1.168-3.039v-.219a5.106,5.106,0,0,1,.492-2.277,3.612,3.612,0,0,1,1.395-1.547,3.914,3.914,0,0,1,2.059-.543,3.508,3.508,0,0,1,2.73,1.094,4.444,4.444,0,0,1,1,3.1v.922H48.938a2.1,2.1,0,0,0,.66,1.328,2,2,0,0,0,1.395.5,2.437,2.437,0,0,0,2.039-.945l1.109,1.242a3.389,3.389,0,0,1-1.375,1.121A4.511,4.511,0,0,1,50.844,17.156Zm-.258-6.937a1.414,1.414,0,0,0-1.09.453,2.341,2.341,0,0,0-.535,1.3H52.1v-.18a1.669,1.669,0,0,0-.406-1.16A1.459,1.459,0,0,0,50.586,10.219ZM57.68,8.547l.07.977a2.951,2.951,0,0,1,2.43-1.133,2.453,2.453,0,0,1,2,.789,3.682,3.682,0,0,1,.672,2.359V17H60.594V11.594a1.465,1.465,0,0,0-.312-1.043,1.4,1.4,0,0,0-1.039-.324,1.553,1.553,0,0,0-1.43.813V17H55.555V8.547Z" transform="translate(-6121 -9312.5)" fill="#12263f"/><path d="M9.578,7.523H6.094V17H3.75V7.523H.313v-1.9H9.578Zm5.43,3.141A6.134,6.134,0,0,0,14.2,10.6a1.654,1.654,0,0,0-1.68.867V17H10.258V8.547h2.133l.063,1.008a2.092,2.092,0,0,1,1.883-1.164,2.366,2.366,0,0,1,.7.1ZM20.758,17a2.507,2.507,0,0,1-.227-.758,2.732,2.732,0,0,1-2.133.914,3,3,0,0,1-2.059-.719,2.312,2.312,0,0,1-.816-1.812,2.389,2.389,0,0,1,1-2.062,4.915,4.915,0,0,1,2.879-.727h1.039v-.484a1.393,1.393,0,0,0-.3-.937,1.183,1.183,0,0,0-.949-.352,1.345,1.345,0,0,0-.895.273.929.929,0,0,0-.324.75H15.711a2.268,2.268,0,0,1,.453-1.359,3,3,0,0,1,1.281-.98A4.669,4.669,0,0,1,19.3,8.391a3.689,3.689,0,0,1,2.48.785,2.747,2.747,0,0,1,.918,2.207v3.664a4.041,4.041,0,0,0,.336,1.82V17Zm-1.867-1.57a1.945,1.945,0,0,0,.922-.223,1.462,1.462,0,0,0,.625-.6V13.156h-.844q-1.7,0-1.8,1.172l-.008.133a.9.9,0,0,0,.3.7A1.153,1.153,0,0,0,18.891,15.43Zm13.164-2.578a5.119,5.119,0,0,1-.867,3.168,2.872,2.872,0,0,1-2.422,1.137,2.639,2.639,0,0,1-2.2-1.055l-.1.9H24.438V5H26.7V9.3a2.571,2.571,0,0,1,2.055-.914,2.9,2.9,0,0,1,2.426,1.137,5.126,5.126,0,0,1,.879,3.2ZM29.8,12.688a3.363,3.363,0,0,0-.406-1.871,1.374,1.374,0,0,0-1.211-.59,1.489,1.489,0,0,0-1.484.883v3.336a1.509,1.509,0,0,0,1.5.891,1.394,1.394,0,0,0,1.438-1.078A5.562,5.562,0,0,0,29.8,12.688ZM38.344,17a2.507,2.507,0,0,1-.227-.758,2.732,2.732,0,0,1-2.133.914,3,3,0,0,1-2.059-.719,2.312,2.312,0,0,1-.816-1.812,2.389,2.389,0,0,1,1-2.062,4.915,4.915,0,0,1,2.879-.727h1.039v-.484a1.393,1.393,0,0,0-.3-.937,1.183,1.183,0,0,0-.949-.352,1.345,1.345,0,0,0-.895.273.929.929,0,0,0-.324.75H33.3a2.268,2.268,0,0,1,.453-1.359,3,3,0,0,1,1.281-.98,4.669,4.669,0,0,1,1.859-.355,3.689,3.689,0,0,1,2.48.785,2.747,2.747,0,0,1,.918,2.207v3.664a4.041,4.041,0,0,0,.336,1.82V17Zm-1.867-1.57a1.945,1.945,0,0,0,.922-.223,1.462,1.462,0,0,0,.625-.6V13.156H37.18q-1.7,0-1.8,1.172l-.008.133a.9.9,0,0,0,.3.7A1.153,1.153,0,0,0,36.477,15.43Zm7.938-6.883v8.914a3.024,3.024,0,0,1-.742,2.176,2.821,2.821,0,0,1-2.141.777,4.591,4.591,0,0,1-1.117-.133V18.492a4.238,4.238,0,0,0,.711.07q1.023,0,1.023-1.086V8.547ZM41.969,6.359a1.112,1.112,0,0,1,.34-.836,1.47,1.47,0,0,1,1.852,0,1.112,1.112,0,0,1,.34.836,1.108,1.108,0,0,1-.348.844,1.448,1.448,0,0,1-1.836,0A1.108,1.108,0,0,1,41.969,6.359ZM51.078,17a2.507,2.507,0,0,1-.227-.758,2.732,2.732,0,0,1-2.133.914,3,3,0,0,1-2.059-.719,2.312,2.312,0,0,1-.816-1.812,2.389,2.389,0,0,1,1-2.062,4.915,4.915,0,0,1,2.879-.727h1.039v-.484a1.393,1.393,0,0,0-.3-.937,1.183,1.183,0,0,0-.949-.352,1.345,1.345,0,0,0-.895.273.929.929,0,0,0-.324.75H46.031a2.268,2.268,0,0,1,.453-1.359,3,3,0,0,1,1.281-.98,4.669,4.669,0,0,1,1.859-.355,3.689,3.689,0,0,1,2.48.785,2.747,2.747,0,0,1,.918,2.207v3.664a4.041,4.041,0,0,0,.336,1.82V17Zm-1.867-1.57a1.945,1.945,0,0,0,.922-.223,1.462,1.462,0,0,0,.625-.6V13.156h-.844q-1.7,0-1.8,1.172l-.008.133a.9.9,0,0,0,.3.7A1.153,1.153,0,0,0,49.211,15.43Zm5.2-2.719a5.094,5.094,0,0,1,.887-3.148,2.877,2.877,0,0,1,2.426-1.172,2.589,2.589,0,0,1,2.039.922V5h2.266V17H59.984l-.109-.9A2.657,2.657,0,0,1,57.7,17.156a2.869,2.869,0,0,1-2.395-1.176A5.258,5.258,0,0,1,54.406,12.711Zm2.258.164a3.328,3.328,0,0,0,.414,1.82,1.349,1.349,0,0,0,1.2.633,1.511,1.511,0,0,0,1.477-.883V11.109a1.489,1.489,0,0,0-1.461-.883Q56.664,10.227,56.664,12.875Zm6.758-.18a5.013,5.013,0,0,1,.484-2.242A3.546,3.546,0,0,1,65.3,8.93a4.069,4.069,0,0,1,2.113-.539,3.849,3.849,0,0,1,2.793,1.047,4.2,4.2,0,0,1,1.207,2.844l.016.578a4.418,4.418,0,0,1-1.086,3.121,4.209,4.209,0,0,1-5.832,0,4.5,4.5,0,0,1-1.09-3.187Zm2.258.164a3.151,3.151,0,0,0,.453,1.84,1.629,1.629,0,0,0,2.578.008,3.448,3.448,0,0,0,.461-2.012,3.12,3.12,0,0,0-.461-1.828,1.5,1.5,0,0,0-1.3-.648,1.475,1.475,0,0,0-1.281.645A3.506,3.506,0,0,0,65.68,12.859Zm11.891-2.2a6.134,6.134,0,0,0-.812-.062,1.654,1.654,0,0,0-1.68.867V17H72.82V8.547h2.133l.063,1.008A2.092,2.092,0,0,1,76.9,8.391a2.366,2.366,0,0,1,.7.1Z" transform="translate(-6121 -9242)" fill="#12263f"/><path d="M5.227,12.836H3.359V17H1.016V5.625H5.242a4.778,4.778,0,0,1,3.109.9A3.1,3.1,0,0,1,9.445,9.063,3.5,3.5,0,0,1,8.941,11a3.437,3.437,0,0,1-1.527,1.238l2.461,4.648V17H7.359Zm-1.867-1.9H5.25a1.936,1.936,0,0,0,1.367-.449A1.606,1.606,0,0,0,7.1,9.25a1.719,1.719,0,0,0-.457-1.266,1.9,1.9,0,0,0-1.4-.461H3.359Zm11.609,6.219a4.15,4.15,0,0,1-3.027-1.141,4.054,4.054,0,0,1-1.168-3.039v-.219a5.106,5.106,0,0,1,.492-2.277A3.612,3.612,0,0,1,12.66,8.934a3.914,3.914,0,0,1,2.059-.543,3.508,3.508,0,0,1,2.73,1.094,4.444,4.444,0,0,1,1,3.1v.922H13.063a2.1,2.1,0,0,0,.66,1.328,2,2,0,0,0,1.395.5,2.437,2.437,0,0,0,2.039-.945l1.109,1.242a3.389,3.389,0,0,1-1.375,1.121A4.511,4.511,0,0,1,14.969,17.156Zm-.258-6.937a1.414,1.414,0,0,0-1.09.453,2.341,2.341,0,0,0-.535,1.3h3.141v-.18a1.669,1.669,0,0,0-.406-1.16A1.459,1.459,0,0,0,14.711,10.219ZM24.3,14.664a.727.727,0,0,0-.41-.652,4.659,4.659,0,0,0-1.316-.426q-3.016-.633-3.016-2.562A2.323,2.323,0,0,1,20.5,9.145a3.766,3.766,0,0,1,2.441-.754,4.053,4.053,0,0,1,2.574.758,2.388,2.388,0,0,1,.965,1.969H24.219a1.092,1.092,0,0,0-.312-.8A1.322,1.322,0,0,0,22.93,10a1.351,1.351,0,0,0-.883.258.814.814,0,0,0-.312.656.7.7,0,0,0,.355.605,3.657,3.657,0,0,0,1.2.4,9.8,9.8,0,0,1,1.422.379A2.336,2.336,0,0,1,26.5,14.57a2.2,2.2,0,0,1-.992,1.871,4.28,4.28,0,0,1-2.562.715,4.47,4.47,0,0,1-1.887-.379,3.166,3.166,0,0,1-1.293-1.039,2.414,2.414,0,0,1-.469-1.426h2.141a1.179,1.179,0,0,0,.445.922,1.766,1.766,0,0,0,1.109.32,1.635,1.635,0,0,0,.98-.246A.766.766,0,0,0,24.3,14.664Zm11.258-1.812a5.07,5.07,0,0,1-.887,3.129,2.843,2.843,0,0,1-2.395,1.176,2.633,2.633,0,0,1-2.07-.891V20.25H27.953V8.547h2.094l.078.828a2.654,2.654,0,0,1,2.141-.984A2.862,2.862,0,0,1,34.7,9.547a5.207,5.207,0,0,1,.867,3.188ZM33.3,12.688a3.327,3.327,0,0,0-.418-1.82,1.361,1.361,0,0,0-1.215-.641,1.478,1.478,0,0,0-1.461.813V14.5a1.5,1.5,0,0,0,1.477.836Q33.3,15.336,33.3,12.688Zm3.3.008a5.013,5.013,0,0,1,.484-2.242A3.546,3.546,0,0,1,38.488,8.93,4.069,4.069,0,0,1,40.6,8.391a3.849,3.849,0,0,1,2.793,1.047A4.2,4.2,0,0,1,44.6,12.281l.016.578a4.418,4.418,0,0,1-1.086,3.121,4.209,4.209,0,0,1-5.832,0,4.5,4.5,0,0,1-1.09-3.187Zm2.258.164a3.151,3.151,0,0,0,.453,1.84,1.629,1.629,0,0,0,2.578.008,3.448,3.448,0,0,0,.461-2.012,3.12,3.12,0,0,0-.461-1.828,1.5,1.5,0,0,0-1.3-.648,1.475,1.475,0,0,0-1.281.645A3.506,3.506,0,0,0,38.867,12.859Zm9.219-4.312.07.977a2.951,2.951,0,0,1,2.43-1.133,2.453,2.453,0,0,1,2,.789,3.682,3.682,0,0,1,.672,2.359V17H51V11.594a1.465,1.465,0,0,0-.312-1.043,1.4,1.4,0,0,0-1.039-.324,1.553,1.553,0,0,0-1.43.813V17H45.961V8.547Zm11.461,6.117a.727.727,0,0,0-.41-.652,4.659,4.659,0,0,0-1.316-.426Q54.8,12.953,54.8,11.023a2.323,2.323,0,0,1,.934-1.879,3.766,3.766,0,0,1,2.441-.754,4.053,4.053,0,0,1,2.574.758,2.388,2.388,0,0,1,.965,1.969H59.461a1.092,1.092,0,0,0-.312-.8A1.322,1.322,0,0,0,58.172,10a1.351,1.351,0,0,0-.883.258.814.814,0,0,0-.312.656.7.7,0,0,0,.355.605,3.657,3.657,0,0,0,1.2.4,9.8,9.8,0,0,1,1.422.379,2.336,2.336,0,0,1,1.789,2.273,2.2,2.2,0,0,1-.992,1.871,4.28,4.28,0,0,1-2.562.715,4.47,4.47,0,0,1-1.887-.379,3.166,3.166,0,0,1-1.293-1.039,2.414,2.414,0,0,1-.469-1.426H56.68a1.179,1.179,0,0,0,.445.922,1.766,1.766,0,0,0,1.109.32,1.635,1.635,0,0,0,.98-.246A.766.766,0,0,0,59.547,14.664ZM68.094,17a2.507,2.507,0,0,1-.227-.758,2.732,2.732,0,0,1-2.133.914,3,3,0,0,1-2.059-.719,2.312,2.312,0,0,1-.816-1.812,2.389,2.389,0,0,1,1-2.062,4.915,4.915,0,0,1,2.879-.727h1.039v-.484a1.393,1.393,0,0,0-.3-.937,1.183,1.183,0,0,0-.949-.352,1.345,1.345,0,0,0-.895.273.929.929,0,0,0-.324.75H63.047A2.268,2.268,0,0,1,63.5,9.727a3,3,0,0,1,1.281-.98,4.669,4.669,0,0,1,1.859-.355,3.689,3.689,0,0,1,2.48.785,2.747,2.747,0,0,1,.918,2.207v3.664a4.041,4.041,0,0,0,.336,1.82V17Zm-1.867-1.57a1.945,1.945,0,0,0,.922-.223,1.462,1.462,0,0,0,.625-.6V13.156H66.93q-1.7,0-1.8,1.172l-.008.133a.9.9,0,0,0,.3.7A1.153,1.153,0,0,0,66.227,15.43Zm13.164-2.578a5.119,5.119,0,0,1-.867,3.168A2.872,2.872,0,0,1,76.1,17.156a2.639,2.639,0,0,1-2.2-1.055l-.1.9H71.773V5h2.258V9.3a2.571,2.571,0,0,1,2.055-.914,2.9,2.9,0,0,1,2.426,1.137,5.126,5.126,0,0,1,.879,3.2Zm-2.258-.164a3.363,3.363,0,0,0-.406-1.871,1.374,1.374,0,0,0-1.211-.59,1.489,1.489,0,0,0-1.484.883v3.336a1.509,1.509,0,0,0,1.5.891,1.394,1.394,0,0,0,1.438-1.078A5.562,5.562,0,0,0,77.133,12.688ZM83.164,17H80.9V5h2.266Zm5.75.156a4.15,4.15,0,0,1-3.027-1.141,4.054,4.054,0,0,1-1.168-3.039v-.219a5.106,5.106,0,0,1,.492-2.277,3.612,3.612,0,0,1,1.395-1.547,3.914,3.914,0,0,1,2.059-.543,3.508,3.508,0,0,1,2.73,1.094,4.444,4.444,0,0,1,1,3.1v.922H87.008a2.1,2.1,0,0,0,.66,1.328,2,2,0,0,0,1.395.5,2.437,2.437,0,0,0,2.039-.945l1.109,1.242a3.389,3.389,0,0,1-1.375,1.121A4.511,4.511,0,0,1,88.914,17.156Zm-.258-6.937a1.414,1.414,0,0,0-1.09.453,2.341,2.341,0,0,0-.535,1.3h3.141v-.18a1.669,1.669,0,0,0-.406-1.16A1.459,1.459,0,0,0,88.656,10.219Zm13.391,2.82h-4.4v-1.82h4.4Zm14.875.172a4.025,4.025,0,0,1-1.355,2.891,4.76,4.76,0,0,1-3.223,1.055,4.28,4.28,0,0,1-3.441-1.473,6.038,6.038,0,0,1-1.254-4.043v-.7a6.819,6.819,0,0,1,.578-2.891,4.332,4.332,0,0,1,1.652-1.918,5.164,5.164,0,0,1,5.668.387,4.326,4.326,0,0,1,1.391,2.961h-2.344a2.376,2.376,0,0,0-.613-1.6,2.271,2.271,0,0,0-1.605-.5,1.991,1.991,0,0,0-1.754.84,4.707,4.707,0,0,0-.6,2.605V11.7a5.038,5.038,0,0,0,.559,2.7,1.954,1.954,0,0,0,1.762.852,2.314,2.314,0,0,0,1.621-.5,2.241,2.241,0,0,0,.613-1.535Zm1.039-.516a5.013,5.013,0,0,1,.484-2.242A3.546,3.546,0,0,1,119.84,8.93a4.069,4.069,0,0,1,2.113-.539,3.849,3.849,0,0,1,2.793,1.047,4.2,4.2,0,0,1,1.207,2.844l.016.578a4.418,4.418,0,0,1-1.086,3.121,4.209,4.209,0,0,1-5.832,0,4.5,4.5,0,0,1-1.09-3.187Zm2.258.164a3.151,3.151,0,0,0,.453,1.84,1.629,1.629,0,0,0,2.578.008,3.448,3.448,0,0,0,.461-2.012,3.12,3.12,0,0,0-.461-1.828,1.5,1.5,0,0,0-1.3-.648,1.475,1.475,0,0,0-1.281.645A3.506,3.506,0,0,0,120.219,12.859Zm9.844-6.391V8.547h1.445V10.2h-1.445v4.219a1.007,1.007,0,0,0,.18.672.9.9,0,0,0,.688.2,3.6,3.6,0,0,0,.664-.055v1.711a4.648,4.648,0,0,1-1.367.2,2.156,2.156,0,0,1-2.422-2.4V10.2H126.57V8.547H127.8V6.469ZM135.148,17h-2.266V8.547h2.266Zm-2.4-10.641a1.112,1.112,0,0,1,.34-.836,1.465,1.465,0,0,1,1.848,0,1.105,1.105,0,0,1,.344.836,1.109,1.109,0,0,1-.348.844,1.448,1.448,0,0,1-1.836,0A1.109,1.109,0,0,1,132.75,6.359Zm6.852,8.82h4.133V17h-7.016V15.625l3.977-5.25h-3.859V8.547h6.773V9.883ZM150.047,17a2.507,2.507,0,0,1-.227-.758,2.732,2.732,0,0,1-2.133.914,3,3,0,0,1-2.059-.719,2.312,2.312,0,0,1-.816-1.812,2.389,2.389,0,0,1,1-2.062,4.915,4.915,0,0,1,2.879-.727h1.039v-.484a1.393,1.393,0,0,0-.3-.937,1.183,1.183,0,0,0-.949-.352,1.345,1.345,0,0,0-.895.273.929.929,0,0,0-.324.75H145a2.268,2.268,0,0,1,.453-1.359,3,3,0,0,1,1.281-.98,4.669,4.669,0,0,1,1.859-.355,3.689,3.689,0,0,1,2.48.785,2.747,2.747,0,0,1,.918,2.207v3.664a4.041,4.041,0,0,0,.336,1.82V17Zm-1.867-1.57a1.945,1.945,0,0,0,.922-.223,1.462,1.462,0,0,0,.625-.6V13.156h-.844q-1.7,0-1.8,1.172l-.008.133a.9.9,0,0,0,.3.7A1.153,1.153,0,0,0,148.18,15.43Zm9.063-.094a1.481,1.481,0,0,0,1.016-.344,1.2,1.2,0,0,0,.406-.914h2.117a2.9,2.9,0,0,1-.469,1.574,3.093,3.093,0,0,1-1.262,1.109,3.949,3.949,0,0,1-1.77.395A3.67,3.67,0,0,1,154.422,16a4.56,4.56,0,0,1-1.047-3.184v-.148a4.508,4.508,0,0,1,1.039-3.117,3.627,3.627,0,0,1,2.852-1.164,3.555,3.555,0,0,1,2.543.9,3.2,3.2,0,0,1,.973,2.4h-2.117a1.539,1.539,0,0,0-.406-1.066,1.513,1.513,0,0,0-2.223.164,3.324,3.324,0,0,0-.4,1.863v.234a3.366,3.366,0,0,0,.4,1.875A1.378,1.378,0,0,0,157.242,15.336ZM164.453,17h-2.266V8.547h2.266Zm-2.4-10.641a1.112,1.112,0,0,1,.34-.836,1.465,1.465,0,0,1,1.848,0,1.105,1.105,0,0,1,.344.836,1.109,1.109,0,0,1-.348.844,1.448,1.448,0,0,1-1.836,0A1.109,1.109,0,0,1,162.055,6.359Zm3.906,6.336a5.013,5.013,0,0,1,.484-2.242A3.546,3.546,0,0,1,167.84,8.93a4.069,4.069,0,0,1,2.113-.539,3.849,3.849,0,0,1,2.793,1.047,4.2,4.2,0,0,1,1.207,2.844l.016.578a4.418,4.418,0,0,1-1.086,3.121,4.209,4.209,0,0,1-5.832,0,4.5,4.5,0,0,1-1.09-3.187Zm2.258.164a3.151,3.151,0,0,0,.453,1.84,1.629,1.629,0,0,0,2.578.008,3.448,3.448,0,0,0,.461-2.012,3.12,3.12,0,0,0-.461-1.828,1.5,1.5,0,0,0-1.3-.648,1.475,1.475,0,0,0-1.281.645A3.506,3.506,0,0,0,168.219,12.859ZM170.4,5h2.461L170.7,7.422h-1.836Zm7.039,3.547.07.977a2.951,2.951,0,0,1,2.43-1.133,2.453,2.453,0,0,1,2,.789,3.682,3.682,0,0,1,.672,2.359V17h-2.258V11.594a1.465,1.465,0,0,0-.312-1.043A1.4,1.4,0,0,0,179,10.227a1.553,1.553,0,0,0-1.43.813V17h-2.258V8.547Z" transform="translate(-6121 -9170)" fill="#12263f"/><path d="M-7316.5-9146.62H-7157v24.859" transform="translate(1472 -45)" fill="none" stroke="#15157c" stroke-width="2"/><path d="M0,0V25" transform="translate(-5844 -9192.5)" fill="none" stroke="#15157c" stroke-width="2"/><path d="M15,0H98a15,15,0,0,1,15,15v2A15,15,0,0,1,98,32H15A15,15,0,0,1,0,17V15A15,15,0,0,1,15,0Z" transform="translate(-5901 -9178)" fill="#f81854"/><path d="M-27.9-5.258h-4.93v4.031h5.727V0h-7.227V-11.375h7.148v1.234h-5.648v3.656h4.93Zm3.8-3.2.039.938a3.122,3.122,0,0,1,2.508-1.094A2.417,2.417,0,0,1-19.145-7.25a3.2,3.2,0,0,1,1.1-.984,3.242,3.242,0,0,1,1.6-.375q2.781,0,2.828,2.945V0h-1.445V-5.578a1.941,1.941,0,0,0-.414-1.355,1.823,1.823,0,0,0-1.391-.449,1.916,1.916,0,0,0-1.336.48,1.949,1.949,0,0,0-.617,1.293V0h-1.453V-5.539a1.613,1.613,0,0,0-1.8-1.844,1.934,1.934,0,0,0-1.945,1.211V0h-1.445V-8.453Zm19.8,4.32a5.062,5.062,0,0,1-.883,3.109A2.829,2.829,0,0,1-7.574.156,3.1,3.1,0,0,1-10-.82V3.25h-1.445v-11.7h1.32l.07.938A2.977,2.977,0,0,1-7.6-8.609a2.882,2.882,0,0,1,2.41,1.148,5.117,5.117,0,0,1,.887,3.2ZM-5.746-4.3a3.735,3.735,0,0,0-.609-2.258,1.963,1.963,0,0,0-1.672-.828A2.125,2.125,0,0,0-10-6.219V-2.18A2.129,2.129,0,0,0-8.012-1.023a1.954,1.954,0,0,0,1.652-.824A4.077,4.077,0,0,0-5.746-4.3ZM-.895,0H-2.34V-12H-.895Zm5.82.156a3.693,3.693,0,0,1-2.8-1.129,4.19,4.19,0,0,1-1.078-3.02v-.266A5.073,5.073,0,0,1,1.531-6.5,3.748,3.748,0,0,1,2.875-8.051a3.378,3.378,0,0,1,1.871-.559A3.166,3.166,0,0,1,7.309-7.523a4.7,4.7,0,0,1,.914,3.109v.6H2.5a3,3,0,0,0,.73,2.02A2.3,2.3,0,0,0,5-1.023a2.517,2.517,0,0,0,1.3-.312,3.259,3.259,0,0,0,.93-.828l.883.688A3.55,3.55,0,0,1,4.926.156Zm-.18-7.578a1.928,1.928,0,0,0-1.469.637A3.1,3.1,0,0,0,2.543-5H6.777v-.109a2.753,2.753,0,0,0-.594-1.707A1.815,1.815,0,0,0,4.746-7.422ZM15.113,0a3.036,3.036,0,0,1-.2-.891A3.225,3.225,0,0,1,12.5.156a2.984,2.984,0,0,1-2.051-.707,2.287,2.287,0,0,1-.8-1.793,2.39,2.39,0,0,1,1-2.051,4.733,4.733,0,0,1,2.824-.73h1.406v-.664A1.623,1.623,0,0,0,14.434-7,1.821,1.821,0,0,0,13.1-7.445a2.107,2.107,0,0,0-1.3.391,1.151,1.151,0,0,0-.523.945H9.824a2,2,0,0,1,.449-1.223,3.066,3.066,0,0,1,1.219-.934,4.1,4.1,0,0,1,1.691-.344,3.342,3.342,0,0,1,2.289.73,2.635,2.635,0,0,1,.859,2.012v3.891a4.757,4.757,0,0,0,.3,1.852V0Zm-2.4-1.1A2.54,2.54,0,0,0,14-1.453a2.127,2.127,0,0,0,.883-.914V-4.1H13.754Q11.1-4.1,11.1-2.547a1.316,1.316,0,0,0,.453,1.063A1.742,1.742,0,0,0,12.715-1.1Zm5.531-3.2a4.952,4.952,0,0,1,.922-3.129,2.915,2.915,0,0,1,2.414-1.184,2.932,2.932,0,0,1,2.352,1.016V-12h1.445V0H24.051l-.07-.906A2.943,2.943,0,0,1,21.566.156a2.887,2.887,0,0,1-2.395-1.2,5.008,5.008,0,0,1-.926-3.141Zm1.445.164a3.749,3.749,0,0,0,.594,2.25,1.92,1.92,0,0,0,1.641.813A2.108,2.108,0,0,0,23.934-2.3V-6.187a2.125,2.125,0,0,0-1.992-1.2,1.929,1.929,0,0,0-1.656.82A4.128,4.128,0,0,0,19.691-4.133ZM27.238-4.3a4.993,4.993,0,0,1,.488-2.234A3.643,3.643,0,0,1,29.086-8.07a3.7,3.7,0,0,1,1.988-.539,3.565,3.565,0,0,1,2.793,1.2,4.6,4.6,0,0,1,1.066,3.18v.1a5.036,5.036,0,0,1-.473,2.215A3.589,3.589,0,0,1,33.109-.391a3.743,3.743,0,0,1-2.02.547,3.556,3.556,0,0,1-2.785-1.2A4.575,4.575,0,0,1,27.238-4.2Zm1.453.172a3.616,3.616,0,0,0,.652,2.258,2.088,2.088,0,0,0,1.746.852,2.075,2.075,0,0,0,1.75-.863A3.955,3.955,0,0,0,33.488-4.3a3.61,3.61,0,0,0-.66-2.254,2.1,2.1,0,0,0-1.754-.863,2.075,2.075,0,0,0-1.727.852A3.925,3.925,0,0,0,28.691-4.133Z" transform="translate(-5844 -9156)" fill="#fff"/><path d="M15,0H98a15,15,0,0,1,15,15v2A15,15,0,0,1,98,32H15A15,15,0,0,1,0,17V15A15,15,0,0,1,15,0Z" transform="translate(-5741 -9178)" fill="#f81854"/><path d="M-30.609-5.258h-4.93v4.031h5.727V0h-7.227V-11.375h7.148v1.234h-5.648v3.656h4.93Zm3.8-3.2.039.938a3.122,3.122,0,0,1,2.508-1.094A2.417,2.417,0,0,1-21.852-7.25a3.2,3.2,0,0,1,1.1-.984,3.242,3.242,0,0,1,1.6-.375q2.781,0,2.828,2.945V0h-1.445V-5.578a1.941,1.941,0,0,0-.414-1.355,1.823,1.823,0,0,0-1.391-.449,1.916,1.916,0,0,0-1.336.48,1.949,1.949,0,0,0-.617,1.293V0h-1.453V-5.539a1.613,1.613,0,0,0-1.8-1.844,1.934,1.934,0,0,0-1.945,1.211V0H-28.18V-8.453Zm19.8,4.32a5.062,5.062,0,0,1-.883,3.109A2.829,2.829,0,0,1-10.281.156,3.1,3.1,0,0,1-12.7-.82V3.25h-1.445v-11.7h1.32l.07.938A2.977,2.977,0,0,1-10.3-8.609a2.882,2.882,0,0,1,2.41,1.148,5.117,5.117,0,0,1,.887,3.2ZM-8.453-4.3a3.735,3.735,0,0,0-.609-2.258,1.963,1.963,0,0,0-1.672-.828A2.125,2.125,0,0,0-12.7-6.219V-2.18a2.129,2.129,0,0,0,1.984,1.156,1.954,1.954,0,0,0,1.652-.824A4.077,4.077,0,0,0-8.453-4.3ZM-3.6,0H-5.047V-12H-3.6Zm5.82.156A3.693,3.693,0,0,1-.578-.973a4.19,4.19,0,0,1-1.078-3.02v-.266A5.073,5.073,0,0,1-1.176-6.5,3.748,3.748,0,0,1,.168-8.051a3.378,3.378,0,0,1,1.871-.559A3.166,3.166,0,0,1,4.6-7.523a4.7,4.7,0,0,1,.914,3.109v.6H-.211a3,3,0,0,0,.73,2.02,2.3,2.3,0,0,0,1.777.77,2.517,2.517,0,0,0,1.3-.312,3.259,3.259,0,0,0,.93-.828l.883.688A3.55,3.55,0,0,1,2.219.156Zm-.18-7.578A1.928,1.928,0,0,0,.57-6.785,3.1,3.1,0,0,0-.164-5H4.07v-.109a2.753,2.753,0,0,0-.594-1.707A1.815,1.815,0,0,0,2.039-7.422ZM12.406,0a3.036,3.036,0,0,1-.2-.891A3.225,3.225,0,0,1,9.8.156,2.984,2.984,0,0,1,7.746-.551a2.287,2.287,0,0,1-.8-1.793,2.39,2.39,0,0,1,1-2.051,4.733,4.733,0,0,1,2.824-.73H12.18v-.664A1.623,1.623,0,0,0,11.727-7a1.821,1.821,0,0,0-1.336-.449,2.107,2.107,0,0,0-1.3.391,1.151,1.151,0,0,0-.523.945H7.117a2,2,0,0,1,.449-1.223,3.066,3.066,0,0,1,1.219-.934,4.1,4.1,0,0,1,1.691-.344,3.342,3.342,0,0,1,2.289.73,2.635,2.635,0,0,1,.859,2.012v3.891a4.757,4.757,0,0,0,.3,1.852V0Zm-2.4-1.1A2.54,2.54,0,0,0,11.3-1.453a2.127,2.127,0,0,0,.883-.914V-4.1H11.047q-2.656,0-2.656,1.555a1.316,1.316,0,0,0,.453,1.063A1.742,1.742,0,0,0,10.008-1.1Zm5.531-3.2a4.952,4.952,0,0,1,.922-3.129,2.915,2.915,0,0,1,2.414-1.184,2.932,2.932,0,0,1,2.352,1.016V-12h1.445V0H21.344l-.07-.906A2.943,2.943,0,0,1,18.859.156a2.887,2.887,0,0,1-2.395-1.2,5.008,5.008,0,0,1-.926-3.141Zm1.445.164a3.749,3.749,0,0,0,.594,2.25,1.92,1.92,0,0,0,1.641.813A2.108,2.108,0,0,0,21.227-2.3V-6.187a2.125,2.125,0,0,0-1.992-1.2,1.929,1.929,0,0,0-1.656.82A4.128,4.128,0,0,0,16.984-4.133ZM24.531-4.3a4.993,4.993,0,0,1,.488-2.234A3.643,3.643,0,0,1,26.379-8.07a3.7,3.7,0,0,1,1.988-.539,3.565,3.565,0,0,1,2.793,1.2,4.6,4.6,0,0,1,1.066,3.18v.1a5.036,5.036,0,0,1-.473,2.215A3.589,3.589,0,0,1,30.4-.391a3.743,3.743,0,0,1-2.02.547,3.556,3.556,0,0,1-2.785-1.2A4.575,4.575,0,0,1,24.531-4.2Zm1.453.172a3.616,3.616,0,0,0,.652,2.258,2.088,2.088,0,0,0,1.746.852,2.075,2.075,0,0,0,1.75-.863A3.955,3.955,0,0,0,30.781-4.3a3.61,3.61,0,0,0-.66-2.254,2.1,2.1,0,0,0-1.754-.863,2.075,2.075,0,0,0-1.727.852A3.925,3.925,0,0,0,25.984-4.133ZM38.125-7.156a4.331,4.331,0,0,0-.711-.055A1.9,1.9,0,0,0,35.484-6V0H34.039V-8.453h1.406l.023.977a2.251,2.251,0,0,1,2.016-1.133,1.477,1.477,0,0,1,.641.109Z" transform="translate(-5685 -9156)" fill="#fff"/><path d="M-7307.592-9146.375v-69.387h211.5v94.523" transform="translate(1537.591 -45)" fill="none" stroke="#15157c" stroke-width="2"/><path d="M15,0H115a15,15,0,0,1,15,15v2a15,15,0,0,1-15,15H15A15,15,0,0,1,0,17V15A15,15,0,0,1,15,0Z" transform="translate(-5624 -9246)" fill="#15157c"/><path d="M-47.508,0h-1.5V-11.375h1.5Zm3.883-8.453.047,1.063a3.08,3.08,0,0,1,2.531-1.219q2.68,0,2.7,3.023V0h-1.445V-5.594a1.946,1.946,0,0,0-.418-1.352,1.675,1.675,0,0,0-1.277-.437,2.086,2.086,0,0,0-1.234.375,2.546,2.546,0,0,0-.828.984V0h-1.445V-8.453ZM-36.516-4.3a4.952,4.952,0,0,1,.922-3.129A2.915,2.915,0,0,1-33.18-8.609a2.932,2.932,0,0,1,2.352,1.016V-12h1.445V0h-1.328l-.07-.906A2.943,2.943,0,0,1-33.2.156a2.887,2.887,0,0,1-2.395-1.2,5.008,5.008,0,0,1-.926-3.141Zm1.445.164a3.749,3.749,0,0,0,.594,2.25,1.92,1.92,0,0,0,1.641.813A2.108,2.108,0,0,0-30.828-2.3V-6.187a2.125,2.125,0,0,0-1.992-1.2,1.929,1.929,0,0,0-1.656.82A4.128,4.128,0,0,0-35.07-4.133ZM-23.633.156a3.693,3.693,0,0,1-2.8-1.129,4.19,4.19,0,0,1-1.078-3.02v-.266a5.073,5.073,0,0,1,.48-2.246,3.748,3.748,0,0,1,1.344-1.547,3.378,3.378,0,0,1,1.871-.559A3.166,3.166,0,0,1-21.25-7.523a4.7,4.7,0,0,1,.914,3.109v.6h-5.727a3,3,0,0,0,.73,2.02,2.3,2.3,0,0,0,1.777.77,2.517,2.517,0,0,0,1.3-.312,3.259,3.259,0,0,0,.93-.828l.883.688A3.55,3.55,0,0,1-23.633.156Zm-.18-7.578a1.928,1.928,0,0,0-1.469.637A3.1,3.1,0,0,0-26.016-5h4.234v-.109a2.753,2.753,0,0,0-.594-1.707A1.815,1.815,0,0,0-23.812-7.422Zm12.289,3.289a5.062,5.062,0,0,1-.883,3.109A2.829,2.829,0,0,1-14.8.156,3.1,3.1,0,0,1-17.219-.82V3.25h-1.445v-11.7h1.32l.07.938A2.977,2.977,0,0,1-14.82-8.609a2.882,2.882,0,0,1,2.41,1.148,5.117,5.117,0,0,1,.887,3.2ZM-12.969-4.3a3.735,3.735,0,0,0-.609-2.258,1.963,1.963,0,0,0-1.672-.828,2.125,2.125,0,0,0-1.969,1.164V-2.18a2.129,2.129,0,0,0,1.984,1.156,1.954,1.954,0,0,0,1.652-.824A4.077,4.077,0,0,0-12.969-4.3ZM-6.18.156a3.693,3.693,0,0,1-2.8-1.129,4.19,4.19,0,0,1-1.078-3.02v-.266A5.073,5.073,0,0,1-9.574-6.5,3.748,3.748,0,0,1-8.23-8.051a3.378,3.378,0,0,1,1.871-.559A3.166,3.166,0,0,1-3.8-7.523a4.7,4.7,0,0,1,.914,3.109v.6H-8.609a3,3,0,0,0,.73,2.02,2.3,2.3,0,0,0,1.777.77,2.517,2.517,0,0,0,1.3-.312,3.259,3.259,0,0,0,.93-.828l.883.688A3.55,3.55,0,0,1-6.18.156Zm-.18-7.578a1.928,1.928,0,0,0-1.469.637A3.1,3.1,0,0,0-8.562-5h4.234v-.109a2.753,2.753,0,0,0-.594-1.707A1.815,1.815,0,0,0-6.359-7.422ZM.156-8.453.2-7.391A3.08,3.08,0,0,1,2.734-8.609q2.68,0,2.7,3.023V0H3.992V-5.594a1.946,1.946,0,0,0-.418-1.352A1.675,1.675,0,0,0,2.3-7.383a2.086,2.086,0,0,0-1.234.375,2.546,2.546,0,0,0-.828.984V0H-1.211V-8.453ZM7.266-4.3a4.952,4.952,0,0,1,.922-3.129A2.915,2.915,0,0,1,10.6-8.609a2.932,2.932,0,0,1,2.352,1.016V-12H14.4V0H13.07L13-.906A2.943,2.943,0,0,1,10.586.156a2.887,2.887,0,0,1-2.395-1.2,5.008,5.008,0,0,1-.926-3.141Zm1.445.164A3.749,3.749,0,0,0,9.3-1.883a1.92,1.92,0,0,0,1.641.813A2.108,2.108,0,0,0,12.953-2.3V-6.187a2.125,2.125,0,0,0-1.992-1.2,1.929,1.929,0,0,0-1.656.82A4.128,4.128,0,0,0,8.711-4.133ZM18.211,0H16.766V-8.453h1.445ZM16.648-10.7a.863.863,0,0,1,.215-.594.807.807,0,0,1,.637-.242.819.819,0,0,1,.641.242.854.854,0,0,1,.219.594.826.826,0,0,1-.219.586.834.834,0,0,1-.641.234.821.821,0,0,1-.637-.234A.834.834,0,0,1,16.648-10.7ZM24.031.156a3.693,3.693,0,0,1-2.8-1.129,4.19,4.19,0,0,1-1.078-3.02v-.266a5.073,5.073,0,0,1,.48-2.246A3.748,3.748,0,0,1,21.98-8.051a3.378,3.378,0,0,1,1.871-.559,3.166,3.166,0,0,1,2.563,1.086,4.7,4.7,0,0,1,.914,3.109v.6H21.6a3,3,0,0,0,.73,2.02,2.3,2.3,0,0,0,1.777.77,2.517,2.517,0,0,0,1.3-.312,3.259,3.259,0,0,0,.93-.828l.883.688A3.55,3.55,0,0,1,24.031.156Zm-.18-7.578a1.928,1.928,0,0,0-1.469.637A3.1,3.1,0,0,0,21.648-5h4.234v-.109a2.753,2.753,0,0,0-.594-1.707A1.815,1.815,0,0,0,23.852-7.422Zm6.516-1.031.047,1.063a3.08,3.08,0,0,1,2.531-1.219q2.68,0,2.7,3.023V0H34.2V-5.594a1.946,1.946,0,0,0-.418-1.352,1.675,1.675,0,0,0-1.277-.437,2.086,2.086,0,0,0-1.234.375,2.546,2.546,0,0,0-.828.984V0H29V-8.453ZM39.789-10.5v2.047h1.578v1.117H39.789v5.242A1.171,1.171,0,0,0,40-1.332a.888.888,0,0,0,.719.254,3.5,3.5,0,0,0,.688-.094V0A4.19,4.19,0,0,1,40.3.156,1.8,1.8,0,0,1,38.836-.43a2.517,2.517,0,0,1-.492-1.664V-7.336H36.8V-8.453h1.539V-10.5ZM46.563.156a3.693,3.693,0,0,1-2.8-1.129,4.19,4.19,0,0,1-1.078-3.02v-.266a5.073,5.073,0,0,1,.48-2.246,3.748,3.748,0,0,1,1.344-1.547,3.378,3.378,0,0,1,1.871-.559,3.166,3.166,0,0,1,2.563,1.086,4.7,4.7,0,0,1,.914,3.109v.6H44.133a3,3,0,0,0,.73,2.02,2.3,2.3,0,0,0,1.777.77,2.517,2.517,0,0,0,1.3-.312,3.259,3.259,0,0,0,.93-.828l.883.688A3.55,3.55,0,0,1,46.563.156Zm-.18-7.578a1.928,1.928,0,0,0-1.469.637A3.1,3.1,0,0,0,44.18-5h4.234v-.109a2.753,2.753,0,0,0-.594-1.707A1.815,1.815,0,0,0,46.383-7.422Z" transform="translate(-5559 -9224)" fill="#fff"/><path d="M15,0H98a15,15,0,0,1,15,15v2A15,15,0,0,1,98,32H15A15,15,0,0,1,0,17V15A15,15,0,0,1,15,0Z" transform="translate(-5827 -9246)" fill="#15157c"/><path d="M-43.262,0V-11.375h3.211a5.169,5.169,0,0,1,2.625.656,4.438,4.438,0,0,1,1.762,1.867,6.078,6.078,0,0,1,.629,2.781v.727a6.1,6.1,0,0,1-.621,2.82A4.369,4.369,0,0,1-37.43-.664,5.5,5.5,0,0,1-40.113,0Zm1.5-10.141v8.914h1.578a3.435,3.435,0,0,0,2.7-1.078,4.452,4.452,0,0,0,.965-3.07v-.664a4.522,4.522,0,0,0-.91-3.012,3.24,3.24,0,0,0-2.582-1.09ZM-29.488.156a3.693,3.693,0,0,1-2.8-1.129,4.19,4.19,0,0,1-1.078-3.02v-.266a5.073,5.073,0,0,1,.48-2.246,3.748,3.748,0,0,1,1.344-1.547,3.378,3.378,0,0,1,1.871-.559,3.166,3.166,0,0,1,2.563,1.086,4.7,4.7,0,0,1,.914,3.109v.6h-5.727a3,3,0,0,0,.73,2.02,2.3,2.3,0,0,0,1.777.77,2.517,2.517,0,0,0,1.3-.312,3.259,3.259,0,0,0,.93-.828l.883.688A3.55,3.55,0,0,1-29.488.156Zm-.18-7.578a1.928,1.928,0,0,0-1.469.637A3.1,3.1,0,0,0-31.871-5h4.234v-.109a2.753,2.753,0,0,0-.594-1.707A1.815,1.815,0,0,0-29.668-7.422Zm12.289,3.289a5.062,5.062,0,0,1-.883,3.109A2.829,2.829,0,0,1-20.652.156,3.1,3.1,0,0,1-23.074-.82V3.25H-24.52v-11.7h1.32l.07.938a2.977,2.977,0,0,1,2.453-1.094,2.882,2.882,0,0,1,2.41,1.148,5.117,5.117,0,0,1,.887,3.2ZM-18.824-4.3a3.735,3.735,0,0,0-.609-2.258,1.963,1.963,0,0,0-1.672-.828,2.125,2.125,0,0,0-1.969,1.164V-2.18A2.129,2.129,0,0,0-21.09-1.023a1.954,1.954,0,0,0,1.652-.824A4.077,4.077,0,0,0-18.824-4.3ZM-12.035.156a3.693,3.693,0,0,1-2.8-1.129,4.19,4.19,0,0,1-1.078-3.02v-.266A5.073,5.073,0,0,1-15.43-6.5a3.748,3.748,0,0,1,1.344-1.547,3.378,3.378,0,0,1,1.871-.559A3.166,3.166,0,0,1-9.652-7.523a4.7,4.7,0,0,1,.914,3.109v.6h-5.727a3,3,0,0,0,.73,2.02,2.3,2.3,0,0,0,1.777.77,2.517,2.517,0,0,0,1.3-.312,3.259,3.259,0,0,0,.93-.828l.883.688A3.55,3.55,0,0,1-12.035.156Zm-.18-7.578a1.928,1.928,0,0,0-1.469.637A3.1,3.1,0,0,0-14.418-5h4.234v-.109a2.753,2.753,0,0,0-.594-1.707A1.815,1.815,0,0,0-12.215-7.422ZM-5.7-8.453l.047,1.063A3.08,3.08,0,0,1-3.121-8.609q2.68,0,2.7,3.023V0H-1.863V-5.594a1.946,1.946,0,0,0-.418-1.352,1.675,1.675,0,0,0-1.277-.437,2.086,2.086,0,0,0-1.234.375,2.546,2.546,0,0,0-.828.984V0H-7.066V-8.453ZM1.41-4.3a4.952,4.952,0,0,1,.922-3.129A2.915,2.915,0,0,1,4.746-8.609,2.932,2.932,0,0,1,7.1-7.594V-12H8.543V0H7.215l-.07-.906A2.943,2.943,0,0,1,4.73.156a2.887,2.887,0,0,1-2.395-1.2A5.008,5.008,0,0,1,1.41-4.187Zm1.445.164a3.749,3.749,0,0,0,.594,2.25A1.92,1.92,0,0,0,5.09-1.07,2.108,2.108,0,0,0,7.1-2.3V-6.187a2.125,2.125,0,0,0-1.992-1.2,1.929,1.929,0,0,0-1.656.82A4.128,4.128,0,0,0,2.855-4.133ZM12.355,0H10.91V-8.453h1.445ZM10.793-10.7a.863.863,0,0,1,.215-.594.807.807,0,0,1,.637-.242.819.819,0,0,1,.641.242.854.854,0,0,1,.219.594.826.826,0,0,1-.219.586.834.834,0,0,1-.641.234.821.821,0,0,1-.637-.234A.834.834,0,0,1,10.793-10.7ZM18.176.156a3.693,3.693,0,0,1-2.8-1.129A4.19,4.19,0,0,1,14.3-3.992v-.266a5.073,5.073,0,0,1,.48-2.246,3.748,3.748,0,0,1,1.344-1.547A3.378,3.378,0,0,1,18-8.609a3.166,3.166,0,0,1,2.563,1.086,4.7,4.7,0,0,1,.914,3.109v.6H15.746a3,3,0,0,0,.73,2.02,2.3,2.3,0,0,0,1.777.77,2.517,2.517,0,0,0,1.3-.312,3.259,3.259,0,0,0,.93-.828l.883.688A3.55,3.55,0,0,1,18.176.156ZM18-7.422a1.928,1.928,0,0,0-1.469.637A3.1,3.1,0,0,0,15.793-5h4.234v-.109a2.753,2.753,0,0,0-.594-1.707A1.815,1.815,0,0,0,18-7.422Zm6.516-1.031.047,1.063A3.08,3.08,0,0,1,27.09-8.609q2.68,0,2.7,3.023V0H28.348V-5.594a1.946,1.946,0,0,0-.418-1.352,1.675,1.675,0,0,0-1.277-.437,2.086,2.086,0,0,0-1.234.375,2.546,2.546,0,0,0-.828.984V0H23.145V-8.453ZM33.934-10.5v2.047h1.578v1.117H33.934v5.242a1.171,1.171,0,0,0,.211.762.888.888,0,0,0,.719.254,3.5,3.5,0,0,0,.688-.094V0a4.19,4.19,0,0,1-1.109.156A1.8,1.8,0,0,1,32.98-.43a2.517,2.517,0,0,1-.492-1.664V-7.336H30.949V-8.453h1.539V-10.5ZM40.707.156a3.693,3.693,0,0,1-2.8-1.129,4.19,4.19,0,0,1-1.078-3.02v-.266a5.073,5.073,0,0,1,.48-2.246,3.748,3.748,0,0,1,1.344-1.547,3.378,3.378,0,0,1,1.871-.559A3.166,3.166,0,0,1,43.09-7.523,4.7,4.7,0,0,1,44-4.414v.6H38.277a3,3,0,0,0,.73,2.02,2.3,2.3,0,0,0,1.777.77,2.517,2.517,0,0,0,1.3-.312,3.259,3.259,0,0,0,.93-.828l.883.688A3.55,3.55,0,0,1,40.707.156Zm-.18-7.578a1.928,1.928,0,0,0-1.469.637A3.1,3.1,0,0,0,38.324-5h4.234v-.109a2.753,2.753,0,0,0-.594-1.707A1.815,1.815,0,0,0,40.527-7.422Z" transform="translate(-5770 -9224)" fill="#fff"/><path d="M-7316.5-9216.238v-75.889h407.072v170.736" transform="translate(1621.514 -45)" fill="none" stroke="#15157c" stroke-width="2"/><path d="M15,0H98a15,15,0,0,1,15,15v2A15,15,0,0,1,98,32H15A15,15,0,0,1,0,17V15A15,15,0,0,1,15,0Z" transform="translate(-5751 -9318)" fill="#7b1fa2"/><path d="M-33.59-3.609A4.185,4.185,0,0,1-34.922-.824a4.365,4.365,0,0,1-2.98.98,4.008,4.008,0,0,1-3.23-1.445,5.815,5.815,0,0,1-1.215-3.867V-6.25a6.481,6.481,0,0,1,.566-2.789,4.231,4.231,0,0,1,1.605-1.848,4.47,4.47,0,0,1,2.406-.645,4.11,4.11,0,0,1,2.906,1.012,4.235,4.235,0,0,1,1.273,2.8H-35.1a3.254,3.254,0,0,0-.848-1.969A2.569,2.569,0,0,0-37.77-10.3a2.685,2.685,0,0,0-2.254,1.063,4.875,4.875,0,0,0-.816,3.023v1.1a5.011,5.011,0,0,0,.773,2.945A2.5,2.5,0,0,0-37.9-1.07a2.887,2.887,0,0,0,1.918-.566A3.143,3.143,0,0,0-35.1-3.609Zm1.438-.7a4.993,4.993,0,0,1,.488-2.234A3.643,3.643,0,0,1-30.3-8.07a3.7,3.7,0,0,1,1.988-.539,3.565,3.565,0,0,1,2.793,1.2,4.6,4.6,0,0,1,1.066,3.18v.1a5.036,5.036,0,0,1-.473,2.215A3.589,3.589,0,0,1-26.281-.391,3.743,3.743,0,0,1-28.3.156a3.556,3.556,0,0,1-2.785-1.2A4.575,4.575,0,0,1-32.152-4.2Zm1.453.172a3.616,3.616,0,0,0,.652,2.258,2.088,2.088,0,0,0,1.746.852,2.075,2.075,0,0,0,1.75-.863A3.955,3.955,0,0,0-25.9-4.3a3.61,3.61,0,0,0-.66-2.254,2.1,2.1,0,0,0-1.754-.863,2.075,2.075,0,0,0-1.727.852A3.925,3.925,0,0,0-30.7-4.133Zm9.422-4.32.047,1.063A3.08,3.08,0,0,1-18.7-8.609q2.68,0,2.7,3.023V0h-1.445V-5.594a1.946,1.946,0,0,0-.418-1.352,1.675,1.675,0,0,0-1.277-.437,2.086,2.086,0,0,0-1.234.375,2.546,2.546,0,0,0-.828.984V0h-1.445V-8.453Zm9.422-2.047v2.047h1.578v1.117h-1.578v5.242a1.171,1.171,0,0,0,.211.762.888.888,0,0,0,.719.254,3.5,3.5,0,0,0,.688-.094V0a4.19,4.19,0,0,1-1.109.156A1.8,1.8,0,0,1-12.809-.43,2.517,2.517,0,0,1-13.3-2.094V-7.336H-14.84V-8.453H-13.3V-10.5ZM-4.5-7.156a4.331,4.331,0,0,0-.711-.055A1.9,1.9,0,0,0-7.145-6V0H-8.59V-8.453h1.406l.023.977A2.251,2.251,0,0,1-5.145-8.609,1.477,1.477,0,0,1-4.5-8.5ZM-1.605,0H-3.051V-8.453h1.445ZM-3.168-10.7a.863.863,0,0,1,.215-.594.807.807,0,0,1,.637-.242.819.819,0,0,1,.641.242.854.854,0,0,1,.219.594.826.826,0,0,1-.219.586.834.834,0,0,1-.641.234.821.821,0,0,1-.637-.234A.834.834,0,0,1-3.168-10.7ZM7.863-4.133A5.026,5.026,0,0,1,6.973-1.02,2.846,2.846,0,0,1,4.582.156,2.947,2.947,0,0,1,2.105-.977L2.035,0H.707V-12H2.152v4.477A2.93,2.93,0,0,1,4.566-8.609,2.863,2.863,0,0,1,6.984-7.445a5.177,5.177,0,0,1,.879,3.188ZM6.418-4.3a3.906,3.906,0,0,0-.57-2.281,1.888,1.888,0,0,0-1.641-.8A2.122,2.122,0,0,0,2.152-6.055V-2.4A2.181,2.181,0,0,0,4.223-1.07a1.878,1.878,0,0,0,1.617-.8A4.153,4.153,0,0,0,6.418-4.3ZM14.9-.836a3.07,3.07,0,0,1-2.477.992,2.628,2.628,0,0,1-2.059-.785,3.4,3.4,0,0,1-.715-2.324v-5.5H11.1v5.461q0,1.922,1.563,1.922a2.163,2.163,0,0,0,2.2-1.234V-8.453h1.445V0H14.934ZM20.465-10.5v2.047h1.578v1.117H20.465v5.242a1.171,1.171,0,0,0,.211.762.888.888,0,0,0,.719.254,3.5,3.5,0,0,0,.688-.094V0a4.19,4.19,0,0,1-1.109.156A1.8,1.8,0,0,1,19.512-.43a2.517,2.517,0,0,1-.492-1.664V-7.336H17.48V-8.453H19.02V-10.5ZM25.3,0H23.855V-8.453H25.3ZM23.738-10.7a.863.863,0,0,1,.215-.594.807.807,0,0,1,.637-.242.819.819,0,0,1,.641.242.854.854,0,0,1,.219.594.826.826,0,0,1-.219.586.834.834,0,0,1-.641.234.821.821,0,0,1-.637-.234A.834.834,0,0,1,23.738-10.7ZM30.4-1.961,32.5-8.453h1.477L30.941,0h-1.1L26.777-8.453h1.477ZM34.863-4.3a4.993,4.993,0,0,1,.488-2.234A3.643,3.643,0,0,1,36.711-8.07,3.7,3.7,0,0,1,38.7-8.609a3.565,3.565,0,0,1,2.793,1.2,4.6,4.6,0,0,1,1.066,3.18v.1a5.036,5.036,0,0,1-.473,2.215A3.589,3.589,0,0,1,40.734-.391a3.743,3.743,0,0,1-2.02.547,3.556,3.556,0,0,1-2.785-1.2A4.575,4.575,0,0,1,34.863-4.2Zm1.453.172a3.616,3.616,0,0,0,.652,2.258,2.088,2.088,0,0,0,1.746.852,2.075,2.075,0,0,0,1.75-.863A3.955,3.955,0,0,0,41.113-4.3a3.61,3.61,0,0,0-.66-2.254A2.1,2.1,0,0,0,38.7-7.422a2.075,2.075,0,0,0-1.727.852A3.925,3.925,0,0,0,36.316-4.133Z" transform="translate(-5694 -9296)" fill="#fff"/><path d="M15,0H98a15,15,0,0,1,15,15v2A15,15,0,0,1,98,32H15A15,15,0,0,1,0,17V15A15,15,0,0,1,15,0Z" transform="translate(-5615 -9178)" fill="#f81854"/><path d="M-27.9-5.258h-4.93v4.031h5.727V0h-7.227V-11.375h7.148v1.234h-5.648v3.656h4.93Zm3.8-3.2.039.938a3.122,3.122,0,0,1,2.508-1.094A2.417,2.417,0,0,1-19.145-7.25a3.2,3.2,0,0,1,1.1-.984,3.242,3.242,0,0,1,1.6-.375q2.781,0,2.828,2.945V0h-1.445V-5.578a1.941,1.941,0,0,0-.414-1.355,1.823,1.823,0,0,0-1.391-.449,1.916,1.916,0,0,0-1.336.48,1.949,1.949,0,0,0-.617,1.293V0h-1.453V-5.539a1.613,1.613,0,0,0-1.8-1.844,1.934,1.934,0,0,0-1.945,1.211V0h-1.445V-8.453Zm19.8,4.32a5.062,5.062,0,0,1-.883,3.109A2.829,2.829,0,0,1-7.574.156,3.1,3.1,0,0,1-10-.82V3.25h-1.445v-11.7h1.32l.07.938A2.977,2.977,0,0,1-7.6-8.609a2.882,2.882,0,0,1,2.41,1.148,5.117,5.117,0,0,1,.887,3.2ZM-5.746-4.3a3.735,3.735,0,0,0-.609-2.258,1.963,1.963,0,0,0-1.672-.828A2.125,2.125,0,0,0-10-6.219V-2.18A2.129,2.129,0,0,0-8.012-1.023a1.954,1.954,0,0,0,1.652-.824A4.077,4.077,0,0,0-5.746-4.3ZM-.895,0H-2.34V-12H-.895Zm5.82.156a3.693,3.693,0,0,1-2.8-1.129,4.19,4.19,0,0,1-1.078-3.02v-.266A5.073,5.073,0,0,1,1.531-6.5,3.748,3.748,0,0,1,2.875-8.051a3.378,3.378,0,0,1,1.871-.559A3.166,3.166,0,0,1,7.309-7.523a4.7,4.7,0,0,1,.914,3.109v.6H2.5a3,3,0,0,0,.73,2.02A2.3,2.3,0,0,0,5-1.023a2.517,2.517,0,0,0,1.3-.312,3.259,3.259,0,0,0,.93-.828l.883.688A3.55,3.55,0,0,1,4.926.156Zm-.18-7.578a1.928,1.928,0,0,0-1.469.637A3.1,3.1,0,0,0,2.543-5H6.777v-.109a2.753,2.753,0,0,0-.594-1.707A1.815,1.815,0,0,0,4.746-7.422ZM15.113,0a3.036,3.036,0,0,1-.2-.891A3.225,3.225,0,0,1,12.5.156a2.984,2.984,0,0,1-2.051-.707,2.287,2.287,0,0,1-.8-1.793,2.39,2.39,0,0,1,1-2.051,4.733,4.733,0,0,1,2.824-.73h1.406v-.664A1.623,1.623,0,0,0,14.434-7,1.821,1.821,0,0,0,13.1-7.445a2.107,2.107,0,0,0-1.3.391,1.151,1.151,0,0,0-.523.945H9.824a2,2,0,0,1,.449-1.223,3.066,3.066,0,0,1,1.219-.934,4.1,4.1,0,0,1,1.691-.344,3.342,3.342,0,0,1,2.289.73,2.635,2.635,0,0,1,.859,2.012v3.891a4.757,4.757,0,0,0,.3,1.852V0Zm-2.4-1.1A2.54,2.54,0,0,0,14-1.453a2.127,2.127,0,0,0,.883-.914V-4.1H13.754Q11.1-4.1,11.1-2.547a1.316,1.316,0,0,0,.453,1.063A1.742,1.742,0,0,0,12.715-1.1Zm5.531-3.2a4.952,4.952,0,0,1,.922-3.129,2.915,2.915,0,0,1,2.414-1.184,2.932,2.932,0,0,1,2.352,1.016V-12h1.445V0H24.051l-.07-.906A2.943,2.943,0,0,1,21.566.156a2.887,2.887,0,0,1-2.395-1.2,5.008,5.008,0,0,1-.926-3.141Zm1.445.164a3.749,3.749,0,0,0,.594,2.25,1.92,1.92,0,0,0,1.641.813A2.108,2.108,0,0,0,23.934-2.3V-6.187a2.125,2.125,0,0,0-1.992-1.2,1.929,1.929,0,0,0-1.656.82A4.128,4.128,0,0,0,19.691-4.133ZM27.238-4.3a4.993,4.993,0,0,1,.488-2.234A3.643,3.643,0,0,1,29.086-8.07a3.7,3.7,0,0,1,1.988-.539,3.565,3.565,0,0,1,2.793,1.2,4.6,4.6,0,0,1,1.066,3.18v.1a5.036,5.036,0,0,1-.473,2.215A3.589,3.589,0,0,1,33.109-.391a3.743,3.743,0,0,1-2.02.547,3.556,3.556,0,0,1-2.785-1.2A4.575,4.575,0,0,1,27.238-4.2Zm1.453.172a3.616,3.616,0,0,0,.652,2.258,2.088,2.088,0,0,0,1.746.852,2.075,2.075,0,0,0,1.75-.863A3.955,3.955,0,0,0,33.488-4.3a3.61,3.61,0,0,0-.66-2.254,2.1,2.1,0,0,0-1.754-.863,2.075,2.075,0,0,0-1.727.852A3.925,3.925,0,0,0,28.691-4.133Z" transform="translate(-5559 -9156)" fill="#fff"/><path d="M15,0H98a15,15,0,0,1,15,15v2A15,15,0,0,1,98,32H15A15,15,0,0,1,0,17V15A15,15,0,0,1,15,0Z" transform="translate(-5342 -9177)" fill="#f81854"/><path d="M15,0H98a15,15,0,0,1,15,15v2A15,15,0,0,1,98,32H15A15,15,0,0,1,0,17V15A15,15,0,0,1,15,0Z" transform="translate(-5342 -9318)" fill="#7b1fa2"/><path d="M-16.961-5.258h-4.93v4.031h5.727V0h-7.227V-11.375h7.148v1.234h-5.648v3.656h4.93ZM-9.6-2.242a1.064,1.064,0,0,0-.441-.91,4.249,4.249,0,0,0-1.539-.559,7.277,7.277,0,0,1-1.742-.562,2.479,2.479,0,0,1-.953-.781,1.869,1.869,0,0,1-.309-1.078,2.193,2.193,0,0,1,.879-1.758,3.432,3.432,0,0,1,2.246-.719,3.532,3.532,0,0,1,2.332.742,2.357,2.357,0,0,1,.895,1.9H-9.687a1.3,1.3,0,0,0-.5-1.023,1.888,1.888,0,0,0-1.27-.43,1.976,1.976,0,0,0-1.234.344,1.082,1.082,0,0,0-.445.9.877.877,0,0,0,.414.789,5.1,5.1,0,0,0,1.5.508A7.8,7.8,0,0,1-9.477-4.3a2.558,2.558,0,0,1,1,.809,1.988,1.988,0,0,1,.324,1.152A2.163,2.163,0,0,1-9.062-.527a3.8,3.8,0,0,1-2.352.684,4.257,4.257,0,0,1-1.8-.359,2.922,2.922,0,0,1-1.223-1A2.42,2.42,0,0,1-14.875-2.6h1.445a1.5,1.5,0,0,0,.582,1.152,2.258,2.258,0,0,0,1.434.426A2.331,2.331,0,0,0-10.1-1.355,1.02,1.02,0,0,0-9.6-2.242ZM-4.312-10.5v2.047h1.578v1.117H-4.312v5.242a1.171,1.171,0,0,0,.211.762.888.888,0,0,0,.719.254A3.5,3.5,0,0,0-2.7-1.172V0A4.19,4.19,0,0,1-3.8.156,1.8,1.8,0,0,1-5.266-.43a2.517,2.517,0,0,1-.492-1.664V-7.336H-7.3V-8.453h1.539V-10.5ZM4.172,0a3.036,3.036,0,0,1-.2-.891A3.225,3.225,0,0,1,1.563.156,2.984,2.984,0,0,1-.488-.551a2.287,2.287,0,0,1-.8-1.793,2.39,2.39,0,0,1,1-2.051,4.733,4.733,0,0,1,2.824-.73H3.945v-.664A1.623,1.623,0,0,0,3.492-7a1.821,1.821,0,0,0-1.336-.449,2.107,2.107,0,0,0-1.3.391,1.151,1.151,0,0,0-.523.945H-1.117A2,2,0,0,1-.668-7.332,3.066,3.066,0,0,1,.551-8.266a4.1,4.1,0,0,1,1.691-.344,3.342,3.342,0,0,1,2.289.73,2.635,2.635,0,0,1,.859,2.012v3.891a4.757,4.757,0,0,0,.3,1.852V0Zm-2.4-1.1a2.54,2.54,0,0,0,1.289-.352,2.127,2.127,0,0,0,.883-.914V-4.1H2.813Q.156-4.1.156-2.547A1.316,1.316,0,0,0,.609-1.484,1.742,1.742,0,0,0,1.773-1.1ZM7.3-4.3a4.952,4.952,0,0,1,.922-3.129,2.915,2.915,0,0,1,2.414-1.184,2.932,2.932,0,0,1,2.352,1.016V-12h1.445V0H13.109l-.07-.906A2.943,2.943,0,0,1,10.625.156a2.887,2.887,0,0,1-2.395-1.2A5.008,5.008,0,0,1,7.3-4.187Zm1.445.164a3.749,3.749,0,0,0,.594,2.25,1.92,1.92,0,0,0,1.641.813A2.108,2.108,0,0,0,12.992-2.3V-6.187A2.125,2.125,0,0,0,11-7.383a1.929,1.929,0,0,0-1.656.82A4.128,4.128,0,0,0,8.75-4.133ZM16.3-4.3a4.993,4.993,0,0,1,.488-2.234A3.643,3.643,0,0,1,18.145-8.07a3.7,3.7,0,0,1,1.988-.539,3.565,3.565,0,0,1,2.793,1.2,4.6,4.6,0,0,1,1.066,3.18v.1a5.036,5.036,0,0,1-.473,2.215A3.589,3.589,0,0,1,22.168-.391a3.743,3.743,0,0,1-2.02.547,3.556,3.556,0,0,1-2.785-1.2A4.575,4.575,0,0,1,16.3-4.2Zm1.453.172A3.616,3.616,0,0,0,18.4-1.875a2.088,2.088,0,0,0,1.746.852,2.075,2.075,0,0,0,1.75-.863A3.955,3.955,0,0,0,22.547-4.3a3.61,3.61,0,0,0-.66-2.254,2.1,2.1,0,0,0-1.754-.863,2.075,2.075,0,0,0-1.727.852A3.925,3.925,0,0,0,17.75-4.133Z" transform="translate(-5285 -9155)" fill="#fff"/><path d="M-34.918-5.07a7.053,7.053,0,0,1-2.809-1.363,2.6,2.6,0,0,1-.879-2,2.752,2.752,0,0,1,1.074-2.223,4.269,4.269,0,0,1,2.793-.879,4.66,4.66,0,0,1,2.09.453,3.436,3.436,0,0,1,1.422,1.25,3.2,3.2,0,0,1,.5,1.742H-32.23a2.069,2.069,0,0,0-.656-1.621,2.675,2.675,0,0,0-1.852-.59,2.736,2.736,0,0,0-1.73.488,1.628,1.628,0,0,0-.621,1.355,1.465,1.465,0,0,0,.59,1.176,5.79,5.79,0,0,0,2.008.879,9.3,9.3,0,0,1,2.219.879A3.367,3.367,0,0,1-31.086-4.4,2.861,2.861,0,0,1-30.7-2.891,2.658,2.658,0,0,1-31.777-.676,4.6,4.6,0,0,1-34.66.156a5.347,5.347,0,0,1-2.187-.449,3.681,3.681,0,0,1-1.566-1.23A3,3,0,0,1-38.965-3.3h1.508A1.959,1.959,0,0,0-36.7-1.668a3.207,3.207,0,0,0,2.035.6,2.948,2.948,0,0,0,1.82-.484,1.573,1.573,0,0,0,.633-1.32,1.545,1.545,0,0,0-.586-1.293A6.755,6.755,0,0,0-34.918-5.07ZM-23.785-.836a3.07,3.07,0,0,1-2.477.992A2.628,2.628,0,0,1-28.32-.629a3.4,3.4,0,0,1-.715-2.324v-5.5h1.445v5.461q0,1.922,1.563,1.922a2.163,2.163,0,0,0,2.2-1.234V-8.453h1.445V0h-1.375Zm10.758-3.3a5.026,5.026,0,0,1-.891,3.113A2.846,2.846,0,0,1-16.309.156,2.947,2.947,0,0,1-18.785-.977l-.07.977h-1.328V-12h1.445v4.477a2.93,2.93,0,0,1,2.414-1.086,2.863,2.863,0,0,1,2.418,1.164,5.177,5.177,0,0,1,.879,3.188ZM-14.473-4.3a3.906,3.906,0,0,0-.57-2.281,1.888,1.888,0,0,0-1.641-.8,2.122,2.122,0,0,0-2.055,1.328V-2.4a2.181,2.181,0,0,0,2.07,1.328,1.878,1.878,0,0,0,1.617-.8A4.153,4.153,0,0,0-14.473-4.3Zm8.188,2.055a1.064,1.064,0,0,0-.441-.91,4.249,4.249,0,0,0-1.539-.559,7.277,7.277,0,0,1-1.742-.562,2.479,2.479,0,0,1-.953-.781,1.869,1.869,0,0,1-.309-1.078,2.193,2.193,0,0,1,.879-1.758,3.432,3.432,0,0,1,2.246-.719,3.532,3.532,0,0,1,2.332.742,2.357,2.357,0,0,1,.895,1.9H-6.371a1.3,1.3,0,0,0-.5-1.023,1.888,1.888,0,0,0-1.27-.43,1.976,1.976,0,0,0-1.234.344,1.082,1.082,0,0,0-.445.9.877.877,0,0,0,.414.789,5.1,5.1,0,0,0,1.5.508A7.8,7.8,0,0,1-6.16-4.3a2.558,2.558,0,0,1,1,.809A1.988,1.988,0,0,1-4.84-2.344,2.163,2.163,0,0,1-5.746-.527,3.8,3.8,0,0,1-8.1.156,4.257,4.257,0,0,1-9.895-.2a2.922,2.922,0,0,1-1.223-1A2.42,2.42,0,0,1-11.559-2.6h1.445a1.5,1.5,0,0,0,.582,1.152A2.258,2.258,0,0,0-8.1-1.023a2.331,2.331,0,0,0,1.316-.332A1.02,1.02,0,0,0-6.285-2.242ZM-1.387,0H-2.832V-8.453h1.445ZM-2.949-10.7a.863.863,0,0,1,.215-.594.807.807,0,0,1,.637-.242.819.819,0,0,1,.641.242.854.854,0,0,1,.219.594.826.826,0,0,1-.219.586.834.834,0,0,1-.641.234.821.821,0,0,1-.637-.234A.834.834,0,0,1-2.949-10.7ZM.574-4.3A4.952,4.952,0,0,1,1.5-7.426,2.915,2.915,0,0,1,3.91-8.609,2.932,2.932,0,0,1,6.262-7.594V-12H7.707V0H6.379l-.07-.906A2.943,2.943,0,0,1,3.895.156,2.887,2.887,0,0,1,1.5-1.047,5.008,5.008,0,0,1,.574-4.187Zm1.445.164a3.749,3.749,0,0,0,.594,2.25,1.92,1.92,0,0,0,1.641.813A2.108,2.108,0,0,0,6.262-2.3V-6.187a2.125,2.125,0,0,0-1.992-1.2,1.929,1.929,0,0,0-1.656.82A4.128,4.128,0,0,0,2.02-4.133ZM11.52,0H10.074V-8.453H11.52ZM9.957-10.7a.863.863,0,0,1,.215-.594.807.807,0,0,1,.637-.242.819.819,0,0,1,.641.242.854.854,0,0,1,.219.594.826.826,0,0,1-.219.586.834.834,0,0,1-.641.234.821.821,0,0,1-.637-.234A.834.834,0,0,1,9.957-10.7ZM19.051,0a3.036,3.036,0,0,1-.2-.891A3.225,3.225,0,0,1,16.441.156a2.984,2.984,0,0,1-2.051-.707,2.287,2.287,0,0,1-.8-1.793,2.39,2.39,0,0,1,1-2.051,4.733,4.733,0,0,1,2.824-.73h1.406v-.664A1.623,1.623,0,0,0,18.371-7a1.821,1.821,0,0,0-1.336-.449,2.108,2.108,0,0,0-1.3.391,1.151,1.151,0,0,0-.523.945H13.762a2,2,0,0,1,.449-1.223,3.066,3.066,0,0,1,1.219-.934,4.1,4.1,0,0,1,1.691-.344,3.342,3.342,0,0,1,2.289.73,2.635,2.635,0,0,1,.859,2.012v3.891a4.757,4.757,0,0,0,.3,1.852V0Zm-2.4-1.1a2.54,2.54,0,0,0,1.289-.352,2.127,2.127,0,0,0,.883-.914V-4.1H17.691q-2.656,0-2.656,1.555a1.316,1.316,0,0,0,.453,1.063A1.742,1.742,0,0,0,16.652-1.1Zm5.531-3.2a4.952,4.952,0,0,1,.922-3.129A2.915,2.915,0,0,1,25.52-8.609a2.932,2.932,0,0,1,2.352,1.016V-12h1.445V0H27.988l-.07-.906A2.943,2.943,0,0,1,25.5.156a2.887,2.887,0,0,1-2.395-1.2,5.008,5.008,0,0,1-.926-3.141Zm1.445.164a3.749,3.749,0,0,0,.594,2.25,1.92,1.92,0,0,0,1.641.813A2.108,2.108,0,0,0,27.871-2.3V-6.187a2.125,2.125,0,0,0-1.992-1.2,1.929,1.929,0,0,0-1.656.82A4.128,4.128,0,0,0,23.629-4.133ZM31.176-4.3a4.993,4.993,0,0,1,.488-2.234A3.643,3.643,0,0,1,33.023-8.07a3.7,3.7,0,0,1,1.988-.539,3.565,3.565,0,0,1,2.793,1.2,4.6,4.6,0,0,1,1.066,3.18v.1A5.036,5.036,0,0,1,38.4-1.918,3.589,3.589,0,0,1,37.047-.391a3.743,3.743,0,0,1-2.02.547,3.556,3.556,0,0,1-2.785-1.2A4.575,4.575,0,0,1,31.176-4.2Zm1.453.172a3.616,3.616,0,0,0,.652,2.258,2.088,2.088,0,0,0,1.746.852,2.075,2.075,0,0,0,1.75-.863A3.955,3.955,0,0,0,37.426-4.3a3.61,3.61,0,0,0-.66-2.254,2.1,2.1,0,0,0-1.754-.863,2.075,2.075,0,0,0-1.727.852A3.925,3.925,0,0,0,32.629-4.133Z" transform="translate(-5285 -9296)" fill="#fff"/><path d="M15,0H387a15,15,0,0,1,15,15v2a15,15,0,0,1-15,15H15A15,15,0,0,1,0,17V15A15,15,0,0,1,15,0Z" transform="translate(-5486 -9249)" fill="#15157c"/><path d="M-181.211-4.453V0h-1.5V-11.375h4.2a4.215,4.215,0,0,1,2.926.953A3.231,3.231,0,0,1-174.531-7.9a3.188,3.188,0,0,1-1.035,2.551,4.4,4.4,0,0,1-2.965.895Zm0-1.227h2.7a2.7,2.7,0,0,0,1.844-.566,2.069,2.069,0,0,0,.641-1.637,2.138,2.138,0,0,0-.641-1.625,2.527,2.527,0,0,0-1.758-.633h-2.781Zm7.883,1.375a4.993,4.993,0,0,1,.488-2.234A3.642,3.642,0,0,1-171.48-8.07a3.7,3.7,0,0,1,1.988-.539,3.565,3.565,0,0,1,2.793,1.2,4.6,4.6,0,0,1,1.066,3.18v.1a5.036,5.036,0,0,1-.473,2.215,3.589,3.589,0,0,1-1.352,1.527,3.743,3.743,0,0,1-2.02.547,3.556,3.556,0,0,1-2.785-1.2A4.575,4.575,0,0,1-173.328-4.2Zm1.453.172a3.616,3.616,0,0,0,.652,2.258,2.088,2.088,0,0,0,1.746.852,2.075,2.075,0,0,0,1.75-.863,3.954,3.954,0,0,0,.648-2.418,3.61,3.61,0,0,0-.66-2.254,2.1,2.1,0,0,0-1.754-.863,2.075,2.075,0,0,0-1.727.852A3.925,3.925,0,0,0-171.875-4.133Zm15.211,0a5.026,5.026,0,0,1-.891,3.113A2.846,2.846,0,0,1-159.945.156a2.947,2.947,0,0,1-2.477-1.133l-.07.977h-1.328V-12h1.445v4.477a2.93,2.93,0,0,1,2.414-1.086,2.863,2.863,0,0,1,2.418,1.164,5.177,5.177,0,0,1,.879,3.188Zm-1.445-.164a3.906,3.906,0,0,0-.57-2.281,1.888,1.888,0,0,0-1.641-.8,2.122,2.122,0,0,0-2.055,1.328V-2.4A2.181,2.181,0,0,0-160.3-1.07a1.878,1.878,0,0,0,1.617-.8A4.153,4.153,0,0,0-158.109-4.3Zm4.836,4.3h-1.445V-12h1.445Zm7.531,0a3.036,3.036,0,0,1-.2-.891A3.225,3.225,0,0,1-148.352.156,2.984,2.984,0,0,1-150.4-.551a2.287,2.287,0,0,1-.8-1.793,2.39,2.39,0,0,1,1-2.051,4.733,4.733,0,0,1,2.824-.73h1.406v-.664A1.623,1.623,0,0,0-146.422-7a1.821,1.821,0,0,0-1.336-.449,2.107,2.107,0,0,0-1.3.391,1.151,1.151,0,0,0-.523.945h-1.453a2,2,0,0,1,.449-1.223,3.066,3.066,0,0,1,1.219-.934,4.1,4.1,0,0,1,1.691-.344,3.342,3.342,0,0,1,2.289.73,2.635,2.635,0,0,1,.859,2.012v3.891a4.757,4.757,0,0,0,.3,1.852V0Zm-2.4-1.1a2.54,2.54,0,0,0,1.289-.352,2.127,2.127,0,0,0,.883-.914V-4.1H-147.1q-2.656,0-2.656,1.555a1.316,1.316,0,0,0,.453,1.063A1.742,1.742,0,0,0-148.141-1.1Zm9.273.078a2.082,2.082,0,0,0,1.352-.469,1.649,1.649,0,0,0,.641-1.172h1.367a2.621,2.621,0,0,1-.5,1.383,3.293,3.293,0,0,1-1.23,1.047,3.55,3.55,0,0,1-1.629.391A3.482,3.482,0,0,1-141.613-1a4.59,4.59,0,0,1-1.02-3.152v-.242a5.089,5.089,0,0,1,.453-2.2,3.451,3.451,0,0,1,1.3-1.492,3.7,3.7,0,0,1,2-.531,3.39,3.39,0,0,1,2.363.852,3.043,3.043,0,0,1,1,2.211h-1.367a1.992,1.992,0,0,0-.621-1.348,1.932,1.932,0,0,0-1.379-.527,2.023,2.023,0,0,0-1.707.793,3.724,3.724,0,0,0-.605,2.293v.273a3.65,3.65,0,0,0,.6,2.25A2.033,2.033,0,0,0-138.867-1.023ZM-132.312,0h-1.445V-8.453h1.445Zm-1.562-10.7a.863.863,0,0,1,.215-.594.807.807,0,0,1,.637-.242.819.819,0,0,1,.641.242.854.854,0,0,1,.219.594.826.826,0,0,1-.219.586.834.834,0,0,1-.641.234.821.821,0,0,1-.637-.234A.834.834,0,0,1-133.875-10.7Zm3.492,6.391a4.993,4.993,0,0,1,.488-2.234,3.642,3.642,0,0,1,1.359-1.531,3.7,3.7,0,0,1,1.988-.539,3.565,3.565,0,0,1,2.793,1.2,4.6,4.6,0,0,1,1.066,3.18v.1a5.036,5.036,0,0,1-.473,2.215,3.589,3.589,0,0,1-1.352,1.527,3.743,3.743,0,0,1-2.02.547,3.556,3.556,0,0,1-2.785-1.2A4.575,4.575,0,0,1-130.383-4.2Zm1.453.172a3.616,3.616,0,0,0,.652,2.258,2.088,2.088,0,0,0,1.746.852,2.075,2.075,0,0,0,1.75-.863,3.955,3.955,0,0,0,.648-2.418,3.61,3.61,0,0,0-.66-2.254,2.1,2.1,0,0,0-1.754-.863,2.075,2.075,0,0,0-1.727.852A3.925,3.925,0,0,0-128.93-4.133ZM-125.891-12h1.75l-2.094,2.3H-127.4Zm6.383,3.547.047,1.063a3.08,3.08,0,0,1,2.531-1.219q2.68,0,2.7,3.023V0h-1.445V-5.594a1.946,1.946,0,0,0-.418-1.352,1.675,1.675,0,0,0-1.277-.437,2.086,2.086,0,0,0-1.234.375,2.546,2.546,0,0,0-.828.984V0h-1.445V-8.453Zm18.563,4.32a5.062,5.062,0,0,1-.883,3.109,2.829,2.829,0,0,1-2.391,1.18,3.1,3.1,0,0,1-2.422-.977V3.25h-1.445v-11.7h1.32l.07.938a2.977,2.977,0,0,1,2.453-1.094,2.882,2.882,0,0,1,2.41,1.148,5.117,5.117,0,0,1,.887,3.2Zm-1.445-.164A3.735,3.735,0,0,0-103-6.555a1.963,1.963,0,0,0-1.672-.828,2.125,2.125,0,0,0-1.969,1.164V-2.18a2.129,2.129,0,0,0,1.984,1.156A1.954,1.954,0,0,0-103-1.848,4.077,4.077,0,0,0-102.391-4.3Zm2.9-.008A4.993,4.993,0,0,1-99-6.539,3.643,3.643,0,0,1-97.645-8.07a3.7,3.7,0,0,1,1.988-.539,3.565,3.565,0,0,1,2.793,1.2A4.6,4.6,0,0,1-91.8-4.234v.1a5.036,5.036,0,0,1-.473,2.215A3.589,3.589,0,0,1-93.621-.391a3.743,3.743,0,0,1-2.02.547,3.556,3.556,0,0,1-2.785-1.2A4.575,4.575,0,0,1-99.492-4.2Zm1.453.172a3.616,3.616,0,0,0,.652,2.258,2.088,2.088,0,0,0,1.746.852,2.075,2.075,0,0,0,1.75-.863A3.955,3.955,0,0,0-93.242-4.3a3.61,3.61,0,0,0-.66-2.254,2.1,2.1,0,0,0-1.754-.863,2.075,2.075,0,0,0-1.727.852A3.925,3.925,0,0,0-98.039-4.133Zm15.211,0a5.026,5.026,0,0,1-.891,3.113A2.846,2.846,0,0,1-86.109.156,2.947,2.947,0,0,1-88.586-.977l-.07.977h-1.328V-12h1.445v4.477a2.93,2.93,0,0,1,2.414-1.086,2.863,2.863,0,0,1,2.418,1.164,5.177,5.177,0,0,1,.879,3.188ZM-84.273-4.3a3.906,3.906,0,0,0-.57-2.281,1.888,1.888,0,0,0-1.641-.8,2.122,2.122,0,0,0-2.055,1.328V-2.4a2.181,2.181,0,0,0,2.07,1.328,1.878,1.878,0,0,0,1.617-.8A4.153,4.153,0,0,0-84.273-4.3Zm7.352-2.859a4.331,4.331,0,0,0-.711-.055A1.9,1.9,0,0,0-79.562-6V0h-1.445V-8.453H-79.6l.023.977a2.251,2.251,0,0,1,2.016-1.133,1.477,1.477,0,0,1,.641.109ZM-72.086.156a3.693,3.693,0,0,1-2.8-1.129,4.19,4.19,0,0,1-1.078-3.02v-.266A5.073,5.073,0,0,1-75.48-6.5a3.748,3.748,0,0,1,1.344-1.547,3.378,3.378,0,0,1,1.871-.559A3.166,3.166,0,0,1-69.7-7.523a4.7,4.7,0,0,1,.914,3.109v.6h-5.727a3,3,0,0,0,.73,2.02,2.3,2.3,0,0,0,1.777.77,2.517,2.517,0,0,0,1.3-.312,3.259,3.259,0,0,0,.93-.828l.883.688A3.55,3.55,0,0,1-72.086.156Zm-.18-7.578a1.928,1.928,0,0,0-1.469.637A3.1,3.1,0,0,0-74.469-5h4.234v-.109a2.753,2.753,0,0,0-.594-1.707A1.815,1.815,0,0,0-72.266-7.422Zm11.875,5.3,1.969-6.336h1.547l-3.4,9.758q-.789,2.109-2.508,2.109l-.273-.023-.539-.1V2.117l.391.031a1.923,1.923,0,0,0,1.145-.3A2.148,2.148,0,0,0-61.383.766l.32-.859-3.016-8.359H-62.5Zm11.555.156,2.094-6.492h1.477L-48.3,0h-1.1l-3.062-8.453h1.477Zm10.18,1.125a3.07,3.07,0,0,1-2.477.992,2.628,2.628,0,0,1-2.059-.785,3.4,3.4,0,0,1-.715-2.324v-5.5h1.445v5.461q0,1.922,1.563,1.922A2.163,2.163,0,0,0-38.7-2.3V-8.453h1.445V0h-1.375ZM-33.484,0H-34.93V-12h1.445Zm3.68-8.453.047,1.063a3.08,3.08,0,0,1,2.531-1.219q2.68,0,2.7,3.023V0h-1.445V-5.594a1.946,1.946,0,0,0-.418-1.352,1.675,1.675,0,0,0-1.277-.437,2.086,2.086,0,0,0-1.234.375,2.546,2.546,0,0,0-.828.984V0h-1.445V-8.453ZM-18.836.156a3.693,3.693,0,0,1-2.8-1.129,4.19,4.19,0,0,1-1.078-3.02v-.266A5.073,5.073,0,0,1-22.23-6.5a3.748,3.748,0,0,1,1.344-1.547,3.378,3.378,0,0,1,1.871-.559,3.166,3.166,0,0,1,2.563,1.086,4.7,4.7,0,0,1,.914,3.109v.6h-5.727a3,3,0,0,0,.73,2.02,2.3,2.3,0,0,0,1.777.77,2.517,2.517,0,0,0,1.3-.312,3.259,3.259,0,0,0,.93-.828l.883.688A3.55,3.55,0,0,1-18.836.156Zm-.18-7.578a1.928,1.928,0,0,0-1.469.637A3.1,3.1,0,0,0-21.219-5h4.234v-.109a2.753,2.753,0,0,0-.594-1.707A1.815,1.815,0,0,0-19.016-7.422Zm9.234.266a4.331,4.331,0,0,0-.711-.055A1.9,1.9,0,0,0-12.422-6V0h-1.445V-8.453h1.406l.023.977a2.251,2.251,0,0,1,2.016-1.133,1.477,1.477,0,0,1,.641.109ZM-3.547,0a3.036,3.036,0,0,1-.2-.891A3.225,3.225,0,0,1-6.156.156,2.984,2.984,0,0,1-8.207-.551a2.287,2.287,0,0,1-.8-1.793A2.39,2.39,0,0,1-8-4.395a4.733,4.733,0,0,1,2.824-.73h1.406v-.664A1.623,1.623,0,0,0-4.227-7a1.821,1.821,0,0,0-1.336-.449,2.107,2.107,0,0,0-1.3.391,1.151,1.151,0,0,0-.523.945H-8.836a2,2,0,0,1,.449-1.223,3.066,3.066,0,0,1,1.219-.934,4.1,4.1,0,0,1,1.691-.344,3.342,3.342,0,0,1,2.289.73,2.635,2.635,0,0,1,.859,2.012v3.891a4.757,4.757,0,0,0,.3,1.852V0Zm-2.4-1.1a2.54,2.54,0,0,0,1.289-.352,2.127,2.127,0,0,0,.883-.914V-4.1H-4.906q-2.656,0-2.656,1.555a1.316,1.316,0,0,0,.453,1.063A1.742,1.742,0,0,0-5.945-1.1ZM7.094-4.133A5.026,5.026,0,0,1,6.2-1.02,2.846,2.846,0,0,1,3.813.156,2.947,2.947,0,0,1,1.336-.977L1.266,0H-.062V-12H1.383v4.477A2.93,2.93,0,0,1,3.8-8.609,2.863,2.863,0,0,1,6.215-7.445a5.177,5.177,0,0,1,.879,3.188ZM5.648-4.3a3.906,3.906,0,0,0-.57-2.281,1.888,1.888,0,0,0-1.641-.8A2.122,2.122,0,0,0,1.383-6.055V-2.4A2.181,2.181,0,0,0,3.453-1.07a1.878,1.878,0,0,0,1.617-.8A4.153,4.153,0,0,0,5.648-4.3ZM10.484,0H9.039V-12h1.445ZM16.3.156a3.693,3.693,0,0,1-2.8-1.129,4.19,4.19,0,0,1-1.078-3.02v-.266A5.073,5.073,0,0,1,12.91-6.5a3.748,3.748,0,0,1,1.344-1.547,3.378,3.378,0,0,1,1.871-.559,3.166,3.166,0,0,1,2.563,1.086A4.7,4.7,0,0,1,19.6-4.414v.6H13.875a3,3,0,0,0,.73,2.02,2.3,2.3,0,0,0,1.777.77,2.517,2.517,0,0,0,1.3-.312,3.259,3.259,0,0,0,.93-.828l.883.688A3.55,3.55,0,0,1,16.3.156Zm-.18-7.578a1.928,1.928,0,0,0-1.469.637A3.1,3.1,0,0,0,13.922-5h4.234v-.109a2.753,2.753,0,0,0-.594-1.707A1.815,1.815,0,0,0,16.125-7.422Zm14.031,5.18a1.064,1.064,0,0,0-.441-.91,4.249,4.249,0,0,0-1.539-.559,7.277,7.277,0,0,1-1.742-.562,2.479,2.479,0,0,1-.953-.781,1.869,1.869,0,0,1-.309-1.078,2.193,2.193,0,0,1,.879-1.758A3.432,3.432,0,0,1,28.3-8.609a3.532,3.532,0,0,1,2.332.742,2.357,2.357,0,0,1,.895,1.9H30.07a1.3,1.3,0,0,0-.5-1.023,1.888,1.888,0,0,0-1.27-.43,1.976,1.976,0,0,0-1.234.344,1.082,1.082,0,0,0-.445.9.877.877,0,0,0,.414.789,5.1,5.1,0,0,0,1.5.508,7.8,7.8,0,0,1,1.754.578,2.558,2.558,0,0,1,1,.809A1.988,1.988,0,0,1,31.6-2.344,2.163,2.163,0,0,1,30.7-.527a3.8,3.8,0,0,1-2.352.684,4.257,4.257,0,0,1-1.8-.359,2.922,2.922,0,0,1-1.223-1A2.42,2.42,0,0,1,24.883-2.6h1.445a1.5,1.5,0,0,0,.582,1.152,2.258,2.258,0,0,0,1.434.426,2.331,2.331,0,0,0,1.316-.332A1.02,1.02,0,0,0,30.156-2.242ZM35.055,0H33.609V-8.453h1.445ZM33.492-10.7a.863.863,0,0,1,.215-.594.807.807,0,0,1,.637-.242.819.819,0,0,1,.641.242.854.854,0,0,1,.219.594.826.826,0,0,1-.219.586.834.834,0,0,1-.641.234.821.821,0,0,1-.637-.234A.834.834,0,0,1,33.492-10.7Zm5.242,2.242.047,1.063a3.08,3.08,0,0,1,2.531-1.219q2.68,0,2.7,3.023V0H42.57V-5.594a1.946,1.946,0,0,0-.418-1.352,1.675,1.675,0,0,0-1.277-.437,2.086,2.086,0,0,0-1.234.375,2.546,2.546,0,0,0-.828.984V0H37.367V-8.453Zm14.813,7.43A2.082,2.082,0,0,0,54.9-1.492a1.649,1.649,0,0,0,.641-1.172h1.367a2.621,2.621,0,0,1-.5,1.383,3.293,3.293,0,0,1-1.23,1.047,3.55,3.55,0,0,1-1.629.391A3.482,3.482,0,0,1,50.8-1a4.59,4.59,0,0,1-1.02-3.152v-.242a5.089,5.089,0,0,1,.453-2.2,3.451,3.451,0,0,1,1.3-1.492,3.7,3.7,0,0,1,2-.531,3.39,3.39,0,0,1,2.363.852,3.043,3.043,0,0,1,1,2.211H55.539a1.992,1.992,0,0,0-.621-1.348,1.932,1.932,0,0,0-1.379-.527,2.023,2.023,0,0,0-1.707.793,3.724,3.724,0,0,0-.605,2.293v.273a3.65,3.65,0,0,0,.6,2.25A2.033,2.033,0,0,0,53.547-1.023ZM63.75,0a3.036,3.036,0,0,1-.2-.891A3.225,3.225,0,0,1,61.141.156,2.984,2.984,0,0,1,59.09-.551a2.287,2.287,0,0,1-.8-1.793,2.39,2.39,0,0,1,1-2.051,4.733,4.733,0,0,1,2.824-.73h1.406v-.664A1.623,1.623,0,0,0,63.07-7a1.821,1.821,0,0,0-1.336-.449,2.107,2.107,0,0,0-1.3.391,1.151,1.151,0,0,0-.523.945H58.461a2,2,0,0,1,.449-1.223,3.066,3.066,0,0,1,1.219-.934,4.1,4.1,0,0,1,1.691-.344,3.342,3.342,0,0,1,2.289.73,2.635,2.635,0,0,1,.859,2.012v3.891a4.757,4.757,0,0,0,.3,1.852V0Zm-2.4-1.1a2.54,2.54,0,0,0,1.289-.352,2.127,2.127,0,0,0,.883-.914V-4.1H62.391q-2.656,0-2.656,1.555a1.316,1.316,0,0,0,.453,1.063A1.742,1.742,0,0,0,61.352-1.1ZM74.375-4.133a5.062,5.062,0,0,1-.883,3.109A2.829,2.829,0,0,1,71.1.156,3.1,3.1,0,0,1,68.68-.82V3.25H67.234v-11.7h1.32l.07.938a2.977,2.977,0,0,1,2.453-1.094,2.882,2.882,0,0,1,2.41,1.148,5.117,5.117,0,0,1,.887,3.2ZM72.93-4.3a3.735,3.735,0,0,0-.609-2.258,1.963,1.963,0,0,0-1.672-.828A2.125,2.125,0,0,0,68.68-6.219V-2.18a2.129,2.129,0,0,0,1.984,1.156,1.954,1.954,0,0,0,1.652-.824A4.077,4.077,0,0,0,72.93-4.3ZM81.43,0a3.036,3.036,0,0,1-.2-.891A3.225,3.225,0,0,1,78.82.156,2.984,2.984,0,0,1,76.77-.551a2.288,2.288,0,0,1-.8-1.793,2.39,2.39,0,0,1,1-2.051,4.733,4.733,0,0,1,2.824-.73H81.2v-.664A1.623,1.623,0,0,0,80.75-7a1.821,1.821,0,0,0-1.336-.449,2.108,2.108,0,0,0-1.3.391,1.151,1.151,0,0,0-.523.945H76.141a2,2,0,0,1,.449-1.223,3.066,3.066,0,0,1,1.219-.934A4.1,4.1,0,0,1,79.5-8.609a3.342,3.342,0,0,1,2.289.73,2.635,2.635,0,0,1,.859,2.012v3.891a4.757,4.757,0,0,0,.3,1.852V0Zm-2.4-1.1a2.54,2.54,0,0,0,1.289-.352,2.127,2.127,0,0,0,.883-.914V-4.1H80.07q-2.656,0-2.656,1.555a1.316,1.316,0,0,0,.453,1.063A1.742,1.742,0,0,0,79.031-1.1Zm9.273.078a2.082,2.082,0,0,0,1.352-.469A1.649,1.649,0,0,0,90.3-2.664h1.367a2.621,2.621,0,0,1-.5,1.383,3.293,3.293,0,0,1-1.23,1.047A3.55,3.55,0,0,1,88.3.156,3.482,3.482,0,0,1,85.559-1a4.59,4.59,0,0,1-1.02-3.152v-.242a5.089,5.089,0,0,1,.453-2.2,3.451,3.451,0,0,1,1.3-1.492,3.7,3.7,0,0,1,2-.531,3.39,3.39,0,0,1,2.363.852,3.043,3.043,0,0,1,1,2.211H90.3a1.992,1.992,0,0,0-.621-1.348A1.932,1.932,0,0,0,88.3-7.422a2.023,2.023,0,0,0-1.707.793,3.724,3.724,0,0,0-.605,2.293v.273a3.65,3.65,0,0,0,.6,2.25A2.033,2.033,0,0,0,88.3-1.023ZM94.859,0H93.414V-8.453h1.445ZM93.3-10.7a.863.863,0,0,1,.215-.594.807.807,0,0,1,.637-.242.819.819,0,0,1,.641.242.854.854,0,0,1,.219.594.826.826,0,0,1-.219.586.834.834,0,0,1-.641.234.821.821,0,0,1-.637-.234A.834.834,0,0,1,93.3-10.7ZM96.82-4.3a4.952,4.952,0,0,1,.922-3.129,2.915,2.915,0,0,1,2.414-1.184,2.932,2.932,0,0,1,2.352,1.016V-12h1.445V0h-1.328l-.07-.906A2.943,2.943,0,0,1,100.141.156a2.887,2.887,0,0,1-2.395-1.2,5.008,5.008,0,0,1-.926-3.141Zm1.445.164a3.749,3.749,0,0,0,.594,2.25,1.92,1.92,0,0,0,1.641.813A2.109,2.109,0,0,0,102.508-2.3V-6.187a2.125,2.125,0,0,0-1.992-1.2,1.929,1.929,0,0,0-1.656.82A4.128,4.128,0,0,0,98.266-4.133ZM111.414,0a3.036,3.036,0,0,1-.2-.891A3.225,3.225,0,0,1,108.8.156a2.984,2.984,0,0,1-2.051-.707,2.288,2.288,0,0,1-.8-1.793,2.39,2.39,0,0,1,1-2.051,4.733,4.733,0,0,1,2.824-.73h1.406v-.664A1.623,1.623,0,0,0,110.734-7a1.821,1.821,0,0,0-1.336-.449,2.108,2.108,0,0,0-1.3.391,1.151,1.151,0,0,0-.523.945h-1.453a2,2,0,0,1,.449-1.223,3.066,3.066,0,0,1,1.219-.934,4.1,4.1,0,0,1,1.691-.344,3.342,3.342,0,0,1,2.289.73,2.635,2.635,0,0,1,.859,2.012v3.891a4.757,4.757,0,0,0,.3,1.852V0Zm-2.4-1.1a2.54,2.54,0,0,0,1.289-.352,2.127,2.127,0,0,0,.883-.914V-4.1h-1.133q-2.656,0-2.656,1.555a1.316,1.316,0,0,0,.453,1.063A1.742,1.742,0,0,0,109.016-1.1Zm5.531-3.2a4.952,4.952,0,0,1,.922-3.129,2.915,2.915,0,0,1,2.414-1.184,2.932,2.932,0,0,1,2.352,1.016V-12h1.445V0h-1.328l-.07-.906A2.943,2.943,0,0,1,117.867.156a2.887,2.887,0,0,1-2.395-1.2,5.008,5.008,0,0,1-.926-3.141Zm1.445.164a3.749,3.749,0,0,0,.594,2.25,1.92,1.92,0,0,0,1.641.813A2.109,2.109,0,0,0,120.234-2.3V-6.187a2.125,2.125,0,0,0-1.992-1.2,1.929,1.929,0,0,0-1.656.82A4.128,4.128,0,0,0,115.992-4.133ZM127.531-4.3a4.952,4.952,0,0,1,.922-3.129,2.915,2.915,0,0,1,2.414-1.184,2.932,2.932,0,0,1,2.352,1.016V-12h1.445V0h-1.328l-.07-.906A2.943,2.943,0,0,1,130.852.156a2.887,2.887,0,0,1-2.395-1.2,5.008,5.008,0,0,1-.926-3.141Zm1.445.164a3.749,3.749,0,0,0,.594,2.25,1.919,1.919,0,0,0,1.641.813A2.108,2.108,0,0,0,133.219-2.3V-6.187a2.125,2.125,0,0,0-1.992-1.2,1.929,1.929,0,0,0-1.656.82A4.128,4.128,0,0,0,128.977-4.133ZM140.414.156a3.693,3.693,0,0,1-2.8-1.129,4.19,4.19,0,0,1-1.078-3.02v-.266a5.073,5.073,0,0,1,.48-2.246,3.748,3.748,0,0,1,1.344-1.547,3.378,3.378,0,0,1,1.871-.559A3.166,3.166,0,0,1,142.8-7.523a4.7,4.7,0,0,1,.914,3.109v.6h-5.727a3,3,0,0,0,.73,2.02,2.3,2.3,0,0,0,1.777.77,2.517,2.517,0,0,0,1.3-.312,3.258,3.258,0,0,0,.93-.828l.883.688A3.55,3.55,0,0,1,140.414.156Zm-.18-7.578a1.928,1.928,0,0,0-1.469.637A3.1,3.1,0,0,0,138.031-5h4.234v-.109a2.753,2.753,0,0,0-.594-1.707A1.815,1.815,0,0,0,140.234-7.422Zm16.25,3.289a5.062,5.062,0,0,1-.883,3.109,2.829,2.829,0,0,1-2.391,1.18,3.1,3.1,0,0,1-2.422-.977V3.25h-1.445v-11.7h1.32l.07.938a2.977,2.977,0,0,1,2.453-1.094,2.882,2.882,0,0,1,2.41,1.148,5.117,5.117,0,0,1,.887,3.2ZM155.039-4.3a3.735,3.735,0,0,0-.609-2.258,1.963,1.963,0,0,0-1.672-.828,2.125,2.125,0,0,0-1.969,1.164V-2.18a2.129,2.129,0,0,0,1.984,1.156,1.954,1.954,0,0,0,1.652-.824A4.077,4.077,0,0,0,155.039-4.3Zm8.5,4.3a3.036,3.036,0,0,1-.2-.891A3.225,3.225,0,0,1,160.93.156a2.984,2.984,0,0,1-2.051-.707,2.287,2.287,0,0,1-.8-1.793,2.39,2.39,0,0,1,1-2.051,4.733,4.733,0,0,1,2.824-.73h1.406v-.664A1.623,1.623,0,0,0,162.859-7a1.821,1.821,0,0,0-1.336-.449,2.107,2.107,0,0,0-1.3.391,1.151,1.151,0,0,0-.523.945H158.25a2,2,0,0,1,.449-1.223,3.066,3.066,0,0,1,1.219-.934,4.1,4.1,0,0,1,1.691-.344,3.342,3.342,0,0,1,2.289.73,2.635,2.635,0,0,1,.859,2.012v3.891a4.757,4.757,0,0,0,.3,1.852V0Zm-2.4-1.1a2.54,2.54,0,0,0,1.289-.352,2.127,2.127,0,0,0,.883-.914V-4.1H162.18q-2.656,0-2.656,1.555a1.316,1.316,0,0,0,.453,1.063A1.742,1.742,0,0,0,161.141-1.1Zm5.539-3.2a4.968,4.968,0,0,1,.914-3.145,2.923,2.923,0,0,1,2.422-1.168,2.908,2.908,0,0,1,2.414,1.094l.07-.937h1.32V-.2a3.439,3.439,0,0,1-.973,2.586,3.589,3.589,0,0,1-2.613.945,4.348,4.348,0,0,1-1.789-.391,3.08,3.08,0,0,1-1.336-1.07l.75-.867a2.826,2.826,0,0,0,2.273,1.148,2.214,2.214,0,0,0,1.645-.594,2.269,2.269,0,0,0,.59-1.672V-.844a2.971,2.971,0,0,1-2.367,1,2.887,2.887,0,0,1-2.4-1.2A5.224,5.224,0,0,1,166.68-4.3Zm1.453.164a3.79,3.79,0,0,0,.586,2.246,1.9,1.9,0,0,0,1.641.816,2.117,2.117,0,0,0,2.008-1.242V-6.172a2.142,2.142,0,0,0-1.992-1.211,1.921,1.921,0,0,0-1.648.82A4.128,4.128,0,0,0,168.133-4.133Zm7.484-.172a4.993,4.993,0,0,1,.488-2.234,3.642,3.642,0,0,1,1.359-1.531,3.7,3.7,0,0,1,1.988-.539,3.565,3.565,0,0,1,2.793,1.2,4.6,4.6,0,0,1,1.066,3.18v.1a5.036,5.036,0,0,1-.473,2.215,3.589,3.589,0,0,1-1.352,1.527,3.743,3.743,0,0,1-2.02.547,3.556,3.556,0,0,1-2.785-1.2A4.575,4.575,0,0,1,175.617-4.2Zm1.453.172a3.616,3.616,0,0,0,.652,2.258,2.088,2.088,0,0,0,1.746.852,2.075,2.075,0,0,0,1.75-.863,3.954,3.954,0,0,0,.648-2.418,3.61,3.61,0,0,0-.66-2.254,2.1,2.1,0,0,0-1.754-.863,2.075,2.075,0,0,0-1.727.852A3.925,3.925,0,0,0,177.07-4.133Z" transform="translate(-5285 -9227)" fill="#fff"/><path d="M0,0V24" transform="translate(-5479.5 -9361.5)" fill="none" stroke="#15157c" stroke-width="2"/><path d="M15,0H353a15,15,0,0,1,15,15v2a15,15,0,0,1-15,15H15A15,15,0,0,1,0,17V15A15,15,0,0,1,15,0Z" transform="translate(-5664 -9392)" fill="#0b0b4a"/><path d="M-158.422-5.07a7.053,7.053,0,0,1-2.809-1.363,2.6,2.6,0,0,1-.879-2,2.752,2.752,0,0,1,1.074-2.223,4.269,4.269,0,0,1,2.793-.879,4.66,4.66,0,0,1,2.09.453,3.436,3.436,0,0,1,1.422,1.25,3.2,3.2,0,0,1,.5,1.742h-1.508a2.069,2.069,0,0,0-.656-1.621,2.675,2.675,0,0,0-1.852-.59,2.736,2.736,0,0,0-1.73.488,1.628,1.628,0,0,0-.621,1.355A1.464,1.464,0,0,0-160-7.277,5.79,5.79,0,0,0-158-6.4a9.3,9.3,0,0,1,2.219.879A3.367,3.367,0,0,1-154.59-4.4a2.861,2.861,0,0,1,.387,1.508,2.658,2.658,0,0,1-1.078,2.215,4.6,4.6,0,0,1-2.883.832,5.347,5.347,0,0,1-2.187-.449,3.681,3.681,0,0,1-1.566-1.23,3,3,0,0,1-.551-1.773h1.508a1.959,1.959,0,0,0,.762,1.629,3.207,3.207,0,0,0,2.035.6,2.948,2.948,0,0,0,1.82-.484,1.573,1.573,0,0,0,.633-1.32,1.545,1.545,0,0,0-.586-1.293A6.755,6.755,0,0,0-158.422-5.07ZM-150.937,0h-1.445V-8.453h1.445ZM-152.5-10.7a.863.863,0,0,1,.215-.594.807.807,0,0,1,.637-.242.819.819,0,0,1,.641.242.854.854,0,0,1,.219.594.826.826,0,0,1-.219.586.834.834,0,0,1-.641.234.821.821,0,0,1-.637-.234A.834.834,0,0,1-152.5-10.7Zm8.8,8.453a1.064,1.064,0,0,0-.441-.91,4.249,4.249,0,0,0-1.539-.559,7.277,7.277,0,0,1-1.742-.562,2.479,2.479,0,0,1-.953-.781,1.869,1.869,0,0,1-.309-1.078,2.193,2.193,0,0,1,.879-1.758,3.432,3.432,0,0,1,2.246-.719,3.532,3.532,0,0,1,2.332.742,2.357,2.357,0,0,1,.895,1.9h-1.453a1.3,1.3,0,0,0-.5-1.023,1.888,1.888,0,0,0-1.27-.43,1.976,1.976,0,0,0-1.234.344,1.082,1.082,0,0,0-.445.9.877.877,0,0,0,.414.789,5.1,5.1,0,0,0,1.5.508,7.8,7.8,0,0,1,1.754.578,2.558,2.558,0,0,1,1,.809,1.988,1.988,0,0,1,.324,1.152,2.163,2.163,0,0,1-.906,1.816,3.8,3.8,0,0,1-2.352.684,4.257,4.257,0,0,1-1.8-.359,2.922,2.922,0,0,1-1.223-1,2.42,2.42,0,0,1-.441-1.395h1.445a1.5,1.5,0,0,0,.582,1.152,2.258,2.258,0,0,0,1.434.426,2.331,2.331,0,0,0,1.316-.332A1.02,1.02,0,0,0-143.7-2.242Zm5.289-8.258v2.047h1.578v1.117h-1.578v5.242a1.171,1.171,0,0,0,.211.762.888.888,0,0,0,.719.254,3.5,3.5,0,0,0,.688-.094V0a4.19,4.19,0,0,1-1.109.156,1.8,1.8,0,0,1-1.461-.586,2.517,2.517,0,0,1-.492-1.664V-7.336H-141.4V-8.453h1.539V-10.5ZM-131.641.156a3.693,3.693,0,0,1-2.8-1.129,4.19,4.19,0,0,1-1.078-3.02v-.266a5.073,5.073,0,0,1,.48-2.246,3.748,3.748,0,0,1,1.344-1.547,3.378,3.378,0,0,1,1.871-.559,3.166,3.166,0,0,1,2.563,1.086,4.7,4.7,0,0,1,.914,3.109v.6h-5.727a3,3,0,0,0,.73,2.02,2.3,2.3,0,0,0,1.777.77,2.517,2.517,0,0,0,1.3-.312,3.258,3.258,0,0,0,.93-.828l.883.688A3.55,3.55,0,0,1-131.641.156Zm-.18-7.578a1.928,1.928,0,0,0-1.469.637A3.1,3.1,0,0,0-134.023-5h4.234v-.109a2.753,2.753,0,0,0-.594-1.707A1.815,1.815,0,0,0-131.82-7.422Zm6.508-1.031.039.938a3.122,3.122,0,0,1,2.508-1.094,2.417,2.417,0,0,1,2.414,1.359,3.2,3.2,0,0,1,1.1-.984,3.242,3.242,0,0,1,1.6-.375q2.781,0,2.828,2.945V0h-1.445V-5.578a1.941,1.941,0,0,0-.414-1.355,1.823,1.823,0,0,0-1.391-.449,1.916,1.916,0,0,0-1.336.48,1.949,1.949,0,0,0-.617,1.293V0h-1.453V-5.539a1.613,1.613,0,0,0-1.8-1.844,1.934,1.934,0,0,0-1.945,1.211V0h-1.445V-8.453ZM-107.43,0a3.036,3.036,0,0,1-.2-.891A3.225,3.225,0,0,1-110.039.156a2.984,2.984,0,0,1-2.051-.707,2.288,2.288,0,0,1-.8-1.793,2.39,2.39,0,0,1,1-2.051,4.733,4.733,0,0,1,2.824-.73h1.406v-.664A1.623,1.623,0,0,0-108.109-7a1.821,1.821,0,0,0-1.336-.449,2.108,2.108,0,0,0-1.3.391,1.151,1.151,0,0,0-.523.945h-1.453a2,2,0,0,1,.449-1.223,3.066,3.066,0,0,1,1.219-.934,4.1,4.1,0,0,1,1.691-.344,3.342,3.342,0,0,1,2.289.73,2.635,2.635,0,0,1,.859,2.012v3.891a4.757,4.757,0,0,0,.3,1.852V0Zm-2.4-1.1a2.54,2.54,0,0,0,1.289-.352,2.127,2.127,0,0,0,.883-.914V-4.1h-1.133q-2.656,0-2.656,1.555a1.316,1.316,0,0,0,.453,1.063A1.742,1.742,0,0,0-109.828-1.1Zm18.469-.391A3.465,3.465,0,0,1-92.973-.254a6.517,6.517,0,0,1-2.41.41A4.674,4.674,0,0,1-97.852-.5,4.346,4.346,0,0,1-99.52-2.352a6.408,6.408,0,0,1-.605-2.789v-.992a5.982,5.982,0,0,1,1.2-3.984,4.179,4.179,0,0,1,3.371-1.414,4.316,4.316,0,0,1,2.867.91,3.965,3.965,0,0,1,1.328,2.582h-1.5A2.478,2.478,0,0,0-95.547-10.3a2.656,2.656,0,0,0-2.285,1.059,5.165,5.165,0,0,0-.785,3.066v.93A4.841,4.841,0,0,0-97.742-2.2,2.837,2.837,0,0,0-95.375-1.07,5.217,5.217,0,0,0-93.9-1.258a2.282,2.282,0,0,0,1.047-.633V-4.445h-2.633V-5.664h4.125ZM-85.578.156a3.693,3.693,0,0,1-2.8-1.129,4.19,4.19,0,0,1-1.078-3.02v-.266a5.073,5.073,0,0,1,.48-2.246,3.748,3.748,0,0,1,1.344-1.547,3.378,3.378,0,0,1,1.871-.559A3.166,3.166,0,0,1-83.2-7.523a4.7,4.7,0,0,1,.914,3.109v.6h-5.727a3,3,0,0,0,.73,2.02,2.3,2.3,0,0,0,1.777.77,2.517,2.517,0,0,0,1.3-.312,3.259,3.259,0,0,0,.93-.828l.883.688A3.55,3.55,0,0,1-85.578.156Zm-.18-7.578a1.928,1.928,0,0,0-1.469.637A3.1,3.1,0,0,0-87.961-5h4.234v-.109a2.753,2.753,0,0,0-.594-1.707A1.815,1.815,0,0,0-85.758-7.422Zm6.516-1.031.047,1.063a3.08,3.08,0,0,1,2.531-1.219q2.68,0,2.7,3.023V0h-1.445V-5.594a1.946,1.946,0,0,0-.418-1.352A1.675,1.675,0,0,0-77.1-7.383a2.086,2.086,0,0,0-1.234.375,2.546,2.546,0,0,0-.828.984V0h-1.445V-8.453ZM-68.273.156a3.693,3.693,0,0,1-2.8-1.129,4.19,4.19,0,0,1-1.078-3.02v-.266a5.073,5.073,0,0,1,.48-2.246,3.748,3.748,0,0,1,1.344-1.547,3.378,3.378,0,0,1,1.871-.559,3.166,3.166,0,0,1,2.563,1.086,4.7,4.7,0,0,1,.914,3.109v.6H-70.7a3,3,0,0,0,.73,2.02,2.3,2.3,0,0,0,1.777.77,2.517,2.517,0,0,0,1.3-.312,3.259,3.259,0,0,0,.93-.828l.883.688A3.55,3.55,0,0,1-68.273.156Zm-.18-7.578a1.928,1.928,0,0,0-1.469.637A3.1,3.1,0,0,0-70.656-5h4.234v-.109a2.753,2.753,0,0,0-.594-1.707A1.815,1.815,0,0,0-68.453-7.422Zm9.234.266a4.331,4.331,0,0,0-.711-.055A1.9,1.9,0,0,0-61.859-6V0H-63.3V-8.453H-61.9l.023.977a2.251,2.251,0,0,1,2.016-1.133,1.477,1.477,0,0,1,.641.109ZM-52.984,0a3.036,3.036,0,0,1-.2-.891A3.225,3.225,0,0,1-55.594.156a2.984,2.984,0,0,1-2.051-.707,2.287,2.287,0,0,1-.8-1.793,2.39,2.39,0,0,1,1-2.051,4.733,4.733,0,0,1,2.824-.73h1.406v-.664A1.623,1.623,0,0,0-53.664-7,1.821,1.821,0,0,0-55-7.445a2.107,2.107,0,0,0-1.3.391,1.151,1.151,0,0,0-.523.945h-1.453a2,2,0,0,1,.449-1.223,3.066,3.066,0,0,1,1.219-.934,4.1,4.1,0,0,1,1.691-.344,3.342,3.342,0,0,1,2.289.73,2.635,2.635,0,0,1,.859,2.012v3.891a4.757,4.757,0,0,0,.3,1.852V0Zm-2.4-1.1a2.54,2.54,0,0,0,1.289-.352,2.127,2.127,0,0,0,.883-.914V-4.1h-1.133Q-57-4.1-57-2.547a1.316,1.316,0,0,0,.453,1.063A1.742,1.742,0,0,0-55.383-1.1ZM-47.93,0h-1.445V-12h1.445Zm5.922-4.3a4.952,4.952,0,0,1,.922-3.129,2.915,2.915,0,0,1,2.414-1.184A2.932,2.932,0,0,1-36.32-7.594V-12h1.445V0H-36.2l-.07-.906A2.943,2.943,0,0,1-38.687.156a2.887,2.887,0,0,1-2.395-1.2,5.008,5.008,0,0,1-.926-3.141Zm1.445.164a3.749,3.749,0,0,0,.594,2.25,1.92,1.92,0,0,0,1.641.813A2.108,2.108,0,0,0-36.32-2.3V-6.187a2.125,2.125,0,0,0-1.992-1.2,1.929,1.929,0,0,0-1.656.82A4.128,4.128,0,0,0-40.562-4.133ZM-29.125.156a3.693,3.693,0,0,1-2.8-1.129A4.19,4.19,0,0,1-33-3.992v-.266A5.073,5.073,0,0,1-32.52-6.5a3.748,3.748,0,0,1,1.344-1.547A3.378,3.378,0,0,1-29.3-8.609a3.166,3.166,0,0,1,2.563,1.086,4.7,4.7,0,0,1,.914,3.109v.6h-5.727a3,3,0,0,0,.73,2.02,2.3,2.3,0,0,0,1.777.77,2.517,2.517,0,0,0,1.3-.312,3.259,3.259,0,0,0,.93-.828l.883.688A3.55,3.55,0,0,1-29.125.156Zm-.18-7.578a1.928,1.928,0,0,0-1.469.637A3.1,3.1,0,0,0-31.508-5h4.234v-.109a2.753,2.753,0,0,0-.594-1.707A1.815,1.815,0,0,0-29.3-7.422ZM-16.617-5.07a7.053,7.053,0,0,1-2.809-1.363,2.6,2.6,0,0,1-.879-2,2.751,2.751,0,0,1,1.074-2.223,4.269,4.269,0,0,1,2.793-.879,4.66,4.66,0,0,1,2.09.453,3.436,3.436,0,0,1,1.422,1.25,3.2,3.2,0,0,1,.5,1.742H-13.93a2.069,2.069,0,0,0-.656-1.621,2.675,2.675,0,0,0-1.852-.59,2.736,2.736,0,0,0-1.73.488,1.628,1.628,0,0,0-.621,1.355,1.465,1.465,0,0,0,.59,1.176,5.79,5.79,0,0,0,2.008.879,9.3,9.3,0,0,1,2.219.879A3.367,3.367,0,0,1-12.785-4.4,2.861,2.861,0,0,1-12.4-2.891,2.658,2.658,0,0,1-13.477-.676a4.6,4.6,0,0,1-2.883.832,5.347,5.347,0,0,1-2.187-.449,3.681,3.681,0,0,1-1.566-1.23A3,3,0,0,1-20.664-3.3h1.508a1.959,1.959,0,0,0,.762,1.629,3.207,3.207,0,0,0,2.035.6,2.948,2.948,0,0,0,1.82-.484,1.573,1.573,0,0,0,.633-1.32,1.545,1.545,0,0,0-.586-1.293A6.755,6.755,0,0,0-16.617-5.07ZM-7.2.156a3.693,3.693,0,0,1-2.8-1.129,4.19,4.19,0,0,1-1.078-3.02v-.266A5.073,5.073,0,0,1-10.59-6.5,3.748,3.748,0,0,1-9.246-8.051a3.378,3.378,0,0,1,1.871-.559A3.166,3.166,0,0,1-4.812-7.523,4.7,4.7,0,0,1-3.9-4.414v.6H-9.625a3,3,0,0,0,.73,2.02,2.3,2.3,0,0,0,1.777.77,2.517,2.517,0,0,0,1.3-.312,3.259,3.259,0,0,0,.93-.828l.883.688A3.55,3.55,0,0,1-7.2.156Zm-.18-7.578a1.928,1.928,0,0,0-1.469.637A3.1,3.1,0,0,0-9.578-5h4.234v-.109a2.753,2.753,0,0,0-.594-1.707A1.815,1.815,0,0,0-7.375-7.422ZM-2.57-4.3a4.968,4.968,0,0,1,.914-3.145A2.923,2.923,0,0,1,.766-8.609,2.908,2.908,0,0,1,3.18-7.516l.07-.937H4.57V-.2A3.439,3.439,0,0,1,3.6,2.383a3.589,3.589,0,0,1-2.613.945A4.348,4.348,0,0,1-.8,2.938a3.08,3.08,0,0,1-1.336-1.07L-1.391,1A2.826,2.826,0,0,0,.883,2.148a2.214,2.214,0,0,0,1.645-.594,2.269,2.269,0,0,0,.59-1.672V-.844A2.971,2.971,0,0,1,.75.156a2.887,2.887,0,0,1-2.4-1.2A5.224,5.224,0,0,1-2.57-4.3Zm1.453.164A3.79,3.79,0,0,0-.531-1.887a1.9,1.9,0,0,0,1.641.816A2.117,2.117,0,0,0,3.117-2.312V-6.172A2.142,2.142,0,0,0,1.125-7.383a1.921,1.921,0,0,0-1.648.82A4.128,4.128,0,0,0-1.117-4.133Zm13.086,3.3A3.07,3.07,0,0,1,9.492.156,2.628,2.628,0,0,1,7.434-.629a3.4,3.4,0,0,1-.715-2.324v-5.5H8.164v5.461q0,1.922,1.563,1.922A2.163,2.163,0,0,0,11.93-2.3V-8.453h1.445V0H12Zm7.688-6.32a4.331,4.331,0,0,0-.711-.055A1.9,1.9,0,0,0,17.016-6V0H15.57V-8.453h1.406L17-7.477a2.251,2.251,0,0,1,2.016-1.133,1.477,1.477,0,0,1,.641.109ZM22.555,0H21.109V-8.453h1.445ZM20.992-10.7a.863.863,0,0,1,.215-.594.807.807,0,0,1,.637-.242.819.819,0,0,1,.641.242.854.854,0,0,1,.219.594.826.826,0,0,1-.219.586.834.834,0,0,1-.641.234.821.821,0,0,1-.637-.234A.834.834,0,0,1,20.992-10.7Zm3.523,6.4a4.952,4.952,0,0,1,.922-3.129,2.915,2.915,0,0,1,2.414-1.184A2.932,2.932,0,0,1,30.2-7.594V-12h1.445V0H30.32l-.07-.906A2.943,2.943,0,0,1,27.836.156a2.887,2.887,0,0,1-2.395-1.2,5.008,5.008,0,0,1-.926-3.141Zm1.445.164a3.749,3.749,0,0,0,.594,2.25A1.92,1.92,0,0,0,28.2-1.07,2.108,2.108,0,0,0,30.2-2.3V-6.187a2.125,2.125,0,0,0-1.992-1.2,1.929,1.929,0,0,0-1.656.82A4.128,4.128,0,0,0,25.961-4.133ZM39.109,0a3.036,3.036,0,0,1-.2-.891A3.225,3.225,0,0,1,36.5.156a2.984,2.984,0,0,1-2.051-.707,2.287,2.287,0,0,1-.8-1.793,2.39,2.39,0,0,1,1-2.051,4.733,4.733,0,0,1,2.824-.73h1.406v-.664A1.623,1.623,0,0,0,38.43-7a1.821,1.821,0,0,0-1.336-.449,2.107,2.107,0,0,0-1.3.391,1.151,1.151,0,0,0-.523.945H33.82a2,2,0,0,1,.449-1.223,3.066,3.066,0,0,1,1.219-.934,4.1,4.1,0,0,1,1.691-.344,3.342,3.342,0,0,1,2.289.73,2.635,2.635,0,0,1,.859,2.012v3.891a4.757,4.757,0,0,0,.3,1.852V0Zm-2.4-1.1A2.54,2.54,0,0,0,38-1.453a2.127,2.127,0,0,0,.883-.914V-4.1H37.75q-2.656,0-2.656,1.555a1.316,1.316,0,0,0,.453,1.063A1.742,1.742,0,0,0,36.711-1.1Zm5.531-3.2a4.952,4.952,0,0,1,.922-3.129,2.915,2.915,0,0,1,2.414-1.184A2.932,2.932,0,0,1,47.93-7.594V-12h1.445V0H48.047l-.07-.906A2.943,2.943,0,0,1,45.563.156a2.887,2.887,0,0,1-2.395-1.2,5.008,5.008,0,0,1-.926-3.141Zm1.445.164a3.749,3.749,0,0,0,.594,2.25,1.92,1.92,0,0,0,1.641.813A2.108,2.108,0,0,0,47.93-2.3V-6.187a2.125,2.125,0,0,0-1.992-1.2,1.929,1.929,0,0,0-1.656.82A4.128,4.128,0,0,0,43.688-4.133ZM59.156-5.07a7.053,7.053,0,0,1-2.809-1.363,2.6,2.6,0,0,1-.879-2,2.752,2.752,0,0,1,1.074-2.223,4.269,4.269,0,0,1,2.793-.879,4.66,4.66,0,0,1,2.09.453,3.436,3.436,0,0,1,1.422,1.25,3.2,3.2,0,0,1,.5,1.742H61.844a2.069,2.069,0,0,0-.656-1.621,2.675,2.675,0,0,0-1.852-.59,2.736,2.736,0,0,0-1.73.488,1.628,1.628,0,0,0-.621,1.355,1.465,1.465,0,0,0,.59,1.176,5.79,5.79,0,0,0,2.008.879A9.3,9.3,0,0,1,61.8-5.52,3.367,3.367,0,0,1,62.988-4.4a2.861,2.861,0,0,1,.387,1.508A2.658,2.658,0,0,1,62.3-.676a4.6,4.6,0,0,1-2.883.832,5.347,5.347,0,0,1-2.187-.449,3.681,3.681,0,0,1-1.566-1.23A3,3,0,0,1,55.109-3.3h1.508a1.959,1.959,0,0,0,.762,1.629,3.207,3.207,0,0,0,2.035.6,2.948,2.948,0,0,0,1.82-.484,1.573,1.573,0,0,0,.633-1.32,1.545,1.545,0,0,0-.586-1.293A6.755,6.755,0,0,0,59.156-5.07Zm5.531.766a4.993,4.993,0,0,1,.488-2.234A3.643,3.643,0,0,1,66.535-8.07a3.7,3.7,0,0,1,1.988-.539,3.565,3.565,0,0,1,2.793,1.2,4.6,4.6,0,0,1,1.066,3.18v.1a5.036,5.036,0,0,1-.473,2.215A3.589,3.589,0,0,1,70.559-.391a3.743,3.743,0,0,1-2.02.547,3.556,3.556,0,0,1-2.785-1.2A4.575,4.575,0,0,1,64.688-4.2Zm1.453.172a3.616,3.616,0,0,0,.652,2.258,2.088,2.088,0,0,0,1.746.852,2.075,2.075,0,0,0,1.75-.863A3.955,3.955,0,0,0,70.938-4.3a3.61,3.61,0,0,0-.66-2.254,2.1,2.1,0,0,0-1.754-.863A2.075,2.075,0,0,0,66.8-6.57,3.925,3.925,0,0,0,66.141-4.133ZM77.586-1.023a2.082,2.082,0,0,0,1.352-.469,1.649,1.649,0,0,0,.641-1.172h1.367a2.621,2.621,0,0,1-.5,1.383,3.293,3.293,0,0,1-1.23,1.047,3.55,3.55,0,0,1-1.629.391A3.482,3.482,0,0,1,74.84-1a4.59,4.59,0,0,1-1.02-3.152v-.242a5.089,5.089,0,0,1,.453-2.2,3.451,3.451,0,0,1,1.3-1.492,3.7,3.7,0,0,1,2-.531,3.39,3.39,0,0,1,2.363.852,3.043,3.043,0,0,1,1,2.211H79.578a1.992,1.992,0,0,0-.621-1.348,1.932,1.932,0,0,0-1.379-.527,2.023,2.023,0,0,0-1.707.793,3.724,3.724,0,0,0-.605,2.293v.273a3.65,3.65,0,0,0,.6,2.25A2.033,2.033,0,0,0,77.586-1.023ZM84.141,0H82.7V-8.453h1.445ZM82.578-10.7a.863.863,0,0,1,.215-.594.807.807,0,0,1,.637-.242.819.819,0,0,1,.641.242.854.854,0,0,1,.219.594.826.826,0,0,1-.219.586.834.834,0,0,1-.641.234.821.821,0,0,1-.637-.234A.834.834,0,0,1,82.578-10.7ZM91.672,0a3.036,3.036,0,0,1-.2-.891A3.225,3.225,0,0,1,89.063.156a2.984,2.984,0,0,1-2.051-.707,2.288,2.288,0,0,1-.8-1.793,2.39,2.39,0,0,1,1-2.051,4.733,4.733,0,0,1,2.824-.73h1.406v-.664A1.623,1.623,0,0,0,90.992-7a1.821,1.821,0,0,0-1.336-.449,2.108,2.108,0,0,0-1.3.391,1.151,1.151,0,0,0-.523.945H86.383a2,2,0,0,1,.449-1.223,3.066,3.066,0,0,1,1.219-.934,4.1,4.1,0,0,1,1.691-.344,3.342,3.342,0,0,1,2.289.73,2.635,2.635,0,0,1,.859,2.012v3.891a4.757,4.757,0,0,0,.3,1.852V0Zm-2.4-1.1a2.54,2.54,0,0,0,1.289-.352,2.127,2.127,0,0,0,.883-.914V-4.1H90.313q-2.656,0-2.656,1.555a1.316,1.316,0,0,0,.453,1.063A1.742,1.742,0,0,0,89.273-1.1ZM96.727,0H95.281V-12h1.445Zm9.781.156a3.693,3.693,0,0,1-2.8-1.129,4.19,4.19,0,0,1-1.078-3.02v-.266a5.073,5.073,0,0,1,.48-2.246,3.748,3.748,0,0,1,1.344-1.547,3.378,3.378,0,0,1,1.871-.559,3.166,3.166,0,0,1,2.563,1.086,4.7,4.7,0,0,1,.914,3.109v.6h-5.727a3,3,0,0,0,.73,2.02,2.3,2.3,0,0,0,1.777.77,2.517,2.517,0,0,0,1.3-.312,3.259,3.259,0,0,0,.93-.828l.883.688A3.55,3.55,0,0,1,106.508.156Zm-.18-7.578a1.928,1.928,0,0,0-1.469.637A3.1,3.1,0,0,0,104.125-5h4.234v-.109a2.753,2.753,0,0,0-.594-1.707A1.815,1.815,0,0,0,106.328-7.422Zm6.516-1.031.047,1.063a3.08,3.08,0,0,1,2.531-1.219q2.68,0,2.7,3.023V0H116.68V-5.594a1.946,1.946,0,0,0-.418-1.352,1.675,1.675,0,0,0-1.277-.437,2.086,2.086,0,0,0-1.234.375,2.546,2.546,0,0,0-.828.984V0h-1.445V-8.453Zm15,3.383a7.053,7.053,0,0,1-2.809-1.363,2.6,2.6,0,0,1-.879-2,2.751,2.751,0,0,1,1.074-2.223,4.269,4.269,0,0,1,2.793-.879,4.66,4.66,0,0,1,2.09.453,3.436,3.436,0,0,1,1.422,1.25,3.2,3.2,0,0,1,.5,1.742h-1.508a2.069,2.069,0,0,0-.656-1.621,2.675,2.675,0,0,0-1.852-.59,2.736,2.736,0,0,0-1.73.488,1.628,1.628,0,0,0-.621,1.355,1.465,1.465,0,0,0,.59,1.176,5.79,5.79,0,0,0,2.008.879,9.3,9.3,0,0,1,2.219.879A3.367,3.367,0,0,1,131.676-4.4a2.861,2.861,0,0,1,.387,1.508,2.658,2.658,0,0,1-1.078,2.215A4.6,4.6,0,0,1,128.1.156a5.347,5.347,0,0,1-2.187-.449,3.681,3.681,0,0,1-1.566-1.23A3,3,0,0,1,123.8-3.3H125.3a1.959,1.959,0,0,0,.762,1.629,3.207,3.207,0,0,0,2.035.6,2.948,2.948,0,0,0,1.82-.484,1.573,1.573,0,0,0,.633-1.32,1.545,1.545,0,0,0-.586-1.293A6.755,6.755,0,0,0,127.844-5.07ZM138.977,0a3.036,3.036,0,0,1-.2-.891A3.225,3.225,0,0,1,136.367.156a2.984,2.984,0,0,1-2.051-.707,2.287,2.287,0,0,1-.8-1.793,2.39,2.39,0,0,1,1-2.051,4.733,4.733,0,0,1,2.824-.73h1.406v-.664A1.623,1.623,0,0,0,138.3-7a1.821,1.821,0,0,0-1.336-.449,2.107,2.107,0,0,0-1.3.391,1.151,1.151,0,0,0-.523.945h-1.453a2,2,0,0,1,.449-1.223,3.066,3.066,0,0,1,1.219-.934,4.1,4.1,0,0,1,1.691-.344,3.342,3.342,0,0,1,2.289.73,2.635,2.635,0,0,1,.859,2.012v3.891a4.757,4.757,0,0,0,.3,1.852V0Zm-2.4-1.1a2.54,2.54,0,0,0,1.289-.352,2.127,2.127,0,0,0,.883-.914V-4.1h-1.133q-2.656,0-2.656,1.555a1.316,1.316,0,0,0,.453,1.063A1.742,1.742,0,0,0,136.578-1.1ZM144.031,0h-1.445V-12h1.445Zm7.531-.836a3.07,3.07,0,0,1-2.477.992,2.628,2.628,0,0,1-2.059-.785,3.4,3.4,0,0,1-.715-2.324v-5.5h1.445v5.461q0,1.922,1.563,1.922a2.163,2.163,0,0,0,2.2-1.234V-8.453h1.445V0h-1.375Zm3.25-3.461a4.952,4.952,0,0,1,.922-3.129,2.915,2.915,0,0,1,2.414-1.184A2.932,2.932,0,0,1,160.5-7.594V-12h1.445V0h-1.328l-.07-.906A2.943,2.943,0,0,1,158.133.156a2.887,2.887,0,0,1-2.395-1.2,5.008,5.008,0,0,1-.926-3.141Zm1.445.164a3.749,3.749,0,0,0,.594,2.25,1.919,1.919,0,0,0,1.641.813A2.108,2.108,0,0,0,160.5-2.3V-6.187a2.125,2.125,0,0,0-1.992-1.2,1.929,1.929,0,0,0-1.656.82A4.128,4.128,0,0,0,156.258-4.133Z" transform="translate(-5480 -9370)" fill="#fff"/></g></svg>