<svg xmlns="http://www.w3.org/2000/svg" width="56.923" height="56.923" viewBox="0 0 56.923 56.923"><g transform="translate(-324 -9177.922)"><circle cx="28.461" cy="28.461" r="28.461" transform="translate(324 9177.922)" fill="#fff"/><g transform="translate(-1537.105 6146.571)"><g transform="translate(1872.105 3046.352)"><path d="M1872.105,3126.27c.048-.157.091-.316.144-.471a3,3,0,0,1,2.356-2.163c.524-.1,1.049-.2,1.565-.337a1,1,0,0,0,.437-.3,5.012,5.012,0,0,0,.357-.522.8.8,0,0,1,1.193-.213c.757.549,1.5,1.111,2.249,1.675a.534.534,0,1,1-.639.852c-.673-.492-1.339-1-2.005-1.493-.372.345-.374.363-.1.763.241.348.486.692.721,1.043a.535.535,0,1,1-.872.609c-.28-.388-.554-.78-.818-1.18a.321.321,0,0,0-.406-.167c-.474.119-.956.205-1.435.3a2.041,2.041,0,0,0-1.677,1.971c-.007.189.01.379-.006.567-.025.294.112.4.39.4.712-.005,1.425,0,2.137,0,.429,0,.671.187.68.518s-.245.549-.684.551c-.657,0-1.314-.018-1.97.005a1.5,1.5,0,0,1-1.62-1.007Z" transform="translate(-1872.105 -3106.204)" fill="#7b1fa2"/><path d="M1907.332,3131.064l3.216-2.766c.169-.145.335-.293.507-.435a.947.947,0,0,1,1.491.216,2.252,2.252,0,0,1,.237.363,1.7,1.7,0,0,0,1.512,1.042c.649.078,1.286.254,1.927.392a4.227,4.227,0,0,1,3.332,3.6,11.093,11.093,0,0,1,.057,1.765,1.659,1.659,0,0,1-1.627,1.519c-.089.005-.178,0-.267,0q-10.388,0-20.775,0a2,2,0,0,1-1.308-.409,1.387,1.387,0,0,1-.571-.985,6.168,6.168,0,0,1,.321-2.924,4.188,4.188,0,0,1,3.315-2.637c.788-.135,1.571-.308,2.35-.491a.858.858,0,0,0,.435-.3c.225-.289.409-.609.614-.913a.947.947,0,0,1,1.534-.22c1.109.947,2.212,1.9,3.318,2.852C1907.066,3130.839,1907.185,3130.938,1907.332,3131.064Zm1.647,4.618c.115.006.192.013.269.013h8.518c.056,0,.112,0,.167,0a.615.615,0,0,0,.621-.678c0-.312.007-.624,0-.935a3.27,3.27,0,0,0-2.631-3.184c-.794-.165-1.593-.312-2.383-.5a.4.4,0,0,0-.49.192q-1.383,1.925-2.786,3.836a.548.548,0,0,1-.947.076c-.176-.178-.322-.385-.482-.579l-.167.1Q1908.821,3134.852,1908.979,3135.682Zm-3.066-1.775c-.2.215-.345.381-.5.537-.417.418-.711.395-1.059-.083q-1.386-1.9-2.767-3.808a.338.338,0,0,0-.41-.166c-.812.185-1.63.351-2.448.512a2.981,2.981,0,0,0-2.416,2.184,7.211,7.211,0,0,0-.2,1.743c-.032.682.176.869.86.869h8.35c.055,0,.122.019.165,0,.083-.046.2-.1.219-.179.1-.432.186-.87.266-1.307A1.106,1.106,0,0,0,1905.913,3133.907Zm.607-2.127-3.549-3.055-.665,1.005,2.633,3.619Zm5.17-3.053-3.524,3.032,1.569,1.574,2.62-3.6Zm-3.8,6.954-.214-1.052a5.02,5.02,0,0,0-.523.006c-.07.008-.179.067-.193.122-.073.3-.122.6-.183.924Zm-.562-3.164c-.2.3-.621.4-.516.846.052.22.234.218.4.193.219-.034.531.148.632-.191C1907.972,3132.929,1907.542,3132.811,1907.327,3132.517Z" transform="translate(-1890.219 -3110.553)" fill="#7b1fa2"/><path d="M1933.625,3050.552a36.346,36.346,0,0,1-.548,4.482,11.39,11.39,0,0,0-.1,1.994,8.3,8.3,0,0,1-.88,3.7,7.26,7.26,0,0,1-2.482,2.874,5.441,5.441,0,0,1-6.957-.674,7.546,7.546,0,0,1-2.479-5.345,38.321,38.321,0,0,0-.533-3.822,22.407,22.407,0,0,1-.292-3.215,3.285,3.285,0,0,1,2.566-3.256,9.611,9.611,0,0,0,1.751-.564,6.136,6.136,0,0,1,3.388-.255c1.242.192,2.472.457,3.714.643a9.826,9.826,0,0,0,1.694.062c.538-.014.754.085.833.629C1933.439,3048.716,1933.521,3049.635,1933.625,3050.552Zm-9.183,1.979c-.411.027-1.1.065-1.786.125a.432.432,0,0,0-.3.189,8.446,8.446,0,0,0-1.149,4.328,7.086,7.086,0,0,0,2.209,4.993,4.4,4.4,0,0,0,6.136.147,6.881,6.881,0,0,0,2.354-4.956,5.5,5.5,0,0,0-.567-3.26.935.935,0,0,0-.479-.458A17.382,17.382,0,0,0,1924.441,3052.531Zm7.764.908c.042-.066.071-.091.074-.12a18.685,18.685,0,0,0,.085-4.794c-.022-.177-.1-.229-.278-.24-.61-.037-1.222-.072-1.825-.164-1.3-.2-2.582-.469-3.881-.645a4.329,4.329,0,0,0-2.9.521,1.649,1.649,0,0,1-.736.234,2.222,2.222,0,0,0-2.246,1.9,11.931,11.931,0,0,0,.021,2.288,13.25,13.25,0,0,0,.2,1.329l.847-1.729a.643.643,0,0,1,.573-.392c.633-.043,1.263-.128,1.9-.149a17.389,17.389,0,0,1,7.349,1.223C1931.738,3052.848,1932.093,3052.987,1932.205,3053.438Z" transform="translate(-1909.449 -3046.352)" fill="#7b1fa2"/><path d="M1987.969,3069.191c.064-1.124.126-2.188.189-3.28-.631-.1-1.23-.2-1.833-.274-.8-.1-1.612-.193-2.418-.281a.55.55,0,0,1-.557-.545.518.518,0,0,1,.605-.518c.841.077,1.679.189,2.519.284.729.083,1.457.17,2.187.241a.545.545,0,0,1,.563.6,42.285,42.285,0,0,1-.509,6.083c-.083.49-.015,1.005-.093,1.5a4.532,4.532,0,0,1-3.113,3.934,3.731,3.731,0,0,1-3.506-.625.524.524,0,0,1-.162-.758.5.5,0,0,1,.733-.132c1.7,1.371,4.2.466,4.881-2.025a5.006,5.006,0,0,0-.155-3.116.808.808,0,0,0-.351-.4,7.945,7.945,0,0,0-3.016-.78c-.453-.042-.7-.385-.537-.747a.557.557,0,0,1,.634-.319,9.025,9.025,0,0,1,3.7,1.042C1987.783,3069.107,1987.843,3069.131,1987.969,3069.191Z" transform="translate(-1958.752 -3060.528)" fill="#7b1fa2"/><path d="M1891.219,3070.9c.087-.408.38-.5.727-.526a13.781,13.781,0,0,1,3.493.191.529.529,0,0,1,.446.607.551.551,0,0,1-.643.444c-.653-.067-1.3-.192-1.958-.194-1.416-.005-1.055-.256-1.435,1.064a5.083,5.083,0,0,0,.116,3.438,3.221,3.221,0,0,0,2.969,2.114,3.034,3.034,0,0,0,1.621-.549.735.735,0,0,1,.514-.145.72.72,0,0,1,.4.388c.1.242-.054.441-.258.594a3.9,3.9,0,0,1-4.617.051,4.7,4.7,0,0,1-2.011-3.786c-.039-1-.274-1.957-.406-2.936a6.186,6.186,0,0,1-.034-2.486,2.17,2.17,0,0,1,1.933-1.806.654.654,0,0,0,.248-.085,4.013,4.013,0,0,1,2.424-.444c.4.033.622.255.607.57-.016.332-.27.52-.693.491a2.969,2.969,0,0,0-2.04.458.573.573,0,0,1-.285.069,1.05,1.05,0,0,0-1.109.873,12.321,12.321,0,0,0-.152,1.57Z" transform="translate(-1886.267 -3062.521)" fill="#7b1fa2"/><path d="M1997.389,3123.278l-1.98,1.477a.556.556,0,0,1-.65.09.514.514,0,0,1-.08-.869q1.175-.909,2.384-1.773a.773.773,0,0,1,1.051.173.44.44,0,0,1,.078.108,1.548,1.548,0,0,0,1.454.956,7.432,7.432,0,0,1,.915.185,3.123,3.123,0,0,1,2.471,3.007c.006.223,0,.446,0,.668a1.29,1.29,0,0,1-1.274,1.352c-.812.026-1.625.014-2.438.005a.532.532,0,1,1,.007-1.062c.724-.007,1.448,0,2.171,0,.425,0,.472-.042.462-.453a4.35,4.35,0,0,0-.071-.927,1.924,1.924,0,0,0-1.563-1.547c-.5-.1-1-.217-1.5-.3a.428.428,0,0,0-.344.131c-.285.37-.539.763-.808,1.146-.249.353-.538.439-.816.25s-.309-.5-.07-.848c.225-.331.435-.677.691-.982A.471.471,0,0,0,1997.389,3123.278Z" transform="translate(-1968.815 -3106.189)" fill="#7b1fa2"/></g></g></g></svg>