<svg xmlns="http://www.w3.org/2000/svg" width="400" height="613" viewBox="0 0 400 613"><g transform="translate(-1020 -4044)"><rect width="400" height="613" rx="38" transform="translate(1020 4044)" fill="#f6f6f6"/><g transform="translate(1042.4 4550.957)"><path d="M417.978,104.578a1.884,1.884,0,1,1-1.883-1.8A1.842,1.842,0,0,1,417.978,104.578Z" transform="translate(-412.587 -101.152)" fill="#7b1fa2"/><path d="M416.222,101.279a3.428,3.428,0,1,1-3.508,3.426A3.473,3.473,0,0,1,416.222,101.279Zm0,3.6c.146,0,.256-.092.256-.174s-.1-.172-.256-.172-.254.1-.254.172S416.077,104.878,416.222,104.878Z" transform="translate(-412.714 -101.279)" fill="#7b1fa2"/><path d="M426.424,104.578a1.884,1.884,0,1,1-1.881-1.8A1.842,1.842,0,0,1,426.424,104.578Z" transform="translate(-404.097 -101.152)" fill="#7b1fa2"/><path d="M424.67,101.279a3.428,3.428,0,1,1-3.51,3.426A3.471,3.471,0,0,1,424.67,101.279Zm0,3.6c.145,0,.254-.092.254-.174s-.109-.172-.254-.172-.256.1-.256.172S424.524,104.878,424.67,104.878Z" transform="translate(-404.224 -101.279)" fill="#7b1fa2"/><path d="M434.87,104.578a1.884,1.884,0,1,1-1.881-1.8A1.842,1.842,0,0,1,434.87,104.578Z" transform="translate(-395.606 -101.152)" fill="#7b1fa2"/><path d="M433.116,101.279a3.428,3.428,0,1,1-3.51,3.426A3.472,3.472,0,0,1,433.116,101.279Zm0,3.6c.145,0,.254-.092.254-.174s-.1-.172-.254-.172-.256.1-.256.172S432.97,104.878,433.116,104.878Z" transform="translate(-395.733 -101.279)" fill="#7b1fa2"/><path d="M443.317,104.578a1.884,1.884,0,1,1-1.883-1.8A1.842,1.842,0,0,1,443.317,104.578Z" transform="translate(-387.115 -101.152)" fill="#7b1fa2"/><path d="M441.561,101.279a3.428,3.428,0,1,1-3.508,3.426A3.473,3.473,0,0,1,441.561,101.279Zm0,3.6c.146,0,.256-.092.256-.174s-.1-.172-.256-.172-.254.1-.254.172S441.416,104.878,441.561,104.878Z" transform="translate(-387.242 -101.279)" fill="#7b1fa2"/><path d="M451.763,104.578a1.884,1.884,0,1,1-1.881-1.8A1.842,1.842,0,0,1,451.763,104.578Z" transform="translate(-378.625 -101.152)" fill="#7b1fa2"/><path d="M450.009,101.279a3.428,3.428,0,1,1-3.51,3.426A3.472,3.472,0,0,1,450.009,101.279Zm0,3.6c.145,0,.254-.092.254-.174s-.1-.172-.254-.172-.256.1-.256.172S449.862,104.878,450.009,104.878Z" transform="translate(-378.752 -101.279)" fill="#7b1fa2"/><ellipse cx="1.882" cy="1.8" rx="1.882" ry="1.8" transform="translate(1.627 16.024)" fill="#7b1fa2"/><path d="M2.009-1.5A3.473,3.473,0,0,1,5.518,1.927,3.473,3.473,0,0,1,2.009,5.354,3.473,3.473,0,0,1-1.5,1.927,3.473,3.473,0,0,1,2.009-1.5Zm0,3.6c.146,0,.255-.091.255-.173s-.109-.173-.255-.173-.255.091-.255.173S1.863,2.1,2.009,2.1Z" transform="translate(1.5 15.897)" fill="#7b1fa2"/><path d="M426.424,112.086a1.884,1.884,0,1,1-1.881-1.8A1.843,1.843,0,0,1,426.424,112.086Z" transform="translate(-404.097 -94.262)" fill="#7b1fa2"/><path d="M424.67,108.787a3.428,3.428,0,1,1-3.51,3.426A3.471,3.471,0,0,1,424.67,108.787Zm0,3.6c.157,0,.254-.1.254-.174s-.109-.172-.254-.172-.256.1-.256.172S424.511,112.386,424.67,112.386Z" transform="translate(-404.224 -94.389)" fill="#7b1fa2"/><ellipse cx="1.882" cy="1.8" rx="1.882" ry="1.8" transform="translate(35.5 16.024)" fill="#7b1fa2"/><path d="M2.009-1.5A3.473,3.473,0,0,1,5.518,1.927,3.473,3.473,0,0,1,2.009,5.354,3.473,3.473,0,0,1-1.5,1.927,3.473,3.473,0,0,1,2.009-1.5Zm0,3.6c.146,0,.255-.091.255-.173s-.109-.173-.255-.173-.255.091-.255.173S1.863,2.1,2.009,2.1Z" transform="translate(35.373 15.897)" fill="#7b1fa2"/><path d="M443.317,112.086a1.884,1.884,0,1,1-1.883-1.8A1.843,1.843,0,0,1,443.317,112.086Z" transform="translate(-387.115 -94.262)" fill="#7b1fa2"/><path d="M441.561,108.787a3.428,3.428,0,1,1-3.508,3.426A3.473,3.473,0,0,1,441.561,108.787Zm0,3.6c.159,0,.256-.1.256-.174s-.1-.172-.256-.172-.254.1-.254.172S441.4,112.386,441.561,112.386Z" transform="translate(-387.242 -94.389)" fill="#7b1fa2"/><path d="M451.763,112.086a1.884,1.884,0,1,1-1.881-1.8A1.843,1.843,0,0,1,451.763,112.086Z" transform="translate(-378.625 -94.262)" fill="#7b1fa2"/><path d="M450.009,108.787a3.428,3.428,0,1,1-3.51,3.426A3.472,3.472,0,0,1,450.009,108.787Zm0,3.6c.157,0,.254-.1.254-.174s-.1-.172-.254-.172-.256.1-.256.172S449.85,112.386,450.009,112.386Z" transform="translate(-378.752 -94.389)" fill="#7b1fa2"/><path d="M417.978,119.595a1.884,1.884,0,1,1-1.883-1.8A1.843,1.843,0,0,1,417.978,119.595Z" transform="translate(-412.587 -87.374)" fill="#7b1fa2"/><path d="M416.222,123.149a3.429,3.429,0,1,1,3.51-3.428A3.472,3.472,0,0,1,416.222,123.149Zm0-3.6c-.157,0-.254.1-.254.174s.1.174.254.174.256-.1.256-.174S416.38,119.548,416.222,119.548Z" transform="translate(-412.714 -87.501)" fill="#7b1fa2"/><path d="M426.424,119.595a1.884,1.884,0,1,1-1.881-1.8A1.843,1.843,0,0,1,426.424,119.595Z" transform="translate(-404.097 -87.374)" fill="#7b1fa2"/><path d="M424.67,123.149a3.429,3.429,0,1,1,3.508-3.428A3.473,3.473,0,0,1,424.67,123.149Zm0-3.6c-.159,0-.256.1-.256.174s.1.174.256.174.254-.1.254-.174S424.827,119.548,424.67,119.548Z" transform="translate(-404.224 -87.501)" fill="#7b1fa2"/><path d="M434.87,119.595a1.884,1.884,0,1,1-1.881-1.8A1.843,1.843,0,0,1,434.87,119.595Z" transform="translate(-395.606 -87.374)" fill="#7b1fa2"/><path d="M433.116,123.149a3.429,3.429,0,1,1,3.508-3.428A3.474,3.474,0,0,1,433.116,123.149Zm0-3.6c-.156,0-.256.1-.256.174s.1.174.256.174.254-.1.254-.174S433.273,119.548,433.116,119.548Z" transform="translate(-395.733 -87.501)" fill="#7b1fa2"/><path d="M443.317,119.595a1.884,1.884,0,1,1-1.883-1.8A1.843,1.843,0,0,1,443.317,119.595Z" transform="translate(-387.115 -87.374)" fill="#7b1fa2"/><path d="M441.561,123.149a3.429,3.429,0,1,1,3.51-3.428A3.472,3.472,0,0,1,441.561,123.149Zm0-3.6c-.157,0-.254.1-.254.174s.1.174.254.174.256-.1.256-.174S441.719,119.548,441.561,119.548Z" transform="translate(-387.242 -87.501)" fill="#7b1fa2"/><path d="M451.763,119.595a1.884,1.884,0,1,1-1.881-1.8A1.843,1.843,0,0,1,451.763,119.595Z" transform="translate(-378.625 -87.374)" fill="#7b1fa2"/><path d="M450.009,123.149a3.429,3.429,0,1,1,3.508-3.428A3.473,3.473,0,0,1,450.009,123.149Zm0-3.6c-.159,0-.256.1-.256.174s.1.174.256.174.254-.1.254-.174S450.166,119.548,450.009,119.548Z" transform="translate(-378.752 -87.501)" fill="#7b1fa2"/><ellipse cx="1.882" cy="1.8" rx="1.882" ry="1.8" transform="translate(1.627 44.819)" fill="#7b1fa2"/><path d="M2.009-1.5A3.473,3.473,0,0,1,5.518,1.927,3.473,3.473,0,0,1,2.009,5.354,3.473,3.473,0,0,1-1.5,1.927,3.473,3.473,0,0,1,2.009-1.5Zm0,3.6c.146,0,.255-.091.255-.173s-.109-.173-.255-.173-.255.091-.255.173S1.863,2.1,2.009,2.1Z" transform="translate(1.5 44.692)" fill="#7b1fa2"/><path d="M426.424,127.1a1.884,1.884,0,1,1-1.881-1.8A1.841,1.841,0,0,1,426.424,127.1Z" transform="translate(-404.097 -80.484)" fill="#7b1fa2"/><path d="M424.67,130.656a3.428,3.428,0,1,1,3.508-3.426A3.473,3.473,0,0,1,424.67,130.656Zm0-3.6c-.159,0-.256.1-.256.174s.1.172.256.172.254-.091.254-.172S424.827,127.056,424.67,127.056Z" transform="translate(-404.224 -80.611)" fill="#7b1fa2"/><ellipse cx="1.882" cy="1.8" rx="1.882" ry="1.8" transform="translate(35.5 44.819)" fill="#7b1fa2"/><path d="M2.009-1.5A3.473,3.473,0,0,1,5.518,1.927,3.473,3.473,0,0,1,2.009,5.354,3.473,3.473,0,0,1-1.5,1.927,3.473,3.473,0,0,1,2.009-1.5Zm0,3.6c.146,0,.255-.091.255-.173s-.109-.173-.255-.173-.255.091-.255.173S1.863,2.1,2.009,2.1Z" transform="translate(35.373 44.692)" fill="#7b1fa2"/><path d="M443.317,127.1a1.884,1.884,0,1,1-1.883-1.8A1.842,1.842,0,0,1,443.317,127.1Z" transform="translate(-387.115 -80.484)" fill="#7b1fa2"/><path d="M441.561,130.656a3.428,3.428,0,1,1,3.51-3.426A3.471,3.471,0,0,1,441.561,130.656Zm0-3.6c-.157,0-.254.1-.254.174s.109.172.254.172.256-.1.256-.172S441.719,127.056,441.561,127.056Z" transform="translate(-387.242 -80.611)" fill="#7b1fa2"/><path d="M451.763,127.1a1.884,1.884,0,1,1-1.881-1.8A1.841,1.841,0,0,1,451.763,127.1Z" transform="translate(-378.625 -80.484)" fill="#7b1fa2"/><path d="M450.009,130.656a3.428,3.428,0,1,1,3.508-3.426A3.473,3.473,0,0,1,450.009,130.656Zm0-3.6c-.159,0-.256.1-.256.174s.1.172.256.172.254-.1.254-.172S450.166,127.056,450.009,127.056Z" transform="translate(-378.752 -80.611)" fill="#7b1fa2"/><ellipse cx="1.882" cy="1.8" rx="1.882" ry="1.8" transform="translate(1.627 59.216)" fill="#7b1fa2"/><path d="M2.009-1.5A3.473,3.473,0,0,1,5.518,1.927,3.473,3.473,0,0,1,2.009,5.354,3.473,3.473,0,0,1-1.5,1.927,3.473,3.473,0,0,1,2.009-1.5Zm0,3.6c.146,0,.255-.091.255-.173s-.109-.173-.255-.173-.255.091-.255.173S1.863,2.1,2.009,2.1Z" transform="translate(1.5 59.088)" fill="#7b1fa2"/><path d="M426.424,134.611a1.884,1.884,0,1,1-1.881-1.8A1.841,1.841,0,0,1,426.424,134.611Z" transform="translate(-404.097 -73.594)" fill="#7b1fa2"/><path d="M424.67,138.163a3.428,3.428,0,1,1,3.508-3.426A3.473,3.473,0,0,1,424.67,138.163Zm0-3.6c-.146,0-.256.092-.256.174s.1.172.256.172.254-.091.254-.172S424.815,134.564,424.67,134.564Z" transform="translate(-404.224 -73.721)" fill="#7b1fa2"/><ellipse cx="1.882" cy="1.8" rx="1.882" ry="1.8" transform="translate(35.5 59.216)" fill="#7b1fa2"/><path d="M2.009-1.5A3.473,3.473,0,0,1,5.518,1.927,3.473,3.473,0,0,1,2.009,5.354,3.473,3.473,0,0,1-1.5,1.927,3.473,3.473,0,0,1,2.009-1.5Zm0,3.6c.146,0,.255-.091.255-.173s-.109-.173-.255-.173-.255.091-.255.173S1.863,2.1,2.009,2.1Z" transform="translate(35.373 59.088)" fill="#7b1fa2"/><path d="M443.317,134.611a1.884,1.884,0,1,1-1.883-1.8A1.842,1.842,0,0,1,443.317,134.611Z" transform="translate(-387.115 -73.594)" fill="#7b1fa2"/><path d="M441.561,138.163a3.428,3.428,0,1,1,3.51-3.426A3.471,3.471,0,0,1,441.561,138.163Zm0-3.6c-.145,0-.254.092-.254.174s.1.172.254.172.256-.1.256-.172S441.707,134.564,441.561,134.564Z" transform="translate(-387.242 -73.721)" fill="#7b1fa2"/><path d="M451.763,134.611a1.884,1.884,0,1,1-1.881-1.8A1.841,1.841,0,0,1,451.763,134.611Z" transform="translate(-378.625 -73.594)" fill="#7b1fa2"/><path d="M450.009,138.163a3.428,3.428,0,1,1,3.508-3.426A3.473,3.473,0,0,1,450.009,138.163Zm0-3.6c-.146,0-.256.092-.256.174s.1.172.256.172.254-.1.254-.172S450.154,134.564,450.009,134.564Z" transform="translate(-378.752 -73.721)" fill="#7b1fa2"/></g><g transform="translate(1359.332 4147.203)"><path d="M1572.434,1094v-8.714h-8.783v-6.015h8.783v-8.714h5.855v8.714h8.806v6.015h-8.806V1094Z" transform="translate(-1563.651 -1070.555)" fill="#7b1fa2"/></g><path d="M325.19,447.233a2.816,2.816,0,0,0,.827,2l2.859,2.858-2.859,2.858a2.825,2.825,0,1,0,4,4l2.858-2.858,2.858,2.858a2.825,2.825,0,0,0,4-4l-2.858-2.858,2.858-2.858a2.825,2.825,0,0,0,0-3.995h0a2.825,2.825,0,0,0-4,0l-2.858,2.858-2.858-2.858a2.826,2.826,0,0,0-4,0h0a2.816,2.816,0,0,0-.827,2Z" transform="translate(1054.094 4154.129)" fill="#ffce00"/><g transform="translate(6849.897 12122.992)"><path d="M161.315,79.646c-2.59,0-3.869-2.068-4.9-3.73-1.041-1.682-1.745-2.713-3.072-2.713s-2.03,1.031-3.068,2.713c-1.027,1.662-2.306,3.73-4.9,3.73s-3.869-2.068-4.9-3.73c-1.039-1.682-1.744-2.713-3.069-2.713s-2.029,1.031-3.068,2.713c-1.027,1.662-2.306,3.73-4.9,3.73s-3.868-2.069-4.894-3.731c-1.039-1.681-1.743-2.711-3.067-2.711s-2.027,1.031-3.067,2.711c-1.027,1.663-2.3,3.731-4.894,3.731s-3.867-2.068-4.894-3.731C107.6,74.234,106.9,73.2,105.574,73.2a1.074,1.074,0,1,1,0-2.147c2.588,0,3.867,2.068,4.894,3.73,1.038,1.682,1.743,2.713,3.067,2.713s2.027-1.031,3.067-2.713c1.027-1.662,2.306-3.73,4.894-3.73s3.867,2.068,4.893,3.73c1.039,1.682,1.743,2.713,3.068,2.713s2.029-1.031,3.068-2.713c1.027-1.662,2.306-3.73,4.9-3.73s3.868,2.068,4.9,3.73c1.038,1.682,1.743,2.713,3.069,2.713s2.029-1.031,3.068-2.713c1.026-1.662,2.306-3.73,4.9-3.73s3.87,2.068,4.9,3.73c1.041,1.682,1.745,2.713,3.07,2.713s2.031-1.031,3.072-2.713c1.027-1.662,2.307-3.73,4.9-3.73a1.074,1.074,0,0,1,0,2.147c-1.326,0-2.031,1.031-3.072,2.713C165.185,77.578,163.906,79.646,161.315,79.646Z" transform="translate(-5849.291 -8095.853)" fill="#7b1fa2"/><path d="M161.315,87.309c-2.59,0-3.869-2.069-4.9-3.73-1.041-1.683-1.745-2.714-3.072-2.714s-2.03,1.031-3.068,2.713c-1.027,1.662-2.306,3.731-4.9,3.731s-3.869-2.069-4.9-3.731c-1.039-1.682-1.744-2.713-3.069-2.713s-2.029,1.031-3.068,2.713c-1.027,1.662-2.306,3.731-4.9,3.731s-3.868-2.07-4.894-3.731c-1.039-1.682-1.743-2.713-3.067-2.713s-2.027,1.031-3.067,2.713c-1.027,1.662-2.3,3.731-4.894,3.731s-3.867-2.069-4.894-3.731c-1.039-1.682-1.743-2.713-3.067-2.713a1.074,1.074,0,1,1,0-2.147c2.588,0,3.867,2.069,4.894,3.731,1.038,1.681,1.743,2.711,3.067,2.711s2.027-1.031,3.067-2.711c1.027-1.662,2.306-3.731,4.894-3.731s3.867,2.069,4.893,3.731c1.039,1.681,1.743,2.711,3.068,2.711s2.029-1.031,3.068-2.711c1.027-1.662,2.306-3.731,4.9-3.731s3.868,2.069,4.9,3.731c1.038,1.681,1.743,2.711,3.069,2.711s2.029-1.031,3.068-2.711c1.026-1.662,2.306-3.731,4.9-3.731s3.87,2.069,4.9,3.731c1.041,1.681,1.745,2.711,3.07,2.711s2.031-1.031,3.072-2.711c1.027-1.662,2.307-3.731,4.9-3.731a1.074,1.074,0,0,1,0,2.147c-1.326,0-2.031,1.031-3.072,2.713C165.185,85.24,163.906,87.309,161.315,87.309Z" transform="translate(-5849.291 -8094.157)" fill="#7b1fa2"/><path d="M161.315,94.97c-2.59,0-3.869-2.068-4.9-3.73-1.041-1.682-1.745-2.713-3.072-2.713s-2.03,1.031-3.068,2.713c-1.027,1.662-2.306,3.73-4.9,3.73s-3.869-2.068-4.9-3.73c-1.039-1.682-1.744-2.713-3.069-2.713s-2.029,1.031-3.068,2.713c-1.027,1.662-2.306,3.73-4.9,3.73s-3.868-2.068-4.894-3.73c-1.039-1.682-1.743-2.713-3.067-2.713s-2.027,1.031-3.067,2.713c-1.027,1.662-2.3,3.73-4.894,3.73s-3.867-2.068-4.894-3.73c-1.039-1.682-1.743-2.713-3.067-2.713a1.074,1.074,0,1,1,0-2.147c2.588,0,3.867,2.069,4.894,3.731,1.038,1.681,1.743,2.711,3.067,2.711s2.027-1.031,3.067-2.711c1.027-1.662,2.306-3.731,4.894-3.731s3.867,2.069,4.893,3.73c1.039,1.682,1.743,2.713,3.068,2.713s2.029-1.031,3.068-2.713c1.027-1.661,2.306-3.73,4.9-3.73s3.868,2.069,4.9,3.73c1.038,1.682,1.743,2.713,3.069,2.713s2.029-1.031,3.068-2.713c1.026-1.661,2.306-3.73,4.9-3.73s3.87,2.069,4.9,3.73c1.041,1.682,1.745,2.713,3.07,2.713s2.031-1.031,3.072-2.713c1.027-1.661,2.307-3.73,4.9-3.73a1.074,1.074,0,0,1,0,2.147c-1.326,0-2.031,1.031-3.072,2.713C165.185,92.9,163.906,94.97,161.315,94.97Z" transform="translate(-5849.291 -8092.461)" fill="#7b1fa2"/></g><ellipse cx="135.97" cy="135.97" rx="135.97" ry="135.97" transform="translate(1054.971 4175.925)" fill="#ffce00"/><path d="M1895.662,1049.328c0,84.439-46.867,225.312-155.3,225.312-97.366,0-220.483-64.529-220.483-148.968,0-47.044,28.435-70,76.445-58.859,38.162,8.855,90.384,48.5,138.406,48.5,63.751,0,90.052-80.239,115.834-105.932C1868.631,991.371,1895.662,1014.531,1895.662,1049.328Z" transform="translate(-477.475 3308.985)" fill="#111162"/><g transform="translate(7048 11290)"><g transform="translate(-5924.989 -7219.495)"><g transform="translate(0 175.944)"><g transform="translate(19.484 0)"><path d="M533.312,289.012c-5.025,33.6-3.529,29.49,11.375,96.143,0,0,2.949,20.591,6.2,46.964,3.6,29.2,14.824,67.075-7.36,72.651-15.443,3.88-40.8,6.392-69.325,5.773L471.3,473.029,381.58,458.046a340.492,340.492,0,0,0-3.506,36.617c-.117-.043-.234-.077-.351-.12-19.592-7.012-33.442-15.6-35.335-23.92-3.486-15.335,3.241-52.471,13.365-95.635.186-.428,1.608-5.944,2.041-7.146.277-.748.594-1.636.945-2.658,2.039-5.9,5.33-16.154,8.794-28.571.728-2.624,1.47-5.345,2.2-8.14,1.933-7.318,3.837-15.155,5.542-23.141q.964-4.514,1.833-9.056c.545-2.881,1.059-5.762,1.525-8.631.5-3.021.888-5.685,1.165-7.929.026-.183.043-.363.069-.534.043-.391.091-.777.123-1.145.011-.074.017-.143.023-.208,0,0-.491-.485-1.331-1.379-.114-.123-.237-.257-.36-.4-3.917-4.24-13.476-15.552-16.939-28.037s6.827-33.736,14.384-58.116c.3-.974.6-1.961.894-2.946a178.515,178.515,0,0,0,4.308-17.43c6.158-32.577,4.62-45.448,55.774-54.593l2.218-.2,56.111-5.039s3.1,1.085,7.986,2.775c10.107,3.506,27.849,9.63,41.41,14.153,30.789,10.264,28.722,43.872,15.926,73.693-2.941,6.832-5.742,13.924-8.351,21.045-.357.956-.711,1.913-1.048,2.875C542.26,248.466,535.733,272.8,533.312,289.012Z" transform="translate(-341.458 -109.688)" fill="#171612"/><g transform="translate(27.522 65.444)"><g transform="translate(0)"><path d="M367.292,133.21q-8.073,24.3-16.146,48.594c-.354,1.065,1.325,1.522,1.676.463q8.073-24.3,16.146-48.594c.354-1.065-1.325-1.519-1.676-.462Z" transform="translate(-351.098 -132.61)" fill="#5a554d"/></g></g><g transform="translate(140.841 254.221)"><path d="M425.009,200.329a72.237,72.237,0,0,1-32.277,40.437,1.3,1.3,0,0,1-1.316-2.25,69.491,69.491,0,0,0,31.078-38.881c.505-1.593,3.024-.911,2.515.694Z" transform="translate(-390.788 -198.729)" fill="#5a554d"/></g><g transform="translate(16.221 258.465)"><g transform="translate(0)"><path d="M349.747,201.473c.177,11.617,4.557,23.026,12.939,31.186,1.2,1.173-.642,3.015-1.844,1.844-8.868-8.634-13.516-20.742-13.7-33.031a1.3,1.3,0,0,1,2.607,0Z" transform="translate(-347.14 -200.215)" fill="#5a554d"/></g></g><g transform="translate(47.338 8.153)"><g transform="translate(0)"><path d="M394.1,114c-9.128,8.294-18.724,16.051-27.766,24.443-.057-.451-.117-.9-.174-1.353q11.752,6.535,22.952,14.01a.877.877,0,0,1,.174,1.353L359.5,184.614v-1.219c6.116,5.2,12.525,10.053,18.367,15.569.808.762-.414,1.979-1.219,1.216-5.842-5.513-12.251-10.367-18.367-15.566a.877.877,0,0,1,0-1.219l29.782-32.166.174,1.353q-11.186-7.465-22.952-14.01a.87.87,0,0,1-.174-1.353c9.042-8.391,18.638-16.148,27.766-24.443.819-.745,2.041.471,1.219,1.219Z" transform="translate(-358.038 -112.543)" fill="#5a554d"/></g></g><g transform="translate(28.089 94.031)"><g transform="translate(0)"><path d="M352.446,426.313a1.151,1.151,0,0,0,1.145-1.054c7.569-90.227,37.016-279.409,37.313-281.311a1.149,1.149,0,1,0-2.27-.354c-.3,1.9-29.759,191.164-37.333,281.474a1.149,1.149,0,0,0,1.048,1.242Z" transform="translate(-351.297 -142.622)" fill="#5a554d"/></g></g><g transform="translate(135.845 10.784)"><path d="M390.186,206.259a1.107,1.107,0,0,0,.331-.049l29.562-8.819a1.147,1.147,0,0,0,.737-1.533l-14.493-35.535,28.057-17.639a1.137,1.137,0,0,0,.523-.782,1.152,1.152,0,0,0-.237-.911l-21.79-27.1a1.15,1.15,0,0,0-1.793,1.442l20.982,26.093-27.783,17.462a1.15,1.15,0,0,0-.451,1.408l14.378,35.255-28.348,8.457a1.149,1.149,0,0,0,.326,2.25Z" transform="translate(-389.038 -113.465)" fill="#5a554d"/></g><g transform="translate(133.579 101.279)"><path d="M395.115,433.893a1.286,1.286,0,0,0,1.031-.537,1.149,1.149,0,0,0-.234-1.607l-.063-.046c-1.653-6.09-3.717-65.017-4.754-136.391-.882-60.888-.971-136.38,1.687-148.76a1.149,1.149,0,1,0-2.247-.482c-2.738,12.751-2.627,89.776-1.7,151.863.511,34.241,1.316,68.046,2.21,92.745,1.525,42.178,2.555,42.65,3.555,43.1A1.22,1.22,0,0,0,395.115,433.893Z" transform="translate(-388.244 -145.161)" fill="#5a554d"/></g><g transform="translate(1.01 353.804)"><g transform="translate(0)"><path d="M376.082,259.716a1.15,1.15,0,0,0,.154-2.29c-16.111-2.167-32.2-23.152-32.36-23.363a1.148,1.148,0,1,0-1.83,1.388c.679.9,16.819,21.959,33.881,24.254A.933.933,0,0,0,376.082,259.716Z" transform="translate(-341.812 -233.608)" fill="#5a554d"/></g></g><g transform="translate(133.782 377.613)"><path d="M414.6,255.409c15.552,0,35.754-2.213,53.2-11.295a1.149,1.149,0,0,0-1.062-2.039c-33.125,17.248-76.614,9.162-77.048,9.076a1.15,1.15,0,1,0-.437,2.258A151.2,151.2,0,0,0,414.6,255.409Z" transform="translate(-388.316 -241.947)" fill="#5a554d"/></g><g transform="translate(40.122 0.003)"><path d="M476.99,112.464c-3.957,4.722-10,16.431-16.5,36.737-.243.737-.48,1.493-.714,2.256-2.647,8.471-5.356,18.367-8.026,29.793q-.248,1.054-.488,2.124-2.09,9.105-4.123,19.483c-.348,1.8-.679,3.826-.985,6.064-.083.6-.166,1.211-.243,1.841-1.356,10.752-2.278,25.85-2.864,43.646-.017.582-.034,1.173-.051,1.764-.237,7.5-.42,15.469-.545,23.777-.011.685-.017,1.376-.029,2.067-.26,18.455-.271,38.53-.117,58.935.006.648.011,1.3.017,1.953.066,7.889.154,15.82.266,23.717.006.54.011,1.076.023,1.607.106,7.629.237,15.215.385,22.707.011.614.023,1.222.034,1.836q.141,7.478.308,14.787c.017.654.029,1.3.046,1.959.32,14.024.685,27.466,1.062,39.855.026.631.043,1.265.06,1.89.243,7.723.491,15.015.731,21.762a311.466,311.466,0,0,1-64.545-8.083q-12.724-2.929-25.179-6.9c.548-5.119,1.133-10.575,1.759-16.3v-.006c.088-.845.183-1.687.271-2.544,1.365-12.511,2.875-26.25,4.494-40.617.089-.8.183-1.593.271-2.4,1.445-12.859,2.975-26.193,4.551-39.578V356.6c.137-1.168.271-2.344.414-3.512v-.006c1.493-12.691,3.029-25.39,4.562-37.759.071-.585.149-1.171.22-1.753,1.553-12.477,3.112-24.585,4.645-35.963.1-.722.191-1.436.291-2.15,1.979-14.612,3.9-27.957,5.71-39.235.123-.765.246-1.527.365-2.278.083-.477.16-.951.234-1.416,2.05-12.434,4.14-23.783,6.218-34.127.117-.568.231-1.133.348-1.7,3.632-17.842,7.238-32.625,10.609-44.765.149-.537.3-1.074.448-1.6a319.156,319.156,0,0,1,11.969-35.615L469,109.689S472.1,110.768,476.99,112.464Z" transform="translate(-355.511 -109.689)" fill="#f6f6f6"/></g><g transform="translate(41.88 39.515)"><g transform="translate(43.206)"><path d="M431.271,123.528c-.243.737-.48,1.493-.714,2.256-12.854,5.49-27.155,8.04-40.965,6.358a50.345,50.345,0,0,1-18.333-5.876c.148-.537.3-1.074.448-1.6,14.944,8.6,34.375,7.369,50.3,2.373A85.27,85.27,0,0,0,431.271,123.528Z" transform="translate(-371.26 -123.528)" fill="#dbccc1"/></g><g transform="translate(32.248 32.049)"><path d="M429.652,134.753q-.248,1.054-.488,2.124c-17.553,7.175-36.306,12.654-55.1,14.65-2.158.223-4.385.36-6.641.377.117-.568.231-1.134.348-1.7a107.076,107.076,0,0,0,15.823-1.881,229.93,229.93,0,0,0,29.316-7.429Q421.4,138.152,429.652,134.753Z" transform="translate(-367.422 -134.753)" fill="#dbccc1"/></g><g transform="translate(25.43 59.72)"><path d="M428.486,144.445c-.083.6-.166,1.211-.243,1.842a232.424,232.424,0,0,0-63.209,25.459c.123-.765.246-1.527.365-2.278A234.879,234.879,0,0,1,428.486,144.445Z" transform="translate(-365.034 -144.445)" fill="#dbccc1"/></g><g transform="translate(19.429 105.208)"><path d="M429.279,160.377c-.017.582-.034,1.173-.052,1.764a232.5,232.5,0,0,0-66.3,21.433c.1-.722.191-1.436.291-2.15A234.932,234.932,0,0,1,429.279,160.377Z" transform="translate(-362.932 -160.377)" fill="#dbccc1"/></g><g transform="translate(41.822 130.75)"><path d="M377.693,209.748c-2.615,5.025-6.5,11.837-5.1,17.69,1.6,6.67,9.4,7.78,15.152,8.051a56.285,56.285,0,0,0,26.238-5.165l.017,1.953c-9.95,4.465-21.268,6.35-31.914,4.388-27.732-5.108,3.024-43.283,12.754-52.7a101.622,101.622,0,0,1,19.289-14.641c-.011.685-.017,1.376-.029,2.067A98.112,98.112,0,0,0,377.693,209.748Z" transform="translate(-370.775 -169.323)" fill="#dbccc1"/></g><g transform="translate(9.587 164.369)"><path d="M374.706,201.306c-3.075,6.2-7.538,11.874-11.489,17.53q-1.85,2.66-3.732,5.291c.137-1.168.271-2.344.414-3.512v-.006q5.315-7.546,10.361-15.258c3.306-5.042,7.423-12.274,3.223-18.021-2.078-2.844-5.55-4.137-9.022-4.48.071-.585.148-1.171.22-1.753.366.04.737.089,1.111.146,3.789.6,7.526,2.4,9.593,5.753C378.16,191.493,376.91,196.867,374.706,201.306Z" transform="translate(-359.485 -181.098)" fill="#dbccc1"/></g><g transform="translate(4.765 217.422)"><path d="M438.37,201.287c-24.331,3.383-48.254,10.475-69.462,23.061-3.809,2.261-7.523,4.688-11.112,7.286.089-.8.183-1.593.271-2.4,23.7-16.674,51.52-25.536,80.28-29.559C438.353,200.22,438.358,200.756,438.37,201.287Z" transform="translate(-357.796 -199.68)" fill="#dbccc1"/></g><g transform="translate(0 241.736)"><path d="M441.886,210.032q-1.782.638-3.555,1.3a289.189,289.189,0,0,0-82.2,47.66c.088-.845.183-1.687.271-2.544A291.526,291.526,0,0,1,441.851,208.2C441.863,208.81,441.874,209.418,441.886,210.032Z" transform="translate(-356.127 -208.196)" fill="#dbccc1"/></g><g transform="translate(42.948 258.359)"><path d="M415.456,257.721a142.258,142.258,0,0,1-17.011,5.525c-5.071,1.3-10.45,2.775-15.734,2.675-3.709-.071-7.94-.962-10.167-4.24-2.935-4.32-.642-9.47,1.967-13.319,9.87-14.561,23.994-26.333,39.777-34.344.017.654.029,1.3.046,1.959a108.132,108.132,0,0,0-15.48,9.773,105.631,105.631,0,0,0-22.247,22.7c-3.326,4.671-6.164,12.14.925,14.849,4.294,1.636,9.2.708,13.545-.177a141.445,141.445,0,0,0,24.32-7.292C415.422,256.462,415.439,257.1,415.456,257.721Z" transform="translate(-371.17 -214.018)" fill="#dbccc1"/></g></g><g transform="translate(173.896 59.283)"><g transform="translate(0)"><path d="M403.717,285.128a794.953,794.953,0,0,1,24.694,143.686,1.7,1.7,0,0,0,1.693,1.565,1.079,1.079,0,0,0,.137-.006,1.7,1.7,0,0,0,1.562-1.839,798.605,798.605,0,0,0-24.791-144.292c-1.351-5-1.545-12.1-.914-20.508.211-2.852.522-5.862.919-8.988.34-2.7.74-5.5,1.2-8.365.146-.931.3-1.867.457-2.815,7.806-46.6,28.642-110,28.925-110.872a1.7,1.7,0,1,0-3.235-1.068c-1.176,3.566-21.627,65.807-29.2,112.151-.163.948-.308,1.884-.451,2.815-.654,4.211-1.182,8.271-1.579,12.128-.405,4-.662,7.777-.739,11.269A55.487,55.487,0,0,0,403.717,285.128Z" transform="translate(-402.366 -130.452)" fill="#5a554d"/></g></g></g><g transform="translate(0 20.702)"><g transform="translate(0)"><g transform="translate(0)"><path d="M523.4,244.745c-1.508.562-37.31,13.95-75.252,25.2-22.815,6.761-41.719,11.343-56.2,13.622a129.411,129.411,0,0,1-19.734,1.779q-2.518,0-4.814-.157a43.876,43.876,0,0,1-14.941-3.472q-1.34-.591-2.538-1.251a29.256,29.256,0,0,1-10.967-10.256c-3.7-5.944-4.817-12.437-4.137-19.623.051-.631.126-1.273.214-1.916.985-7.232,3.654-15.146,7.258-23.877,4.56-11.041,11.455-25.154,20.5-41.933,15.058-27.949,30.878-53.747,31.546-54.83,2.264-3.692,9.582-9.2,13.145-11.095-4.451,13.95-10.375,30.827-14.387,44.939-3.226,11.34-7.774,21.964-9.744,33.593-1.493,8.857-4.56,18.815-2.912,27.757,1,5.462,3.794,10.173,8.805,11.295-.331.719-.654,1.428-.956,2.1,11.392-2.044,29.282-6.27,56.911-14.827,32.443-10.044,61.442-20.891,61.73-21A23.464,23.464,0,0,1,523.4,244.745Z" transform="translate(-334.634 -116.939)" fill="#171612"/></g><g transform="translate(0 133.65)"><path d="M349.926,193.629a29.257,29.257,0,0,1-10.966-10.256c-3.7-5.944-4.817-12.437-4.137-19.623C343.142,170.24,352.307,180.592,349.926,193.629Z" transform="translate(-334.634 -163.75)" fill="#5a554d"/></g><g transform="translate(46.906 138.047)"><path d="M351.063,165.29Z" transform="translate(-351.063 -165.29)" fill="#171612"/></g></g><g transform="translate(52.724 4.165)"><path d="M560.122,238.233c-.048-3.246-.163-6.338-.32-9.388-.311-6.07-.777-11.929-1.3-17.727-1.068-11.58-2.4-22.9-3.86-34.176q-1.1-8.445-2.3-16.859l-1.228-8.417-1.3-8.528c-.06-.371-.14-.854-.214-1.231a29.152,29.152,0,0,0-57.2,11.286l.066.32,1.553,7.886,1.516,8.006q1.495,8.013,2.892,16.037c1.853,10.684,3.575,21.359,4.988,31.846.66,4.908,1.256,9.779,1.722,14.478-3.635-.248-7.395-.6-11.178-1-5.2-.557-10.475-1.216-15.78-1.941-10.621-1.453-21.35-3.163-32.1-4.994s-21.516-3.812-32.283-5.879q-8.073-1.559-16.134-3.175l-8.054-1.647-7.96-1.662-.317-.069a23.468,23.468,0,0,0-10.533,45.727l8.266,2.1,8.194,2.033q8.184,2.017,16.394,3.957,16.424,3.884,32.982,7.466c11.061,2.375,22.184,4.642,33.493,6.681,5.656,1.019,11.36,1.987,17.173,2.855s11.72,1.659,17.947,2.244c3.129.283,6.327.525,9.767.648,1.722.063,3.5.091,5.408.069s3.92-.1,6.25-.317c1.171-.111,2.4-.257,3.806-.488.557-.091,1.131-.2,1.744-.317.934-.186,1.941-.423,3.072-.737a36.11,36.11,0,0,0,7.038-2.747,31.738,31.738,0,0,0,5.145-3.338,30.021,30.021,0,0,0,6.227-6.721,29.326,29.326,0,0,0,2.758-5.113q.394-.951.742-1.924l.337-.974.237-.765c.151-.5.294-1.014.428-1.522l.1-.377.074-.314.146-.62.154-.714.117-.537c.151-.748.266-1.428.388-2.144.411-2.647.585-4.745.725-6.744C560.151,244.848,560.168,241.482,560.122,238.233Z" transform="translate(-353.101 -118.398)" fill="#171612"/></g><g transform="translate(231.843 143.957)"><path d="M442.3,167.36l-.154.714-.145.62-.074.314-.1.377c-.134.508-.277,1.019-.428,1.522l-.237.765-.337.974q-.347.972-.742,1.924a29.326,29.326,0,0,1-2.758,5.113,30.023,30.023,0,0,1-6.227,6.721,31.747,31.747,0,0,1-5.145,3.338,36.111,36.111,0,0,1-7.038,2.747c-1.131.314-2.139.551-3.072.737C417.4,178.421,432.117,170.855,442.3,167.36Z" transform="translate(-415.837 -167.36)" fill="#5a554d"/></g><g transform="translate(15.113 72.098)"><path d="M394.672,178.75c2.341-4.625,1.95-9.2,1.622-14.047-2.764-2.51-5.271-4.608-6.473-5.807-3.34-3.335-9.45-7.378-15.988-11.372s-10.924-4.186-16.842-5.133-15.5,1.622-12.951,4.854c2.5,3.163,10.7.571,16.765,3.495a54.8,54.8,0,0,1,9.285,5.459c-4.848-1.422-9.259-3.178-19.415-1.113s-12.482,7.637-9.6,8.511,5.687,1.248,12.922-.417,15.4,1.767,15.4,1.767c-4.4-.911-20.017.023-24.208,4.157s-.208,7.044,5.085,5.639,19.052.614,19.052.614a94.707,94.707,0,0,0-12.911,2.241c-.822.231-7.095,2.949-1.29,5.493,3.934,1.727,13.822.8,21.927,1.924A29.527,29.527,0,0,1,385.622,188,22.625,22.625,0,0,0,394.672,178.75Z" transform="translate(-339.928 -142.191)" fill="#b1614f"/><g transform="translate(36.889 2.18)"><path d="M372.254,162.181c-2.136-4.071-5.684-10.287-8.308-12.1-4-2.767-8.568-9.068-10.649-6.541s3.749,10.127,3.749,10.127L372.42,164.66C372.366,163.84,372.306,163.015,372.254,162.181Z" transform="translate(-352.848 -142.955)" fill="#b1614f"/></g></g><g transform="translate(39.03 118.75)"><g transform="translate(0)"><path d="M360.734,158.819c-5.216,4.705-9.422,9.587-12.325,16.04-.56,1.248,1.285,2.335,1.85,1.079,2.821-6.273,6.918-11.032,11.989-15.606,1.025-.925-.491-2.435-1.513-1.513Z" transform="translate(-348.304 -158.531)" fill="#5a554d"/></g></g><g transform="translate(129.63 124.066)"><g transform="translate(0)"><path d="M381.661,187.97a403.582,403.582,0,0,1,63.857-25.462,1.072,1.072,0,0,0-.571-2.064,407.016,407.016,0,0,0-64.368,25.676c-1.231.62-.148,2.467,1.082,1.85Z" transform="translate(-380.037 -160.393)" fill="#5a554d"/></g></g><g transform="translate(208.215 129.82)"><g transform="translate(0)"><path d="M408.091,164.4a29.133,29.133,0,0,1,11.215,10.9,1.07,1.07,0,0,0,1.847-1.079A31.237,31.237,0,0,0,409.17,162.55c-1.208-.665-2.29,1.185-1.079,1.847Z" transform="translate(-407.562 -162.408)" fill="#5a554d"/></g></g><g transform="translate(74.831 103.745)"><g transform="translate(0)"><path d="M362.141,165.479a300.392,300.392,0,0,1,34.207-10.107c1.342-.311.774-2.378-.568-2.064a300.049,300.049,0,0,0-34.207,10.107c-1.285.465-.731,2.535.568,2.064Z" transform="translate(-360.844 -153.276)" fill="#5a554d"/></g></g><g transform="translate(166.253 75.329)"><g transform="translate(0 5.954)"><path d="M392.9,167.121c.554,8.614,8.308,14.844,16.934,14.581,4.548-.137,9.553.128,13.348,1.448,9.1,3.163,18.984,9.428,24.031,9.725,7.452.44,2.33-5.77,1.59-6.453a111.843,111.843,0,0,0-12.34-9.268s15.509,5.253,20.311,9.565,10.538,3.389,8.357-3.195S447.065,167.6,441.963,166.2c0,0,10.4.774,17.1,6.4s9.847,6.735,13.331,7.36,4.031-6.47-5.516-14.076-15.115-8.126-20.962-9.233a64.835,64.835,0,0,1,12.665-.751c7.929.183,15.146,7.295,19.458,5.316,4.408-2.027-4.271-9.853-10.986-12.029s-11.418-4.328-20.414-3.64S429.06,147.2,423.773,148.9s-24.894,5.3-29.513,11.843A9.9,9.9,0,0,0,392.9,167.121Z" transform="translate(-392.864 -145.408)" fill="#b1614f"/></g><g transform="translate(17.749)"><path d="M399.081,157.153s13.439-10.361,19.121-11.121,13.844-4.922,14.672-1.153-9.353,8.614-9.353,8.614Z" transform="translate(-399.081 -143.323)" fill="#b1614f"/></g></g></g></g><g transform="translate(82.725)"><g transform="translate(0)"><g transform="translate(77.734)"><path d="M390.978,91.209s-4.343-39.54,34.872-43.015c31.4-2.784,46.906,39.683,26.632,75.692s2.784,55.772,25.442,44.1c0,0-8.445,21.319-40.394,12.974S390.978,91.209,390.978,91.209Z" transform="translate(-390.835 -48.063)" fill="#171612"/></g><g transform="translate(0 22.58)"><path d="M482.679,145.565c-4.58,9.2-11.695,16.982-19.766,23.312-23.986,18.812-44.463,32.171-72.28,18.344-8.4-4.36-14.4-14.821-14.558-15.109-4.28-7.772-7.164-23.241-7.518-36.628-.348-13.219,1.408-8.654-3.854-28.057-7.991-29.479,30.387-44.114,30.387-44.114,13.964-8.68,53.519-15.124,80.017,13.8,16.311,17.8,19.957,37.77,8.748,64.117A22.486,22.486,0,0,0,482.679,145.565Z" transform="translate(-363.609 -55.972)" fill="#171612"/></g><g transform="translate(80.963 24.581)"><path d="M392.72,58.786a60.95,60.95,0,0,1,41.656,42.11,1.071,1.071,0,0,0,2.064-.568,63.159,63.159,0,0,0-43.152-43.609,1.073,1.073,0,0,0-.568,2.067Z" transform="translate(-391.966 -56.673)" fill="#e59f3f"/></g><g transform="translate(91.671 10.711)"><g transform="translate(11.735 10.146)"><path d="M401.964,71.318C405,63.241,412.868,57,421.818,57.785c1.81.16,3.84.845,3.132,3.2-.286.945-1.953,2.318-2.715,2.992a26.375,26.375,0,0,1-5.873,3.894A27.69,27.69,0,0,1,402.1,70.516c-1.376-.1-1.368,2.041,0,2.141a29.52,29.52,0,0,0,18.761-4.922c2.844-1.936,9.765-7.383,5.068-10.938-3.886-2.944-11.338-.737-15.172,1.236A23.08,23.08,0,0,0,399.9,70.747c-.485,1.293,1.585,1.85,2.064.571Z" transform="translate(-399.826 -55.369)" fill="#e59f3f"/></g><g transform="translate(0)"><path d="M408.461,77.885c1.545-6.059,3.186-12.691,1.222-18.858-1.288-4.043-4.808-8.191-9.527-7.006-4.454,1.119-5.171,6.23-3.837,9.97,1.953,5.476,6.073,10.375,10.3,14.256,1.014.931,2.532-.58,1.516-1.516-3.312-3.035-16.463-17.913-7.232-20.151,2.181-.528,3.366-.131,4.871,1.573a8.165,8.165,0,0,1,1.49,2.558,17.4,17.4,0,0,1,1.156,6.418c.026,4.143-1.011,8.2-2.024,12.188a1.071,1.071,0,0,0,2.064.568Z" transform="translate(-395.716 -51.815)" fill="#e59f3f"/></g></g><g transform="translate(7.947 98.745)"><path d="M373.33,82.649s-5.61.454-6.732,7.6,2.4,19.112,9.65,17.69S373.33,82.649,373.33,82.649Z" transform="translate(-366.392 -82.649)" fill="#632829"/></g><g transform="translate(5.303 116.459)"><g transform="translate(0)"><path d="M375.736,108.582a9.868,9.868,0,1,1,9.459-10.261A9.877,9.877,0,0,1,375.736,108.582Zm-.685-16.839a6.985,6.985,0,1,0,7.26,6.7A6.995,6.995,0,0,0,375.051,91.742Z" transform="translate(-365.466 -88.853)" fill="#e59f3f"/></g></g><g transform="translate(26.645 125.772)"><g transform="translate(7.708 28.658)"><g transform="translate(0)"><line y2="0.006" fill="#b1614f"/></g></g><g transform="translate(6.433)"><path d="M437.084,145a52.874,52.874,0,0,1-32.28,17.251c-26.632,3.706-29.61-7.78-29.61-7.78a50.284,50.284,0,0,0,2.173-11.015c.126-1.453.2-2.946.231-4.491a122.05,122.05,0,0,0-.705-14.147c-.12-1.248-.257-2.544-.408-3.877l-.014-.157c18.453-4.274,33.573-12.377,43.963-25.924l2.772-1.636,1.867-1.108.34,1.076-.371,3.423C423.26,112.712,428.587,131,437.084,145Z" transform="translate(-375.194 -92.115)" fill="#b1614f"/></g><g transform="translate(0 50.572)"><path d="M439.928,110.345Q431.4,125,421.5,138.8c-6.293,8.737-13.142,18.944-21.893,25.436-4.859,3.6-11.366,6.29-17.328,3.792-6.255-2.621-7.015-9.67-7.078-15.609-.134-12.708,1.065-25.682,6.281-37.411.554-1.248-1.29-2.338-1.85-1.082-4.334,9.747-6.044,20.257-6.464,30.861-.317,8.023-1.39,19.712,6.752,24.483,7.6,4.454,16.848.328,22.889-4.848,7.229-6.2,13.122-14.435,18.735-22.067a345.115,345.115,0,0,0,20.231-30.927,1.071,1.071,0,0,0-1.847-1.082Z" transform="translate(-372.941 -109.828)" fill="#1e1d12"/></g></g><g transform="translate(34.368 142.62)"><path d="M406.755,98.016c-3.94,8.777-13.048,24.291-30,30a122.05,122.05,0,0,0-.705-14.147c-.12-1.248-.257-2.544-.408-3.877.363.046.737.077,1.108.1C386.792,110.81,397.727,105.688,406.755,98.016Z" transform="translate(-375.646 -98.016)" fill="#171612"/></g><g transform="translate(7.9 44.109)"><path d="M463.976,118.734c.579,9.993-7.166,22.721-20.214,23.84l-.069.009h-.006l-.277.026c-.174.585-.388,1.165-.608,1.756-.094.254-.194.514-.3.768a.324.324,0,0,1-.031.071c-7.152,17.448-30.758,28.842-43.817,29.959a29.9,29.9,0,0,1-8.885-.631c-14.041-2.2-17.727-20.791-16.385-35.238a54.819,54.819,0,0,1,.891-5.961l.083-.383s-5.813-19.763-7.412-28.437c-3.083-16.817,5.63-34.59,42.578-40.137s47.195,16.991,50.515,29.071c.56,2.01.854,14.176-1.062,16.251C462.605,111.288,463.781,115.377,463.976,118.734Z" transform="translate(-366.376 -63.513)" fill="#b1614f"/></g><g transform="translate(27.026 123.22)"><g transform="translate(0)"><path d="M380.477,100.34a10.473,10.473,0,0,0,1.371-.323c4.608-1.393,7.078-6.447,7.181-6.661a1.49,1.49,0,0,0-2.687-1.291c-.029.06-2.024,4.091-5.356,5.1-3.449,1.045-5.268-.765-5.345-.842a1.5,1.5,0,0,0-2.1-.046,1.477,1.477,0,0,0-.074,2.081A7.9,7.9,0,0,0,380.477,100.34Z" transform="translate(-373.074 -91.221)" fill="#632829"/></g></g><g transform="translate(35.042 134.832)"><g transform="translate(0)"><path d="M379.6,98.928a5.56,5.56,0,0,0,2.975-2.216.937.937,0,0,0-1.6-.976,3.805,3.805,0,0,1-3.986,1.476.938.938,0,0,0-.346,1.844A6.117,6.117,0,0,0,379.6,98.928Z" transform="translate(-375.882 -95.288)" fill="#632829"/></g></g><g transform="translate(17.071 100.24)"><g transform="translate(5.705 0.477)"><path d="M371.671,88.112c.348,2.447,1.659,4.286,2.932,4.106s2.019-2.313,1.67-4.762-1.659-4.285-2.932-4.1S371.323,85.665,371.671,88.112Z" transform="translate(-371.586 -83.34)" fill="#171612"/></g><g transform="translate(0)"><path d="M381.137,85.989a.637.637,0,0,0,.305-.266.654.654,0,0,0-.223-.9c-.26-.157-6.4-3.777-11.389.214a.655.655,0,0,0,.819,1.022c4.283-3.429,9.839-.148,9.893-.117A.647.647,0,0,0,381.137,85.989Z" transform="translate(-369.588 -83.173)" fill="#171612"/></g></g><g transform="translate(39.697 97.531)"><g transform="translate(4.465 0.514)"><path d="M379.161,87.176c.348,2.447,1.662,4.286,2.932,4.106s2.021-2.313,1.673-4.762-1.662-4.286-2.935-4.1S378.813,84.729,379.161,87.176Z" transform="translate(-379.076 -82.404)" fill="#171612"/></g><g transform="translate(0)"><path d="M388.92,85.842a.656.656,0,0,0,.228-1.145c-.237-.188-5.867-4.557-11.323-1.225a.654.654,0,0,0,.682,1.116c4.685-2.861,9.779,1.094,9.83,1.136A.657.657,0,0,0,388.92,85.842Z" transform="translate(-377.512 -82.224)" fill="#171612"/></g></g><g transform="translate(81.957 113.366)"><g transform="translate(0)"><path d="M402.892,87.77a1.961,1.961,0,0,0,.117,2.912,6.992,6.992,0,1,1-5.23,1.522l-.137-3.343a9.855,9.855,0,1,0,5.251-1.091Z" transform="translate(-392.314 -87.77)" fill="#e59f3f"/></g></g><g transform="translate(5.274 41.287)"><path d="M460.683,111.534a21.994,21.994,0,0,0-2.986.528c-6.221,1.553-9.916,5.593-12.762,9.573-.488-3.4-3.96-19-26.661-21.793-.325-.04-.671-.077-1.036-.108a19.389,19.389,0,0,1-2.4-9.776c2.364-9.216-42.17-4.988-43.809,9.176-.688,5.933-1.062,9.8-1.268,12.311v.006a24.137,24.137,0,0,0-.2,4.611s-3.971,4.049-4.1-15.483c-.037-6.347,2.45-12.211,6.778-17.353,8.991-10.7,25.924-18.258,44.588-20.451,27.632-3.246,47.44,25.959,48.651,36.554S460.683,111.534,460.683,111.534Z" transform="translate(-365.456 -62.524)" fill="#171612"/></g><g transform="translate(14.911 113.929)" opacity="0.5"><g transform="translate(0)"><path d="M376.263,90.619c.06,1.485-3.132,2.852-7.432,3.309a54.8,54.8,0,0,1,.891-5.961C373.471,88.224,376.211,89.263,376.263,90.619Z" transform="translate(-368.831 -87.967)" fill="#632829"/></g></g><g transform="translate(37.134 82.72)"><g transform="translate(0)"><path d="M381.024,84.816a2.753,2.753,0,0,1-3.952-3.689,7.992,7.992,0,0,1,4.562-3.255,19.965,19.965,0,0,1,17.488,3.169s-10.607.011-15.432,2.221A15.565,15.565,0,0,0,381.024,84.816Z" transform="translate(-376.615 -77.036)" fill="#171612"/></g></g><g transform="translate(8.861 86.383)"><g transform="translate(0)"><path d="M381.844,84.974a2.754,2.754,0,0,0,2.984-4.508,7.988,7.988,0,0,0-5.193-2.1c-10.367-.64-12.922,6.19-12.922,6.19s6.969-1.5,12.174-.468A15.354,15.354,0,0,1,381.844,84.974Z" transform="translate(-366.712 -78.319)" fill="#171612"/></g></g><g transform="translate(45.434 111.958)" opacity="0.5"><g transform="translate(0)"><path d="M379.523,90.749c.068,1.693,4.343,2.9,9.55,2.69s9.368-1.756,9.3-3.449-4.345-2.9-9.55-2.689S379.454,89.053,379.523,90.749Z" transform="translate(-379.522 -87.277)" fill="#632829"/></g></g><g transform="translate(75.764 119.252)"><g transform="translate(0)"><path d="M399.667,93.75l-.069.009h-.006l-.277.026c-.177.588-.388,1.165-.611,1.756-.094.254-.194.514-.294.771a.4.4,0,0,1-.034.069,11.983,11.983,0,0,1-5.162-1.7,9.553,9.553,0,0,1-2.832-2.732,1.352,1.352,0,0,1,2.233-1.525,7.265,7.265,0,0,0,3.378,2.627,9.857,9.857,0,0,0,2.4.6A11.455,11.455,0,0,0,399.667,93.75Z" transform="translate(-390.145 -89.831)" fill="#632829"/></g></g><g transform="translate(81.948 97.435)"><g transform="translate(0)"><path d="M393.958,100.2A1.348,1.348,0,0,0,395,99.061c1.253-9.5,12.231-14.227,12.343-14.273A1.351,1.351,0,0,0,406.3,82.3c-.511.211-12.522,5.353-13.979,16.414a1.35,1.35,0,0,0,1.165,1.513A1.3,1.3,0,0,0,393.958,100.2Z" transform="translate(-392.311 -82.19)" fill="#632829"/></g></g><g transform="translate(86.236 103.825)"><g transform="translate(0)"><path d="M402.593,90.121a1.315,1.315,0,0,0,.477-.211,1.35,1.35,0,0,0,.337-1.879,9.274,9.274,0,0,0-8.377-3.552,1.351,1.351,0,0,0,.268,2.69,6.564,6.564,0,0,1,5.89,2.4A1.349,1.349,0,0,0,402.593,90.121Z" transform="translate(-393.813 -84.428)" fill="#632829"/></g></g></g><g transform="translate(71.434 80.076)"><g transform="translate(0)"><path d="M411.751,136.344c-7.415,5.359-14.961,8.149-23.006.937-.734-11.743,2.073-25.1,6.1-32.782,6.61-12.625-4.528-28.388-4.528-28.388,7.169,3.055,15.143,3.052,19.335,11.52C402.421,95.8,406.643,118.22,411.751,136.344Z" transform="translate(-388.628 -76.11)" fill="#171612"/></g></g><g transform="translate(4.223 88.387)"><g transform="translate(30.867)"><path d="M389,106.142A13.564,13.564,0,1,0,375.908,92.12,13.58,13.58,0,0,0,389,106.142ZM377.795,92.169a7.4,7.4,0,0,1,.123-1.271,11.178,11.178,0,0,1,.754-2.807,11.354,11.354,0,0,1,2.4-3.643,11.765,11.765,0,0,1,5.867-3.289,12.771,12.771,0,0,1,2.915-.243,11.66,11.66,0,0,1,11.275,12.06,9.151,9.151,0,0,1-.1,1.171,11.845,11.845,0,0,1-8.948,9.836,12.365,12.365,0,0,1-3.038.271A11.665,11.665,0,0,1,377.795,92.169Z" transform="translate(-375.899 -79.021)" fill="#fff"/></g><g transform="translate(0 3.149)"><path d="M378.188,107.242A13.563,13.563,0,1,0,365.1,93.223,13.58,13.58,0,0,0,378.188,107.242ZM366.981,93.269A7.327,7.327,0,0,1,367.1,92a11.157,11.157,0,0,1,.754-2.809,11.355,11.355,0,0,1,2.4-3.643,11.76,11.76,0,0,1,5.867-3.286,12.613,12.613,0,0,1,2.915-.243,11.657,11.657,0,0,1,11.275,12.06,9.1,9.1,0,0,1-.1,1.168,11.54,11.54,0,0,1-6.213,8.808,11.789,11.789,0,0,1-2.735,1.028,12.364,12.364,0,0,1-3.038.271A11.665,11.665,0,0,1,366.981,93.269Z" transform="translate(-365.088 -80.124)" fill="#fff"/></g><g transform="translate(55.563 3.434)"><path d="M385.711,87.165a1.124,1.124,0,0,0,.56-.177,27.968,27.968,0,0,1,17.253-4.428,1.115,1.115,0,1,0,.305-2.21,29.788,29.788,0,0,0-18.769,4.765,1.114,1.114,0,0,0,.651,2.05Z" transform="translate(-384.549 -80.224)" fill="#fff"/></g><g transform="translate(0.137 15.84)"><g transform="translate(0)"><path d="M366.3,88.489a1.137,1.137,0,0,0,.471-.126,15.324,15.324,0,0,1,7.872-1.488,1.094,1.094,0,0,0,1.239-.976,1.116,1.116,0,0,0-.976-1.239,17.509,17.509,0,0,0-9.174,1.727,1.115,1.115,0,0,0,.568,2.1Z" transform="translate(-365.136 -84.569)" fill="#fff"/></g></g><g transform="translate(21.166 12.95)"><g transform="translate(0)"><path d="M379.007,101.179a1.146,1.146,0,0,1-.622-.117l-5.265-2.684a1.133,1.133,0,0,1-.117-1.95c3.874-2.6,6.084-6.387,6.955-11.914a1.133,1.133,0,0,1,2.238.351c-.859,5.456-2.915,9.419-6.421,12.323l3.64,1.853a1.134,1.134,0,0,1-.408,2.138Z" transform="translate(-372.501 -83.557)" fill="#632829"/></g></g><g transform="translate(25.378 12.63)"><g transform="translate(0)"><path d="M375.137,86.878a1.119,1.119,0,0,0,.734-.317,3.168,3.168,0,0,1,3.734-.5,1.117,1.117,0,0,0,1.091-1.95,5.442,5.442,0,0,0-6.381.854,1.118,1.118,0,0,0-.023,1.579A1.131,1.131,0,0,0,375.137,86.878Z" transform="translate(-373.977 -83.444)" fill="#fff"/></g></g></g></g></g><g transform="translate(-6015.895 -7138.924)"><g transform="translate(0 11.273)"><path d="M0,0H166.242a0,0,0,0,1,0,0V81.464a11.729,11.729,0,0,1-11.729,11.729H11.729A11.729,11.729,0,0,1,0,81.464V0A0,0,0,0,1,0,0Z" fill="#fff"/></g><g transform="translate(96.113 25.815)"><g transform="translate(0 4.786)"><path d="M198.384,148.93a29.223,29.223,0,1,0,56.182-11.295l-26.96,11.295,1.383-29.185c-.452-.028-.918-.036-1.383-.036A29.222,29.222,0,0,0,198.384,148.93Z" transform="translate(-198.384 -119.709)" fill="#1c2b74"/></g><g transform="translate(32.129)"><g transform="translate(0)"><path d="M199.288,116.121a29.257,29.257,0,0,1,25.573,17.892L197.9,145.306Z" transform="translate(-197.902 -116.121)" fill="#5880eb"/></g></g></g><g transform="translate(8.637 32.547)"><g transform="translate(0 7.152)"><g transform="translate(17.128)"><g transform="translate(0)"><rect width="4.013" height="4.013" fill="#314fa5"/></g></g><g transform="translate(0 1.504)"><rect width="14.465" height="1.005" rx="0.033" fill="#c8baae"/></g></g><g transform="translate(17.128)"><g transform="translate(0)"><rect width="4.013" height="4.013" fill="#5880eb"/></g></g><g transform="translate(0 1.504)"><rect width="14.465" height="1.005" rx="0.033" fill="#c8baae"/></g><g transform="translate(0 14.301)"><g transform="translate(17.128)"><g transform="translate(0)"><rect width="4.013" height="4.013" fill="#1c2b74"/></g></g><g transform="translate(0 1.504)"><rect width="14.465" height="1.005" rx="0.033" fill="#c8baae"/></g></g><g transform="translate(0.001 29.886)"><path d="M292.428,144.576h20.137a.5.5,0,0,0,.5-.5h0a.5.5,0,0,0-.5-.5H292.428a.5.5,0,0,0-.5.5h0A.5.5,0,0,0,292.428,144.576Z" transform="translate(-291.926 -143.572)" fill="#c8baae"/><g transform="translate(0 4.126)"><path d="M292.428,147.669h20.137a.5.5,0,0,0,.5-.5h0a.5.5,0,0,0-.5-.5H292.428a.5.5,0,0,0-.5.5h0A.5.5,0,0,0,292.428,147.669Z" transform="translate(-291.926 -146.665)" fill="#c8baae"/></g><g transform="translate(0 8.252)"><path d="M292.428,150.764h20.137a.5.5,0,0,0,.5-.5h0a.5.5,0,0,0-.5-.5H292.428a.5.5,0,0,0-.5.5h0A.5.5,0,0,0,292.428,150.764Z" transform="translate(-291.926 -149.758)" fill="#c8baae"/></g><g transform="translate(0 12.378)"><path d="M292.428,153.857h20.137a.5.5,0,0,0,.5-.5h0a.5.5,0,0,0-.5-.5H292.428a.5.5,0,0,0-.5.5h0A.5.5,0,0,0,292.428,153.857Z" transform="translate(-291.926 -152.851)" fill="#c8baae"/></g><g transform="translate(0 16.504)"><path d="M292.428,156.95h20.137a.5.5,0,0,0,.5-.5h0a.5.5,0,0,0-.5-.5H292.428a.5.5,0,0,0-.5.5h0A.5.5,0,0,0,292.428,156.95Z" transform="translate(-291.926 -155.944)" fill="#c8baae"/></g><g transform="translate(0 20.631)"><path d="M292.428,160.042h20.137a.5.5,0,0,0,.5-.5h0a.5.5,0,0,0-.5-.5H292.428a.5.5,0,0,0-.5.5h0A.5.5,0,0,0,292.428,160.042Z" transform="translate(-291.926 -159.038)" fill="#c8baae"/></g><g transform="translate(0 24.757)"><path d="M292.428,163.135h20.137a.5.5,0,0,0,.5-.5h0a.5.5,0,0,0-.5-.5H292.428a.5.5,0,0,0-.5.5h0A.5.5,0,0,0,292.428,163.135Z" transform="translate(-291.926 -162.131)" fill="#c8baae"/></g></g></g><g transform="translate(96.113 30.601)"><g transform="translate(0)"><path d="M219.255,148.93a29.1,29.1,0,0,0,7.526,19.576l21.7-19.576,1.383-29.185c-.452-.028-.918-.036-1.383-.036A29.222,29.222,0,0,0,219.255,148.93Z" transform="translate(-219.255 -119.709)" fill="#314fa5"/></g></g><g transform="translate(43.151 25.437)"><g transform="translate(0 15.093)"><g transform="translate(15.206 11.91)"><g transform="translate(0.001)"><rect width="9.304" height="39.864" fill="#5880eb"/></g><g transform="translate(0 24.545)"><path d="M272.831,159.287a36.32,36.32,0,0,1-9.3-4.806V169.8h9.3Z" transform="translate(-263.527 -154.481)" fill="#314fa5"/></g></g><g transform="translate(30.413 22.988)"><g transform="translate(0)"><rect width="9.304" height="28.787" fill="#5880eb"/></g><g transform="translate(0 18.656)"><path d="M253.849,158.662a16.626,16.626,0,0,1-1.722.159V168.5h9.3v-9.591A16.8,16.8,0,0,0,253.849,158.662Z" transform="translate(-252.127 -158.371)" fill="#314fa5"/></g></g><g transform="translate(0)"><g transform="translate(0)"><rect width="9.304" height="51.775" fill="#5880eb"/></g><g transform="translate(0 28.375)"><path d="M274.926,148.424v23.4h9.3V152.4C280.923,150.151,277.841,148.412,274.926,148.424Z" transform="translate(-274.926 -148.424)" fill="#314fa5"/></g></g></g><g transform="translate(0.376)"><path d="M251.7,115.838l8.4,1.8-2.254,2.212,12.855,13.1,4.511-4.425,15.951,16.263a1.573,1.573,0,0,1-.021,2.225h0a1.572,1.572,0,0,1-2.225-.021l-13.749-14.016-4.51,4.425L255.6,122.054l-2.254,2.21Z" transform="translate(-251.7 -115.838)" fill="#5880eb"/></g></g><g transform="translate(0.001 0)"><path d="M189.625,111.9H355.867V98.793a2.024,2.024,0,0,0-2.025-2.024H191.649a2.023,2.023,0,0,0-2.024,2.024Z" transform="translate(-189.625 -96.769)" fill="#171612"/></g><g transform="translate(6.562 4.635)"><g transform="translate(16.306)"><g transform="translate(0)"><path d="M293.43,102.7a2.452,2.452,0,1,0,2.452-2.452A2.451,2.451,0,0,0,293.43,102.7Z" transform="translate(-293.43 -100.244)" fill="#c8baae"/></g></g><g transform="translate(0)"><path d="M305.654,102.7a2.452,2.452,0,1,0,2.452-2.452A2.451,2.451,0,0,0,305.654,102.7Z" transform="translate(-305.654 -100.244)" fill="#c8baae"/></g><g transform="translate(7.909)"><g transform="translate(0)"><path d="M299.725,102.7a2.452,2.452,0,1,0,2.452-2.452A2.451,2.451,0,0,0,299.725,102.7Z" transform="translate(-299.725 -100.244)" fill="#c8baae"/></g></g></g></g></g></g></svg>