<svg xmlns="http://www.w3.org/2000/svg" width="63" height="63" viewBox="0 0 63 63"><g transform="translate(-246 -8027)"><path d="M31.5,0A31.5,31.5,0,1,1,0,31.5,31.5,31.5,0,0,1,31.5,0Z" transform="translate(246 8027)" fill="#7b1fa2"/><g transform="translate(-507.168 7503.585)"><path d="M806.3,549.59a.966.966,0,0,1-.959.5c-1.982-.017-3.964,0-5.947-.012a.54.54,0,0,0-.493.24,5.675,5.675,0,0,1-3.485,2.323,2.571,2.571,0,0,1-.8.057,1,1,0,0,0-.908.382q-3.269,3.3-6.563,6.575c-.514.514-.861.513-1.373,0l-12.99-12.987c-.581-.581-.579-.847.009-1.435q3.658-3.657,7.318-7.313c.18-.18.383-.338.575-.506h.422c.186.157.384.3.557.473.652.642,1.29,1.3,1.947,1.933a.458.458,0,0,0,.381.106c.909-.308,1.82-.615,2.71-.972a5.881,5.881,0,0,1,4.841.124c.988.455,1.957.955,2.924,1.454.7.36,1.37.766,2.068,1.123a3.1,3.1,0,0,0,1.477.334c.127-.72.292-.87.93-.875.211,0,.422,0,.633,0h1.138c0-.162,0-.266,0-.37.008-.732.217-.942.945-.942,1.231,0,2.463.013,3.694-.007a.924.924,0,0,1,.951.505Zm-21.382-8.482a1.451,1.451,0,0,0,.1.133c.8.8,1.589,1.6,2.391,2.385a.928.928,0,0,0,.361.2c1.192.384,2.387.759,3.581,1.139.412.131.829.252,1.234.406a.68.68,0,0,1,.4.866.7.7,0,0,1-.81.462,2.9,2.9,0,0,1-.336-.1q-2.963-.936-5.927-1.872a1.361,1.361,0,0,0-1.651.581,1.312,1.312,0,0,0,.255,1.7,2.824,2.824,0,0,0,.927.542c1.722.606,3.459,1.173,5.181,1.78a1.779,1.779,0,0,1,.69.493,4.043,4.043,0,0,0,4.084,1.376,4.234,4.234,0,0,0,2.572-2,.575.575,0,0,0,.068-.3c0-1.724,0-3.448.007-5.172,0-.22-.059-.307-.291-.324a5.936,5.936,0,0,1-2.4-.738c-1.487-.794-2.975-1.588-4.488-2.329a4.19,4.19,0,0,0-3.252-.207C786.723,540.419,785.84,540.768,784.916,541.109Zm-8.2,2.263a4.517,4.517,0,0,1,0,5.167l7.146,7.15a4.573,4.573,0,0,1,5.174,0l1.6-1.6a4.525,4.525,0,0,1-.8-2.922c.042-.614.047-.613-.544-.814l-1.728-.586c-.056.152-.1.261-.136.369a4.008,4.008,0,1,1-4.768-5.285.821.821,0,0,0,.413-.318,2.907,2.907,0,0,1,1.6-1.2c.1-.03.194-.058.351-.1-.452-.445-.876-.847-1.279-1.269a.322.322,0,0,0-.5-.063,4.119,4.119,0,0,1-3.2.581,15.27,15.27,0,0,1-1.813-.645Zm28.153,5.3v-7.446h-2.732v7.426c.074.008.13.02.187.02Zm-22.189-2.324a2.57,2.57,0,0,0-1.522,3.022,2.6,2.6,0,0,0,2.73,1.958,2.482,2.482,0,0,0,2.275-2.063C784.592,548.816,783.035,548.311,782.68,546.351Zm16.8-3.808v6.109h1.208v-6.109Zm-14.523,14.17,1.481,1.481,1.5-1.5A2.875,2.875,0,0,0,784.957,556.713Zm-9.289-9.2a2.9,2.9,0,0,0-.006-3.1l-1.549,1.546Zm5.19-8.369-1.407,1.419c-.039.04-.073.086-.109.128a2.8,2.8,0,0,0,3.082.017Zm10.749,13.9.748-.758-1.184-.633Z" transform="translate(-4.097)" fill="#fff"/><path d="M766.168,605.307a1.043,1.043,0,0,1,1.01-.476c1.946.015,3.892,0,5.838.012a.639.639,0,0,0,.582-.282,5.376,5.376,0,0,1,3.5-2.28,5.488,5.488,0,0,1,4.967,1.743,1.358,1.358,0,0,0,.505.344c1.514.527,3.026,1.06,4.554,1.544a3.6,3.6,0,0,1,2.543,2.15c1.085-.3,2.151-.605,3.224-.888a25.794,25.794,0,0,1,2.792-.676,2.732,2.732,0,0,1,2.23,4.664,4.439,4.439,0,0,1-1.452.947c-3.656,1.349-7.327,2.656-11,3.964-.437.156-.9.237-1.353.353h-1.2a13.05,13.05,0,0,1-4.121-1.618c-.833-.425-1.641-.9-2.459-1.352a4,4,0,0,0-1.885-.534c-.111.74-.29.891-1.02.891h-1.655c-.008.145-.018.249-.019.352-.011.749-.217.953-.969.954-1.241,0-2.483-.008-3.724.005a.856.856,0,0,1-.9-.528Zm8.252,6.205a6.91,6.91,0,0,1,3.561,1.251c.311.187.628.366.952.529.911.456,1.813.935,2.745,1.343a4.8,4.8,0,0,0,3.754-.036c3.5-1.3,7.025-2.535,10.541-3.794a2.194,2.194,0,0,0,1.137-.844,1.326,1.326,0,0,0-.925-2.061,2.5,2.5,0,0,0-.934.082c-1.73.463-3.453.952-5.182,1.422a.533.533,0,0,0-.421.394,2.689,2.689,0,0,1-3.095,1.835,22.89,22.89,0,0,1-2.32-.692c-1.4-.438-2.794-.872-4.181-1.337a.936.936,0,0,1-.547-.47.8.8,0,0,1,.151-.692.819.819,0,0,1,.685-.182c1.038.287,2.06.629,3.086.954,1.049.332,2.1.673,3.147,1a1.368,1.368,0,0,0,1.62-.587,1.319,1.319,0,0,0-.269-1.723,3.015,3.015,0,0,0-.966-.546c-1.711-.6-3.436-1.167-5.148-1.768a1.578,1.578,0,0,1-.639-.447,3.98,3.98,0,0,0-6.576.44,1.022,1.022,0,0,0-.169.548c-.012,1.665-.007,3.331-.007,5Zm-4.07,2.187v-4.59c0-.855.005-1.71-.007-2.565,0-.1-.095-.281-.149-.282-.863-.018-1.727-.012-2.6-.012v7.45Zm2.636-1.313v-6.112h-1.194v6.112Z" transform="translate(0 -42.978)" fill="#fff"/><path d="M838.463,563.947a.685.685,0,0,1-.69.691.7.7,0,1,1,.008-1.39A.687.687,0,0,1,838.463,563.947Z" transform="translate(-47.02 -17.133)" fill="#fff"/><path d="M798.816,617.656a.708.708,0,0,1,.7.69.724.724,0,0,1-.724.711.706.706,0,0,1-.675-.716A.685.685,0,0,1,798.816,617.656Z" transform="translate(-21.191 -53.219)" fill="#fff"/></g></g></svg>