<svg xmlns="http://www.w3.org/2000/svg" width="57" height="57" viewBox="0 0 57 57"><g transform="translate(-297 -1699)"><circle cx="28.5" cy="28.5" r="28.5" transform="translate(297 1699)" fill="#7b1fa2"/><g transform="translate(-420.68 -273.183)"><path d="M746.37,1998.04v2.391h.229q2.028,0,4.056,0a.553.553,0,0,1,.569.732.564.564,0,0,1-.581.375q-1.358,0-2.716,0h-1.555v2.392h.219q1.479,0,2.958,0a.55.55,0,0,1,.6.528.544.544,0,0,1-.529.578c-.124.007-.248,0-.372,0H730.458c-.093,0-.187,0-.279-.006a.541.541,0,0,1-.5-.532c0-.049,0-.1,0-.149v-19.48c0-.505.188-.691.7-.691l14.531,0,12.3,0c.406,0,.638.178.672.515a1.077,1.077,0,0,1,0,.112q0,3.321,0,6.642a.552.552,0,0,1-.533.614.537.537,0,0,1-.572-.552c-.009-.31,0-.62,0-.93V1985.3h-25.98v11.624h1.365c0-.058.008-.112.008-.166q0-3.582,0-7.163c0-.459.173-.644.627-.668a1.583,1.583,0,0,0,1.5-1.542.543.543,0,0,1,.583-.581q1.832-.005,3.665,0a.538.538,0,0,1,.568.458.531.531,0,0,1-.334.6.861.861,0,0,1-.291.041c-.974,0-1.947,0-2.921,0h-.211l-.052.166a2.652,2.652,0,0,1-1.86,1.862c-.118.036-.171.074-.171.209q.006,3.33,0,6.66c0,.037,0,.073.009.123h5.777c-.107-.4-.235-.8-.314-1.205a8.8,8.8,0,0,1,.922-6.224,5.51,5.51,0,0,1,2.171-2.192,4.081,4.081,0,0,1,4.625.495,6.783,6.783,0,0,1,2.223,3.594,9.124,9.124,0,0,1-.156,5.384c-.016.046-.027.093-.047.161h.232c1.116,0,2.233,0,3.349,0a.553.553,0,1,1,.025,1.1c-.049,0-.1,0-.149,0H746.37Zm-2.6-1.109c1.11,0,2.219,0,3.328,0a.229.229,0,0,0,.255-.174,8,8,0,0,0-.013-5.915,4.946,4.946,0,0,0-1.791-2.366,2.94,2.94,0,0,0-2.651-.439,3.72,3.72,0,0,0-2.064,1.648,7.743,7.743,0,0,0-.61,7.127c.043.118.121.117.217.117Zm-2.594,3.493v-2.372H730.8v2.372Zm0,1.125H730.8v2.373H741.18Zm4.076-3.5H742.31v5.866h2.947Z" transform="translate(0 0)" fill="#fff"/><path d="M786.379,2038.245l-.175-.142a6.246,6.246,0,0,1-2.517-5.423,8.991,8.991,0,0,1,.416-2.016q.627-2.275,1.253-4.551a2.372,2.372,0,0,1,1.278-1.56.2.2,0,0,0,.137-.208c-.008-.359,0-.719-.005-1.079a.2.2,0,0,0-.093-.147,1.186,1.186,0,0,1-.711-1.147q0-1.358,0-2.716a.555.555,0,0,1,.634-.624c.13,0,.261.008.39.021s.243.036.375.056v-2.481a2.737,2.737,0,0,1-2.067-2.079h-.2c-.992,0-1.985,0-2.977,0a.543.543,0,0,1-.562-.718.535.535,0,0,1,.537-.378c.732,0,1.464,0,2.2,0,.478,0,.955,0,1.432,0a.56.56,0,0,1,.635.607,1.578,1.578,0,0,0,1.5,1.517c.44.024.624.215.624.656,0,1.048,0,2.1,0,3.144a.249.249,0,0,0,.137.251,4,4,0,0,1,1.351,1.367l.141-.2a3.92,3.92,0,0,1,3.253-1.759.537.537,0,0,1,.609.588c0,.937.007,1.873,0,2.81a1.161,1.161,0,0,1-.691,1.083.219.219,0,0,0-.105.156c-.008.359,0,.719,0,1.079a.187.187,0,0,0,.123.2,2.4,2.4,0,0,1,1.3,1.59c.5,1.817,1.03,3.623,1.486,5.45a6.251,6.251,0,0,1-5.074,7.672,6.576,6.576,0,0,1-1.055.086q-7.954.008-15.908,0c-.418,0-.668-.208-.667-.555a.543.543,0,0,1,.5-.545c.068-.005.136,0,.2,0h12.3Zm1.494-13.942c.368,0,.714,0,1.059,0a.562.562,0,0,1,.58.555.555.555,0,0,1-.581.55c-.372,0-.744,0-1.116,0a1.318,1.318,0,0,0-1.418,1.081c-.38,1.385-.77,2.768-1.14,4.156a12.3,12.3,0,0,0-.442,1.934,5.18,5.18,0,1,0,10.166-.844c-.483-1.787-.982-3.571-1.475-5.355a1.291,1.291,0,0,0-1.275-.972c-.409,0-.818,0-1.228,0a.554.554,0,1,1,0-1.106c.186,0,.372,0,.558,0h.5c0-.319,0-.6,0-.889,0-.141-.067-.2-.206-.2q-1.888,0-3.776,0c-.141,0-.206.063-.206.2C787.873,2023.7,787.873,2023.987,787.873,2024.3Zm2.706-2.212a.318.318,0,0,0,.063.015c.694,0,1.387,0,2.08,0,.137,0,.145-.075.145-.179,0-.613,0-1.226,0-1.839v-.291A2.849,2.849,0,0,0,790.578,2022.091Zm-1.234.017a2.836,2.836,0,0,0-2.276-2.3q0,1.087,0,2.174c0,.133.09.125.179.125h2.1Z" transform="translate(-33.086 -21.861)" fill="#fff"/><path d="M783.838,2005.964a.556.556,0,0,1-.54.572.539.539,0,0,1-.563-.524.668.668,0,0,0-.478-.64.774.774,0,0,0-.83.167.571.571,0,0,0-.167.628.677.677,0,0,0,.574.467c.189.031.384.028.571.068a1.788,1.788,0,0,1,1.43,1.6,1.765,1.765,0,0,1-1.158,1.751.2.2,0,0,0-.151.194.548.548,0,0,1-1.092-.014c-.009-.126-.077-.148-.164-.183a1.766,1.766,0,0,1-1.145-1.594.553.553,0,1,1,1.1-.067.751.751,0,0,0,1.1.612.625.625,0,0,0,.395-.582.615.615,0,0,0-.408-.589,1.12,1.12,0,0,0-.4-.077,1.83,1.83,0,0,1-1.776-1.488,1.764,1.764,0,0,1,1.147-1.932.273.273,0,0,0,.135-.161.561.561,0,0,1,.544-.448.526.526,0,0,1,.54.442.228.228,0,0,0,.174.184A1.775,1.775,0,0,1,783.838,2005.964Z" transform="translate(-38.199 -14.801)" fill="#fff"/><path d="M834.369,2094.017a2.3,2.3,0,0,1-1.081-.635,1.989,1.989,0,0,1-.555-1.305.555.555,0,1,1,1.1-.056,1.027,1.027,0,0,0,.957.948,1.1,1.1,0,0,0,1.171-.7.971.971,0,0,0-.812-1.23c-.219-.038-.446-.031-.664-.071a2.118,2.118,0,0,1-1.755-1.886,2.084,2.084,0,0,1,1.48-2.12c.111-.037.154-.078.159-.2a.55.55,0,0,1,1.1,0c.006.121.048.163.158.2a2.074,2.074,0,0,1,1.477,1.785c.055.421-.161.719-.516.732a.55.55,0,0,1-.583-.564,1.024,1.024,0,0,0-.947-.956,1.1,1.1,0,0,0-1.183.7.972.972,0,0,0,.822,1.223c.22.036.446.031.664.072a2.114,2.114,0,0,1,1.749,1.912,2.079,2.079,0,0,1-1.475,2.086.2.2,0,0,0-.166.234.541.541,0,0,1-.559.583.549.549,0,0,1-.545-.582C834.368,2094.138,834.369,2094.083,834.369,2094.017Z" transform="translate(-78.042 -77.289)" fill="#fff"/></g></g></svg>