<svg xmlns="http://www.w3.org/2000/svg" width="57" height="57" viewBox="0 0 57 57"><g transform="translate(-297 -1699)"><circle cx="28.5" cy="28.5" r="28.5" transform="translate(297 1699)" fill="#7b1fa2"/><g transform="translate(84.731 1343.804)"><g transform="translate(222.487 365.423)"><path d="M257.8,437.849H259v1.191H239.539V440.7a1.84,1.84,0,0,1-1.657,2.006,1.866,1.866,0,0,1-.356,0H224.519a1.845,1.845,0,0,1-2.021-2.034q0-6.846-.006-13.692a2.157,2.157,0,0,1,.67-1.631q1.962-1.937,3.9-3.9a2.117,2.117,0,0,1,1.6-.659c2.877.011,5.757.051,8.634-.014a2,2,0,0,1,2.228,2.425h-1.18c-.006-.117-.016-.238-.017-.36-.006-.642-.193-.827-.847-.828h-8.89v2.761a1.866,1.866,0,0,1-2.1,2.109q-1.331,0-2.662.006a.47.47,0,0,0-.107.042V440.6c0,.724.17.894.894.894h12.818c.724,0,.894-.17.9-.894v-1.5c-.37-.053-.672-.129-.909.318a1.734,1.734,0,0,1-2.037.785,1.82,1.82,0,0,1,.056-3.512,1.774,1.774,0,0,1,2.019.841.528.528,0,0,0,.556.318c1.3-.016,2.609-.007,3.971-.007v-3.5c0-.547.213-.759.759-.76h2.892v-2.409c0-1.2.039-1.242,1.229-1.243q1.16,0,2.32-.007c.022,0,.044-.018.1-.044v-2.712c0-.721.169-.888.9-.888h2.752v-.38c0-.862-.005-1.725,0-2.586a.609.609,0,0,1,.681-.683q1.748-.01,3.5,0c.486,0,.686.243.686.794v14.434Zm-3.624-13.99v13.967h2.383V423.859Zm-3.653,3.644v10.312H252.9V427.5Zm-1.257,3.671h-2.388v6.648h2.388Zm-3.654,6.652v-3h-2.39v3.005ZM227.37,422.994l-2.666,2.669c.694,0,1.411.02,2.126-.009a.547.547,0,0,0,.538-.557c0-.01,0-.02,0-.029.009-.694,0-1.388,0-2.074Zm8.53,14.853a.607.607,0,1,0,.6.615v-.01a.613.613,0,0,0-.607-.607Z" transform="translate(-222.487 -406.168)" fill="#fff"/><path d="M278.009,380.365l-2.409,2.414c-.4.4-.8.812-1.211,1.21-1.175,1.143-.623.906-2.267.93-.635.009-1.271,0-1.942,0v10.934h-1.222V384.925c-.426,0-.827-.018-1.224.013-.091.007-.184.177-.249.288a1.827,1.827,0,1,1-2.254-2.607,1.794,1.794,0,0,1,2.256.807.449.449,0,0,0,.459.285c1.572-.013,3.144,0,4.716-.013a.677.677,0,0,0,.434-.151c1.264-1.246,2.516-2.5,3.77-3.76a.881.881,0,0,0,.079-.112,7.89,7.89,0,0,1-3.125-6.307,7.71,7.71,0,0,1,2.011-5.315,7.936,7.936,0,1,1,2.175,12.311Zm3.109-13.629c-2.415-.069-5.092,2.15-5.84,4.812a6.724,6.724,0,0,0,3.144,7.63,6.556,6.556,0,0,0,7.244-.477c-1.4-1.572-2.788-3.149-4.2-4.711a1.307,1.307,0,0,1-.359-.953c.014-1.964.006-3.927.006-5.892Zm1.232,5.989h6.016a6.57,6.57,0,0,0-6.02-5.985Zm4.252,5.2A6.177,6.177,0,0,0,288.333,374h-5.221Zm-20.094,6.387a.606.606,0,1,0-.6.608h.008a.613.613,0,0,0,.6-.6Z" transform="translate(-253.108 -365.423)" fill="#fff"/><path d="M236.212,382.116c.927-.794,1.836-1.562,2.726-2.352a.52.52,0,0,0,.069-.42,1.819,1.819,0,1,1,3.323.528,1.763,1.763,0,0,1-2,.794.7.7,0,0,0-.768.176c-.93.823-1.884,1.618-2.819,2.435a1.191,1.191,0,0,0-.3.457,1.8,1.8,0,0,1-1.573,1.254,1.72,1.72,0,0,1-1.766-.943.42.42,0,0,0-.433-.265q-1.026.021-2.053,0a.39.39,0,0,0-.4.246,1.761,1.761,0,0,1-2.126.887.416.416,0,0,0-.49.133c-.441.455-.886.907-1.345,1.342a.5.5,0,0,0-.153.589,1.683,1.683,0,0,1-.607,1.868,1.7,1.7,0,0,1-1.957.214,1.739,1.739,0,0,1-1.006-1.7,1.8,1.8,0,0,1,2.286-1.676.505.505,0,0,0,.588-.159c.446-.467.919-.91,1.359-1.382a.517.517,0,0,0,.1-.414,1.835,1.835,0,0,1,3.379-1.391.515.515,0,0,0,.368.215c.7.021,1.394.017,2.09,0a.454.454,0,0,0,.332-.151A1.85,1.85,0,0,1,236.212,382.116Zm5.177-3.212a.606.606,0,1,0-.6.615h.009a.61.61,0,0,0,.588-.616ZM228,383.144a.606.606,0,1,0,.634-.576h-.008a.613.613,0,0,0-.625.576Zm6.7-.577a.606.606,0,1,0,.6.613v-.01a.611.611,0,0,0-.6-.6Zm-10.357,4.26a.606.606,0,1,0,.609.6v-.009a.61.61,0,0,0-.609-.594Z" transform="translate(-222.513 -374.019)" fill="#fff"/><path d="M255.3,460.262v1.171h-7.255v-1.171Z" transform="translate(-241.304 -435.257)" fill="#fff"/><path d="M234.135,472.951v-1.17h6.036v1.17Z" transform="translate(-231.064 -443.74)" fill="#fff"/><path d="M265.477,471.785v1.169h-3.609v-1.169Z" transform="translate(-251.485 -443.742)" fill="#fff"/><path d="M236.559,461.437h-2.388v-1.175h2.388Z" transform="translate(-231.091 -435.257)" fill="#fff"/><path d="M234.186,483.3h2.383v1.184h-2.383Z" transform="translate(-231.102 -452.222)" fill="#fff"/></g></g></g></svg>