<svg xmlns="http://www.w3.org/2000/svg" width="57" height="57" viewBox="0 0 57 57"><g transform="translate(-297 -1699)"><circle cx="28.5" cy="28.5" r="28.5" transform="translate(297 1699)" fill="#7b1fa2"/><g transform="translate(-594.054 1317.585)"><path d="M903.054,416.98a1.584,1.584,0,0,1,1.264-1.2.811.811,0,0,0,.723-.592,6.2,6.2,0,0,1,3.126-3.089.815.815,0,0,0,.453-.476c.273-.672.573-1.333.85-2a.332.332,0,0,1,.364-.244,3.049,3.049,0,0,1,2.89,1.788.512.512,0,0,0,.547.34q1.42-.032,2.841,0c.592.011,1.185.068,1.8.106.075-.374.14-.783.242-1.185a8.932,8.932,0,0,1,1.5-3.133q1.636-2.22,3.263-4.447c.07-.1.135-.2.206-.3-.979-.226-1.487-.712-1.559-1.475a1.67,1.67,0,0,1,1.267-1.729c-.363-.218-.694-.428-1.036-.617a.405.405,0,0,1-.242-.411,3.032,3.032,0,0,1,2.345-2.979c.095-.023.191-.044.312-.072-.129-.322.079-.491.284-.66l.051-.042a3.108,3.108,0,0,1,4.676.062c.191.173.382.335.27.623.292.093.572.157.832.269a2.993,2.993,0,0,1,1.8,2.864.444.444,0,0,1-.176.3c-.343.23-.7.436-1.085.666a1.612,1.612,0,0,1-.3,3.186c.075.108.137.2.2.293,1.107,1.51,2.223,3.012,3.319,4.529a8.955,8.955,0,0,1-11.106,13.339l-.285-.13c-.039.07-.08.132-.111.2a6.462,6.462,0,0,1-2.894,3.107.407.407,0,0,0-.249.436,3.151,3.151,0,0,1-.05.786,1.549,1.549,0,0,1-1.5,1.214c-.331.01-.661,0-.991,0a1.6,1.6,0,0,1-1.683-1.441c-.007-.041-.014-.082-.024-.133h-3.11a4.252,4.252,0,0,1-.2.653,1.528,1.528,0,0,1-1.383.917c-.385.017-.771.014-1.157,0a1.527,1.527,0,0,1-1.518-1.535v-.018a1.043,1.043,0,0,0-.668-1.132,6.115,6.115,0,0,1-2.2-1.916.345.345,0,0,0-.226-.147,1.691,1.691,0,0,1-1.685-1.266ZM926.842,402.5c-.694,0-1.388.01-2.082-.006a.494.494,0,0,0-.461.236q-1.9,2.6-3.8,5.2a8.039,8.039,0,0,0-1.488,3.592c-.045.294-.026.479.307.63a6.462,6.462,0,0,1,3.723,7.1.3.3,0,0,0,.191.376l.007,0a7.963,7.963,0,0,0,4.847.766,7.832,7.832,0,0,0,5.264-12.262c-1.3-1.834-2.647-3.629-3.983-5.435a.54.54,0,0,0-.374-.187c-.716-.02-1.433-.011-2.148-.011Zm-6.891,15.3a1.951,1.951,0,0,0,1.736-.788.69.69,0,0,0,.113-.726,5.659,5.659,0,0,0-5.13-3.732c-1.112-.029-2.225-.007-3.337-.012a2.383,2.383,0,0,1-1.063-.062c-.249-.141-.333-.57-.492-.873a3.028,3.028,0,0,0-.166-.285,2.051,2.051,0,0,0-1.092-.81.24.24,0,0,0-.327.09.236.236,0,0,0-.027.072c-.243.6-.517,1.19-.759,1.792a.7.7,0,0,1-.441.436,5.306,5.306,0,0,0-3.165,3.168c-.271.7-.271.7-1.021.7-.488,0-.666.187-.668.686v1.883c0,1.117,0,1.122,1.116,1.127a.426.426,0,0,1,.386.224,5.759,5.759,0,0,0,.981,1.185,20.368,20.368,0,0,0,2.047,1.31.369.369,0,0,1,.235.374c-.016.363-.011.727,0,1.09a.529.529,0,0,0,.577.575c.308.008.617.006.925,0a.543.543,0,0,0,.61-.465.559.559,0,0,0,0-.147c.006-.315,0-.632,0-.952h5.283v.91c0,.47.187.65.667.654.276,0,.55,0,.826,0,.427-.007.615-.2.624-.635,0-.341.015-.686,0-1.024a.344.344,0,0,1,.256-.388,5.507,5.507,0,0,0,3.444-5.057,3.416,3.416,0,0,1-2.416.767c-.08,0-.176.1-.245.17-.74.767-1.475,1.538-2.2,2.294l-.792-.756,1.713-1.68c-1.178-.6-1.563-1.271-1.252-2.152a1.6,1.6,0,0,1,1.788-1.031C919.591,415.94,920.031,416.644,919.951,417.808Zm7.534-18.49c.291-1.3.576-2.577.855-3.854a.307.307,0,0,0-.044-.234,1.9,1.9,0,0,0-2.319-.392c-.673.365-.676.365-.514,1.1.249,1.122.5,2.245.752,3.376Zm-.615,2.128h3.536c.422,0,.663-.187.671-.516s-.241-.541-.679-.541h-7.207a.537.537,0,0,0-.572.5c0,.005,0,.011,0,.016a.528.528,0,0,0,.514.542.456.456,0,0,0,.066,0c1.226,0,2.449,0,3.673,0Zm-1.728-2.076-.681-3.051a1.962,1.962,0,0,0-1.766,1.4.3.3,0,0,0,.139.4l.012.005c.629.36,1.243.744,1.87,1.11a2.43,2.43,0,0,0,.426.143Zm4.1-3.067-.686,3.082a3.171,3.171,0,0,0,.449-.168c.607-.355,1.2-.731,1.814-1.074a.33.33,0,0,0,.193-.425.324.324,0,0,0-.027-.056A1.989,1.989,0,0,0,929.24,396.3Zm-10.418,21.526c.156-.478.118-.771-.125-.941a.487.487,0,0,0-.635.017.478.478,0,0,0-.149.616c.2.414.572.312.909.309Z" transform="translate(0 -0.082)" fill="#fff"/><path d="M903.054,398.123c.841-1.364,1.657-2.743,2.533-4.086a1.408,1.408,0,0,1,2.336,0q1.236,1.852,2.369,3.771a1.329,1.329,0,0,1-1.122,1.968c-.087.006-.173.007-.293.013V406.1h-4.217v-6.317a1.488,1.488,0,0,1-1.6-1.066Zm4.755.595c.429,0,.81.006,1.2,0s.492-.213.29-.538q-1.064-1.707-2.141-3.407c-.236-.374-.564-.367-.8.007q-1.067,1.686-2.12,3.381c-.224.359-.11.555.316.561.38,0,.76,0,1.16,0v6.326h2.1Z" fill="#fff"/><path d="M940.894,418.132h-4.24v-6.3a5.114,5.114,0,0,1-.581-.084,1.309,1.309,0,0,1-.846-1.907q1.144-1.929,2.387-3.8a1.41,1.41,0,0,1,2.318.012q1.235,1.852,2.369,3.771a1.329,1.329,0,0,1-1.112,1.973c-.087.006-.174,0-.295,0Zm-1.06-1.06v-6.328c.406,0,.779,0,1.152,0,.407-.005.527-.2.316-.542q-1.065-1.708-2.141-3.408c-.234-.369-.561-.361-.8.015q-1.066,1.686-2.12,3.381c-.222.356-.107.552.323.555.38,0,.759,0,1.159,0v6.331Z" transform="translate(-23.552 -8.85)" fill="#fff"/><path d="M985.189,440.647v-1.078h1.037v1.06c1.417.511,2.14,1.391,2.108,2.572-.164.013-.334.032-.5.039s-.328,0-.511,0c-.021-.119-.036-.235-.062-.348a1.58,1.58,0,1,0-1.956,1.823c.37.1.748.182,1.117.288a2.6,2.6,0,0,1,.055,5.013c-.072.022-.143.048-.235.078v1.069h-1.049v-1.071a2.728,2.728,0,0,1-1.76-1.247,2.985,2.985,0,0,1-.349-1.866h1.043c0,.2-.005.395,0,.589a1.554,1.554,0,0,0,1.438,1.5,1.573,1.573,0,0,0,1.715-1.309,1.547,1.547,0,0,0-1.146-1.732c-.317-.09-.637-.17-.957-.249a2.607,2.607,0,0,1-.125-5.091Z" transform="translate(-58.86 -33.959)" fill="#fff"/><path d="M920.673,471.535a1.585,1.585,0,1,1-1.6,1.566v-.017A1.592,1.592,0,0,1,920.673,471.535Zm-.024,2.112a.526.526,0,1,0-.523-.53.533.533,0,0,0,.523.53Z" transform="translate(-11.782 -57.478)" fill="#fff"/></g></g></svg>