<svg xmlns="http://www.w3.org/2000/svg" width="63" height="63" viewBox="0 0 63 63"><g transform="translate(-1200 -1264)"><circle cx="31.5" cy="31.5" r="31.5" transform="translate(1200 1264)" fill="#15157c"/><g transform="translate(452.16 128.595)"><path d="M756.017,1212.164a10.276,10.276,0,0,1,14.55,14.406c2.055,2.938,1.219,5.13-2.212,5.729a3.29,3.29,0,0,1-3.337,3.313,3.334,3.334,0,0,1-3.332,3.347c-.628,3.329-2.906,4.237-5.615,2.261a3.266,3.266,0,0,1-5.614-2.239c-2.333-.489-2.934-1.088-3.333-3.352a3.312,3.312,0,0,1-3.329-3.346,3.174,3.174,0,0,1-3.055-2.013,3.235,3.235,0,0,1,.821-3.583,10.522,10.522,0,0,1-2.243-8.58,9.825,9.825,0,0,1,3.144-5.715A10.417,10.417,0,0,1,756.017,1212.164Zm.376,20.882c.133.014.272.025.41.044a2.967,2.967,0,0,1,2.6,1.95,4.429,4.429,0,0,0,1.235,1.755,1.448,1.448,0,0,0,2.186.05,1.489,1.489,0,0,0,.026-2.229c-.135-.143-.277-.279-.416-.418-1.605-1.605-3.22-3.2-4.8-4.828a1.083,1.083,0,0,1-.28-.838.875.875,0,0,1,.613-.561,1.285,1.285,0,0,1,.866.372c1.725,1.687,3.421,3.4,5.131,5.106a1.409,1.409,0,0,0,1.847.275,1.491,1.491,0,0,0,.348-2.471c-1.725-1.738-3.463-3.464-5.19-5.2-.458-.46-.456-.939-.017-1.284.382-.3.746-.251,1.178.178q2.089,2.082,4.171,4.171c.366.366.722.745,1.1,1.1a1.657,1.657,0,0,0,2.241-.058,1.331,1.331,0,0,0,.127-1.961,7.162,7.162,0,0,0-.815-.921c-.856-.837-1.734-1.653-2.587-2.493-.169-.167-.389-.419-.369-.608a1.061,1.061,0,0,1,.413-.77,1.02,1.02,0,0,1,.9.109c.709.593,1.349,1.269,2.037,1.934a8.649,8.649,0,0,0-2.8-13.192,8.57,8.57,0,0,0-9.636,1.313c-1.923,1.815-3.764,3.719-5.615,5.607a1.751,1.751,0,0,0-.425.942,1.57,1.57,0,0,0,.961,1.535,1.415,1.415,0,0,0,1.71-.359q2.493-2.474,4.97-4.964c.659-.659.989-.686,1.665-.022,1.35,1.328,2.676,2.682,4,4.033.431.439.454.862.1,1.217s-.816.335-1.26-.106q-1.654-1.644-3.3-3.3c-.121-.121-.253-.231-.456-.415a5.645,5.645,0,0,1-.39.5q-2.08,2.091-4.168,4.173a3.021,3.021,0,0,1-2.073.993,3.44,3.44,0,0,1-3.132-2.056,2.87,2.87,0,0,1,.708-3.381c1.407-1.424,2.829-2.833,4.243-4.249.12-.12.229-.252.343-.377a8.659,8.659,0,0,0-11.356.337c-3.712,3.459-3.07,8.4-.63,11.869.541-.566,1.039-1.157,1.608-1.667a3.136,3.136,0,0,1,5.168,1.7c.058.272.092.55.137.822a3.264,3.264,0,0,1,2.349.956,3.376,3.376,0,0,1,.956,2.352C755.147,1229.943,756.05,1230.846,756.393,1233.046Zm-3.443-1.717a3.267,3.267,0,0,0-.823.458c-.983.933-1.94,1.9-2.883,2.869a1.573,1.573,0,0,0,.005,2.217,1.528,1.528,0,0,0,2.17-.019c.976-.941,1.926-1.909,2.878-2.874a1.348,1.348,0,0,0,.294-1.622A1.784,1.784,0,0,0,752.951,1231.329Zm-.928,7.708a1.771,1.771,0,0,0,1,1.465,1.461,1.461,0,0,0,1.727-.307q1.44-1.4,2.841-2.836a1.463,1.463,0,0,0-.028-2.184,1.447,1.447,0,0,0-2.184.014c-.931.911-1.864,1.822-2.754,2.772A5.091,5.091,0,0,0,752.022,1239.036Zm-8.176-8.4a1.935,1.935,0,0,0,.716-.309c1.1-1.045,2.184-2.1,3.211-3.213a1.378,1.378,0,0,0-.237-1.966,1.4,1.4,0,0,0-1.979-.119q-1.59,1.509-3.1,3.1a1.388,1.388,0,0,0-.157,1.652A1.536,1.536,0,0,0,743.846,1230.634Zm7.653-.939a2,2,0,0,0-1.137-1.552,1.386,1.386,0,0,0-1.617.338c-.937.929-1.875,1.858-2.8,2.8a1.568,1.568,0,0,0-.02,2.252,1.526,1.526,0,0,0,2.2-.053c.946-.92,1.885-1.848,2.793-2.8A4.9,4.9,0,0,0,751.5,1229.695Zm5.757,10.351c.895.805,1.833.79,2.452-.009a1.5,1.5,0,0,0-.365-2.18Z" transform="translate(23.686 -59.342)" fill="#fff"/></g></g></svg>