<svg xmlns="http://www.w3.org/2000/svg" width="63" height="63" viewBox="0 0 63 63"><g transform="translate(-651 -1275.081)"><path d="M31.5,0A31.5,31.5,0,1,1,0,31.5,31.5,31.5,0,0,1,31.5,0Z" transform="translate(651 1275.081)" fill="#15157c"/><g transform="translate(-437.198 755.666)"><path d="M1104.969,570.441a6.778,6.778,0,0,1-.861-.285,3.1,3.1,0,0,1-1.9-2.959c-.01-2.453,0-4.9,0-7.353v-23.05a3.169,3.169,0,0,1,2.243-3.252,4.031,4.031,0,0,1,1.124-.148c1.575-.016,3.15-.007,4.724-.007h.476q.033-.13.054-.263a1.812,1.812,0,0,1,1.818-1.7q4-.015,8,0c1.052,0,1.712.692,1.883,1.962h.393q2.4,0,4.8,0a3.2,3.2,0,0,1,3.389,3.391q0,3.258,0,6.515v.363l.066.015.992-2.16a1.627,1.627,0,0,1,2.4-.9c.228.1.462.209.691.317a1.582,1.582,0,0,1,.871,2.061q-.028.069-.062.135c-1.071,2.368-2.156,4.73-3.236,7.1-.527,1.153-1.059,2.3-1.574,3.464a1.664,1.664,0,0,0-.14.654q-.011,6.286,0,12.572a3.223,3.223,0,0,1-2.685,3.491.209.209,0,0,0-.06.043Zm15.959-2.477h-.334l-13.793.094a1.8,1.8,0,0,1-1.973-1.959c-.005-.813,0-1.626,0-2.438,0-.513.2-.773.585-.769.368,0,.558.253.559.747v2.439c0,.632.214.842.856.838,4.649-.031,9.3-.07,13.945-.091.333,0,.44-.108.519-.421a17.452,17.452,0,0,1,.81-2.8c1.648-3.723,3.365-7.415,5.048-11.124a1.922,1.922,0,0,0,.168-.764c.011-3.354.007-6.706.009-10.06a1.772,1.772,0,0,1,.046-.49.457.457,0,0,1,.523-.378.468.468,0,0,1,.054.012,1.131,1.131,0,0,1,.493.438c.068.094.028.271.028.41v7.393c0,.119.011.237.017.355.3-.49.493-1.012.766-1.49a6.181,6.181,0,0,0,.734-3.315c-.057-2.654-.015-5.309-.02-7.964a1.946,1.946,0,0,0-1.477-1.972c-.007.1-.019.2-.019.3q0,1.543,0,3.087c0,.342.009.684-.008,1.027a.547.547,0,0,1-.537.557h-.019a.556.556,0,0,1-.566-.513,2.194,2.194,0,0,1-.014-.342v-4.217h-4.8c-.163,1.319-.75,2-1.876,2.01-2.667.032-5.335.025-8,0a1.8,1.8,0,0,1-1.776-1.4,5.591,5.591,0,0,1-.08-.613h-4.822v26.235a3.849,3.849,0,0,1-.01.456.524.524,0,0,1-.5.487.513.513,0,0,1-.58-.389,1.957,1.957,0,0,1-.047-.526q0-12.842,0-25.683v-.491a2,2,0,0,0-1.479,2.153c0,10.073.014,20.145-.011,30.218a2.208,2.208,0,0,0,2.111,2.3q.1,0,.193,0c4.852-.035,9.7-.014,14.556-.014h.43Zm3.753-2.654,8.6-18.836-1.759-.8-8.6,18.836Zm-7.974-32.751h-3.888c-.609,0-.847.242-.852.856,0,.355,0,.711,0,1.067,0,.732.217.945.961.946h4.992c.864,0,1.728.005,2.591-.006.588-.007.833-.262.841-.842.005-.381,0-.762,0-1.141,0-.633-.245-.878-.874-.879q-1.887,0-3.772,0Zm6.506,36.736c1.563,0,3.034,0,4.506,0a2.074,2.074,0,0,0,2.248-2.255q.008-5.063,0-10.127v-.247a.649.649,0,0,0-.21.273c-.385.841-.777,1.679-1.146,2.527a1.709,1.709,0,0,0-.14.656c-.011,1.954,0,3.909-.007,5.863a1.774,1.774,0,0,1-1.936,1.94c-.685,0-1.369,0-2.054.014a.484.484,0,0,0-.333.111c-.309.384-.592.786-.931,1.247Zm4.107-6.8-.063-.007-2.054,4.293c.435,0,.917,0,1.4,0s.715-.228.719-.727c.006-.912,0-1.825,0-2.738q0-.41,0-.818Zm5.479-19.615,1.759.8c.174-.386.354-.746.5-1.12a.424.424,0,0,0-.211-.561l-.021-.009c-.3-.144-.59-.291-.9-.414a.453.453,0,0,0-.614.184.487.487,0,0,0-.024.051c-.163.343-.316.689-.491,1.073Zm-10.176,22.751-.751,3.394.085.036,2.062-2.789Zm9.382-21,1.751.8.317-.708-1.751-.793Z" transform="translate(0 0)" fill="#fff"/><path d="M1133.383,586.2a8.1,8.1,0,1,1,8.109-8.083v.048A8.094,8.094,0,0,1,1133.383,586.2Zm0-15.049a6.952,6.952,0,1,0,6.966,6.94,6.953,6.953,0,0,0-6.966-6.94h0Z" transform="translate(-16.269 -27.177)" fill="#fff"/><path d="M1141.714,586.414v2.036a1.331,1.331,0,0,1-1.468,1.5c-.342,0-.684.014-1.027-.013a1.274,1.274,0,0,1-1.221-1.307c-.01-.721,0-1.442,0-2.209h-1.964c-1.088,0-1.551-.466-1.552-1.549,0-.292,0-.584,0-.875a1.255,1.255,0,0,1,1.244-1.266h.011c.734-.016,1.468,0,2.26,0v-1.918c0-1.159.45-1.61,1.61-1.615.254,0,.508-.009.761,0a1.3,1.3,0,0,1,1.344,1.256c0,.031,0,.063,0,.094.012.71,0,1.419,0,2.179.748,0,1.468-.007,2.187,0a1.189,1.189,0,0,1,1.27.979,6.494,6.494,0,0,1,0,1.738,1.164,1.164,0,0,1-1.2.97C1143.241,586.428,1142.506,586.414,1141.714,586.414Zm-2.573-4.47h0v1.181c0,.537-.2.733-.735.739-.584.006-1.168,0-1.752,0-1.04,0-1.027.006-1.035,1.037,0,.321.124.382.4.377.8-.013,1.6-.008,2.4,0,.519,0,.716.2.719.713,0,.6,0,1.194,0,1.79,0,1.052,0,1.043,1.044,1.032.3,0,.4-.106.391-.4-.016-.812-.011-1.625-.007-2.437,0-.494.2-.693.693-.7.609-.006,1.218,0,1.825,0,1.013,0,1,0,1-1.032,0-.314-.114-.388-.4-.383-.761.015-1.523.006-2.285,0-.678,0-.839-.16-.84-.822,0-.558.01-1.117,0-1.676-.027-1.245.253-1-1.117-1.027-.223,0-.322.076-.314.311.01.426,0,.859,0,1.29Z" transform="translate(-22.733 -33.642)" fill="#fff"/></g></g></svg>