<svg xmlns="http://www.w3.org/2000/svg" width="63" height="63" viewBox="0 0 63 63"><g transform="translate(-408 7925)"><circle cx="31.5" cy="31.5" r="31.5" transform="translate(408 -7925)" fill="#7b1fa2"/><g transform="translate(-2329.839 -10890.482)"><g transform="translate(2752.839 2980.827)"><path d="M2785.611,3027.173c-.052.149-.107.3-.155.446a3.133,3.133,0,0,1-1.6,2.042c.056.072.09.122.131.165a3.591,3.591,0,0,1,.982,2.438c.031,1.962.019,3.925.016,5.888,0,.455-.254.674-.744.675q-4,0-8,0h-.423c0,.274,0,.526,0,.777,0,.535-.225.775-.748.779q-1.552.011-3.1,0c-.477,0-.755-.248-.753-.641s.285-.633.759-.636c.841,0,1.683,0,2.518,0a2.511,2.511,0,0,0-1.3-2.819c-.592-.281-1.23-.467-1.865-.7a2.439,2.439,0,0,1-2.332,1.6,2.394,2.394,0,0,1-2.339-1.568,8.29,8.29,0,0,0-2.191.833,2.187,2.187,0,0,0-.993,1.673c-.038.3-.047.612-.072.954.148.01.26.023.372.023.747,0,1.493,0,2.24,0a.649.649,0,0,1,.722.573.632.632,0,0,1-.687.7c-.789.012-1.578,0-2.368,0-.3,0-.6.009-.9-.008a.627.627,0,0,1-.644-.653c-.013-.286,0-.573,0-.9h-8.465c-.618,0-.825-.208-.826-.825,0-1.771,0-3.542,0-5.312a3.9,3.9,0,0,1,2.513-3.9c.947-.4,1.957-.649,2.935-.977a.494.494,0,0,0,.29-.216c.066-.168-.016-.3-.191-.412a5.36,5.36,0,0,1-2.666-4.765,27.183,27.183,0,0,1,.078-3.322,5.472,5.472,0,0,1,10.88.9c.006.875.021,1.75-.008,2.624a5.359,5.359,0,0,1-2.612,4.54c-.169.109-.274.2-.256.421.021.243.213.2.35.243.305.093.656.295.911.213.218-.071.315-.485.488-.73a4.05,4.05,0,0,1,4-1.816.6.6,0,0,0,.4-.108,3.777,3.777,0,0,0,1.452-2.906c.046-1.054.046-2.111.135-3.161a5.848,5.848,0,0,1,.8-2.474,4.734,4.734,0,0,1,4.753-2.432c2.561.183,4.045,1.9,4.546,4.3a16.79,16.79,0,0,1,.2,3.41,4.391,4.391,0,0,0,.343,1.808,4.489,4.489,0,0,0,2.761,2.363,1.1,1.1,0,0,1,.664.5Zm-26.929,1.815c-.93.314-1.851.583-2.739.934a2.729,2.729,0,0,0-1.827,2.822c.022,1.492,0,2.985.006,4.478,0,.1.009.2.014.31h2.132v-.36c0-.682,0-1.364,0-2.046,0-.511.226-.789.628-.793s.647.276.65.806c0,.629,0,1.258,0,1.887v.492a.921.921,0,0,0,.138.028c1.46,0,2.921.006,4.381-.006a.341.341,0,0,0,.248-.2,3.4,3.4,0,0,1,1.959-2.232c.611-.271,1.259-.456,1.886-.688.127-.047.327-.119.342-.206a.6.6,0,0,0-.174-.656,3.758,3.758,0,0,1-1.4-2.572,16.08,16.08,0,0,1-.009-1.616l-1.229-.336a2.579,2.579,0,0,1-2.449,1.774A2.613,2.613,0,0,1,2758.682,3028.988Zm15.453.048c-.275.074-.538.158-.806.213-.2.041-.265.129-.268.342a10.945,10.945,0,0,1-.094,1.719,3.742,3.742,0,0,1-1.374,2.279c-.223.183-.176.4-.147.609.011.083.183.168.3.209.609.222,1.239.4,1.833.652a3.362,3.362,0,0,1,2.038,2.273c.06.222.185.217.35.216q2.016,0,4.031,0c.092,0,.183-.014.3-.023,0-.15,0-.276,0-.4,0-.725,0-1.45,0-2.175a.588.588,0,0,1,.48-.6.6.6,0,0,1,.7.313,1.194,1.194,0,0,1,.089.463c.009.8,0,1.594,0,2.4h2.116c0-1.794.028-3.563-.012-5.332a2.314,2.314,0,0,0-1.15-1.93,12.426,12.426,0,0,0-3.4-1.229,2.641,2.641,0,0,1-4.989,0Zm-8.754-7.148h-.294a10.806,10.806,0,0,1-5.145-1.052.339.339,0,0,0-.3.052,3.625,3.625,0,0,1-1.479.726c-.38.089-.766.154-1.159.231a4.18,4.18,0,0,0,1.991,4.21,3.959,3.959,0,0,0,4.5-.065A4.16,4.16,0,0,0,2765.381,3021.887Zm7.351-.229a3.962,3.962,0,0,0,1.879,3.918,3.914,3.914,0,0,0,5.9-3.923,6.333,6.333,0,0,0-7.775,0Zm-7.368-1.057a4.208,4.208,0,0,0-1.977-4.241,4.006,4.006,0,0,0-4.547.114,4.156,4.156,0,0,0-1.829,4.049,2.884,2.884,0,0,0,2.113-.935.643.643,0,0,1,.98-.153A9.133,9.133,0,0,0,2765.364,3020.6Zm15.167-.277a6.985,6.985,0,0,0-.567-2.664,3.736,3.736,0,0,0-6.336-.464,6,6,0,0,0-.889,2.961c0,.071.087.206.147.214a2.833,2.833,0,0,0,2.935-1.109c.09-.131.164-.274.25-.408a.64.64,0,0,1,1.128,0c.051.081.095.167.143.249A2.8,2.8,0,0,0,2780.531,3020.325Zm-11.585,12.934a2.814,2.814,0,0,0,2.828-2.486.311.311,0,0,0-.157-.371,5.067,5.067,0,0,0-5.29.017.381.381,0,0,0-.151.3A2.8,2.8,0,0,0,2768.946,3033.258Zm12.267-8.37a12.717,12.717,0,0,1-1.436,1.44,1.11,1.11,0,0,0-.539,1.125.346.346,0,0,0,.291.366c.935.283,1.864.586,2.8.881a.59.59,0,0,0,.185.037,1.726,1.726,0,0,0,1.644-1.352C2782.078,3026.114,2782.078,3026.114,2781.213,3024.888Zm-9.5,4.1a2.8,2.8,0,0,0-2.859-2.263,2.746,2.746,0,0,0-2.6,2.257A6.489,6.489,0,0,1,2771.71,3028.993Zm3.6-1.695c0,.323-.01.652,0,.98a1.328,1.328,0,0,0,1.127,1.246,1.265,1.265,0,0,0,1.419-.834,8.157,8.157,0,0,0,.151-1.4c-.511.05-.932.124-1.354.123S2775.785,3027.343,2775.305,3027.3Zm-3.188-2.478-.956,1.26a4.267,4.267,0,0,1,1.639,1.991l1.223-.344c0-.3.009-.565,0-.83a.333.333,0,0,0-.106-.238A5.533,5.533,0,0,1,2772.117,3024.82Zm-12.227,3.078a1.356,1.356,0,0,0,.618,1.445,1.306,1.306,0,0,0,1.473-.066,1.368,1.368,0,0,0,.531-1.379Zm7.938,6.575a1.136,1.136,0,0,0,.489,1.261,1.217,1.217,0,0,0,1.36-.042,1.134,1.134,0,0,0,.455-1.219Z" transform="translate(-2752.839 -3008.078)" fill="#fff"/><path d="M2819.945,2981.518a2.8,2.8,0,0,1,2.068-.68,2.673,2.673,0,0,1,2.4,1.735,2.578,2.578,0,0,1-.5,2.916c-1.134,1.185-2.341,2.3-3.527,3.435a.607.607,0,0,1-.915-.013c-1.131-1.084-2.27-2.16-3.379-3.267a2.8,2.8,0,0,1-.137-3.875,2.828,2.828,0,0,1,3.842-.351C2819.842,2981.449,2819.886,2981.477,2819.945,2981.518Zm0,6.071c1.02-.988,2.028-1.938,3-2.921a1.5,1.5,0,0,0-.013-2.087,1.55,1.55,0,0,0-2.114-.113c-.155.13-.289.284-.443.415a.639.639,0,0,1-.872,0c-.138-.117-.262-.251-.4-.371a1.546,1.546,0,0,0-2.138.051,1.51,1.51,0,0,0-.013,2.134C2817.927,2985.666,2818.928,2986.608,2819.943,2987.589Z" transform="translate(-2803.509 -2980.827)" fill="#fff"/><path d="M2835.861,3147.126a.631.631,0,0,1-.632-.622.638.638,0,1,1,1.276.014A.627.627,0,0,1,2835.861,3147.126Z" transform="translate(-2819.735 -3114.827)" fill="#fff"/><path d="M2789.907,3065.38a2.213,2.213,0,0,1-1.461-.559.645.645,0,0,1-.108-.913.631.631,0,0,1,.913-.077.924.924,0,0,0,1.3,0,.632.632,0,0,1,.914.068.656.656,0,0,1-.123.937A2.223,2.223,0,0,1,2789.907,3065.38Z" transform="translate(-2781.545 -3048.094)" fill="#fff"/></g></g></g></svg>