<svg xmlns="http://www.w3.org/2000/svg" width="63" height="63" viewBox="0 0 63 63"><g transform="translate(-683 7925)"><circle cx="31.5" cy="31.5" r="31.5" transform="translate(683 -7925)" fill="#7b1fa2"/><g transform="translate(-2304.539 -10896.141)"><g transform="translate(2996.539 2981.14)"><path d="M3002.032,3082.55a2.179,2.179,0,0,1-1.267-1.436c-1.332-3.592-2.689-7.174-4.037-10.76a1.606,1.606,0,0,1,1.08-2.378l11.789-4.442a1.547,1.547,0,0,1,2.275.849c.435-.177.878-.355,1.318-.537.813-.335,1.637-.647,2.436-1.015a7.827,7.827,0,0,1,3.313-.666c1.791,0,3.582.022,5.372-.018a3.151,3.151,0,0,1,3.294,1.667c1.073-.889,2.109-1.749,3.146-2.608,1.357-1.123,2.7-2.27,4.08-3.361a3.087,3.087,0,0,1,3.463-.5,2.991,2.991,0,0,1,1.36,4,4.649,4.649,0,0,1-.751,1.178q-4.779,5.163-9.6,10.29a6.256,6.256,0,0,1-4.392,1.888c-.652.035-1.307.01-1.961,0-.466-.006-.754-.257-.755-.634s.288-.62.751-.644c1-.05,2.019-.035,3.01-.18a4.27,4.27,0,0,0,2.494-1.375q3.9-4.171,7.8-8.355c.553-.592,1.115-1.176,1.652-1.782a2.247,2.247,0,0,0,.7-2.169,1.732,1.732,0,0,0-2.849-.808c-1.206.948-2.377,1.941-3.56,2.919-1.348,1.113-2.7,2.225-4.031,3.353a1.263,1.263,0,0,0-.367.581,2.907,2.907,0,0,1-2.537,2.257c-1.686.248-3.369.512-5.054.761a1.365,1.365,0,0,1-.587-.016.558.558,0,0,1-.392-.634.651.651,0,0,1,.625-.594c.589-.093,1.18-.172,1.77-.26,1.179-.177,2.359-.349,3.537-.538a1.647,1.647,0,0,0,1.439-1.643,1.573,1.573,0,0,0-1.621-1.489q-3.58.007-7.159.085a3.7,3.7,0,0,0-1.232.3c-1.359.537-2.705,1.106-4.055,1.665-.064.027-.123.066-.221.119l3.373,8.949c.333-.138.634-.254.927-.385a8.181,8.181,0,0,1,3-.741c.506-.024.818.162.862.551.049.426-.206.7-.742.718a9.241,9.241,0,0,0-3.542,1.055,2.209,2.209,0,0,0,.029.25,1.4,1.4,0,0,1-.924,1.77c-1.375.534-2.758,1.049-4.139,1.568q-4.183,1.572-8.367,3.141c-.024.009-.042.036-.063.054Zm4.34-16.4a1.447,1.447,0,0,0-.189.035c-2.668,1-5.335,2.015-8.007,3.011-.394.147-.384.366-.259.7q2.071,5.473,4.127,10.952c.171.454.241.478.737.291q3.824-1.439,7.647-2.881c.14-.053.274-.122.432-.193Zm5.7,11.486c.885-.335,1.7-.662,2.529-.947.349-.121.426-.256.289-.613-.869-2.262-1.717-4.532-2.571-6.8q-.817-2.168-1.633-4.337c-.073-.194-.133-.4-.409-.294-.9.337-1.8.677-2.713,1.024Z" transform="translate(-2996.539 -3038.883)" fill="#fff"/><path d="M3053.789,3018.216a2.288,2.288,0,0,1-.717,3,9.785,9.785,0,0,1,1.1.485,2.37,2.37,0,0,1,1.221,2.152c0,.638,0,1.277,0,1.948h6.129c0-.514,0-1.008,0-1.5,0-.541.236-.834.641-.828s.63.306.636.846c0,.412,0,.824,0,1.236a1.372,1.372,0,0,1-1.574,1.561q-9.7,0-19.4,0c-.241,0-.483.005-.725-.005a1.3,1.3,0,0,1-1.311-1.3c-.014-2.217-.064-4.436.022-6.65a4.006,4.006,0,0,1,2.394-3.388,5.1,5.1,0,0,1,2.446-.648,16.962,16.962,0,0,1,4.369.209,4.894,4.894,0,0,1,2.559,1.6,1.592,1.592,0,0,0,1.575.248,5.041,5.041,0,0,1,2.751-.768c.952,0,1.905-.012,2.855.043a4.345,4.345,0,0,1,3.892,3.015,6.7,6.7,0,0,1,.134,1.6.608.608,0,0,1-.668.663.618.618,0,0,1-.593-.693,3.334,3.334,0,0,0-.358-1.852,2.935,2.935,0,0,0-2.312-1.426,33.678,33.678,0,0,0-3.908.051A4.494,4.494,0,0,0,3053.789,3018.216Zm-3.283-.57a3.254,3.254,0,0,0-1.985-1.106,32.124,32.124,0,0,0-3.353-.147,6.183,6.183,0,0,0-1.594.207,3.189,3.189,0,0,0-2.525,3.242c.058,1.83.013,3.664.013,5.5v.465h7.343c0-.694-.007-1.359,0-2.024a2.319,2.319,0,0,1,1.131-2.028,9.161,9.161,0,0,1,1.162-.536C3049.447,3019.931,3049.379,3018.934,3050.506,3017.646Zm3.555,8.161c.021-.05.041-.075.041-.1,0-.583.009-1.165.008-1.748a1.2,1.2,0,0,0-1.069-1.362,10.686,10.686,0,0,0-2.325,0,1.056,1.056,0,0,0-.994.923c-.07.755-.018,1.521-.018,2.282Zm-2.149-7.34a.9.9,0,0,0-.916.874.9.9,0,1,0,1.794.035A.894.894,0,0,0,3051.912,3018.468Z" transform="translate(-3029.432 -3006.972)" fill="#fff"/><path d="M3050.86,2984.9a3.747,3.747,0,1,1,3.741,3.74A3.767,3.767,0,0,1,3050.86,2984.9Zm1.28,0a2.47,2.47,0,0,0,2.473,2.459,2.471,2.471,0,1,0-2.473-2.459Z" transform="translate(-3037.877 -2981.14)" fill="#fff"/><path d="M3101.094,2996.908a3.415,3.415,0,1,1,3.417-3.4A3.426,3.426,0,0,1,3101.094,2996.908Zm-.013-1.28a2.118,2.118,0,0,0,2.15-2.111,2.135,2.135,0,1,0-2.15,2.111Z" transform="translate(-3073.507 -2987.942)" fill="#fff"/></g></g></g></svg>