<svg xmlns="http://www.w3.org/2000/svg" width="63" height="63" viewBox="0 0 63 63"><g transform="translate(-1212 -3776)"><circle cx="31.5" cy="31.5" r="31.5" transform="translate(1212 3776)" fill="#7b1fa2"/><g transform="translate(887.228 1806.57)"><path d="M363.89,2054.94c-.535.326-1,.614-1.472.9-.417.249-.784.191-.984-.146s-.068-.689.344-.94c.759-.463,1.524-.917,2.276-1.391a.791.791,0,0,1,.937,0c.752.474,1.518.926,2.276,1.391.423.259.546.6.35.937s-.573.4-1.017.131c-.459-.276-.915-.555-1.416-.861v7.573h8.756a22.7,22.7,0,0,1-.626-2.282,9.8,9.8,0,0,1,2.493-8.9,6.189,6.189,0,0,1,4.706-1.979c1.213.015,2.428.04,3.64,0a6.805,6.805,0,0,1,6.313,3.5,10.352,10.352,0,0,1-.648,11.651,6.56,6.56,0,0,1-5.45,2.593c-1.2-.03-2.4-.034-3.6,0a6.665,6.665,0,0,1-5.8-2.954.791.791,0,0,0-.73-.361c-3.155.013-6.309.008-9.464.008-.706,0-.889-.181-.889-.879q0-3.741,0-7.482Zm26.8,3.375a8.54,8.54,0,0,0-2.121-5.889,4.99,4.99,0,0,0-7.647-.041,8.062,8.062,0,0,0-2.119,5.084,8.343,8.343,0,0,0,2.324,6.813,4.919,4.919,0,0,0,7.219-.015A8.32,8.32,0,0,0,390.693,2058.315Zm-9.737-7.676c-.137-.01-.2-.016-.261-.018a5.227,5.227,0,0,0-4.388,2.014,9.11,9.11,0,0,0-.288,10.844,5.978,5.978,0,0,0,2.416,1.969,4.913,4.913,0,0,0,2.506.363,10.114,10.114,0,0,1,.015-15.172Z" transform="translate(-17.764 -48.175)" fill="#fff"/><path d="M365.473,1997.579c.523-.318.968-.589,1.414-.858.476-.287.846-.247,1.057.11s.069.679-.386.958c-.747.457-1.5.9-2.241,1.37a.788.788,0,0,1-.936,0c-.763-.481-1.54-.94-2.308-1.414-.4-.244-.511-.584-.323-.911.2-.343.568-.406.982-.158.472.282.941.57,1.458.883V1990h-8.429c.194.634.442,1.262.576,1.914a9.943,9.943,0,0,1-2.091,8.941,6.32,6.32,0,0,1-5.121,2.325c-1.212-.024-2.427-.037-3.638,0a6.708,6.708,0,0,1-6.052-3.235,10.3,10.3,0,0,1,.686-12.164,6.457,6.457,0,0,1,5.156-2.346c1.226.023,2.453.034,3.679,0a6.664,6.664,0,0,1,5.773,2.916.8.8,0,0,0,.728.367c3.032-.015,6.064-.009,9.1-.008.755,0,.919.167.919.932q0,3.7,0,7.4Zm-10.123-2.74a9.019,9.019,0,0,0-2.043-6.269,4.992,4.992,0,0,0-7.728-.09,8.479,8.479,0,0,0-2.092,6.78,8.113,8.113,0,0,0,1.932,4.707,5,5,0,0,0,7.808.152A8.051,8.051,0,0,0,355.35,1994.84Zm-9.776-8.081c-.033-.023-.052-.047-.074-.05-.053-.008-.107-.006-.161-.008a5.122,5.122,0,0,0-4.351,2,8.723,8.723,0,0,0-1.692,7.769,7.1,7.1,0,0,0,3.149,4.71,4.942,4.942,0,0,0,3.174.718,10.106,10.106,0,0,1-.046-15.137Z" fill="#fff"/><path d="M447.151,2073.559a14.415,14.415,0,0,1-1.407-1.03,2.107,2.107,0,0,1-.615-1.5.636.636,0,0,1,.568-.745c.37-.031.628.2.672.638a1.356,1.356,0,0,0,.92,1.217,1.51,1.51,0,0,0,1.563-.231,1.188,1.188,0,0,0,.452-1.331,1.38,1.38,0,0,0-1.2-1c-.238-.038-.485-.026-.723-.067a2.65,2.65,0,0,1-2.239-2.283,2.6,2.6,0,0,1,1.789-2.718c.088-.032.176-.062.287-.1.011-.1.014-.206.034-.308a.6.6,0,0,1,.607-.54.552.552,0,0,1,.617.514c.026.278.149.37.39.462a2.543,2.543,0,0,1,1.74,2.183c.061.5-.168.83-.568.862-.382.031-.626-.229-.684-.727a1.465,1.465,0,0,0-1.737-1.227,1.355,1.355,0,0,0-1.191,1.618,1.455,1.455,0,0,0,1.3,1.045,5.364,5.364,0,0,1,1.258.246,2.544,2.544,0,0,1,1.642,2.42,2.626,2.626,0,0,1-1.773,2.379c-.2.072-.356.107-.357.391a.612.612,0,0,1-.63.684c-.367-.006-.6-.264-.62-.7,0-.08-.008-.159-.012-.239Z" transform="translate(-80.903 -58.885)" fill="#fff"/><path d="M379.3,2002.893a.646.646,0,0,1-.57.748.629.629,0,0,1-.68-.639,1.332,1.332,0,0,0-.874-1.2,1.515,1.515,0,0,0-1.569.19,1.2,1.2,0,0,0-.514,1.238,1.331,1.331,0,0,0,1,1.061,2.736,2.736,0,0,0,.638.081,2.7,2.7,0,0,1,2.536,2.167,2.557,2.557,0,0,1-1.735,2.855c-.252.092-.363.19-.361.475a.612.612,0,0,1-1.225-.01c.009-.3-.131-.372-.369-.465a2.529,2.529,0,0,1-1.751-2.259c-.039-.459.184-.756.558-.793s.63.221.684.677a1.407,1.407,0,0,0,1.137,1.255,1.554,1.554,0,0,0,1.656-.659,1.3,1.3,0,0,0-.833-1.917,2.9,2.9,0,0,0-.639-.082,2.7,2.7,0,0,1-2.546-2.2,2.57,2.57,0,0,1,1.775-2.833.4.4,0,0,0,.331-.413.562.562,0,0,1,.593-.545.572.572,0,0,1,.622.555c.01.261.135.331.342.4A2.6,2.6,0,0,1,379.3,2002.893Z" transform="translate(-27.165 -10.691)" fill="#fff"/></g></g></svg>