<svg xmlns="http://www.w3.org/2000/svg" width="63" height="63" viewBox="0 0 63 63"><g transform="translate(-651 -3776)"><path d="M31.5,0A31.5,31.5,0,1,1,0,31.5,31.5,31.5,0,0,1,31.5,0Z" transform="translate(651 3776)" fill="#7b1fa2"/><g transform="translate(-1793.46 541.731)"><g transform="translate(2458.46 3248.269)"><path d="M2461.894,3283.282c-.179-.165-.355-.334-.242-.612s.349-.285.6-.284q2.5.005,4.991,0h.426a4.151,4.151,0,0,1-.292-2.236,16.908,16.908,0,0,1,.175-3.678,8.48,8.48,0,0,1,5.264-6.269c.235-.1.358-.2.32-.465a2.937,2.937,0,0,1,0-.41c0-.594,0-.594-.582-.962.04.241.061.447.111.645a.481.481,0,0,1-.2.6.472.472,0,0,1-.591-.1,9.979,9.979,0,0,1-2.018-2.168l-.206-.3a2.832,2.832,0,0,1-3.443,1.414c-1.3-.387-1.823-1.29-2-3.3-.111.046-.211.083-.307.129a7.522,7.522,0,0,0-4.517,6.824c-.057,1.148-.013,2.3-.01,3.452a1.051,1.051,0,0,0,1.124,1.14c.991.01,1.982,0,2.974,0,.4,0,.6.157.6.442s-.224.452-.6.453c-.991,0-1.982.007-2.974,0a1.928,1.928,0,0,1-2.018-2.024c.007-1.4-.011-2.8.064-4.2a7.5,7.5,0,0,1,1.271-3.67,1.244,1.244,0,0,0,.185-.7c.029-1.047.09-2.093.155-3.138.068-1.091.16-2.181.223-3.272a.647.647,0,0,0-.155-.414,1.982,1.982,0,0,1,.145-2.8.716.716,0,0,0,.2-.458c.022-1.014,0-2.028.027-3.042a5.859,5.859,0,0,1,4.119-5.25,1.649,1.649,0,0,1,1.32.149.444.444,0,0,0,.495.021,2.291,2.291,0,0,1,1.725-.168,6.857,6.857,0,0,1,4.044,2.9.663.663,0,0,1,.14.433c-.031.138-.182.332-.3.348a.657.657,0,0,1-.492-.18c-.251-.26-.433-.586-.677-.855a5.9,5.9,0,0,0-2.974-1.779,1.5,1.5,0,0,0-1.349.291c-.363.279-.486.273-.815-.052a.873.873,0,0,0-.943-.215,4.928,4.928,0,0,0-3.381,4.237c-.07,1.087-.013,2.183-.013,3.312a2.95,2.95,0,0,0,2.246-1.55c.083-.148.141-.312.225-.459a1.406,1.406,0,0,1,1.274-.778c1.059-.008,2.119-.012,3.178-.024a1.454,1.454,0,0,1,1.406.845c.146.279.328.538.516.842a7.693,7.693,0,0,1,5.634-2.235,6.433,6.433,0,0,1,5.321,2.706.494.494,0,0,0,.1-.086,19.573,19.573,0,0,1,3.534-3.923c.3-.284.605-.2.789.179.329.687.621,1.394,1,2.054a3.591,3.591,0,0,0,2.552,1.934,12.548,12.548,0,0,0,1.455.074c0-.212.01-.377,0-.541a14.026,14.026,0,0,0-.223-2.642,5.585,5.585,0,0,0-4.623-4.136,6.183,6.183,0,0,0-5.968,1.706,9.049,9.049,0,0,0-.8,1.017c-.218.294-.45.381-.687.229s-.26-.422-.065-.721a6.907,6.907,0,0,1,5.651-3.274,7.009,7.009,0,0,1,5.059,1.468,6.662,6.662,0,0,1,2.56,5.253c.006.285,0,.57,0,.854a4.382,4.382,0,0,0,.219,1.565,2.1,2.1,0,0,1-1.388,2.746.36.36,0,0,0-.212.174,6.569,6.569,0,0,1-1.986,3.237c.539.345,1.107.656,1.617,1.042a8.506,8.506,0,0,1,3.56,5.986.727.727,0,0,0,.055.156v5.265c-.026.061-.056.12-.077.182a1.816,1.816,0,0,1-1.669,1.357c-1.2.063-2.415.03-3.622.02a.435.435,0,0,1-.433-.561c.077-.263.279-.33.531-.329,1.083,0,2.165.008,3.247,0a1.053,1.053,0,0,0,1.128-1.137c0-1.39.049-2.782-.011-4.169a7.526,7.526,0,0,0-4.456-6.832c-.115-.058-.239-.1-.392-.161,0,.476.006.9,0,1.317a2.875,2.875,0,0,1-.7,1.882,2.831,2.831,0,0,1-4.978-1.714c-.014-.323,0-.648,0-.994a4.692,4.692,0,0,1-.65.273.4.4,0,0,0-.326.361,4.639,4.639,0,0,1-1.64,2.728,1.438,1.438,0,0,0-.623,1.4.549.549,0,0,0,.382.569,8.3,8.3,0,0,1,5.258,6.641,26.542,26.542,0,0,1,.13,3.545,3.445,3.445,0,0,1-.3,1.973h.423q2.6,0,5.2,0c.25,0,.484.008.6.281s-.066.444-.233.615Zm11.2-12.255a7.525,7.525,0,0,0-4.758,6.327,36.328,36.328,0,0,0-.066,3.959,1.049,1.049,0,0,0,1.157,1.074q6.544,0,13.088,0a1.065,1.065,0,0,0,1.166-1.138c.008-1.059.021-2.119,0-3.178a7.566,7.566,0,0,0-2.23-5.311,7.3,7.3,0,0,0-2.6-1.707c-.518,1.848-1.431,2.687-2.891,2.678S2473.587,3272.873,2473.1,3271.026Zm8.486-9.315c0-.556.006-1.091,0-1.626a5.2,5.2,0,0,0-.84-2.844,5.5,5.5,0,0,0-5.257-2.611,6.255,6.255,0,0,0-5.839,4.018,8.417,8.417,0,0,0,.879,8.077c.288.454.651.86.98,1.288a.256.256,0,0,0,.077-.2,11.406,11.406,0,0,1,1.035-5.814,12.786,12.786,0,0,1,3.233-4.187c.479-.432.726-.376,1,.2a18.213,18.213,0,0,0,1.085,2.121A3.413,3.413,0,0,0,2481.585,3261.711Zm-1.29.931a3.716,3.716,0,0,1-2.574-1.28,18.838,18.838,0,0,1-1.274-2.009,6.027,6.027,0,0,1-.281-.6,10.676,10.676,0,0,0-3.726,7.926.625.625,0,0,0,.13.368,4.359,4.359,0,0,0,6.849-.043C2480.435,3265.686,2480.341,3264.181,2480.3,3262.642Zm4.8-9.135a15.246,15.246,0,0,0-3.032,3.436.784.784,0,0,0-.059.815,7.388,7.388,0,0,1,.479,3.315,2.875,2.875,0,0,0,.2,1.465,1.078,1.078,0,0,1,.1.5.387.387,0,0,0,.286.4,4.606,4.606,0,0,0,5.195-1.12c1.275-1.393,1.243-3.077,1.151-4.784a4.46,4.46,0,0,1-3.589-2.545C2485.564,3254.511,2485.343,3254.01,2485.094,3253.507Zm-15.358,3.132c-.248-.386-.492-.729-.7-1.1a.667.667,0,0,0-.658-.383c-1,.015-2,.022-3,.014a.657.657,0,0,0-.683.445,3.786,3.786,0,0,1-2.171,2.1.309.309,0,0,0-.232.348c.012.592,0,1.184.006,1.776a4.727,4.727,0,0,0,2.944,4.342,4.592,4.592,0,0,0,3.208.138A9.069,9.069,0,0,1,2469.736,3256.639Zm4.309,12.6c0,.635-.023,1.213.005,1.789a1.91,1.91,0,0,0,1.664,1.8,1.86,1.86,0,0,0,2.114-1.416,15.511,15.511,0,0,0,.122-2.182A5.476,5.476,0,0,1,2474.045,3269.235Zm12.75-4.859a5.717,5.717,0,0,1-3.852-.016c0,.524-.012,1,0,1.477a1.928,1.928,0,0,0,1.8,1.853,1.9,1.9,0,0,0,2.039-1.659A15.36,15.36,0,0,0,2486.8,3264.376Zm-18.1.818a5.761,5.761,0,0,1-3.517-.061,2.021,2.021,0,0,0,1.57,2.53,1.85,1.85,0,0,0,1.889-.768A1.3,1.3,0,0,0,2468.7,3265.194Zm-5.052-.893a5.678,5.678,0,0,1-2.128-3.32c-.018-.078-.1-.14-.153-.21l-.093.029-.382,5.386Zm-2.263-6.292c-.446-.025-.732.275-.772.772a.961.961,0,0,0,.772,1.037Zm28.971,1.212a1.107,1.107,0,0,0,.71-1.135c-.008-.565-.141-.665-.71-.516Zm-9.1,3.444v1.613a1.146,1.146,0,0,0,.646-1.045C2481.928,3262.7,2481.82,3262.6,2481.249,3262.666Z" transform="translate(-2458.474 -3248.269)" fill="#fff"/><path d="M2458.735,3401.626c-.17-.167-.354-.331-.24-.608s.341-.293.592-.288c.316.007.633,0,.95,0,.255,0,.5-.008.63.281s-.073.438-.223.615Z" transform="translate(-2458.46 -3366.613)" fill="#fff"/><path d="M2606.026,3401.612c-.157-.173-.35-.33-.231-.61s.369-.291.625-.286.5.015.744,0a.663.663,0,0,1,.64.283v.615Z" transform="translate(-2572.797 -3366.599)" fill="#fff"/><path d="M2489.171,3375.958a.5.5,0,0,1-.53.495.52.52,0,0,1-.5-.528.53.53,0,0,1,.538-.5A.513.513,0,0,1,2489.171,3375.958Z" transform="translate(-2481.496 -3346.97)" fill="#fff"/><path d="M2581.128,3375.941a.5.5,0,0,1-.515.511.519.519,0,0,1-.52-.513.528.528,0,0,1,.521-.517A.515.515,0,0,1,2581.128,3375.941Z" transform="translate(-2552.875 -3346.969)" fill="#fff"/><path d="M2527.152,3314.132a.606.606,0,1,1-.592-.741A.673.673,0,0,1,2527.152,3314.132Z" transform="translate(-2510.865 -3298.819)" fill="#fff"/><path d="M2544.761,3314.128a.686.686,0,0,1,.6-.735.763.763,0,1,1-.6.735Z" transform="translate(-2525.449 -3298.82)" fill="#fff"/><path d="M2565.388,3291.373a.7.7,0,0,1,.621-.763.788.788,0,1,1-.621.763Z" transform="translate(-2541.461 -3281.135)" fill="#fff"/><path d="M2586.168,3291.374a.716.716,0,0,1-.617.772.789.789,0,0,1-.006-1.539A.709.709,0,0,1,2586.168,3291.374Z" transform="translate(-2556.633 -3281.134)" fill="#fff"/><path d="M2484.7,3293.258a.663.663,0,0,1-.592.742.753.753,0,0,1-.015-1.469A.655.655,0,0,1,2484.7,3293.258Z" transform="translate(-2477.91 -3282.626)" fill="#fff"/></g></g></g></svg>