<svg xmlns="http://www.w3.org/2000/svg" width="63" height="63" viewBox="0 0 63 63"><g transform="translate(-122 7925)"><path d="M31.5,0A31.5,31.5,0,1,1,0,31.5,31.5,31.5,0,0,1,31.5,0Z" transform="translate(122 -7925)" fill="#7b1fa2"/><g transform="translate(-2623.224 -10433.053)"><g transform="translate(2758.606 2522.435)"><path d="M2775.372,2557.341h-13.766a.3.3,0,0,0-.082-.053,3.481,3.481,0,0,1-2.916-3.641c0-2.453-.007-4.905,0-7.358a9.89,9.89,0,0,1,6.452-9.264c.089-.033.174-.074.286-.122a7.574,7.574,0,0,1,5.452-14.1,7.247,7.247,0,0,1,4.151,3.285,7.545,7.545,0,0,1,.269,7.407h2.584c0-.4,0-.745,0-1.1a1.712,1.712,0,0,1,1.763-1.8q2.3-.031,4.6,0a1.721,1.721,0,0,1,1.772,1.832c0,.348,0,.7,0,1.068h.413q2.606,0,5.211,0a2.8,2.8,0,0,1,.474.03,1.825,1.825,0,0,1,1.463,1.395v15.2a1.982,1.982,0,0,1-2.186,1.425c-4.163-.026-8.327-.01-12.491-.01h-.449c0,.837.025,1.62-.005,2.4a3.369,3.369,0,0,1-1.979,3.06A7.761,7.761,0,0,1,2775.372,2557.341Zm-.482-27.312a6.4,6.4,0,1,0-6.413,6.378A6.405,6.405,0,0,0,2774.89,2530.029Zm9.3,11.613c0,.634.02,1.213,0,1.789a1.724,1.724,0,0,1-1.733,1.7c-.317.01-.635,0-.954,0a1.784,1.784,0,0,1-1.959-1.967c0-.5,0-.992,0-1.5h-2.292c.053.123.088.217.132.306a8.391,8.391,0,0,1,.927,3.285c.067,1.461.052,2.927.07,4.39,0,.225,0,.45,0,.7.128.009.227.022.326.022q6.437,0,12.873,0c.561,0,.762-.2.762-.758q0-4.275,0-8.549c0-.083-.016-.166-.025-.263a3.88,3.88,0,0,1-2.83.848h-5.294Zm-12.524-4.762c.588.281,1.159.51,1.683.819a2.565,2.565,0,0,0,1.517.46c.47-.03.7.376.557.822a.417.417,0,0,0,.068.332c.233.292.514.548.733.85a.7.7,0,0,0,.648.32q6.419-.015,12.837-.007c.125,0,.25,0,.374-.008a2.318,2.318,0,0,0,2.256-2.382c.006-.9,0-1.794,0-2.691,0-.536-.206-.742-.744-.742q-8.444,0-16.889.008a.628.628,0,0,0-.421.2,7.929,7.929,0,0,1-2.388,1.889C2771.819,2536.787,2771.745,2536.833,2771.664,2536.879Zm2.083,19.3c.4,0,.746,0,1.1,0a2.318,2.318,0,0,0,2.369-2.372c.006-2.531.014-5.062,0-7.594a8.435,8.435,0,0,0-1.966-5.423c-.4-.483-.868-.9-1.305-1.354l-.1.056q-1.156,6.01-2.313,12.025A2.944,2.944,0,0,1,2773.747,2556.179Zm-7.985-18.219c-.592.286-1.107.543-1.629.784a.471.471,0,0,0-.292.5q.011,8.276.006,16.552v.359h3.993C2767.15,2550.11,2766.461,2544.084,2765.762,2537.961Zm-3.093,14.725a5.928,5.928,0,0,1-.611,0,.562.562,0,0,1-.531-.595.552.552,0,0,1,.569-.553c.188-.01.376,0,.565,0v-11.648c-.045.013-.071.013-.086.026-.061.052-.12.1-.176.16a8.363,8.363,0,0,0-2.608,5.885c-.064,2.643-.032,5.288-.013,7.933a2.35,2.35,0,0,0,2.893,2.241Zm8.956-14.542c-.059.156-.1.259-.137.364-1.071,3.095-2.136,6.192-3.22,9.283a2.164,2.164,0,0,0-.1,1.031c.049.371.085.744.129,1.115.063.525.128,1.05.194,1.593.528,0,1.015-.013,1.5.005.261.01.376-.056.42-.338.116-.739.272-1.472.413-2.206q.966-5.01,1.936-10.019c.036-.186.01-.3-.172-.377C2772.277,2538.461,2771.974,2538.309,2771.625,2538.144Zm-4.719-.422q.441,3.862.88,7.717l.073,0,2.637-7.627A8.294,8.294,0,0,0,2766.907,2537.722Zm2.107,18.453c.866,0,1.683.026,2.5-.007a1.736,1.736,0,0,0-.055-3.469c-.828-.017-1.657-.006-2.485-.006-.11,0-.22.01-.355.016C2768.751,2553.876,2768.881,2555.011,2769.014,2556.175Zm15.762-22.7c0-.342,0-.668,0-.994,0-.521-.2-.722-.717-.726-.794-.006-1.587,0-2.381,0-.68,0-1.361,0-2.041,0-.384,0-.627.161-.649.463-.03.413-.007.829-.007,1.256Zm-1.756,8.2H2780.7c0,.585-.012,1.139,0,1.692a.566.566,0,0,0,.574.6,10.663,10.663,0,0,0,1.188,0,.528.528,0,0,0,.547-.539C2783.031,2542.844,2783.021,2542.268,2783.021,2541.673Z" transform="translate(-2758.606 -2522.435)" fill="#fff"/><path d="M2889.667,2682.79q-.865,0-.862-.586c0-.391.284-.581.866-.581s.868.18.879.569S2890.269,2682.79,2889.667,2682.79Z" transform="translate(-2867.868 -2656.025)" fill="#fff"/><path d="M2943.9,2682.775c-.056,0-.113,0-.17,0-.424-.016-.69-.25-.681-.6s.263-.554.674-.568a4.026,4.026,0,0,1,.509.007.574.574,0,0,1,.007,1.148,3.084,3.084,0,0,1-.339,0Z" transform="translate(-2913.389 -2656.011)" fill="#fff"/><path d="M2907.811,2681.581a3.461,3.461,0,0,1,.371.027.544.544,0,0,1,.476.569.525.525,0,0,1-.486.557,3.385,3.385,0,0,1-.677.012.561.561,0,0,1-.563-.563.57.57,0,0,1,.573-.589c.1-.009.2,0,.305,0Z" transform="translate(-2883.081 -2655.99)" fill="#fff"/><path d="M2925.918,2681.637a2.641,2.641,0,0,1,.3,0,.563.563,0,0,1,.538.586.554.554,0,0,1-.53.557,3.66,3.66,0,0,1-.61.008.578.578,0,1,1-.008-1.156c.1-.009.2,0,.305,0Z" transform="translate(-2898.271 -2656.03)" fill="#fff"/><path d="M2953.935,2668.018c0-.577.194-.862.585-.854s.575.292.574.874a3.04,3.04,0,0,1,0,.306.593.593,0,0,1-.608.563.579.579,0,0,1-.547-.583C2953.93,2668.223,2953.935,2668.12,2953.935,2668.018Z" transform="translate(-2922.524 -2643.891)" fill="#fff"/><path d="M2953.934,2650.009c0-.1-.006-.2,0-.306a.553.553,0,0,1,.532-.554.562.562,0,0,1,.615.506,3.693,3.693,0,0,1,.009.611.575.575,0,0,1-.592.607.565.565,0,0,1-.566-.626c0-.079,0-.159,0-.238Z" transform="translate(-2922.522 -2628.772)" fill="#fff"/><path d="M2953.937,2606.535c0-.582.187-.865.575-.864s.584.291.584.865a2.715,2.715,0,0,1-.007.34.593.593,0,0,1-.6.54.581.581,0,0,1-.556-.575C2953.931,2606.74,2953.937,2606.637,2953.937,2606.535Z" transform="translate(-2922.525 -2592.286)" fill="#fff"/><path d="M2889.674,2621.276c-.585.009-.866-.177-.869-.566s.285-.591.859-.59a2.428,2.428,0,0,1,.373.015.581.581,0,0,1,.513.581.573.573,0,0,1-.536.557A3.024,3.024,0,0,1,2889.674,2621.276Z" transform="translate(-2867.869 -2604.412)" fill="#fff"/><path d="M2943.927,2621.283c-.591,0-.868-.178-.879-.565s.284-.6.883-.6q.864,0,.862.587C2944.792,2621.1,2944.512,2621.283,2943.927,2621.283Z" transform="translate(-2913.389 -2604.41)" fill="#fff"/><path d="M2871.654,2621.256a3.02,3.02,0,0,1-.339,0,.571.571,0,0,1-.016-1.137,3.35,3.35,0,0,1,.643-.009.577.577,0,1,1-.017,1.154c-.09.007-.181,0-.271,0Z" transform="translate(-2852.751 -2604.392)" fill="#fff"/><path d="M2907.787,2621.278c-.594.008-.855-.17-.854-.574s.271-.584.858-.583a2.36,2.36,0,0,1,.372.017.572.572,0,0,1-.037,1.138A3.272,3.272,0,0,1,2907.787,2621.278Z" transform="translate(-2883.082 -2604.413)" fill="#fff"/><path d="M2925.913,2621.3a3.7,3.7,0,0,1-.372-.019.544.544,0,0,1-.5-.55.52.52,0,0,1,.466-.573,3.023,3.023,0,0,1,.776,0,.569.569,0,0,1-.034,1.128C2926.14,2621.294,2926.026,2621.291,2925.913,2621.3Z" transform="translate(-2898.28 -2604.419)" fill="#fff"/></g></g></g></svg>