<?xml version="1.0" encoding="utf-8"?>
<!-- Generator: Adobe Illustrator 26.0.1, SVG Export Plug-In . SVG Version: 6.00 Build 0)  -->
<svg version="1.1" id="Layer_1" xmlns="http://www.w3.org/2000/svg" xmlns:xlink="http://www.w3.org/1999/xlink" x="0px" y="0px"
	 viewBox="0 0 340 150" style="enable-background:new 0 0 340 150;" xml:space="preserve">
<style type="text/css">
	.st0{fill:#FFFFFF;}
	.st1{fill:#7B1FA2;}
</style>
<g transform="translate(417 0.621)">
	<g transform="translate(-2 -1722.621)">
		<circle class="st0" cx="-244.5" cy="1797.5" r="58.5"/>
		<g transform="translate(134.866 8979.201)">
			<path class="st1" d="M-395.9-7218.8c0.1,0.2,0.3,0.1,0.5,0.2c2.2,0.5,3.9,2.2,4.5,4.3c0.2,0.5,0.4,0.6,0.9,0.6
				c9.4,0,18.8,0,28.2,0c3.6,0,5.9,1.7,6.8,5.2c0.1,0.3,0.3,0.5,0.6,0.6c1.8,0.9,3.5,1.8,5.3,2.6c2.9,1.3,4.5,4.6,3.7,7.7
				c-3.1,15.5-6.2,31-9.3,46.6c-0.2,1.4-0.6,2.8-1.3,4c0,0.1-0.1,0.2-0.1,0.3c-0.1-0.3-0.1-0.3-0.3,0c-0.8,0.9-1.9,1.6-3.1,1.9
				c-0.6,0.2-1.3,0.2-1.9,0.2c-15.2,0-30.4,0-45.5,0c-3.5,0.2-6.5-2.5-6.6-6c0-0.2,0-0.4,0-0.7c0-18.6,0-37.2,0-55.8
				c-0.1-3,1.9-5.7,4.8-6.4c0.2-0.1,0.4-0.1,0.5-0.4c0.6-2.4,2.4-4.2,4.8-4.8c0.1,0,0.1-0.1,0.1-0.1L-395.9-7218.8z M-354.7-7201.5
				c0,0.2,0,0.3,0,0.5c0,12,0,24,0,36c0,0.2-0.1,0.4,0.1,0.6c1.2-5.9,2.4-11.7,3.5-17.6c1-5.3,2.1-10.6,3.1-15.9
				c0.7-1.6,0.1-3.4-1.3-4.4c-1.7-1.1-3.6-2-5.4-2.8L-354.7-7201.5z M-357.3-7179.1c0-9.3,0-18.6,0-27.9c0.2-2.1-1.3-3.9-3.4-4.1
				c-0.2,0-0.5,0-0.7,0c-9.5,0-19,0-28.5,0c-0.5,0-0.7,0.1-0.7,0.7c0,3.9,0,7.9,0,11.8c0,3.9,0,7.9,0,11.8c0,3.5-2.9,6.4-6.4,6.4
				c-3.5,0-6.4-2.9-6.4-6.4c0-0.1,0-0.2,0-0.4c0-6.5,0-13.1,0-19.6c0-0.2,0-0.4,0-0.7c0.1-0.6,0.6-1.1,1.2-1.1c0,0,0,0,0.1,0
				c0.6,0,1.2,0.5,1.2,1.1c0,0,0,0,0,0c0,0.3,0,0.5,0,0.8c0,6.5,0,13,0,19.6c-0.1,1.4,0.5,2.7,1.7,3.4c1.2,0.8,2.7,0.9,4,0.2
				c1.3-0.6,2.1-1.9,2-3.3c0-6.5,0-13,0-19.6c0-1.4,0-2.8,0-4.3c0-0.3,0-0.5-0.5-0.5c-4.6,0-9.2,0-13.8,0c-1.6,0-3,1.1-3.4,2.6
				c-0.1,0.6-0.2,1.1-0.2,1.7c0,18.4,0,36.8,0,55.2c0,0.2,0,0.5,0,0.7c0,2,1.7,3.6,3.7,3.6c1.1,0,2.3,0,3.4,0c0.4,0,0.6-0.1,0.6-0.6
				c0-1,0-2.1,0-3.1c0-0.9,0.5-1.4,1.3-1.4c0.8,0,1.3,0.5,1.3,1.4c0,1,0,2.1,0,3.1c0,0.4,0.1,0.6,0.6,0.6c3.9,0,7.8,0,11.7,0
				c0.5,0,0.6-0.2,0.6-0.6c0-1,0-2.1,0-3.1c0-0.9,0.5-1.4,1.3-1.4c0.8,0,1.2,0.5,1.2,1.4c0,0.6,0,1.2,0,1.8s-0.2,1.4,0.1,1.7
				c0.4,0.4,1.2,0.1,1.8,0.1c0.5,0.1,0.7-0.1,0.7-0.7c0-2.7,0-5.5,0-8.2c-0.1-0.7,0.4-1.3,1.1-1.4c0.2,0,0.4,0,0.5,0.1
				c0.7,0.2,0.9,0.8,0.9,1.4c0,2.3,0,4.5,0,6.8c0,0.6-0.3,1.4,0.1,1.8s1.2,0.1,1.8,0.1c0.5,0,0.6-0.1,0.6-0.6c0-1,0-1.9,0-2.9
				c0-1.1,0.4-1.6,1.3-1.6c0.9,0,1.3,0.5,1.3,1.7c0,0.9,0,1.9,0,2.8c0,0.5,0.1,0.6,0.6,0.6c4.4,0,8.8,0,13.3,0c0.4,0,0.8,0,1.1-0.1
				c1.8-0.4,3-2.1,2.8-4C-357.3-7160.6-357.3-7169.9-357.3-7179.1z M-405.5-7213.7C-405.5-7213.7-405.5-7213.7-405.5-7213.7
				c4,0,7.9,0.1,11.8,0.1c0.4,0,0.4-0.2,0.2-0.4c-0.5-1.2-1.6-2-2.9-2c-2.1-0.1-4.1-0.1-6.2,0C-404-7216-405.2-7215.1-405.5-7213.7
				L-405.5-7213.7z"/>
			<path class="st1" d="M-389.2-7172.7c4.2,0,8.4,0,12.6,0c1.1,0,1.7,0.7,1.4,1.7c-0.1,0.5-0.5,0.8-1,0.8c-0.3,0-0.6,0-0.9,0
				c-8.1,0-16.2,0-24.3,0c-0.3,0-0.5,0-0.8,0c-0.6,0-1.1-0.6-1.1-1.2c0,0,0-0.1,0-0.1c0-0.6,0.5-1.1,1.1-1.2c0,0,0.1,0,0.1,0
				c1.9,0,3.8,0,5.6,0L-389.2-7172.7z"/>
			<path class="st1" d="M-373.9-7167.6c2.5,0,5,0,7.5,0c0.9,0,1.4,0.4,1.4,1.3c0,0.8-0.5,1.3-1.4,1.3c-1.5,0-3.1,0-4.6,0
				c-3.4,0-6.9,0-10.4,0c-0.9,0-1.4-0.3-1.5-1c-0.2-0.7,0.2-1.4,0.9-1.6c0.2,0,0.3-0.1,0.5,0
				C-378.9-7167.7-376.4-7167.6-373.9-7167.6z"/>
			<path class="st1" d="M-373.9-7203.4c2.5,0,5,0,7.5,0c1,0,1.5,0.4,1.5,1.3c0,0.8-0.5,1.3-1.5,1.3c-5,0-9.9,0-14.9,0
				c-1,0-1.5-0.5-1.5-1.3c0-0.8,0.5-1.2,1.5-1.2C-378.8-7203.4-376.4-7203.4-373.9-7203.4z"/>
			<path class="st1" d="M-394.4-7167.6c2.5,0,5,0,7.5,0c1,0,1.5,0.4,1.5,1.3c0,0.8-0.5,1.3-1.5,1.3c-5,0-9.9,0-14.9,0
				c-1,0-1.5-0.5-1.5-1.3c0-0.8,0.5-1.3,1.5-1.3C-399.3-7167.6-396.9-7167.6-394.4-7167.6z"/>
			<path class="st1" d="M-373.9-7188.1c2.5,0,5.1,0,7.6,0c0.7-0.1,1.3,0.4,1.4,1c0,0.2,0,0.3,0,0.5c0,0.5-0.4,0.9-0.9,1
				c-0.3,0.1-0.6,0.1-0.9,0.1c-4.8,0-9.5,0-14.3,0c-0.2,0-0.4,0-0.6,0c-0.7,0-1.2-0.5-1.2-1.2c0,0,0-0.1,0-0.1
				c0-0.6,0.4-1.2,1.1-1.2c0,0,0.1,0,0.1,0c1.1,0,2.1,0,3.2,0L-373.9-7188.1z"/>
			<path class="st1" d="M-373.9-7175.3c-2.5,0-5,0-7.5,0c-1,0-1.5-0.4-1.5-1.3c0-0.8,0.5-1.3,1.5-1.3c5,0,10,0,15,0
				c1,0,1.4,0.5,1.4,1.3c0,0.8-0.5,1.2-1.5,1.2C-368.9-7175.3-371.4-7175.3-373.9-7175.3z"/>
			<path class="st1" d="M-373.9-7190.7c-2.5,0-5.1,0-7.6,0c-0.7,0.1-1.3-0.4-1.4-1.1c0-0.2,0-0.4,0.1-0.6c0.3-0.7,0.8-0.8,1.5-0.8
				c2.3,0,4.7,0,7,0c2.6,0,5.2,0,7.8,0c1,0,1.5,0.4,1.5,1.3c0,0.8-0.5,1.3-1.4,1.3C-368.9-7190.7-371.4-7190.7-373.9-7190.7z"/>
			<path class="st1" d="M-379.1-7195.8c-0.8,0-1.6,0-2.5,0c-0.7,0-1.3-0.6-1.3-1.3c0-0.7,0.6-1.3,1.3-1.3c1.7,0,3.4,0,5.1,0
				c0.7,0,1.3,0.6,1.3,1.3c0,0.7-0.6,1.3-1.3,1.3l0,0C-377.3-7195.7-378.2-7195.8-379.1-7195.8z"/>
			<path class="st1" d="M-368.8-7195.8c-0.8,0-1.6,0-2.5,0c-0.7,0.1-1.3-0.5-1.4-1.2c-0.1-0.7,0.5-1.3,1.2-1.4c0.1,0,0.1,0,0.2,0
				c1.6,0,3.3,0,4.9,0c0.7-0.1,1.3,0.4,1.4,1c0,0.1,0,0.2,0,0.3c0,0.8-0.5,1.2-1.4,1.2C-367.2-7195.8-368-7195.8-368.8-7195.8z"/>
			<path class="st1" d="M-379.1-7180.4c-0.8,0-1.6,0-2.5,0c-0.7,0-1.3-0.5-1.3-1.2c0-0.7,0.5-1.3,1.2-1.3c0,0,0.1,0,0.1,0
				c1.7,0,3.3,0,5,0c0.7,0,1.3,0.5,1.4,1.2c0,0.7-0.5,1.3-1.2,1.4c0,0-0.1,0-0.1,0C-377.4-7180.4-378.2-7180.4-379.1-7180.4z"/>
			<path class="st1" d="M-368.9-7183c0.8,0,1.6,0,2.5,0c0.9,0,1.4,0.4,1.4,1.3s-0.5,1.3-1.4,1.3c-1.6,0-3.3,0-4.9,0
				c-0.7,0.1-1.3-0.4-1.4-1.1c0-0.1,0-0.1,0-0.2c0-0.8,0.5-1.3,1.4-1.3C-370.4-7183-369.6-7183-368.9-7183z"/>
			<path class="st1" d="M-368.8-7172.7c0.8,0,1.7,0,2.5,0c0.7,0,1.3,0.6,1.3,1.2c0,0.7-0.5,1.2-1.2,1.3c-1.8,0-3.5,0-5.3,0
				c-0.6,0-1.2-0.5-1.2-1.1c0-0.1,0-0.1,0-0.2c0-0.7,0.5-1.2,1.1-1.2c0,0,0.1,0,0.1,0C-370.5-7172.8-369.7-7172.7-368.8-7172.7z"/>
		</g>
	</g>
	<path class="st0" d="M-226.5,89c8,0,14.5,6.5,14.5,14.5s-6.5,14.5-14.5,14.5s-14.5-6.5-14.5-14.5S-234.5,89-226.5,89z"/>
	<path class="st1" d="M-226.5,91c-6.9,0-12.5,5.6-12.5,12.5c0,3.3,1.3,6.5,3.7,8.8c4.9,4.9,12.8,4.9,17.7,0c4.9-4.9,4.9-12.8,0-17.7
		C-220,92.3-223.2,91-226.5,91 M-226.5,89c8,0,14.5,6.5,14.5,14.5s-6.5,14.5-14.5,14.5s-14.5-6.5-14.5-14.5S-234.5,89-226.5,89z"/>
	<path class="st1" d="M-228.6,105v6h-3V96.1h5.2c1.4-0.1,2.8,0.3,4,1.2c1,0.8,1.5,2,1.4,3.2c0,0.7-0.2,1.4-0.6,2
		c-0.5,0.6-1.1,1.1-1.8,1.3c0.8,0.2,1.4,0.6,1.9,1.3c0.4,0.7,0.6,1.5,0.6,2.3v1.1c0,0.4,0.1,0.9,0.2,1.3c0.1,0.4,0.3,0.7,0.6,1v0.2
		h-3.1c-0.3-0.3-0.5-0.7-0.5-1.1c-0.1-0.5-0.1-1-0.1-1.5v-1.1c0-0.6-0.2-1.3-0.6-1.7c-0.5-0.4-1.1-0.7-1.7-0.6L-228.6,105z
		 M-228.6,102.7h2.1c0.7,0.1,1.3-0.1,1.9-0.5c0.4-0.4,0.7-1,0.6-1.6c0-0.6-0.2-1.2-0.6-1.6c-0.5-0.4-1.2-0.6-1.8-0.6h-2.2V102.7z"/>
</g>
</svg>
